<?xml version="1.0" standalone="no"?>
<!DOCTYPE svg PUBLIC "-//W3C//DTD SVG 20010904//EN"
 "http://www.w3.org/TR/2001/REC-SVG-20010904/DTD/svg10.dtd">
<svg version="1.0" xmlns="http://www.w3.org/2000/svg"
 width="900.000000pt" height="1035.000000pt" viewBox="0 0 900.000000 1035.000000"
 preserveAspectRatio="xMidYMid meet">

<g transform="translate(0.000000,1035.000000) scale(0.100000,-0.100000)"
fill="#000000" stroke="none">
<path d="M4801 10289 c6 -13 7 -19 1 -15 -6 3 -13 0 -15 -6 -4 -10 -6 -10 -6
0 -1 8 -6 10 -13 5 -15 -9 -26 -11 -93 -19 -27 -3 -53 -11 -57 -18 -6 -8 -8
-8 -8 2 0 6 -4 12 -10 12 -5 0 -6 -7 -3 -17 4 -10 2 -14 -4 -10 -6 4 -14 1
-16 -5 -4 -10 -6 -10 -6 0 -1 10 -4 10 -15 0 -8 -7 -12 -16 -9 -21 2 -4 1 -7
-4 -6 -24 4 -53 -2 -48 -11 4 -6 -5 -10 -19 -10 -14 0 -26 -4 -26 -9 0 -5 -9
-12 -20 -16 -11 -3 -41 -28 -68 -55 -28 -28 -49 -42 -49 -34 0 8 18 32 39 53
42 43 45 48 23 48 -8 0 -15 -4 -15 -9 0 -4 -4 -8 -8 -8 -5 0 -9 6 -9 14 0 8 8
13 19 11 10 -2 18 0 18 5 0 5 7 7 15 4 11 -5 14 -1 9 12 -5 18 -5 18 10 0 9
-11 16 -15 16 -9 0 7 6 13 13 16 6 2 4 3 -7 1 -17 -3 -17 -1 2 17 12 10 26 19
31 19 5 0 12 4 16 9 7 13 -28 6 -62 -12 -16 -8 -41 -21 -58 -28 -16 -7 -63
-35 -103 -62 -41 -27 -76 -46 -79 -43 -4 3 -12 1 -20 -5 -9 -9 -13 -8 -13 0 0
6 4 11 9 11 5 0 20 9 33 20 57 49 122 93 171 115 59 28 40 34 -25 8 -99 -40
-199 -112 -347 -251 -34 -33 -47 -40 -61 -32 -9 5 -20 7 -24 5 -3 -3 -3 -2 0
3 3 4 10 7 15 7 14 0 11 20 -3 21 -7 0 -19 -5 -27 -10 -12 -10 -12 -8 0 12 8
12 15 18 17 12 4 -10 72 54 72 67 0 4 -7 0 -14 -9 -7 -10 -17 -14 -21 -10 -5
4 -5 1 -1 -5 4 -7 2 -14 -3 -14 -6 -1 -16 -2 -23 -3 -18 -2 -80 -87 -74 -102
6 -15 -18 -37 -29 -26 -4 4 -6 -3 -3 -15 7 -25 -10 -43 -40 -46 -17 -1 -19 -4
-10 -22 6 -11 7 -17 3 -13 -11 11 -45 -10 -45 -27 0 -8 -5 -15 -11 -15 -5 0
-7 -5 -3 -12 4 -6 3 -8 -3 -5 -16 10 -61 -55 -88 -128 -14 -36 -22 -65 -19
-65 4 0 1 -6 -5 -14 -7 -8 -14 -38 -16 -66 -2 -28 -11 -63 -20 -76 -9 -14 -13
-29 -10 -34 3 -5 -6 -27 -21 -49 -14 -22 -24 -46 -21 -53 2 -7 -2 -26 -10 -42
-26 -51 -45 -139 -32 -147 8 -5 10 -23 5 -57 -3 -27 -2 -61 3 -75 6 -14 6 -28
1 -33 -5 -5 -16 -43 -25 -84 -13 -63 -14 -86 -4 -142 7 -38 15 -68 19 -68 4 0
11 19 15 43 6 34 8 38 15 22 14 -36 -21 -186 -52 -219 -12 -15 -10 -28 5 -20
9 6 9 5 -1 -8 -6 -8 -12 -26 -12 -39 0 -13 -2 -51 -6 -84 -7 -63 -2 -64 38 -7
15 22 16 20 23 -56 5 -61 3 -86 -8 -108 -23 -46 -30 -84 -14 -78 10 3 16 -22
27 -102 12 -99 12 -113 -5 -168 -21 -73 -29 -162 -20 -222 9 -61 25 -45 25 25
0 87 44 196 65 161 3 -5 23 -10 44 -10 47 0 61 -14 61 -61 0 -51 17 -95 44
-113 17 -11 25 -28 30 -63 4 -35 18 -64 46 -102 l40 -53 -29 -37 c-15 -20 -34
-47 -40 -61 -11 -24 -11 -24 3 -6 12 15 16 16 16 5 0 -8 -4 -19 -9 -25 -18
-19 -30 -73 -18 -78 7 -2 4 -5 -5 -5 -9 -1 -25 -14 -35 -31 -9 -16 -21 -30
-26 -30 -4 0 -5 -4 -2 -10 3 -5 -1 -10 -10 -10 -9 0 -14 -4 -10 -9 3 -5 0 -13
-6 -17 -8 -4 -9 -3 -5 4 5 8 0 11 -16 8 -13 -3 -29 -5 -35 -5 -7 -1 -13 -11
-13 -23 0 -19 -2 -20 -10 -8 -9 13 -14 7 -11 -12 0 -5 -3 -8 -8 -8 -5 0 -8
-12 -6 -26 3 -30 -18 -42 -41 -23 -12 10 -15 10 -12 -2 2 -8 8 -17 13 -21 6
-5 5 -8 -3 -8 -7 0 -17 10 -22 23 -5 12 -9 17 -9 10 -1 -6 -10 -10 -20 -8 -23
4 -46 -19 -35 -36 4 -7 3 -9 -3 -6 -10 6 -25 -14 -27 -35 -1 -4 -7 -13 -15
-20 -9 -8 -11 -8 -7 -1 3 6 2 14 -4 18 -5 3 -10 -1 -10 -9 0 -8 -4 -18 -10
-21 -6 -4 -7 1 -3 12 9 27 24 43 34 38 10 -6 33 34 25 43 -3 3 -6 0 -6 -7 0
-7 -5 -9 -12 -5 -7 4 -8 3 -4 -4 4 -7 2 -13 -3 -13 -36 -4 -51 -16 -45 -34 4
-8 -1 -18 -10 -21 -9 -3 -16 -10 -16 -16 0 -5 4 -7 8 -4 5 3 9 -1 9 -9 0 -12
-3 -12 -16 -2 -12 10 -14 9 -7 -8 4 -11 4 -16 0 -12 -4 4 -12 3 -18 -3 -8 -6
-12 -2 -13 13 -2 15 0 18 6 8 6 -9 11 -4 19 19 8 20 16 29 23 24 8 -4 9 -3 5
5 -6 9 -11 9 -22 0 -8 -6 -14 -8 -14 -3 0 4 -5 3 -12 -4 -11 -11 -18 -31 -20
-59 -1 -10 -4 -10 -17 0 -12 10 -14 9 -8 -8 7 -18 6 -19 -6 -3 -8 10 -17 15
-21 11 -4 -4 -11 -1 -16 7 -14 21 -13 -6 0 -31 6 -10 8 -19 6 -19 -3 0 -12 12
-20 28 l-15 27 1 -32 c1 -20 5 -30 12 -26 6 3 8 3 4 -2 -4 -4 -3 -15 3 -24 6
-9 0 -4 -14 11 -29 31 -46 25 -20 -6 13 -15 10 -14 -10 3 -27 24 -36 38 -17
26 5 -3 8 0 7 7 -2 7 -2 10 0 5 6 -9 23 1 23 13 0 14 -32 4 -42 -13 -5 -10
-13 -15 -18 -12 -4 3 -6 -5 -2 -17 5 -21 6 -21 13 -2 5 12 8 14 8 4 0 -8 -4
-22 -9 -30 -8 -12 -10 -12 -10 -1 0 11 -4 10 -19 -3 -11 -10 -25 -18 -33 -20
-7 -1 -18 -5 -25 -9 -7 -4 -16 0 -22 10 -6 11 -11 13 -11 5 0 -7 -4 -11 -9 -8
-5 3 -14 -1 -21 -9 -7 -8 -15 -13 -19 -10 -4 2 -6 -6 -5 -18 4 -34 4 -34 18
-2 10 25 13 26 19 12 4 -10 3 -16 -2 -13 -5 3 -11 -4 -14 -16 -5 -18 -8 -19
-21 -8 -19 15 -21 0 -3 -20 9 -11 8 -11 -7 0 -18 14 -19 13 -12 -5 6 -16 5
-17 -5 -8 -9 9 -8 17 4 37 9 14 13 28 8 31 -5 3 -12 1 -16 -5 -4 -6 -12 -7
-18 -3 -7 4 -7 0 1 -10 8 -9 11 -21 7 -27 -9 -14 -25 -13 -21 3 1 6 1 9 -1 4
-3 -4 -9 -5 -14 -1 -5 3 -8 0 -7 -8 2 -7 -2 -12 -8 -11 -8 1 -10 -6 -6 -19 5
-19 4 -20 -10 -7 -9 7 -13 18 -10 23 3 5 0 6 -7 2 -9 -6 -9 -11 0 -22 10 -12
9 -13 -6 -8 -14 6 -16 4 -10 -7 7 -12 6 -12 -7 -1 -11 9 -18 10 -23 2 -3 -6
-11 -7 -17 -4 -7 4 -8 2 -4 -5 4 -6 11 -9 16 -6 5 3 12 1 15 -5 4 -6 1 -9 -7
-8 -7 2 -12 -4 -10 -12 3 -11 -2 -10 -17 4 -14 13 -21 15 -21 6 0 -9 -3 -10
-14 -1 -11 9 -13 7 -11 -12 2 -20 -2 -23 -30 -23 -19 0 -31 4 -29 8 3 4 -2 5
-10 2 -9 -3 -14 -10 -11 -14 3 -5 1 -11 -4 -14 -5 -4 -13 -1 -17 5 -5 8 -3 9
6 4 9 -6 11 -4 6 4 -9 14 -14 10 -31 -21 -6 -13 -17 -22 -23 -21 -11 3 -17
-18 -13 -41 1 -5 -6 -3 -15 5 -16 13 -17 12 -10 -6 4 -11 3 -16 -1 -11 -4 4
-8 18 -8 29 0 16 -6 22 -23 23 -15 1 -20 -2 -13 -9 5 -5 7 -17 4 -26 -4 -14
-3 -14 6 -1 6 8 11 10 11 4 0 -6 -7 -17 -15 -24 -8 -7 -15 -9 -15 -5 0 4 -7 2
-15 -5 -8 -7 -15 -9 -15 -4 0 11 -20 -18 -20 -29 0 -5 5 -5 12 -1 7 4 8 3 4
-5 -4 -6 -11 -9 -16 -6 -4 3 -11 -1 -14 -7 -3 -7 -4 -4 -1 7 6 27 -10 54 -18
31 -4 -9 -13 -13 -22 -10 -9 4 -15 1 -15 -7 0 -8 -6 -5 -15 7 -15 19 -15 19
-8 -1 3 -11 3 -17 -2 -13 -4 4 -14 3 -22 -3 -9 -8 -13 -8 -13 -1 0 6 5 14 10
17 6 3 10 12 9 18 0 9 -2 8 -6 -1 -2 -6 -8 -10 -12 -8 -4 3 -7 -11 -8 -31 0
-24 2 -31 8 -22 7 12 9 12 9 0 0 -8 8 -4 20 10 17 21 19 22 20 6 0 -10 -4 -16
-10 -12 -5 3 -14 -9 -19 -27 -8 -29 -9 -30 -10 -8 -1 20 -3 22 -11 10 -7 -12
-11 -8 -16 18 -5 24 -9 30 -15 20 -7 -10 -9 -10 -10 2 -1 8 -1 19 0 23 2 10
-16 1 -41 -20 -10 -9 -14 -22 -10 -31 5 -15 4 -16 -13 -2 -17 14 -18 13 -12
-2 3 -9 -1 -22 -8 -28 -8 -7 -12 -17 -8 -24 3 -6 3 -8 -2 -4 -4 4 -17 -4 -27
-18 -15 -19 -23 -22 -33 -14 -10 9 -21 7 -41 -7 -16 -10 -37 -18 -49 -18 -14
0 -19 -6 -17 -20 3 -15 1 -17 -10 -7 -11 9 -17 9 -26 0 -17 -17 -15 -28 6 -28
13 0 14 2 3 9 -8 5 -9 11 -3 15 5 3 12 0 15 -7 3 -8 -11 -26 -31 -42 -21 -16
-29 -20 -20 -9 18 20 13 37 -11 42 -12 3 -12 0 -2 -12 9 -11 9 -16 0 -22 -8
-5 -9 -3 -4 6 5 9 4 11 -3 6 -12 -7 -12 -33 0 -51 4 -7 -3 -11 -16 -11 -17 0
-22 5 -18 18 2 10 8 15 13 12 5 -3 6 2 3 10 -3 9 -7 16 -8 16 -6 0 -59 -145
-59 -159 0 -9 -5 -23 -12 -31 -16 -20 -47 -101 -41 -107 3 -3 -5 -23 -16 -44
-11 -22 -17 -46 -14 -55 3 -8 2 -13 -3 -10 -5 3 -11 -3 -14 -14 -3 -13 -1 -18
6 -13 7 4 6 0 -1 -10 -8 -9 -10 -22 -6 -28 4 -7 3 -9 -3 -6 -14 9 -50 -186
-57 -313 -21 -330 -37 -569 -46 -665 -28 -294 -50 -746 -50 -1031 0 -269 -2
-315 -21 -406 -20 -97 -36 -389 -18 -328 6 23 7 23 8 3 1 -12 -3 -25 -9 -28
-12 -8 -14 -332 -1 -339 4 -3 6 -16 4 -29 -3 -17 20 -61 88 -163 70 -105 104
-169 141 -264 56 -143 133 -292 258 -500 48 -80 98 -165 110 -190 32 -63 143
-214 209 -283 46 -48 174 -150 228 -180 7 -4 21 8 35 30 12 20 26 41 30 47 4
6 22 -6 43 -32 44 -50 101 -85 175 -107 51 -16 113 -43 185 -82 64 -35 85 -44
85 -37 0 5 5 3 12 -4 7 -7 22 -12 35 -12 13 0 23 -4 23 -10 0 -5 13 -10 29
-10 17 0 33 -4 36 -10 3 -5 22 -10 41 -10 21 0 33 -4 29 -10 -4 -6 7 -10 24
-10 17 0 31 -4 31 -10 0 -5 8 -10 18 -10 10 0 22 -4 27 -8 6 -4 28 -14 50 -21
22 -7 58 -21 80 -31 23 -10 61 -23 85 -29 25 -7 54 -16 65 -20 11 -5 52 -14
90 -21 39 -6 84 -16 100 -20 51 -15 241 -25 485 -25 248 0 344 7 434 30 31 8
109 24 173 35 133 23 207 42 548 142 132 38 260 74 284 79 25 5 47 12 50 17 4
4 15 8 26 9 29 3 49 8 60 15 6 3 35 9 65 12 83 9 115 16 118 27 2 5 9 9 15 9
16 0 79 59 73 69 -3 4 8 8 24 9 27 2 29 0 45 -70 9 -40 22 -80 30 -88 7 -8 42
-74 77 -146 l64 -132 92 112 c51 61 131 176 180 256 48 80 110 174 138 208 75
92 338 553 518 908 111 217 117 233 126 314 6 46 10 114 10 150 0 36 7 86 14
112 8 26 15 77 16 115 3 144 -8 710 -14 753 -4 25 -9 108 -11 185 -6 184 -22
775 -30 1090 -5 173 -14 309 -31 440 -34 266 -36 275 -46 275 -5 0 -6 5 -3 10
3 6 2 10 -3 10 -5 0 -9 7 -10 15 -1 8 -3 22 -4 30 -2 25 -15 17 -15 -10 0 -13
2 -23 6 -21 3 2 7 -9 7 -25 2 -32 -5 -33 -11 -2 -2 10 -4 20 -6 23 -1 3 -3 10
-4 15 -5 39 -29 122 -38 133 -6 8 -6 12 1 12 6 0 13 -6 15 -12 4 -10 6 -10 6
0 1 7 -6 15 -14 18 -8 4 -15 10 -15 16 0 5 4 7 9 3 6 -3 6 7 0 27 -5 18 -14
35 -19 36 -6 2 -10 8 -10 13 0 6 6 7 13 3 9 -6 9 -5 0 8 -7 8 -9 19 -5 23 4 5
1 5 -6 1 -7 -4 -9 -13 -6 -19 5 -9 3 -9 -6 0 -11 10 -11 15 1 29 8 10 9 15 3
11 -7 -4 -15 0 -18 9 -4 10 -2 13 7 8 9 -6 9 -4 -1 8 -7 9 -12 20 -11 24 4 21
-2 26 -17 14 -12 -11 -15 -11 -12 1 2 8 -2 13 -9 12 -12 -3 -12 22 1 34 4 4 6
3 4 -2 -2 -6 0 -11 5 -13 18 -6 19 -1 2 18 -10 11 -22 17 -28 13 -6 -4 -8 0
-4 10 3 10 2 17 -3 17 -5 0 -11 -8 -13 -17 -3 -13 -5 -12 -6 5 -1 15 -5 21
-13 16 -7 -5 -9 -2 -5 9 3 8 -1 21 -8 27 -8 7 -13 16 -10 20 3 5 -4 6 -15 3
-11 -3 -20 0 -20 6 0 6 -5 11 -11 11 -5 0 -7 -6 -3 -12 4 -7 -2 -5 -13 5 -11
9 -23 14 -27 10 -4 -5 -6 -1 -4 7 2 8 -3 14 -9 13 -7 -2 -12 3 -10 10 1 6 -3
11 -9 10 -6 -1 -11 4 -11 12 0 8 4 12 9 9 4 -3 8 0 8 6 0 6 5 8 13 4 8 -5 8
-2 -2 9 -7 9 -19 17 -25 17 -6 0 -4 -5 4 -10 12 -7 10 -9 -7 -8 -21 2 -21 28
1 28 7 0 7 3 -1 8 -7 4 -14 18 -16 30 -2 12 -7 25 -12 29 -4 5 -5 2 -1 -5 10
-17 -30 -10 -47 8 -10 12 -9 12 5 2 12 -10 18 -10 24 -1 4 8 3 9 -5 5 -6 -4
-14 0 -17 8 -5 13 -10 11 -28 -11 -11 -15 -20 -31 -18 -36 1 -5 -2 -6 -8 -2
-5 3 -10 -1 -10 -10 0 -10 -7 -15 -17 -13 -11 2 -18 12 -17 25 1 12 -3 21 -8
20 -6 -1 -12 11 -14 28 -2 22 -1 26 6 15 5 -8 10 -10 10 -5 0 6 11 -2 23 -17
l23 -28 2 33 c2 24 0 28 -8 17 -8 -12 -10 -13 -10 -1 0 8 -3 12 -6 8 -4 -3
-26 5 -51 18 -53 30 -49 30 -56 4 -6 -21 -27 -18 -27 4 0 7 4 6 10 -3 7 -12 9
-10 7 8 -2 26 -1 26 -22 6 -13 -13 -13 -19 -3 -33 11 -14 11 -14 -3 -4 -10 8
-19 9 -25 3 -6 -6 -9 5 -9 29 0 22 3 37 8 34 4 -2 7 -14 7 -26 0 -20 0 -20 14
-2 12 17 11 20 -12 33 -15 7 -34 11 -43 9 -8 -2 -16 1 -16 8 0 7 7 11 16 8 14
-4 14 -4 1 6 -11 8 -18 7 -26 -4 -10 -14 -12 -14 -18 0 -3 9 -2 13 4 10 6 -3
10 1 10 9 0 8 -5 18 -12 22 -6 4 -8 3 -4 -4 3 -6 -1 -9 -11 -8 -9 2 -19 9 -21
17 -3 11 -1 11 8 -1 8 -10 10 -11 8 -2 -2 8 -6 12 -8 11 -3 -1 -16 4 -30 11
-22 11 -24 11 -15 -1 6 -9 3 -8 -5 1 -25 27 -66 51 -74 43 -3 -4 -14 -8 -22
-9 -9 -1 -13 0 -10 3 3 4 0 13 -7 21 -9 13 -9 14 1 8 6 -4 12 -3 12 3 0 8 -39
27 -47 23 -2 -1 -21 5 -43 13 -30 11 -40 11 -40 2 0 -7 -4 -6 -10 3 -5 8 -10
11 -10 5 0 -5 -5 -4 -12 3 -16 16 -31 15 -23 0 4 -7 -3 -2 -15 12 -12 14 -25
24 -29 23 -3 -2 -6 0 -7 5 0 4 -4 15 -9 25 -6 15 -10 16 -17 5 -8 -10 -9 -10
-6 1 6 22 26 24 31 4 3 -12 5 -8 6 9 0 16 -2 27 -6 27 -23 -4 -33 3 -34 24 0
21 -1 21 -8 2 -5 -13 -3 -24 7 -31 13 -9 13 -12 -2 -17 -11 -4 -16 -1 -16 10
0 14 -2 14 -14 -2 -8 -11 -12 -24 -9 -29 4 -5 1 -6 -6 -2 -6 4 -9 11 -6 16 5
8 -19 33 -26 26 -2 -3 -5 8 -5 24 l-2 29 20 -22 c17 -20 17 -19 -2 13 -22 39
-25 50 -10 50 5 0 9 -3 9 -7 -4 -22 2 -33 13 -27 8 5 9 2 5 -9 -3 -9 -3 -18 1
-21 4 -3 9 9 10 27 2 17 0 28 -3 25 -4 -3 -17 5 -31 19 -13 13 -29 21 -34 18
-6 -3 -10 -2 -10 3 0 5 -11 10 -25 10 -14 0 -34 7 -45 17 -25 23 -49 16 -26
-8 10 -9 14 -17 10 -17 -3 0 -1 -6 5 -14 10 -12 7 -14 -21 -11 -18 2 -34 4
-35 5 -2 2 -7 3 -12 4 -5 0 -13 5 -18 10 -5 6 -2 6 6 1 11 -6 13 -4 8 8 -6 16
7 31 28 32 6 1 9 6 8 12 -1 6 7 9 20 6 20 -4 20 -3 -3 10 -14 9 -28 13 -32 11
-5 -3 -8 2 -8 11 0 9 -5 13 -10 10 -6 -4 -8 -10 -5 -14 2 -5 -7 -18 -20 -31
-13 -13 -22 -27 -19 -32 3 -4 14 2 25 14 l20 23 -17 -27 c-9 -16 -13 -36 -10
-45 6 -15 5 -16 -6 -5 -7 7 -13 18 -13 25 -1 7 -7 11 -15 9 -8 -2 -12 0 -7 4
4 4 -1 17 -10 28 -17 20 -17 20 0 7 18 -14 24 -2 7 15 -6 6 -12 21 -15 34 -2
12 -1 19 3 16 7 -7 8 -11 11 -38 1 -9 4 -9 10 2 6 8 7 18 4 24 -3 5 -1 6 5 2
6 -4 8 -14 5 -22 -5 -14 -3 -14 15 -3 20 12 20 15 5 31 -9 10 -24 18 -35 18
-10 0 -18 5 -18 10 0 6 -5 10 -11 10 -6 0 -25 10 -41 22 -30 21 -30 21 -19 1
8 -16 7 -24 -4 -33 -12 -10 -13 -8 -10 10 3 18 2 20 -10 10 -8 -7 -13 -16 -10
-19 2 -4 -2 -8 -9 -8 -12 0 -14 5 -18 45 0 9 -6 21 -12 25 -7 6 -6 7 4 4 8 -2
14 -11 14 -20 -1 -9 2 -14 7 -11 5 3 6 -3 2 -13 -7 -20 -5 -18 17 12 8 11 11
17 6 13 -4 -3 -22 9 -41 29 -29 31 -32 32 -29 11 4 -28 12 -63 14 -63 1 0 3
-8 5 -18 3 -15 1 -16 -11 -6 -7 6 -11 15 -8 20 3 5 0 9 -5 9 -6 0 -11 5 -11
11 0 5 5 7 12 3 6 -4 8 -3 4 4 -3 6 -15 9 -26 7 -10 -2 -24 3 -30 11 -7 7 -16
12 -20 9 -5 -3 -7 3 -5 12 4 26 -14 55 -28 47 -7 -4 -4 1 5 12 16 19 16 20 -2
22 -44 4 -48 6 -45 24 2 10 -2 18 -8 18 -8 0 -8 3 1 9 10 6 8 10 -9 14 -13 4
-20 9 -16 13 4 4 0 18 -8 31 -9 13 -11 23 -6 23 5 0 13 -9 16 -21 4 -11 9 -18
11 -16 6 6 -18 60 -31 69 -6 5 -7 8 0 9 6 0 1 4 -10 9 l-20 9 20 0 c12 1 16 4
9 9 -5 4 -20 24 -33 45 -12 20 -27 35 -32 31 -17 -10 -20 22 -4 59 8 20 15 53
15 72 0 22 4 34 10 30 5 -3 15 6 22 20 7 16 14 21 19 14 4 -7 17 5 33 33 14
24 37 55 51 68 23 22 25 22 25 4 1 -18 1 -18 11 -1 6 9 16 39 24 65 7 26 25
79 39 117 14 39 26 76 26 83 0 8 7 29 16 47 13 28 13 38 3 57 -7 13 -14 69
-15 133 -2 63 0 99 4 85 l8 -25 12 22 c7 12 12 33 12 48 0 14 15 49 34 77 31
45 35 48 38 27 2 -19 6 -15 17 21 8 25 20 50 27 55 20 17 22 167 3 196 -29 43
-45 114 -29 124 5 3 10 27 11 53 l1 47 14 -32 c25 -59 30 -37 9 47 -32 131
-80 266 -101 287 -7 8 -14 23 -14 33 0 20 -45 131 -68 167 -8 13 -18 21 -22
18 -5 -3 -6 5 -2 17 3 14 2 19 -6 14 -7 -4 -12 -1 -12 7 0 8 -10 25 -22 39
-13 13 -24 33 -26 44 -2 10 -10 24 -18 30 -7 6 -11 13 -8 16 2 3 -2 8 -10 11
-13 5 -13 2 -4 -21 7 -15 17 -31 23 -37 17 -16 12 -55 -8 -67 -17 -9 -18 -8
-8 11 8 14 8 21 1 21 -5 0 -10 -6 -10 -12 0 -7 -13 6 -28 29 -15 23 -40 56
-55 73 -15 16 -24 30 -20 30 3 0 -3 10 -14 23 -25 27 -103 148 -103 159 0 16
-79 108 -85 99 -3 -5 0 -13 6 -16 5 -4 8 -13 5 -21 -3 -8 0 -14 5 -14 7 0 9
-11 6 -26 -4 -24 10 -63 55 -148 7 -14 6 -16 -4 -10 -10 6 -11 4 -3 -7 29 -39
64 -189 44 -189 -9 0 -9 -3 0 -14 8 -10 9 -16 1 -21 -6 -3 -8 -10 -5 -15 3 -5
8 -35 10 -67 2 -32 6 -74 10 -93 3 -19 7 -53 10 -75 3 -35 31 -130 55 -190 5
-11 13 -41 20 -66 16 -63 2 -249 -19 -249 -4 0 -8 -10 -9 -22 -1 -13 -4 -39
-7 -58 -3 -19 -5 -53 -5 -75 3 -79 1 -151 -6 -197 -4 -33 -3 -53 6 -63 7 -9
10 -18 6 -22 -3 -3 -6 -1 -6 5 0 7 -6 12 -12 12 -7 -1 -3 -9 10 -19 26 -23 27
-28 5 -105 -12 -45 -18 -55 -24 -40 -3 10 -2 24 3 31 13 16 1 34 -18 26 -9 -3
-14 0 -12 7 2 7 -3 15 -11 18 -8 3 -11 0 -7 -7 4 -6 2 -11 -3 -11 -6 0 -11 -6
-11 -14 0 -11 7 -13 30 -6 35 10 41 -4 9 -21 -15 -8 -19 -8 -15 0 4 6 3 11 -2
11 -17 0 -22 -13 -9 -29 11 -14 10 -15 -7 -1 -18 14 -19 13 -12 -5 4 -11 4
-16 0 -12 -4 4 -14 1 -22 -6 -10 -7 -13 -8 -9 -1 4 7 1 17 -7 23 -10 9 -17 6
-31 -15 -9 -15 -13 -24 -8 -21 16 10 3 -47 -17 -72 l-18 -24 -12 22 c-11 22
-12 22 -27 4 -8 -10 -11 -12 -7 -4 5 9 3 12 -4 7 -7 -4 -12 -14 -12 -22 0 -9
5 -12 12 -8 7 5 8 3 3 -5 -5 -9 -10 -10 -18 -2 -15 15 -40 14 -32 -1 4 -7 -3
-2 -14 11 -12 13 -21 17 -21 10 0 -34 -17 14 -19 53 -1 9 -13 31 -28 50 -24
29 -25 31 -3 13 13 -11 20 -14 15 -6 -4 7 -3 16 2 20 6 3 3 13 -7 24 -14 14
-20 15 -26 6 -5 -8 -3 -10 6 -4 8 5 11 4 6 -3 -4 -6 -13 -9 -21 -6 -13 5 -12
8 0 21 15 15 11 38 -5 28 -4 -3 -11 2 -14 11 -3 9 -12 14 -20 11 -8 -3 -23 1
-35 9 -19 14 -21 13 -21 -1 0 -27 -23 -26 -110 5 -71 26 -93 30 -140 25 -36
-4 -70 -1 -96 7 -44 15 -69 10 -149 -28 -63 -30 -65 -30 -66 4 -1 17 -3 21 -6
9 -4 -14 -8 -16 -19 -6 -11 9 -17 5 -31 -19 -15 -27 -19 -28 -29 -14 -10 14
-11 12 -7 -13 4 -26 3 -28 -9 -13 -13 14 -15 13 -31 -13 -9 -17 -12 -27 -5
-23 7 5 8 3 3 -6 -4 -7 -9 -26 -10 -42 -2 -17 -8 -34 -15 -38 -6 -4 -11 -13
-10 -21 1 -8 2 -23 1 -34 -1 -16 -3 -17 -10 -6 -5 8 -17 16 -25 17 -9 1 -14
-2 -11 -6 3 -5 1 -12 -5 -15 -6 -4 -9 -1 -8 7 2 7 -3 12 -10 10 -8 -1 -11 2
-8 7 4 5 2 12 -4 16 -6 4 -8 11 -4 16 4 6 10 6 18 0 7 -6 17 -7 21 -3 5 4 5 1
1 -5 -4 -8 -1 -13 8 -13 8 0 20 9 26 19 12 24 13 34 2 27 -9 -6 -8 67 2 82 3
5 -2 16 -11 23 -9 8 -17 12 -19 9 -1 -3 -6 -1 -11 4 -5 5 -3 6 5 2 14 -8 24
13 26 54 1 16 5 32 9 36 4 4 7 12 7 18 0 6 -5 4 -10 -4 -5 -8 -10 -11 -10 -6
0 5 -7 3 -15 -4 -8 -7 -12 -16 -9 -21 12 -20 14 -59 3 -59 -7 0 -9 3 -6 7 4 3
-1 15 -10 26 -10 11 -12 17 -5 13 15 -9 17 10 2 19 -6 4 -17 1 -25 -5 -8 -7
-15 -9 -15 -4 0 5 -5 2 -10 -6 -8 -13 -10 -12 -10 3 0 11 -4 15 -12 11 -7 -4
-8 -3 -4 4 5 9 13 9 29 1 l22 -11 -22 21 c-13 12 -26 20 -30 19 -14 -5 -9
-118 5 -118 6 0 12 -5 12 -11 0 -5 -6 -7 -12 -3 -9 5 -9 2 1 -9 7 -9 11 -18 7
-18 -3 -1 -10 -2 -15 -3 -5 0 -13 -5 -18 -10 -4 -5 -3 -6 4 -2 6 3 14 2 18 -4
3 -5 2 -10 -3 -10 -5 0 -7 -15 -5 -32 3 -25 2 -30 -6 -18 -10 13 -11 13 -12 0
0 -10 -3 -8 -9 5 -7 16 -9 17 -9 3 -1 -9 -5 -19 -10 -22 -5 -4 -7 2 -4 12 3
14 -2 18 -21 18 -14 0 -22 -4 -19 -10 3 -6 0 -6 -7 1 -11 10 -11 15 0 28 11
13 11 16 0 13 -24 -5 -41 86 -35 187 4 50 6 99 6 110 0 17 2 18 12 5 22 -28
38 -23 25 8 -7 15 -17 32 -22 37 -6 6 -12 19 -14 30 -2 11 -11 26 -20 33 -9 7
-15 14 -13 15 2 1 -4 20 -13 42 -51 120 -71 238 -53 300 3 11 6 27 6 36 1 9
12 33 26 53 13 20 23 42 21 48 -1 7 -1 10 1 5 3 -4 9 -5 14 -2 5 4 6 -2 2 -11
-5 -14 -3 -16 11 -11 11 4 15 3 11 -4 -4 -6 -13 -8 -20 -5 -8 3 -12 -4 -11
-20 1 -22 2 -23 14 -7 6 9 12 15 13 12 3 -20 8 -40 14 -60 5 -19 4 -21 -4 -9
-7 9 -11 10 -11 3 0 -18 17 -24 28 -10 12 14 78 11 88 -4 3 -5 12 -9 21 -9 9
0 22 -8 30 -17 8 -10 12 -12 8 -5 -3 6 -1 12 4 12 6 0 11 -4 11 -9 0 -5 24
-21 53 -36 51 -25 96 -29 126 -10 6 3 11 1 11 -5 0 -7 7 -5 16 4 8 9 20 14 25
11 5 -4 9 -1 9 5 0 6 4 9 9 6 4 -3 28 7 52 23 24 15 49 29 54 30 41 13 50 31
54 116 2 51 7 85 14 85 6 0 8 3 4 6 -3 4 0 21 8 40 12 28 11 34 -1 45 -8 6
-14 22 -14 35 0 12 -9 29 -21 37 -15 11 -17 16 -7 21 7 3 -2 4 -20 1 -21 -3
-31 -1 -27 6 4 5 -10 3 -30 -5 -20 -9 -42 -13 -48 -9 -14 8 -196 5 -211 -5
-21 -13 -80 -31 -88 -26 -4 3 -8 0 -8 -6 0 -6 -4 -9 -8 -6 -13 8 -54 -24 -49
-38 3 -7 -4 -12 -18 -12 -19 0 -22 4 -18 25 10 55 48 89 158 137 22 10 47 25
55 34 16 16 125 90 133 90 16 0 160 94 184 120 48 52 52 58 45 65 -4 4 0 5 8
3 9 -2 14 3 12 11 -3 12 -1 12 14 0 12 -9 15 -9 10 -1 -4 6 -2 12 3 12 6 0 11
4 11 10 0 5 -8 7 -17 4 -14 -5 -15 -4 -4 4 8 6 21 8 29 4 9 -3 13 -1 9 5 -4 6
1 17 10 24 15 12 16 12 8 -1 -5 -8 -10 -19 -11 -25 -3 -17 -68 -131 -94 -165
-38 -49 -60 -68 -123 -112 -32 -22 -56 -42 -53 -45 10 -10 74 8 100 28 14 11
26 17 26 13 0 -5 10 10 23 33 12 23 53 83 91 133 50 66 71 88 77 78 16 -24 9
-46 -26 -92 -19 -25 -31 -46 -26 -46 5 0 14 7 21 15 21 26 30 16 24 -25 -4
-22 -4 -40 0 -40 15 0 46 68 46 103 0 20 3 37 8 37 4 0 16 16 26 35 10 19 28
44 38 55 23 25 21 31 -10 23 -12 -3 -19 -10 -15 -16 4 -6 1 -7 -6 -2 -9 5 -11
19 -6 43 6 34 6 35 -12 21 -16 -12 -17 -12 -7 1 6 8 12 23 13 33 3 42 5 48 17
43 24 -9 54 24 55 62 1 20 3 29 6 20 2 -10 11 -18 19 -18 8 0 13 4 10 9 -3 4
4 17 15 27 18 16 19 16 13 1 -3 -10 -1 -17 5 -17 6 0 11 4 11 9 0 5 20 18 44
29 24 12 55 35 69 51 26 31 47 40 47 21 0 -5 -3 -10 -7 -10 -5 0 -16 -12 -26
-25 -16 -22 -16 -25 -2 -25 10 0 13 5 9 13 -4 6 2 4 13 -6 13 -11 23 -14 27
-8 4 5 15 8 26 6 11 -2 20 0 20 5 0 12 43 8 53 -5 4 -5 6 2 3 16 -3 17 0 26
10 26 7 0 11 -4 8 -9 -3 -4 -1 -8 5 -8 5 0 13 5 16 11 5 7 14 4 28 -8 19 -15
19 -14 -1 9 -23 25 -23 26 -4 32 14 5 18 14 16 33 -1 14 -7 29 -12 32 -11 7
-110 86 -193 154 -35 28 -64 45 -72 41 -6 -4 -9 -4 -5 1 10 10 -17 29 -76 55
l-46 19 11 -20z m-125 -94 c-27 -14 -52 -23 -56 -20 -4 2 -22 -6 -41 -19 -19
-12 -47 -31 -63 -42 l-29 -18 12 22 c7 12 16 20 21 17 5 -3 12 0 17 8 19 30
119 75 168 76 12 0 0 -10 -29 -24z m127 -32 c-23 -35 -55 -71 -53 -58 5 24 -1
35 -18 35 -10 0 -22 -3 -26 -7 -7 -8 -11 -9 -37 -12 -5 0 -8 -4 -6 -8 3 -5 -6
-9 -20 -10 l-26 -1 29 18 c15 10 56 26 91 36 35 9 63 21 63 25 0 5 5 9 10 9 6
0 3 -12 -7 -27z m-473 -7 c0 -2 -8 -10 -17 -17 -16 -13 -17 -12 -4 4 13 16 21
21 21 13z m610 -15 c0 -5 -14 -14 -31 -21 -16 -7 -42 -29 -57 -49 -15 -20 -30
-38 -33 -41 -3 -3 -14 -21 -24 -40 -10 -19 -21 -37 -24 -40 -23 -19 -65 -153
-55 -174 3 -6 -2 -2 -10 8 -11 13 -16 15 -16 6 0 -7 -3 -11 -6 -7 -3 3 1 16
10 29 9 12 16 35 16 50 0 15 5 30 10 33 6 3 10 13 10 20 0 8 12 40 27 72 28
63 30 67 32 86 1 12 26 31 85 64 24 15 66 17 66 4z m-621 -37 c-13 -14 -32
-30 -41 -35 -14 -8 -16 -6 -11 7 5 13 3 15 -7 9 -8 -5 -11 -4 -7 3 4 5 17 8
30 6 12 -2 16 -1 9 2 -10 5 -7 10 10 19 37 21 43 17 17 -11z m425 -20 c3 -8 2
-12 -4 -9 -6 3 -10 -1 -10 -9 0 -9 -4 -16 -8 -16 -5 0 -14 -10 -19 -22 -10
-21 -11 -20 -9 9 1 18 6 36 11 40 4 4 5 2 0 -6 -5 -9 -4 -12 3 -7 7 4 12 14
12 22 0 19 16 18 24 -2z m-604 3 c0 -2 -10 -12 -22 -23 l-23 -19 19 23 c18 21
26 27 26 19z m480 -2 c0 -2 -6 -8 -13 -14 -10 -8 -14 -7 -14 2 0 8 6 14 14 14
7 0 13 -1 13 -2z m323 -21 c-7 -19 -10 -18 -16 5 -3 13 -1 18 9 14 7 -2 10
-11 7 -19z m-76 -34 c-6 -16 -15 -30 -19 -30 -12 0 -10 8 8 35 22 33 25 31 11
-5z m44 -3 c-10 -9 -11 -8 -5 6 3 10 9 15 12 12 3 -3 0 -11 -7 -18z m-158 -2
c4 -8 3 -16 -1 -19 -4 -3 -9 4 -9 15 -2 23 3 25 10 4z m-453 1 c0 -2 -8 -10
-17 -17 -16 -13 -17 -12 -4 4 13 16 21 21 21 13z m885 -6 c3 -5 1 -10 -4 -10
-6 0 -11 5 -11 10 0 6 2 10 4 10 3 0 8 -4 11 -10z m-977 -20 c-7 -11 -19 -22
-28 -25 -8 -4 -4 5 9 19 29 31 36 33 19 6z m478 -13 c7 10 14 13 14 7 0 -6 -9
-19 -20 -29 -11 -10 -22 -26 -25 -36 -4 -11 -11 -17 -16 -13 -6 4 -5 12 4 22
8 10 13 28 11 42 -3 22 -2 23 7 7 10 -18 11 -18 25 0z m168 -43 c-43 -33 -57
-35 -24 -3 19 19 37 31 39 26 1 -4 -5 -15 -15 -23z m-960 10 c3 -8 2 -12 -4
-9 -6 3 -10 10 -10 16 0 14 7 11 14 -7z m36 -29 c0 -7 -30 -13 -34 -7 -3 4 4
9 15 9 10 1 19 0 19 -2z m297 -9 c0 -8 -5 -14 -11 -13 -6 1 -10 -3 -9 -10 1
-6 -4 -16 -12 -23 -21 -17 -13 14 10 40 22 24 22 24 22 6z m423 -36 c0 -11 -4
-20 -9 -20 -7 0 -8 17 -2 38 4 10 11 -2 11 -18z m-900 -84 c0 -3 -4 -8 -10
-11 -5 -3 -10 -1 -10 4 0 6 5 11 10 11 6 0 10 -2 10 -4z m894 -62 c3 -8 2 -12
-4 -9 -6 3 -10 -1 -10 -9 0 -9 0 -19 -1 -23 -1 -14 -21 -33 -33 -33 -7 0 -6 4
2 9 8 4 13 11 13 15 0 3 2 13 4 21 3 8 7 22 10 30 6 19 11 19 19 -1z m616 -16
c0 -6 -6 -5 -15 2 -8 7 -15 14 -15 16 0 2 7 1 15 -2 8 -4 15 -11 15 -16z m319
-340 c-1 -7 1 -22 5 -33 5 -11 10 -26 12 -32 2 -7 11 -13 20 -13 14 0 15 2 3
18 -13 15 -12 16 4 3 13 -10 15 -17 6 -27 -6 -8 -8 -14 -5 -14 4 0 0 -7 -8
-16 -14 -14 -14 -18 -1 -44 8 -16 15 -35 15 -42 -1 -12 -29 46 -33 67 -1 5 -7
14 -13 20 -15 13 -27 48 -14 40 6 -3 10 -1 10 4 0 6 -4 11 -9 11 -12 0 -21 39
-10 46 5 3 9 13 8 22 0 12 -4 9 -11 -8 -6 -14 -10 -29 -9 -35 1 -5 -3 -5 -10
2 -10 10 -9 15 1 28 11 13 10 14 -5 8 -17 -6 -17 -5 1 19 18 24 19 25 32 7 7
-10 12 -24 11 -31z m73 -127 c8 11 9 11 6 1 -4 -16 -22 -18 -25 -2 -1 7 0 6 4
-1 4 -8 8 -7 15 2z m-2002 -145 c0 -3 -4 -8 -10 -11 -5 -3 -10 -1 -10 4 0 6 5
11 10 11 6 0 10 -2 10 -4z m-25 -25 c3 -5 1 -12 -5 -16 -5 -3 -10 1 -10 9 0
18 6 21 15 7z m281 -51 c0 -12 -6 -15 -20 -12 -11 3 -15 7 -8 10 6 2 12 8 12
13 0 6 -4 7 -10 4 -5 -3 -7 0 -4 9 7 19 30 1 30 -24z m1772 -551 c-6 -16 -12
-28 -14 -26 -8 7 8 67 17 62 4 -3 3 -19 -3 -36z m-1618 -344 c-14 -17 -30 -20
-30 -4 0 5 4 8 9 4 5 -3 12 -1 16 5 3 5 9 10 12 10 3 0 0 -7 -7 -15z m-13 -74
c-7 -8 -11 -22 -9 -32 2 -9 -2 -21 -9 -25 -8 -4 -9 -3 -5 4 4 7 2 12 -5 12 -8
0 -7 7 3 23 8 12 13 33 11 47 -3 24 -3 24 11 5 11 -15 12 -23 3 -34z m48 -38
c-1 -10 2 -23 7 -30 6 -7 5 -14 -3 -19 -7 -4 -9 -3 -6 3 4 6 0 16 -8 23 -12
10 -13 16 -4 26 15 18 18 18 14 -3z m239 -8 c19 -13 29 -13 49 -4 17 8 47 9
94 3 37 -4 71 -8 75 -8 3 -1 9 -4 12 -7 6 -5 139 -3 167 3 8 2 14 -8 14 -24 1
-18 -3 -24 -10 -18 -6 5 -26 5 -46 1 -19 -4 -42 -7 -52 -5 -9 1 -17 -1 -17 -5
0 -6 -43 -6 -160 2 -25 2 -48 -1 -52 -7 -5 -8 -8 -7 -8 2 0 6 -8 12 -18 12
-10 0 -24 -6 -31 -12 -10 -11 -11 -9 -6 7 5 15 4 17 -3 6 -6 -8 -9 -23 -7 -33
2 -10 -1 -18 -6 -18 -6 0 -5 -8 2 -21 6 -13 7 -19 1 -15 -6 3 -12 3 -15 -1 -2
-5 -2 -1 0 7 3 13 2 13 -9 0 -7 -8 -22 -16 -33 -18 -16 -2 -17 -1 -5 7 12 9
11 14 -10 33 -29 27 -23 26 -46 8 -17 -14 -18 -13 -7 1 7 9 9 20 5 24 -4 5 -1
5 6 1 7 -4 20 -2 29 6 14 11 16 11 8 -2 -6 -12 -5 -12 5 -3 14 13 4 37 -12 27
-7 -4 -8 -2 -4 5 4 6 11 9 16 6 5 -3 11 -1 15 5 4 6 11 8 16 4 5 -3 9 -2 8 3
-3 16 1 43 6 43 3 0 16 -7 29 -15z m530 -20 c-4 -8 -1 -15 6 -15 6 0 8 -5 4
-11 -4 -8 -9 -7 -15 2 -6 11 -11 11 -21 1 -17 -17 -38 -15 -38 4 0 14 3 15 18
3 9 -7 14 -9 10 -5 -6 7 11 22 39 35 1 1 0 -6 -3 -14z m-76 -23 c1 -14 -1 -22
-5 -18 -5 4 -8 11 -8 14 0 4 -3 12 -7 18 -4 6 -1 11 5 11 7 0 14 -12 15 -25z
m-867 -5 c-10 -9 -11 -8 -5 6 3 10 9 15 12 12 3 -3 0 -11 -7 -18z m969 -57 c6
-11 8 -20 6 -20 -3 0 -10 9 -16 20 -6 11 -8 20 -6 20 3 0 10 -9 16 -20z m-779
-13 c-10 -9 -11 -8 -5 6 3 10 9 15 12 12 3 -3 0 -11 -7 -18z m50 -1 c-6 -7 -7
-17 -3 -21 4 -5 1 -5 -6 -1 -9 6 -10 11 -3 20 6 7 7 17 3 21 -4 5 -1 5 6 1 9
-6 10 -11 3 -20z m-34 -28 c-3 -8 -6 -5 -6 6 -1 11 2 17 5 13 3 -3 4 -12 1
-19z m-205 -25 c-1 -4 7 -16 16 -26 9 -10 17 -28 19 -40 2 -12 10 -25 18 -30
8 -4 11 -15 8 -24 -5 -12 -3 -14 8 -9 8 4 3 -3 -11 -15 -17 -15 -19 -20 -7
-16 16 6 16 5 1 -17 -12 -20 -13 -26 -2 -32 7 -4 10 -4 6 1 -13 14 13 37 28
24 15 -12 7 -42 -9 -32 -6 4 -7 1 -2 -7 6 -10 11 -9 22 5 11 16 15 17 26 5 9
-10 9 -12 0 -6 -12 6 -16 -4 -12 -30 0 -4 -5 -11 -13 -15 -10 -7 -10 -9 0 -9
6 0 12 -5 12 -11 0 -5 -3 -8 -8 -6 -4 3 -7 -8 -7 -24 -1 -15 2 -26 5 -23 5 5
6 9 9 35 0 5 6 7 12 3 8 -5 8 -1 0 14 -8 15 -7 21 3 25 10 4 12 -1 9 -16 -4
-18 -3 -19 6 -7 6 8 11 11 11 6 0 -5 -8 -18 -17 -29 -17 -19 -17 -20 -1 -14
10 3 20 2 23 -4 4 -5 3 -8 -2 -7 -4 2 -9 -1 -10 -7 -2 -5 1 -10 6 -10 5 0 13
-4 18 -8 4 -5 2 -7 -6 -5 -7 2 -16 -3 -18 -9 -3 -7 0 -13 7 -13 6 0 8 -5 5
-10 -5 -8 -11 -7 -21 1 -8 6 -14 10 -15 8 -7 -37 -7 -41 4 -30 8 8 15 6 25
-11 7 -13 11 -15 8 -6 -3 10 -1 20 4 23 9 6 7 -36 -4 -53 -3 -6 -2 -13 4 -17
5 -3 10 -1 10 6 0 7 3 9 6 6 4 -4 2 -13 -4 -20 -7 -8 -10 -17 -7 -20 3 -4 2
-4 -2 -1 -5 3 -9 10 -9 15 -1 5 -3 11 -4 14 -4 7 -7 23 -9 37 0 6 -8 3 -16 -8
-12 -17 -12 -20 1 -31 8 -6 17 -31 19 -55 3 -50 7 -68 18 -85 5 -7 4 -13 0
-13 -5 0 -9 -8 -10 -17 -1 -10 -3 -26 -5 -35 -2 -9 1 -17 6 -17 5 1 13 -5 17
-13 7 -11 9 -11 9 0 0 21 34 -17 37 -42 2 -16 1 -18 -6 -6 -5 8 -7 18 -5 22 3
4 0 8 -5 8 -18 0 -26 -5 -23 -13 1 -5 -2 -6 -8 -2 -6 3 -7 11 -4 17 5 7 2 8
-7 2 -8 -5 -18 -9 -23 -9 -5 0 -11 -6 -14 -14 -3 -9 1 -11 17 -6 12 4 21 2 21
-4 0 -6 -4 -11 -10 -11 -5 0 -8 -10 -6 -22 2 -13 9 -22 15 -21 6 2 10 0 10 -5
-4 -21 2 -32 14 -27 6 4 3 0 -7 -9 -10 -8 -23 -13 -27 -10 -5 3 -9 1 -9 -4 0
-31 -145 17 -156 50 -3 10 -11 18 -18 18 -34 0 -53 126 -32 202 8 29 20 125
26 213 6 88 16 203 21 255 5 52 10 107 11 122 1 24 10 34 10 11z m462 -4 c-3
-5 -10 -7 -15 -4 -5 4 -9 -3 -9 -14 0 -12 7 -21 16 -21 8 0 13 -4 9 -9 -3 -6
6 -7 22 -4 16 3 33 5 38 5 6 0 39 -3 75 -6 36 -2 99 -6 140 -7 41 -1 85 -6 98
-10 15 -6 22 -5 22 4 0 8 3 8 9 -2 6 -9 11 -10 15 -2 5 8 13 8 27 1 10 -6 19
-8 19 -5 0 18 38 -19 42 -40 6 -29 -8 -43 -25 -26 -18 18 -31 13 -16 -6 8 -9
9 -14 3 -10 -7 4 -14 -2 -18 -16 -7 -29 -34 -32 -254 -24 -62 3 -115 1 -118
-4 -3 -5 -11 -6 -17 -2 -13 8 -86 11 -85 3 1 -19 -5 -26 -22 -26 -11 0 -20 4
-20 9 0 4 -4 6 -8 3 -9 -5 -24 19 -36 57 -3 10 -10 15 -16 12 -6 -3 -10 5 -10
19 0 13 -4 26 -9 28 -4 2 1 12 11 23 19 20 19 20 12 0 -4 -11 -4 -17 1 -13 4
4 15 2 23 -5 13 -10 14 -9 10 3 -3 8 -1 24 5 35 9 18 8 18 -6 7 -13 -11 -15
-10 -10 8 3 11 15 25 27 31 20 10 20 10 2 -5 -11 -9 -15 -16 -9 -16 7 0 15 5
18 10 4 6 11 7 17 4 7 -4 8 -2 4 4 -11 18 2 31 24 25 11 -3 17 -9 14 -14z
m-129 -38 c3 -5 2 -12 -3 -15 -5 -3 -9 1 -9 9 0 17 3 19 12 6z m-225 -141 c0
-5 -2 -10 -4 -10 -3 0 -8 5 -11 10 -3 6 -1 10 4 10 6 0 11 -4 11 -10z m1196
-168 c-15 -15 -15 -15 -4 10 7 15 15 23 17 17 2 -6 -4 -18 -13 -27z m49 -12
c-3 -5 -1 -11 4 -14 5 -4 8 -14 6 -24 -1 -9 3 -30 9 -47 7 -16 11 -47 9 -67
-3 -20 2 -49 11 -65 29 -58 29 -94 0 -148 -16 -28 -39 -58 -51 -68 -13 -10
-30 -25 -38 -34 -16 -16 -45 -11 -45 7 0 5 -4 10 -8 10 -5 0 -9 -6 -9 -14 0
-8 4 -14 8 -13 7 2 9 -3 9 -22 0 -5 -7 -12 -16 -15 -15 -6 -15 -4 -3 11 12 15
12 16 -3 10 -12 -4 -15 -2 -12 7 3 8 1 17 -5 21 -6 3 -11 13 -11 21 0 8 4 13
8 10 5 -3 9 1 9 8 0 7 -10 13 -21 12 -17 -1 -20 4 -18 24 l4 25 -28 -25 c-16
-14 -23 -18 -16 -9 6 9 10 19 7 22 -3 4 -2 5 2 2 3 -3 17 4 29 16 l23 22 -4
-26 c-3 -14 0 -29 6 -33 7 -4 9 5 6 29 -3 27 0 40 14 53 17 16 19 16 25 0 5
-14 9 -15 15 -5 10 16 -9 41 -24 32 -6 -3 -7 -1 -3 6 4 6 0 14 -8 17 -9 3 -16
14 -15 23 0 12 2 12 6 2 4 -10 7 -10 13 -1 5 8 9 7 13 -5 5 -11 3 -14 -6 -9
-6 4 -8 3 -4 -1 4 -5 14 -10 23 -11 12 -2 13 1 4 11 -14 16 -4 39 12 29 7 -4
8 -2 4 5 -4 6 -12 9 -17 6 -5 -4 -9 0 -9 7 0 9 -3 9 -10 -2 -5 -8 -10 -10 -10
-5 0 6 5 17 10 25 7 11 10 11 10 2 0 -7 5 -10 11 -7 6 4 8 14 4 22 -4 13 -3
14 10 3 8 -7 16 -11 16 -9 2 5 8 42 12 72 2 12 0 30 -5 39 -5 10 -4 20 4 24 6
4 8 3 5 -3 -3 -5 0 -10 7 -10 8 0 11 9 8 24 -2 12 -9 20 -15 16 -6 -3 -7 -1
-3 5 4 7 14 12 23 12 13 0 14 2 2 18 -13 15 -12 16 3 3 10 -7 16 -17 13 -21z
m-1148 -67 c0 -9 -4 -10 -14 -2 -7 6 -13 12 -13 14 0 1 6 2 13 2 8 0 14 -6 14
-14z m1096 -40 c-2 -16 -4 -37 -4 -48 0 -19 -1 -19 -10 -2 -7 12 -7 22 0 31 6
7 8 16 5 19 -3 3 -3 10 1 16 10 18 13 13 8 -16z m-978 -25 c0 -6 6 -13 14 -16
8 -3 11 0 8 5 -3 5 4 10 16 10 17 2 19 0 7 -7 -14 -9 -6 -15 15 -10 6 1 7 -2
3 -5 -4 -4 -1 -20 8 -36 15 -30 31 -40 21 -14 -4 8 -3 16 1 19 16 9 10 -33 -6
-46 -10 -8 -13 -9 -9 -1 4 6 3 14 -2 17 -5 3 -11 -4 -14 -15 -3 -12 -10 -18
-16 -14 -6 3 -11 0 -11 -7 0 -10 -2 -10 -9 1 -5 8 -7 26 -5 40 4 24 3 25 -9 6
-6 -11 -19 -21 -27 -23 -11 -3 -11 0 3 15 13 15 14 22 4 33 -8 9 -8 11 0 6 6
-3 14 -2 17 3 7 10 -19 23 -28 14 -3 -4 -6 -17 -6 -29 0 -13 -4 -25 -8 -28
-12 -7 -7 41 6 57 7 8 9 17 5 20 -3 4 -1 7 6 7 7 0 9 5 5 13 -4 7 -3 9 2 4 5
-5 9 -14 9 -19z m-114 -5 c12 -16 12 -17 -2 -6 -9 7 -20 9 -24 5 -5 -4 -5 -1
-1 6 9 16 11 15 27 -5z m-49 -49 c-3 -19 -1 -25 7 -20 6 4 8 12 5 18 -5 7 -2
8 5 3 9 -5 10 -10 2 -18 -15 -15 -14 -30 1 -21 6 4 8 3 4 -4 -3 -6 -2 -14 4
-17 8 -5 7 -11 -1 -21 -6 -7 -9 -21 -5 -29 3 -10 2 -13 -5 -10 -5 4 -9 14 -8
23 1 10 0 20 -1 25 -1 4 -3 10 -5 15 -1 4 -5 19 -9 34 -4 15 -5 32 -1 37 10
18 13 13 7 -15z m1332 -60 c3 -8 2 -12 -4 -9 -6 3 -10 10 -10 16 0 14 7 11 14
-7z m-277 -46 c-3 -8 -6 -5 -6 6 -1 11 2 17 5 13 3 -3 4 -12 1 -19z m-1042
-28 c3 -5 -1 -10 -10 -10 -9 0 -13 5 -10 10 3 6 8 10 10 10 2 0 7 -4 10 -10z
m1022 -134 c3 -3 1 -6 -5 -6 -7 0 -12 -9 -12 -21 0 -11 -5 -17 -10 -14 -6 4
-8 11 -4 16 3 6 -2 16 -12 24 -18 13 -17 13 9 11 15 -2 31 -6 34 -10z m-1022
-76 c-3 -5 -22 -10 -41 -10 -46 0 -37 14 11 18 22 1 34 -2 30 -8z m-682 -75
c-3 -9 -8 -14 -10 -11 -3 3 -2 9 2 15 9 16 15 13 8 -4z m-133 -41 c0 -8 -5
-12 -10 -9 -6 4 -8 11 -5 16 9 14 15 11 15 -7z m2507 -14 c2 -13 2 -22 1 -19
-2 2 -11 14 -21 26 -18 20 -18 21 -1 19 9 -2 19 -13 21 -26z m-2560 -77 c0 -9
-4 -10 -14 -2 -7 6 -13 12 -13 14 0 1 6 2 13 2 8 0 14 -6 14 -14z m2785 -53
c-11 -9 -22 -28 -25 -41 -4 -17 -5 -14 -4 9 1 20 -4 37 -13 43 -11 7 -4 9 23
7 38 -2 38 -3 19 -18z m51 -37 c-2 -21 -5 -44 -5 -50 -2 -23 -11 -4 -15 31 -2
19 1 37 7 41 6 3 7 11 4 17 -4 6 -3 8 3 5 6 -4 8 -23 6 -44z m-28 3 c0 -24 -4
-33 -15 -31 -22 3 -24 34 -3 50 10 8 18 15 18 15 0 0 0 -15 0 -34z m-3058 7
c0 -9 -4 -10 -14 -2 -7 6 -13 12 -13 14 0 1 6 2 13 2 8 0 14 -6 14 -14z m214
-16 c-10 -9 -11 -8 -5 6 3 10 9 15 12 12 3 -3 0 -11 -7 -18z m2754 14 c3 -5 2
-12 -3 -15 -5 -3 -9 1 -9 9 0 17 3 19 12 6z m55 -47 c0 -8 -19 -13 -24 -6 -3
5 1 9 9 9 8 0 15 -2 15 -3z m-3154 -29 c-1 -8 -5 -17 -8 -21 -5 -4 -4 16 1 34
3 9 9 -1 7 -13z m3224 -20 c5 3 11 1 14 -4 4 -5 -2 -8 -11 -7 -9 2 -18 8 -19
15 -1 6 0 7 3 1 2 -5 9 -8 13 -5z m-2862 -24 c-7 -9 -13 -18 -15 -20 -1 -2 -1
5 0 16 0 11 7 20 14 20 10 0 10 -4 1 -16z m-67 -35 c5 3 6 10 3 16 -4 7 -2 8
5 4 6 -4 8 -13 4 -19 -4 -7 -8 -18 -9 -25 -2 -8 -6 -17 -10 -20 -4 -4 -4 1 -1
10 3 10 2 20 -3 23 -10 6 -13 -3 -13 -37 0 -10 -4 -15 -8 -12 -5 3 -7 9 -4 14
3 5 1 11 -5 15 -5 3 -10 12 -10 18 0 7 4 7 9 -2 8 -12 11 -8 17 15 6 20 9 24
12 11 2 -9 8 -15 13 -11z m-64 -33 c-4 -3 3 -18 15 -32 l23 -26 -27 24 c-24
21 -29 41 -11 41 4 0 3 -3 0 -7z m10 -67 c0 -8 -5 -14 -11 -13 -6 1 -9 -5 -8
-13 2 -8 0 -12 -4 -8 -4 4 -13 3 -20 -3 -9 -8 -16 -5 -24 10 -8 17 -8 21 2 19
8 -2 12 5 11 17 -1 11 0 14 3 7 3 -6 11 -9 17 -5 7 3 4 -3 -5 -14 -27 -30 -21
-40 7 -13 24 23 24 24 7 44 -17 21 -17 21 4 3 11 -9 21 -24 21 -31z m-607 24
c0 -5 -2 -10 -4 -10 -3 0 -8 5 -11 10 -3 6 -1 10 4 10 6 0 11 -4 11 -10z
m3927 -35 c0 -8 -4 -12 -9 -9 -4 3 -8 9 -8 15 0 5 4 9 8 9 5 0 9 -7 9 -15z
m-3386 -42 c11 -15 11 -16 -1 -5 -24 21 -34 13 -14 -10 19 -23 19 -23 -2 -5
-11 9 -25 14 -29 10 -5 -5 -3 0 4 10 7 9 17 17 21 17 4 0 14 -8 21 -17z m-658
-5 c-4 -7 -8 -16 -8 -20 0 -3 -3 -9 -7 -12 -5 -3 -6 -3 -3 1 3 3 -1 13 -8 21
-8 11 -8 14 0 9 6 -4 14 -3 18 3 3 5 8 10 11 10 3 0 2 -6 -3 -12z m-163 -18
c-13 -9 -13 -10 0 -10 13 0 13 -1 0 -10 -8 -5 -10 -10 -4 -10 6 0 11 -6 11
-12 0 -7 2 -18 4 -24 2 -7 0 -12 -6 -12 -5 -1 -8 7 -7 16 3 13 1 14 -11 3 -12
-9 -17 -9 -23 0 -4 7 -3 9 4 5 15 -9 26 12 13 28 -11 13 3 36 24 36 5 0 3 -5
-5 -10z m793 -13 c-2 -4 -5 -6 -8 -4 -2 1 -10 -7 -18 -17 -11 -15 -16 -16 -22
-6 -6 9 -4 11 5 5 10 -6 12 -4 7 7 -3 9 -3 18 -1 21 7 7 40 1 37 -6z m-49 -46
c3 -4 -5 -18 -19 -31 -21 -20 -23 -20 -21 -4 2 11 9 19 17 19 8 1 13 6 12 13
-3 14 3 16 11 3z m3696 -15 c0 -2 -8 -10 -17 -17 -16 -13 -17 -12 -4 4 13 16
21 21 21 13z m-4439 -33 c13 -16 12 -17 -3 -4 -17 13 -22 21 -14 21 2 0 10 -8
17 -17z m-147 -34 c-3 -5 -10 -7 -15 -4 -5 4 -9 -2 -9 -12 0 -15 -2 -16 -10
-3 -9 13 -10 13 -11 0 -1 -8 -1 -19 0 -24 1 -5 -4 -4 -12 2 -8 7 -17 9 -21 5
-4 -4 -4 1 0 12 4 10 9 14 11 8 2 -6 15 -1 30 13 24 22 51 24 37 3z m4727 4
c1 -17 2 -17 6 0 7 26 18 21 20 -10 1 -19 -1 -22 -8 -12 -6 11 -9 8 -9 -9 0
-13 4 -21 9 -18 8 5 29 -12 30 -24 0 -3 3 -14 7 -24 5 -12 3 -21 -4 -24 -7 -2
-9 -9 -6 -14 4 -7 2 -8 -4 -4 -7 4 -12 3 -12 -2 0 -6 -6 -12 -14 -15 -8 -3
-13 1 -12 14 0 10 -3 18 -9 17 -5 -2 -9 -9 -7 -18 2 -13 2 -13 -7 0 -7 9 -6
19 0 27 6 7 7 18 3 24 -4 8 -3 9 4 5 7 -4 12 -1 12 9 0 9 -5 13 -10 10 -6 -4
-10 -3 -9 2 1 4 1 19 0 32 -1 18 -4 21 -14 12 -10 -8 -14 -7 -14 4 0 8 4 12 8
10 4 -3 9 2 13 10 8 21 26 19 27 -2z m-84 -18 c0 -8 -4 -12 -9 -9 -5 3 -6 10
-3 15 9 13 12 11 12 -6z m-3829 -41 c-1 -5 -9 -9 -16 -10 -10 -2 -11 1 -1 12
12 14 24 13 17 -2z m-928 -28 c0 -2 -8 -10 -17 -17 -16 -13 -17 -12 -4 4 13
16 21 21 21 13z m872 -53 c-6 -2 -10 -9 -7 -13 3 -5 1 -11 -4 -14 -7 -5 -8 11
-2 32 1 1 7 2 14 1 9 0 9 -2 -1 -6z m3028 -98 c8 0 16 -6 16 -12 1 -7 2 -18 3
-24 0 -5 7 -7 14 -3 8 5 8 2 -2 -9 -7 -9 -10 -17 -6 -17 4 0 1 -8 -6 -17 -11
-15 -11 -16 1 -5 8 6 18 12 23 12 4 0 5 -6 1 -12 -5 -8 0 -7 11 2 11 9 16 10
11 3 -4 -7 -3 -13 2 -13 5 0 9 -7 10 -15 1 -8 3 -22 4 -30 1 -8 4 -15 8 -15 3
0 6 -9 7 -21 2 -16 -1 -18 -12 -9 -12 10 -12 7 -2 -13 l12 -25 12 26 c11 23
13 24 9 4 -2 -12 -1 -20 4 -17 4 3 20 -18 34 -45 14 -28 21 -50 16 -50 -6 0
-8 -5 -5 -10 4 -6 10 -8 15 -5 9 6 50 -46 50 -64 0 -6 5 -11 10 -11 6 0 10
-10 9 -22 l0 -23 -9 23 c-5 12 -14 22 -19 22 -6 0 -7 7 -4 17 5 12 3 14 -8 8
-8 -4 -11 -5 -7 0 9 9 -11 49 -20 41 -11 -12 -50 35 -45 55 4 15 0 19 -18 19
-19 0 -21 2 -9 10 13 8 12 10 -3 10 -16 0 -40 38 -41 65 -1 16 -38 45 -49 38
-6 -3 -7 -1 -3 5 4 7 -5 27 -19 46 -18 24 -22 35 -13 38 9 3 8 11 -6 32 -11
18 -13 25 -5 20 8 -5 21 -9 29 -9z m1299 -18 c8 -10 7 -14 -2 -14 -8 0 -14 6
-14 14 0 7 1 13 2 13 2 0 8 -6 14 -13z m-3994 -456 c3 -5 2 -12 -3 -15 -5 -3
-9 1 -9 9 0 17 3 19 12 6z m-80 -57 c-9 -9 -14 -23 -10 -32 5 -13 3 -13 -11
-1 -10 8 -12 15 -5 17 6 2 11 10 11 18 0 8 7 14 16 14 14 0 14 -2 -1 -16z
m-80 -41 c-5 -10 -7 -22 -6 -26 1 -5 -3 -6 -8 -3 -5 4 -5 16 2 30 13 28 24 27
12 -1z m-78 -24 c-1 -4 3 -6 8 -5 6 0 9 4 8 7 -1 3 5 6 12 6 10 0 12 -4 5 -12
-5 -7 -6 -15 -2 -19 4 -4 1 -6 -7 -4 -9 2 -16 -6 -18 -17 -3 -16 -2 -17 6 -5
13 19 14 0 1 -20 -6 -10 -10 -11 -10 -2 0 6 -5 12 -11 12 -5 0 -7 -6 -3 -12 5
-9 2 -9 -9 1 -12 9 -17 10 -17 2 0 -7 -4 -10 -9 -7 -5 4 -7 -4 -3 -16 5 -19 3
-21 -9 -11 -17 14 -17 69 0 66 6 -2 11 2 11 7 0 6 5 10 11 10 5 0 7 -5 3 -12
-4 -6 -3 -8 4 -4 6 3 9 15 7 25 -2 10 3 18 10 18 8 0 13 -4 12 -8z m4480 -64
c0 -8 -4 -12 -9 -9 -5 3 -6 10 -3 15 9 13 12 11 12 -6z m-4560 -10 c-4 -8 -2
-17 3 -20 6 -4 10 -11 10 -17 0 -7 -4 -7 -14 1 -10 9 -17 7 -27 -6 -13 -16
-12 -17 4 -4 11 9 17 10 17 2 0 -6 -4 -12 -10 -12 -5 -1 -16 -2 -22 -3 -7 -1
-12 -8 -10 -16 3 -11 0 -11 -12 0 -13 10 -16 10 -16 -1 0 -11 -3 -11 -11 1 -9
12 -10 11 -6 -7 3 -14 0 -21 -7 -20 -6 1 -10 -3 -9 -10 1 -6 -5 -10 -15 -8 -9
1 -27 -7 -39 -18 -33 -30 -28 -12 6 24 17 17 35 28 41 24 6 -3 10 -3 9 2 -4
21 2 33 17 33 9 0 12 5 8 13 -6 9 -4 9 8 -1 14 -11 18 -9 30 15 8 15 20 27 26
26 7 -2 12 2 12 7 0 6 3 10 6 10 3 0 4 -7 1 -15z m3606 -2064 c3 -33 13 -90
22 -128 17 -66 17 -70 -2 -139 -23 -80 -22 -82 39 -155 23 -29 38 -57 38 -73
0 -23 -49 -117 -125 -237 -13 -19 -48 -65 -80 -102 -46 -55 -59 -65 -74 -58
-19 11 -81 148 -81 181 0 11 20 59 45 107 59 114 96 278 93 415 -2 82 1 101
26 160 26 62 45 82 87 87 3 1 9 -26 12 -58z m-3825 -60 c17 -10 30 -114 27
-202 -1 -35 -3 -82 -4 -103 l-1 -40 -49 70 c-27 38 -61 80 -75 93 -21 20 -26
34 -26 74 0 44 4 53 36 83 35 33 66 42 92 25z m-1111 -548 c-2 -21 -4 -4 -4
37 0 41 2 58 4 38 2 -21 2 -55 0 -75z m1118 -1222 c3 -5 2 -12 -3 -15 -5 -3
-9 1 -9 9 0 17 3 19 12 6z m20 -30 c3 -5 2 -12 -3 -15 -5 -3 -9 1 -9 9 0 17 3
19 12 6z m-108 -96 c0 -8 -4 -12 -9 -9 -5 3 -6 10 -3 15 9 13 12 11 12 -6z
m3622 -282 c-1 -5 0 -11 1 -15 1 -5 3 -12 4 -18 0 -5 6 -10 11 -10 6 0 11 5
11 10 1 6 2 15 3 22 2 17 11 4 16 -22 2 -12 2 -20 -2 -16 -3 3 -12 1 -19 -5
-8 -7 -14 -7 -19 1 -3 6 -12 7 -18 3 -19 -12 -40 -13 -53 -2 -8 7 -14 6 -17
-1 -3 -6 -4 -5 -3 2 2 7 8 14 14 14 7 1 15 3 20 4 4 1 11 2 16 1 5 -1 6 5 2
14 -3 9 -2 13 3 10 5 -3 12 -1 16 5 7 12 16 13 14 3z m-232 -98 c0 -8 -4 -12
-9 -9 -5 3 -6 10 -3 15 9 13 12 11 12 -6z m-30 -10 c0 -8 -4 -12 -9 -9 -5 3
-6 10 -3 15 9 13 12 11 12 -6z m-278 -32 c-3 -19 2 -25 14 -14 10 8 14 7 14
-3 0 -15 -14 -16 -35 -3 -7 5 -10 13 -7 18 7 11 15 12 14 2z m82 -10 c13 -16
12 -17 -3 -4 -10 7 -18 15 -18 17 0 8 8 3 21 -13z m-26 -2 c3 -5 2 -12 -3 -15
-5 -3 -9 1 -9 9 0 17 3 19 12 6z m-885 -7 c0 -8 -19 -13 -24 -6 -3 5 1 9 9 9
8 0 15 -2 15 -3z m398 -11 c-9 -10 -14 -26 -13 -36 2 -11 1 -16 -3 -12 -9 9
-10 55 -1 49 4 -2 10 0 14 6 3 5 9 10 12 10 3 0 -1 -8 -9 -17z m-292 -19 c1
-9 0 -13 -4 -10 -3 4 -7 14 -8 22 -1 9 0 13 4 10 3 -4 7 -14 8 -22z m604 1
c11 2 18 0 15 -5 -10 -17 -55 2 -55 23 0 7 5 4 10 -5 6 -10 19 -15 30 -13z
m104 16 c3 -4 -4 -7 -14 -6 -27 2 -33 10 -10 12 11 1 22 -2 24 -6z m-471 -15
c11 1 16 0 13 -4 -13 -12 -36 -10 -48 6 -11 15 -11 15 2 6 8 -6 23 -10 33 -8z
m70 -1 c-3 -9 -8 -14 -10 -11 -3 3 -2 9 2 15 9 16 15 13 8 -4z m70 0 c4 -8 3
-16 -1 -19 -4 -3 -9 4 -9 15 -2 23 3 25 10 4z m52 -4 c3 -5 2 -12 -3 -15 -5
-3 -9 1 -9 9 0 17 3 19 12 6z m141 -13 l19 -23 -25 20 c-14 11 -27 21 -29 22
-2 2 0 3 6 3 5 0 18 -10 29 -22z"/>
<path d="M5580 9285 c0 -9 5 -15 11 -13 6 2 11 8 11 13 0 5 -5 11 -11 13 -6 2
-11 -4 -11 -13z"/>
<path d="M3933 7789 c-2 -23 3 -25 10 -4 4 8 3 16 -1 19 -4 3 -9 -4 -9 -15z"/>
<path d="M3926 7748 c3 -5 10 -6 15 -3 13 9 11 12 -6 12 -8 0 -12 -4 -9 -9z"/>
<path d="M3916 7722 c-3 -5 1 -9 9 -9 8 0 12 4 9 9 -3 4 -7 8 -9 8 -2 0 -6 -4
-9 -8z"/>
<path d="M3970 7596 c0 -2 8 -10 18 -17 15 -13 16 -12 3 4 -13 16 -21 21 -21
13z"/>
<path d="M4040 7480 c-9 -6 -10 -10 -3 -10 6 0 15 5 18 10 8 12 4 12 -15 0z"/>
<path d="M4035 7301 c-3 -5 -2 -12 3 -15 5 -3 9 1 9 9 0 17 -3 19 -12 6z"/>
<path d="M4037 7056 c-4 -9 -2 -18 4 -21 5 -4 6 -11 3 -17 -4 -7 -2 -8 4 -4
16 10 15 -7 0 -23 -11 -11 -9 -11 9 0 17 10 20 16 10 27 -6 8 -12 21 -13 29
-4 22 -11 26 -17 9z"/>
<path d="M4256 7738 c3 -5 10 -6 15 -3 13 9 11 12 -6 12 -8 0 -12 -4 -9 -9z"/>
<path d="M5159 7168 c-4 -10 -4 -86 0 -82 7 6 12 84 6 84 -3 0 -5 -1 -6 -2z"/>
<path d="M5180 7131 c0 -6 4 -13 10 -16 6 -3 7 1 4 9 -7 18 -14 21 -14 7z"/>
<path d="M5171 7077 c-13 -21 -12 -21 5 -5 10 10 16 20 13 22 -3 3 -11 -5 -18
-17z"/>
<path d="M4278 7314 c-6 -5 7 -62 15 -70 2 -3 3 12 2 31 -2 37 -8 49 -17 39z"/>
<path d="M6011 6644 c0 -11 3 -14 6 -6 3 7 2 16 -1 19 -3 4 -6 -2 -5 -13z"/>
<path d="M6765 6175 c4 -17 11 -34 16 -39 5 -5 4 5 -1 24 -12 42 -24 55 -15
15z"/>
<path d="M6804 6133 c4 -7 3 -13 -2 -13 -15 0 -23 -31 -12 -45 5 -6 8 -15 5
-19 -3 -3 5 3 17 13 19 18 20 22 7 37 -8 9 -12 19 -11 21 2 3 0 8 -4 11 -4 4
-4 1 0 -5z m11 -53 c-5 -8 -11 -8 -17 -2 -6 6 -7 16 -3 22 5 8 11 8 17 2 6 -6
7 -16 3 -22z"/>
<path d="M5834 5915 c4 -50 13 -53 12 -5 0 22 -3 40 -7 40 -4 0 -6 -16 -5 -35z"/>
<path d="M5866 5847 c3 -10 9 -15 12 -12 3 3 0 11 -7 18 -10 9 -11 8 -5 -6z"/>
<path d="M5890 5845 c0 -5 5 -17 10 -25 5 -8 10 -10 10 -5 0 6 -5 17 -10 25
-5 8 -10 11 -10 5z"/>
<path d="M5985 5671 c-3 -5 -2 -12 3 -15 5 -3 9 1 9 9 0 17 -3 19 -12 6z"/>
<path d="M6126 954 c-9 -23 -2 -28 13 -10 7 8 8 17 3 20 -6 3 -13 -1 -16 -10z"/>
<path d="M6095 940 c-3 -5 -1 -10 4 -10 6 0 11 5 11 10 0 6 -2 10 -4 10 -3 0
-8 -4 -11 -10z"/>
<path d="M3984 10061 c-4 -9 -6 -19 -6 -23 1 -5 -4 -7 -10 -5 -7 1 -12 -3 -11
-10 2 -7 -4 -10 -12 -7 -17 7 -21 -11 -4 -21 14 -9 61 35 55 52 -3 7 1 10 8 7
7 -3 13 1 13 9 0 19 -25 17 -33 -2z"/>
<path d="M3940 9969 c0 -5 5 -7 10 -4 6 3 10 8 10 11 0 2 -4 4 -10 4 -5 0 -10
-5 -10 -11z"/>
<path d="M5195 9761 c-3 -5 -1 -12 5 -16 5 -3 10 1 10 9 0 18 -6 21 -15 7z"/>
<path d="M4740 9212 c-19 -2 -39 -8 -44 -13 -6 -5 -18 -9 -29 -9 -12 0 -16 -4
-11 -12 5 -10 4 -10 -6 -1 -10 9 -17 7 -32 -10 -11 -12 -16 -15 -12 -7 6 12 4
13 -7 3 -21 -20 -32 -15 -25 11 6 26 -6 42 -24 31 -6 -4 -7 -12 -3 -18 4 -7 8
-15 9 -19 1 -5 3 -10 4 -13 1 -3 3 -9 4 -14 0 -5 5 -13 10 -18 5 -5 6 -3 2 5
-5 8 0 12 13 12 17 0 21 -6 21 -35 0 -21 6 -37 16 -43 21 -12 54 -97 54 -139
0 -44 22 -133 31 -127 4 2 11 -6 14 -17 7 -20 8 -20 17 -5 8 15 12 15 36 2 34
-18 75 -34 83 -32 3 0 13 -5 22 -13 14 -11 17 -11 17 0 0 11 2 11 10 -1 8 -12
10 -12 10 -1 0 11 3 11 17 0 11 -10 14 -10 9 -1 -4 6 -4 12 1 13 4 0 27 2 50
3 43 4 77 21 68 36 -7 12 36 41 48 33 6 -4 7 -1 2 7 -6 10 -4 12 10 6 14 -5
16 -4 7 7 -13 16 -14 15 65 20 59 3 102 33 80 57 -9 10 -9 11 3 5 13 -8 13 -6
2 8 -8 9 -16 36 -18 59 -2 24 -9 45 -15 47 -6 2 -19 13 -28 24 -45 57 -84 90
-118 102 -21 7 -39 10 -41 5 -2 -5 -20 0 -40 10 -69 34 -116 46 -162 40 -25
-3 -54 -3 -65 0 -11 3 -36 4 -55 2z"/>
<path d="M3809 8873 c-13 -16 -12 -17 4 -4 9 7 17 15 17 17 0 8 -8 3 -21 -13z"/>
<path d="M4310 8445 c-7 -14 -17 -22 -22 -19 -5 4 -4 -3 4 -15 12 -19 13 -19
20 -3 6 15 7 15 7 -3 1 -17 3 -17 11 -5 8 13 10 12 10 -2 0 -10 4 -18 8 -18 5
0 22 -11 38 -25 16 -14 33 -25 37 -25 5 0 5 -5 1 -12 -4 -6 -3 -8 3 -5 6 4 34
-18 63 -49 52 -54 54 -55 99 -50 95 10 141 31 141 62 0 7 12 19 27 26 15 7 36
28 46 46 20 33 20 34 0 60 -19 26 -24 27 -109 26 -49 -1 -100 -2 -114 -2 -152
1 -188 -1 -207 -7 -19 -6 -23 -4 -23 13 0 30 -26 34 -40 7z"/>
<path d="M4273 8395 c0 -8 6 -16 13 -19 7 -3 10 2 7 15 -6 22 -20 26 -20 4z"/>
<path d="M5285 8301 c-3 -5 -2 -12 3 -15 5 -3 9 1 9 9 0 17 -3 19 -12 6z"/>
<path d="M5255 8278 c-14 -45 -14 -50 -1 -39 7 6 15 9 18 6 2 -3 3 9 0 25 -5
36 -7 37 -17 8z"/>
<path d="M5215 8243 c5 -18 2 -21 -14 -18 -11 2 -20 1 -20 -3 4 -27 -2 -32
-23 -22 -19 8 -20 8 -6 -2 15 -11 15 -14 0 -37 -9 -14 -12 -23 -7 -19 4 4 14
0 21 -10 10 -13 12 -14 11 -2 -2 8 -7 21 -11 29 -6 10 -5 12 2 7 7 -4 12 -1
12 6 0 8 7 23 16 34 15 18 15 18 5 -3 -16 -32 -13 -50 4 -27 15 19 15 19 9 -1
-6 -20 -5 -20 10 -1 11 14 13 22 5 27 -6 4 -8 12 -5 18 4 6 2 19 -4 28 -10 16
-10 15 -5 -4z"/>
<path d="M5296 8251 c-3 -5 1 -14 8 -20 10 -9 16 -9 21 -1 4 6 1 9 -7 8 -7 -2
-12 3 -10 10 2 14 -4 16 -12 3z"/>
<path d="M4050 8234 c0 -18 37 -47 45 -35 6 11 5 12 -15 15 -6 0 -15 8 -20 16
-5 8 -10 10 -10 4z"/>
<path d="M3967 8201 c-4 -17 -3 -21 5 -13 5 5 8 16 6 23 -3 8 -7 3 -11 -10z"/>
<path d="M5246 8182 c-3 -5 1 -9 9 -9 8 0 12 4 9 9 -3 4 -7 8 -9 8 -2 0 -6 -4
-9 -8z"/>
<path d="M5294 8162 c3 -5 1 -12 -5 -14 -7 -2 -6 -8 4 -16 12 -10 17 -10 23
-1 5 8 3 9 -6 4 -10 -6 -12 -4 -7 8 3 9 1 19 -5 23 -6 4 -8 3 -4 -4z"/>
<path d="M5188 8138 c2 -10 9 -18 15 -18 8 0 8 -3 0 -11 -6 -6 -9 -17 -6 -24
3 -9 -2 -12 -14 -10 -10 2 -24 4 -31 4 -8 1 -10 6 -6 14 6 9 5 9 -8 0 -8 -7
-19 -9 -24 -5 -4 4 -3 0 4 -9 15 -19 50 -31 57 -19 8 13 40 4 37 -10 -1 -6 3
-10 10 -7 7 2 22 -3 33 -12 18 -15 19 -15 6 2 -12 15 -12 20 -1 30 7 7 10 7 7
1 -3 -6 0 -11 8 -11 13 0 13 3 0 23 -11 17 -12 25 -3 30 7 5 8 3 3 -6 -5 -9
-4 -11 3 -6 17 10 15 26 -4 26 -11 0 -15 6 -12 18 4 14 -1 18 -18 18 -20 0
-22 -4 -17 -24 4 -18 2 -23 -6 -18 -6 4 -8 12 -5 18 4 7 2 8 -4 4 -7 -4 -10
-2 -6 7 3 8 -1 14 -9 14 -9 0 -12 -7 -9 -19z m57 -40 c-3 -38 -19 -47 -35 -19
-10 20 -7 25 13 22 4 -1 10 6 13 14 9 23 12 18 9 -17z"/>
<path d="M5210 8096 c0 -2 8 -10 18 -17 15 -13 16 -12 3 4 -13 16 -21 21 -21
13z"/>
<path d="M3941 8063 c-1 -17 16 -25 25 -12 4 7 3 9 -4 5 -5 -3 -13 0 -15 6 -4
9 -6 10 -6 1z"/>
<path d="M4139 8058 c-5 -16 -3 -55 3 -52 4 3 7 16 6 29 -2 21 -6 31 -9 23z"/>
<path d="M5176 7990 c13 -23 15 -48 4 -55 -10 -6 -14 7 -11 35 2 13 0 13 -8 1
-6 -9 -5 -23 2 -38 10 -22 11 -22 23 -5 15 22 13 47 -6 65 -10 10 -11 9 -4 -3z"/>
<path d="M4060 7956 c0 -2 8 -10 18 -17 15 -13 16 -12 3 4 -13 16 -21 21 -21
13z"/>
<path d="M5097 7953 c-10 -9 -9 -23 1 -23 5 0 9 7 9 15 0 17 -1 18 -10 8z"/>
<path d="M5033 7926 c-3 -5 -1 -6 5 -2 6 3 15 -2 21 -11 6 -11 11 -13 11 -5 0
7 4 10 10 7 5 -3 7 0 5 7 -6 16 -44 18 -52 4z"/>
<path d="M5480 7102 c-13 -14 -12 -15 2 -10 8 4 22 1 29 -5 9 -9 9 -6 -1 8 -8
11 -14 21 -15 21 0 1 -7 -5 -15 -14z"/>
<path d="M5506 7038 c3 -5 10 -6 15 -3 13 9 11 12 -6 12 -8 0 -12 -4 -9 -9z"/>
<path d="M5565 6977 c8 -13 13 -26 9 -29 -3 -3 -1 -9 5 -13 7 -4 10 4 9 19 -1
15 -6 26 -11 26 -4 0 -5 5 -2 10 3 6 -1 10 -10 10 -14 0 -14 -2 0 -23z"/>
<path d="M3252 6914 c-14 -16 -5 -18 17 -5 7 5 9 11 5 14 -5 3 -15 -1 -22 -9z"/>
<path d="M3223 6823 c-17 -6 -17 -20 0 -20 8 0 14 6 14 14 0 7 -1 13 -1 12 -1
0 -7 -3 -13 -6z"/>
<path d="M5855 6780 c-4 -6 -10 -8 -14 -6 -3 3 -7 -4 -7 -14 0 -18 2 -18 23 2
13 12 23 23 23 25 0 7 -19 2 -25 -7z"/>
<path d="M5970 6756 c0 -2 8 -10 18 -17 15 -13 16 -12 3 4 -13 16 -21 21 -21
13z"/>
<path d="M3051 6717 c-13 -21 -12 -21 5 -5 10 10 16 20 13 22 -3 3 -11 -5 -18
-17z"/>
<path d="M5897 6733 c-8 -12 8 -36 26 -39 11 -1 14 5 12 18 -3 12 -7 23 -11
27 -4 3 -4 -2 -1 -11 3 -10 1 -20 -5 -24 -6 -4 -8 -3 -5 2 3 6 2 16 -2 23 -5
7 -11 9 -14 4z"/>
<path d="M3016 6707 c3 -10 9 -15 12 -12 3 3 0 11 -7 18 -10 9 -11 8 -5 -6z"/>
<path d="M2993 6695 c0 -8 4 -12 9 -9 5 3 6 10 3 15 -9 13 -12 11 -12 -6z"/>
<path d="M6130 6648 c-4 -31 -5 -33 -14 -46 -6 -11 -11 -11 -24 0 -12 9 -11 6
2 -10 11 -12 21 -22 24 -22 3 0 2 3 -1 7 -4 3 0 11 9 18 10 7 14 21 11 40 -2
17 -5 22 -7 13z"/>
<path d="M2753 6593 c0 -9 4 -10 14 -2 7 6 13 12 13 14 0 1 -6 2 -13 2 -8 0
-14 -6 -14 -14z"/>
<path d="M2700 6579 c0 -5 -4 -8 -9 -4 -5 3 -12 1 -15 -4 -4 -5 2 -8 11 -7 15
3 33 26 19 26 -3 0 -6 -5 -6 -11z"/>
<path d="M6216 6551 c4 -13 2 -21 -3 -18 -5 4 -10 0 -10 -8 0 -8 4 -12 8 -9 4
2 12 -4 18 -13 6 -11 11 -13 11 -5 0 7 4 11 9 7 5 -3 13 0 17 6 4 8 3 9 -4 5
-7 -4 -12 -2 -12 5 0 7 -3 9 -7 5 -4 -3 -13 6 -20 21 -10 23 -12 24 -7 4z"/>
<path d="M2650 6509 c0 -5 5 -7 10 -4 6 3 10 8 10 11 0 2 -4 4 -10 4 -5 0 -10
-5 -10 -11z"/>
<path d="M2521 6473 c-5 -10 -12 -17 -15 -15 -6 2 -6 2 -5 -25 0 -15 2 -15 8
2 5 11 14 20 22 20 7 0 15 8 17 18 2 9 -1 17 -7 17 -5 0 -14 -8 -20 -17z"/>
<path d="M2421 6435 c1 -5 -1 -18 -6 -28 -4 -10 -5 -21 -1 -24 3 -4 6 2 6 12
0 15 2 16 18 4 16 -13 16 -13 2 5 -8 11 -13 21 -12 23 2 3 1 8 -3 11 -4 4 -6
3 -4 -3z"/>
<path d="M2390 6415 c-7 -8 -17 -12 -23 -8 -6 4 -7 1 -3 -6 6 -9 13 -8 27 5
10 9 19 19 19 21 0 7 -8 2 -20 -12z"/>
<path d="M6435 6410 c3 -5 8 -10 11 -10 2 0 4 5 4 10 0 6 -5 10 -11 10 -5 0
-7 -4 -4 -10z"/>
<path d="M2385 6379 c-4 -6 -5 -12 -2 -15 2 -3 7 2 10 11 7 17 1 20 -8 4z"/>
<path d="M2110 6271 c-7 -11 -18 -17 -24 -14 -6 3 -8 3 -4 -2 4 -4 3 -16 -3
-26 -16 -30 -5 -22 30 21 17 22 28 40 24 40 -5 0 -15 -9 -23 -19z"/>
<path d="M6830 6170 c0 -5 5 -10 11 -10 5 0 7 5 4 10 -3 6 -8 10 -11 10 -2 0
-4 -4 -4 -10z"/>
<path d="M6886 6163 c-6 -14 -5 -15 5 -6 7 7 10 15 7 18 -3 3 -9 -2 -12 -12z"/>
<path d="M7046 6009 c15 -16 31 -26 36 -23 12 7 -10 34 -25 31 -7 -1 -11 3
-10 9 1 6 -5 11 -13 11 -10 0 -6 -9 12 -28z"/>
<path d="M7331 5544 c0 -11 3 -14 6 -6 3 7 2 16 -1 19 -3 4 -6 -2 -5 -13z"/>
<path d="M7341 5504 c0 -11 3 -14 6 -6 3 7 2 16 -1 19 -3 4 -6 -2 -5 -13z"/>
</g>
</svg>
