<?xml version="1.0" standalone="no"?>
<!DOCTYPE svg PUBLIC "-//W3C//DTD SVG 20010904//EN"
 "http://www.w3.org/TR/2001/REC-SVG-20010904/DTD/svg10.dtd">
<svg version="1.0" xmlns="http://www.w3.org/2000/svg"
 width="220.000000pt" height="229.000000pt" viewBox="0 0 220.000000 229.000000"
 preserveAspectRatio="xMidYMid meet">

<g transform="translate(0.000000,229.000000) scale(0.100000,-0.100000)"
fill="#000000" stroke="none">
<path d="M977 2162 c-15 -17 -15 -18 6 -19 20 -2 36 11 37 30 0 14 -27 7 -43
-11z"/>
<path d="M1050 2150 c-8 -5 -13 -10 -10 -11 3 0 16 -2 30 -4 14 -2 41 -10 60
-18 34 -15 34 -15 8 -16 -14 -1 -28 5 -31 12 -3 9 -8 8 -22 -3 -11 -9 -16 -10
-11 -2 5 8 -1 12 -18 12 -14 0 -26 -6 -26 -12 0 -9 -3 -9 -9 1 -7 10 -21 12
-59 7 -43 -6 -51 -4 -55 11 -4 14 -5 13 -6 -4 -1 -16 -7 -23 -20 -23 -11 0
-23 -4 -26 -10 -3 -5 -13 -10 -22 -10 -12 0 -13 3 -3 14 9 12 8 15 -9 13 -12
-1 -22 -6 -22 -12 -1 -5 -2 -17 -3 -25 0 -8 -7 -14 -13 -13 -7 2 -13 -7 -13
-19 0 -12 -3 -19 -6 -15 -4 3 -15 -4 -25 -16 -25 -29 -24 -10 1 31 24 38 25
49 6 32 -21 -17 -49 -96 -43 -120 3 -11 1 -20 -4 -20 -5 0 -9 -14 -9 -31 0
-24 4 -30 17 -27 10 2 24 16 31 31 7 15 19 27 25 27 7 0 20 9 30 20 18 21 37
27 37 11 0 -17 117 -49 137 -37 26 14 76 18 83 6 3 -6 32 3 70 21 45 21 72 28
92 24 20 -5 28 -3 28 7 0 10 2 10 9 -1 5 -7 14 -10 20 -7 6 4 11 0 11 -9 0
-10 5 -13 12 -9 7 5 8 3 2 -7 -5 -8 -9 -71 -9 -141 0 -70 4 -120 8 -112 17 30
37 112 43 175 6 59 4 69 -18 105 -86 136 -206 214 -268 174z m137 -92 c-3 -7
-5 -2 -5 12 0 14 2 19 5 13 2 -7 2 -19 0 -25z m-218 -20 c-12 -23 -12 -23 10
-4 11 11 24 16 29 12 14 -14 -30 -35 -60 -29 -20 4 -33 1 -39 -8 -7 -12 -9
-12 -9 0 0 11 -4 9 -15 -5 -9 -12 -14 -14 -15 -5 0 7 -6 11 -14 8 -8 -3 -17 1
-20 10 -9 23 1 28 19 9 21 -21 24 -20 18 4 -6 21 -4 21 70 23 17 1 27 7 28 17
0 9 2 10 5 3 3 -7 0 -22 -7 -35z m57 23 c-4 -6 -14 -7 -23 -4 -15 6 -14 7 3
13 22 9 29 6 20 -9z m52 11 c15 12 16 11 3 -4 -14 -19 -32 -15 -30 5 0 8 2 8
6 -1 4 -10 8 -10 21 0z m-56 -52 c-30 -29 -40 -25 -12 5 13 14 26 23 28 20 3
-3 -4 -14 -16 -25z m-222 -1 c0 -5 -4 -9 -10 -9 -5 0 -10 7 -10 16 0 8 5 12
10 9 6 -3 10 -10 10 -16z m258 -6 c-2 -9 -11 -17 -21 -19 -18 -2 -18 -2 -1 17
21 23 26 24 22 2z m-58 -27 c0 -3 -4 -8 -10 -11 -5 -3 -10 -1 -10 4 0 6 5 11
10 11 6 0 10 -2 10 -4z"/>
<path d="M877 2136 c-4 -10 -5 -21 -2 -24 9 -9 17 6 13 25 -3 17 -4 17 -11 -1z"/>
<path d="M1250 1950 c0 -5 5 -10 10 -10 6 0 10 5 10 10 0 6 -4 10 -10 10 -5 0
-10 -4 -10 -10z"/>
<path d="M741 1881 c-7 -5 -11 -15 -9 -22 3 -10 8 -7 17 9 13 24 12 26 -8 13z"/>
<path d="M938 1863 c6 -2 18 -2 25 0 6 3 1 5 -13 5 -14 0 -19 -2 -12 -5z"/>
<path d="M1058 1853 c6 -2 18 -2 25 0 6 3 1 5 -13 5 -14 0 -19 -2 -12 -5z"/>
<path d="M950 1840 c-19 -13 46 -13 75 0 16 7 11 9 -20 9 -22 0 -47 -4 -55 -9z"/>
<path d="M850 1830 c-8 -5 -10 -10 -5 -10 6 0 17 5 25 10 8 5 11 10 5 10 -5 0
-17 -5 -25 -10z"/>
<path d="M716 1755 c3 -27 10 -58 16 -68 7 -13 6 -18 -4 -16 -40 5 -48 -1 -48
-37 0 -44 38 -113 51 -92 6 9 9 5 9 -12 0 -29 16 -50 39 -50 31 0 97 -252 86
-328 -9 -60 17 -133 61 -172 19 -16 39 -30 44 -30 6 0 10 -8 10 -17 0 -14 2
-15 9 -4 6 9 10 10 16 2 9 -15 150 112 217 194 27 33 62 77 79 98 17 20 27 42
23 48 -4 8 -13 1 -22 -17 -9 -17 -17 -24 -20 -16 -2 7 1 19 8 27 17 21 -23 86
-48 77 -6 -2 -12 3 -12 12 0 9 5 16 10 16 6 0 10 10 10 23 0 18 2 19 11 7 9
-12 10 -12 5 3 -3 10 -6 23 -6 28 0 6 -4 8 -9 5 -5 -4 -12 0 -14 6 -3 7 -6 4
-6 -8 -1 -20 -31 -64 -45 -64 -3 0 -6 8 -6 18 -1 25 -42 68 -74 76 -23 6 -27
4 -23 -7 4 -10 -3 -16 -22 -19 -33 -5 -51 0 -51 14 0 5 9 7 19 3 21 -6 38 10
21 20 -5 3 -10 13 -10 21 0 8 4 13 9 10 14 -9 41 5 41 21 0 9 -8 14 -22 12
-13 -1 -34 3 -48 8 -16 7 -32 7 -42 1 -24 -12 -23 3 2 35 11 14 20 40 20 59 0
18 9 44 20 58 20 25 25 19 21 -22 -1 -10 3 -18 9 -18 6 0 8 5 5 10 -3 6 -1 10
4 10 6 0 11 -6 11 -13 0 -43 86 -38 139 8 27 25 44 54 23 41 -4 -2 -14 -1 -22
5 -12 7 -12 9 3 9 22 0 18 19 -6 34 -20 13 -170 -7 -175 -24 -3 -7 -9 -4 -18
7 -13 17 -13 17 -14 -1 0 -13 -4 -16 -17 -11 -20 9 -30 9 -90 7 -56 -3 -103
-41 -103 -85 -1 -31 -27 -103 -30 -82 -1 6 -3 38 -4 71 -2 34 -7 68 -12 75 -5
8 -14 30 -21 49 -12 34 -12 34 -7 -15z m414 -75 c0 -5 -5 -10 -11 -10 -5 0 -7
5 -4 10 3 6 8 10 11 10 2 0 4 -4 4 -10z m-257 -80 c20 -1 20 -2 4 -11 -20 -11
-57 -3 -57 13 0 5 7 7 16 4 9 -3 25 -6 37 -6z m-84 -62 c0 -27 -2 -29 -8 -13
-5 11 -6 26 -4 33 8 21 13 13 12 -20z m333 -150 c-9 -9 -12 -9 -12 0 0 7 -15
13 -32 13 l-33 2 35 6 c40 8 60 -3 42 -21z m-15 -72 c-11 -22 -13 -23 -34 -9
-32 22 -29 33 11 33 32 0 34 -1 23 -24z m167 -81 c7 -20 -2 -42 -20 -49 -11
-4 -12 -2 -4 14 5 10 7 26 4 34 -3 9 -2 16 4 16 5 0 12 -7 16 -15z m-384 -139
c0 -39 -6 -31 -14 19 -5 29 -4 36 3 25 6 -8 11 -28 11 -44z"/>
<path d="M1326 1702 c-2 -4 2 -18 10 -32 l13 -25 1 33 c0 29 -12 43 -24 24z"/>
<path d="M1300 1652 c0 -19 12 -42 22 -42 14 0 5 43 -9 48 -7 2 -13 -1 -13 -6z"/>
<path d="M1270 1531 c0 -5 5 -13 10 -16 6 -3 10 -2 10 4 0 5 -4 13 -10 16 -5
3 -10 2 -10 -4z"/>
<path d="M1197 989 c-9 -6 -15 -14 -12 -20 4 -5 13 -2 22 6 19 20 14 27 -10
14z"/>
<path d="M1160 956 c0 -2 7 -7 16 -10 8 -3 12 -2 9 4 -6 10 -25 14 -25 6z"/>
<path d="M870 916 c0 -9 7 -19 15 -23 25 -9 27 2 5 22 -18 17 -20 17 -20 1z"/>
<path d="M1197 903 c-7 -39 -1 -40 11 -4 6 17 7 31 3 31 -5 0 -11 -12 -14 -27z"/>
<path d="M1664 788 l-8 -33 -7 30 c-6 28 -7 29 -9 5 -6 -63 -8 -71 -13 -76 -3
-3 -1 -18 3 -34 7 -24 6 -28 -8 -22 -14 4 -15 3 -6 -9 15 -20 24 -58 14 -64
-7 -5 -4 -65 5 -92 5 -16 -17 -17 -32 -2 -6 6 -17 9 -25 6 -7 -2 1 -10 21 -18
42 -18 46 -38 43 -263 -2 -145 0 -167 12 -157 8 7 17 34 21 62 8 54 21 64 31
22 10 -47 25 -107 30 -125 4 -15 17 -18 73 -18 72 0 102 15 79 38 -9 9 -9 12
0 12 20 0 1 29 -33 50 -23 15 -37 33 -46 65 -7 24 -20 46 -30 48 -12 3 -16 15
-15 43 1 22 -5 46 -13 54 -12 12 -10 16 15 27 34 14 15 16 -41 3 -22 -5 -41
-7 -43 -5 -7 7 -25 122 -26 172 0 28 -3 47 -6 43 -10 -17 -3 155 7 175 12 23
26 95 19 95 -2 0 -8 -15 -12 -32z"/>
<path d="M511 782 c-1 -13 6 -37 15 -53 8 -17 13 -37 10 -45 -3 -9 -1 -12 4
-9 6 4 13 -8 17 -26 l6 -33 14 45 c7 24 15 67 18 94 l4 50 -19 -40 c-23 -47
-26 -82 -5 -45 8 14 14 21 14 15 0 -5 -6 -21 -14 -35 l-13 -25 -8 30 c-4 17
-10 32 -14 35 -4 3 -12 19 -18 35 -9 26 -11 27 -11 7z"/>
<path d="M551 774 c0 -11 3 -14 6 -6 3 7 2 16 -1 19 -3 4 -6 -2 -5 -13z"/>
<path d="M1579 757 c26 -28 22 -49 -4 -27 -9 7 -18 11 -21 8 -2 -3 12 -18 33
-33 21 -16 32 -22 26 -15 -15 17 -17 34 -3 25 17 -11 11 21 -7 37 -34 28 -48
31 -24 5z"/>
<path d="M1161 674 c0 -11 3 -14 6 -6 3 7 2 16 -1 19 -3 4 -6 -2 -5 -13z"/>
<path d="M590 480 c0 -5 5 -10 11 -10 5 0 7 5 4 10 -3 6 -8 10 -11 10 -2 0 -4
-4 -4 -10z"/>
<path d="M590 442 c0 -4 5 -13 12 -20 6 -6 12 -33 13 -58 l1 -46 -42 6 -42 5
-6 -52 c-14 -120 -24 -175 -40 -205 -9 -18 -14 -42 -11 -52 6 -18 16 -20 96
-20 l91 0 -4 29 c-1 16 3 36 11 44 9 11 11 32 6 69 -3 29 -8 76 -11 103 -9 80
-12 97 -31 152 -10 29 -24 53 -30 53 -7 0 -13 -4 -13 -8z"/>
<path d="M1140 412 c0 -5 7 -13 16 -16 10 -4 14 -1 12 6 -5 15 -28 23 -28 10z"/>
<path d="M1980 400 c-9 -6 -10 -10 -3 -10 6 0 15 5 18 10 8 12 4 12 -15 0z"/>
<path d="M2000 80 c0 -46 10 -80 22 -80 7 0 8 18 3 48 -8 58 -25 80 -25 32z"/>
<path d="M686 26 c10 -8 21 -12 24 -10 5 6 -21 24 -34 24 -6 0 -1 -6 10 -14z"/>
</g>
</svg>
