<?xml version="1.0" standalone="no"?>
<!DOCTYPE svg PUBLIC "-//W3C//DTD SVG 20010904//EN"
 "http://www.w3.org/TR/2001/REC-SVG-20010904/DTD/svg10.dtd">
<svg version="1.0" xmlns="http://www.w3.org/2000/svg"
 width="736.000000pt" height="736.000000pt" viewBox="0 0 736.000000 736.000000"
 preserveAspectRatio="xMidYMid meet">

<g transform="translate(0.000000,736.000000) scale(0.100000,-0.100000)"
fill="#000000" stroke="none">
<path d="M2810 7340 c-25 -10 -63 -19 -85 -19 -22 -1 -53 -9 -70 -19 -16 -10
-47 -21 -68 -25 -22 -3 -53 -19 -73 -36 -19 -17 -39 -31 -45 -31 -5 0 -40 -31
-78 -68 -58 -58 -70 -76 -81 -123 -7 -30 -19 -68 -27 -86 -17 -43 -17 -88 2
-103 8 -7 15 -22 15 -35 0 -12 9 -30 20 -40 13 -12 18 -25 14 -37 -3 -11 -6
-51 -6 -91 0 -68 2 -72 34 -99 18 -15 41 -26 51 -24 9 2 17 0 17 -5 0 -5 -6
-9 -14 -9 -20 0 -27 -64 -16 -139 6 -37 11 -74 13 -84 1 -14 -13 -24 -63 -43
-40 -15 -73 -35 -85 -52 -11 -15 -39 -48 -62 -75 -32 -35 -43 -56 -43 -80 1
-30 3 -27 37 36 40 75 110 141 171 162 39 14 52 12 52 -8 0 -7 13 -12 29 -12
16 0 27 3 24 8 -2 4 8 7 24 7 19 0 24 -3 15 -9 -11 -7 -10 -10 3 -15 23 -8 27
-8 20 4 -15 24 60 -2 92 -32 12 -12 20 -25 16 -31 -3 -6 -1 -7 5 -3 13 8 39
-29 76 -106 24 -49 26 -60 15 -80 -12 -22 -11 -22 7 -8 10 8 16 11 12 6 -4 -5
-2 -18 3 -29 6 -11 7 -22 3 -26 -10 -7 -54 -68 -54 -75 0 -2 20 -24 44 -48 28
-28 46 -55 50 -78 3 -19 11 -222 17 -450 6 -228 11 -430 11 -448 1 -21 4 -28
10 -20 5 9 8 7 8 -7 0 -11 7 -31 16 -43 8 -12 13 -25 10 -30 -2 -4 2 -16 10
-27 8 -10 14 -14 14 -9 0 6 -3 14 -7 20 -5 5 -1 1 7 -10 8 -10 28 -32 43 -47
16 -16 26 -33 23 -38 -3 -5 2 -15 12 -22 16 -13 16 -12 2 6 -14 20 -14 20 7 1
13 -10 20 -23 16 -29 -3 -5 -1 -7 5 -3 5 3 26 -13 46 -36 30 -35 38 -40 46
-28 20 31 8 51 -90 147 -150 149 -143 126 -146 538 -4 547 -35 773 -135 973
-32 64 -42 91 -30 86 9 -4 59 -20 111 -35 72 -21 102 -36 122 -58 29 -32 48
-87 48 -138 0 -28 4 -33 24 -33 15 0 32 11 45 28 13 18 20 22 21 12 0 -9 -6
-22 -12 -29 -11 -11 -6 -13 25 -8 20 3 35 2 33 -2 -3 -4 12 -13 32 -21 103
-36 127 -95 138 -335 4 -92 11 -166 18 -174 6 -8 14 -59 18 -115 11 -165 27
-390 29 -411 1 -11 5 -5 8 15 7 31 8 28 12 -29 2 -34 2 -66 -1 -70 -3 -3 -60
-5 -126 -3 l-122 3 -6 217 c-9 298 -25 622 -32 650 -4 14 -14 22 -28 22 -60 1
-66 8 -66 77 0 114 -24 172 -64 157 -12 -5 -13 -11 -4 -32 5 -15 15 -74 22
-132 l12 -105 41 -3 41 -3 6 -57 c14 -129 26 -401 26 -608 l0 -222 25 -6 c14
-4 36 -4 49 0 23 5 25 3 31 -53 10 -94 14 -103 11 -25 l-3 72 74 0 c64 0 74
-2 69 -16 -3 -8 -2 -12 4 -9 6 3 10 13 10 21 0 8 6 14 14 14 8 0 16 6 19 13 2
6 5 -64 5 -156 1 -153 3 -170 22 -194 13 -17 20 -40 20 -70 0 -56 19 -101 65
-152 20 -22 34 -45 30 -51 -4 -6 -1 -9 7 -8 8 2 14 -9 16 -29 2 -18 -1 -33 -6
-33 -5 0 -7 11 -4 25 3 19 1 24 -11 20 -8 -4 -17 1 -20 9 -4 11 -19 14 -63 11
-49 -3 -57 -1 -61 16 -3 10 -9 19 -14 19 -8 0 -29 39 -33 60 -1 3 -5 11 -9 17
-4 7 -3 23 3 35 10 21 10 21 -3 5 -11 -13 -16 -14 -24 -5 -15 20 -26 51 -24
67 1 8 -2 10 -10 5 -9 -5 -10 -2 -6 9 3 10 2 17 -4 17 -6 0 -7 5 -4 10 3 6 2
10 -4 10 -30 0 37 -166 91 -226 19 -21 41 -50 48 -63 18 -35 -10 -55 -65 -46
-59 8 -84 32 -148 139 -33 54 -61 95 -64 92 -3 -3 5 -21 17 -41 18 -29 20 -38
10 -51 -11 -12 -10 -13 5 -8 15 6 17 3 13 -14 -3 -12 -3 -20 1 -19 13 3 61
-60 61 -79 0 -16 -2 -17 -11 -4 -9 12 -10 11 -6 -7 4 -16 1 -20 -11 -16 -10 4
-13 2 -8 -5 5 -8 -9 -19 -39 -32 -59 -25 -71 -25 -87 3 -13 21 -14 28 -17 55
0 7 -5 10 -11 7 -12 -7 -24 39 -16 60 3 8 2 15 -3 15 -5 0 -12 17 -16 37 -3
20 -16 56 -27 79 -19 41 -18 71 3 59 5 -4 9 -2 9 4 0 5 -4 13 -10 16 -5 3 -10
1 -10 -4 0 -6 -5 -11 -11 -11 -6 0 -8 7 -5 16 3 8 2 12 -4 9 -10 -6 -55 73
-52 92 2 6 -3 15 -9 19 -8 5 -10 3 -4 -7 5 -10 5 -11 -3 -4 -5 6 -12 19 -15
30 -3 11 -5 -2 -6 -30 -1 -68 33 -159 111 -296 115 -202 114 -197 56 -239 -40
-29 -43 -30 -55 -14 -7 10 -13 26 -13 37 0 10 -23 49 -50 85 -55 73 -97 185
-119 317 -7 39 -14 79 -16 90 -2 11 -22 45 -45 74 -27 37 -40 65 -40 86 0 36
-56 243 -71 261 -5 6 -6 20 -2 29 5 14 3 16 -7 10 -10 -6 -12 -4 -7 8 3 10 3
17 -2 17 -15 0 -33 86 -30 138 2 28 1 48 -2 46 -8 -5 -30 266 -22 279 3 6 1 7
-5 3 -8 -5 -12 3 -11 26 0 35 -6 92 -16 143 -5 23 -4 26 4 15 17 -24 13 -2 -5
25 -11 18 -14 36 -10 62 l6 38 -13 -30 c-8 -17 -14 -57 -14 -89 0 -40 -5 -61
-14 -67 -8 -4 -30 -21 -49 -38 -19 -17 -39 -31 -43 -31 -23 0 -47 24 -62 65
-10 25 -22 45 -26 45 -26 0 2 60 52 115 38 41 56 88 64 165 8 79 30 153 60
200 21 34 21 36 4 36 -11 0 -19 -4 -19 -9 0 -5 -7 -6 -16 -3 -8 3 -13 2 -10
-3 3 -4 -8 -21 -24 -36 -17 -16 -30 -35 -30 -42 0 -8 -5 -11 -10 -8 -7 4 -9
-2 -5 -17 5 -18 -4 -39 -31 -79 -43 -63 -58 -81 -49 -58 3 8 -1 28 -8 42 l-14
28 -6 -31 c-4 -16 -6 -33 -6 -36 0 -4 -4 -10 -9 -13 -7 -4 -5 -13 3 -25 13
-17 14 -16 11 10 -4 33 2 54 15 54 17 0 1 -67 -25 -109 -14 -22 -26 -46 -26
-53 0 -8 -6 -6 -17 5 -13 13 -15 20 -5 29 9 9 12 9 12 -2 0 -11 3 -11 12 -2
10 10 10 15 -1 21 -9 6 -10 11 -2 15 6 4 11 2 11 -5 0 -7 2 -10 5 -7 3 3 2 15
-3 27 -8 22 -8 22 -32 -5 -14 -15 -19 -24 -12 -20 6 4 12 3 12 -2 0 -24 -17
-19 -51 17 -76 78 -73 78 -148 9 -36 -33 -85 -71 -108 -85 -24 -14 -43 -28
-43 -32 0 -4 24 -28 54 -53 40 -36 71 -79 131 -182 l77 -135 47 25 c25 14 78
50 116 79 39 30 78 55 88 55 29 0 31 -28 4 -63 l-25 -32 19 -190 c20 -202 44
-387 59 -445 9 -33 9 -32 5 10 -3 25 -10 101 -15 170 -6 69 -17 152 -25 185
-26 105 -15 210 25 249 16 15 24 17 27 9 3 -7 9 -13 14 -13 4 0 5 7 2 17 -4
11 -3 14 5 9 7 -4 12 -16 12 -27 0 -10 4 -19 10 -19 5 0 7 8 3 18 -4 11 -3 14
4 7 17 -17 32 -74 38 -138 15 -190 16 -247 3 -245 -7 2 -13 -8 -13 -23 -1 -19
4 -26 15 -24 8 1 18 -5 23 -14 5 -10 6 -6 3 12 -2 18 0 25 6 19 5 -5 10 -19
11 -31 1 -11 5 -21 10 -21 5 0 7 -9 4 -20 -3 -11 -2 -18 3 -15 4 3 10 -3 13
-13 3 -9 21 -59 41 -110 19 -51 32 -100 29 -109 -5 -11 -3 -14 6 -8 10 6 11 3
1 -15 -7 -13 -8 -20 -2 -16 12 7 21 -15 27 -70 3 -22 7 -52 10 -69 4 -24 3
-26 -4 -10 -8 18 -10 18 -10 2 -1 -10 6 -20 14 -23 10 -4 13 -14 8 -32 -4 -17
-2 -23 6 -18 6 4 11 1 12 -6 1 -7 2 -24 2 -38 1 -14 7 -24 13 -23 19 4 39 -54
25 -71 -9 -10 -8 -15 3 -19 8 -3 17 -1 20 6 4 11 10 -17 7 -35 0 -5 3 -8 8 -8
17 0 32 -61 20 -77 -9 -10 -9 -12 3 -8 9 4 19 -4 26 -20 9 -19 9 -25 -1 -25
-9 0 -9 -2 1 -8 12 -8 52 -75 52 -88 0 -3 -10 -2 -21 1 -16 5 -20 3 -17 -6 6
-17 -20 -38 -45 -39 -9 0 -25 -9 -34 -20 -21 -24 -60 -26 -90 -5 -40 28 -65
85 -89 203 -30 146 -36 158 -28 58 4 -59 2 -81 -8 -87 -10 -6 -1 -32 36 -108
46 -93 49 -103 40 -143 -5 -24 -7 -65 -4 -92 8 -60 -1 -69 -79 -86 -34 -7 -63
-16 -66 -20 -7 -11 31 -122 59 -170 14 -25 30 -70 36 -100 6 -30 16 -67 21
-81 6 -15 9 -40 7 -55 -4 -28 -5 -27 -26 18 -11 26 -39 67 -60 90 -51 56 -72
97 -89 181 -10 50 -11 73 -4 80 38 38 -38 16 -189 -55 -201 -95 -431 -264
-539 -397 -24 -29 -89 -87 -145 -128 -158 -116 -199 -182 -200 -323 0 -125 17
-156 172 -309 71 -69 156 -146 190 -171 33 -25 89 -80 124 -124 83 -103 163
-176 246 -225 37 -21 95 -59 128 -84 153 -112 507 -439 520 -480 5 -15 -1 -27
-21 -45 -26 -22 -36 -24 -107 -20 -123 5 -101 -30 49 -79 l83 -27 -6 -52 c-9
-70 1 -102 30 -110 39 -9 50 -93 41 -312 -8 -213 -5 -222 71 -222 58 0 86 12
136 59 39 35 48 39 93 38 28 0 56 3 63 7 17 10 15 68 -4 115 -15 39 -15 41 24
148 42 114 136 399 197 595 34 110 35 119 21 146 -38 74 -168 148 -276 158
-50 5 -77 14 -115 39 -168 108 -333 305 -470 558 -63 118 -123 197 -185 246
-50 40 -51 41 -28 50 13 6 70 17 128 26 58 9 128 22 155 30 28 8 95 25 150 39
103 25 274 98 243 104 -20 4 -32 34 -23 62 6 18 15 20 86 20 l79 0 25 40 c28
44 39 52 145 96 l75 32 2 58 c5 117 15 184 30 199 32 33 119 11 202 -50 40
-29 72 -31 148 -9 67 19 151 14 168 -10 18 -24 21 -21 34 28 9 38 8 51 -13
102 -14 35 -26 92 -30 140 -20 252 -110 424 -295 562 -61 45 -77 62 -73 77 8
34 4 103 -8 126 -6 11 -25 25 -41 31 -17 6 -41 27 -54 48 -22 34 -24 53 -34
257 -7 158 -14 231 -25 258 -19 45 -21 78 -3 73 6 -3 32 -29 56 -59 l44 -56
36 18 c20 10 38 13 39 8 2 -5 8 -9 13 -9 6 0 8 4 5 9 -4 5 2 8 11 7 29 -4 31
-120 4 -157 -12 -16 -21 -32 -21 -36 0 -4 7 1 15 11 8 11 18 17 21 13 4 -3 -1
-14 -10 -23 -10 -9 -15 -23 -12 -30 9 -22 0 -16 -20 14 -10 15 -21 57 -25 97
-7 62 -7 59 -4 -30 2 -87 0 -104 -17 -128 -28 -39 -36 -138 -14 -171 9 -14 16
-32 16 -41 0 -9 11 -37 24 -63 13 -27 26 -74 29 -110 5 -56 3 -63 -11 -57 -13
5 -14 3 -5 -6 14 -14 29 -6 36 21 3 12 1 18 -5 14 -6 -4 -9 12 -7 45 2 28 1
51 -3 51 -4 0 -10 16 -14 35 -3 19 -12 39 -20 46 -8 6 -14 19 -14 28 0 9 -5
22 -12 29 -17 17 -16 133 1 165 8 15 20 27 27 27 7 0 10 8 7 23 -5 22 -5 22
10 2 9 -11 16 -31 17 -45 0 -16 -3 -21 -8 -12 -5 7 -6 -15 -4 -49 3 -35 1 -59
-4 -56 -14 8 0 -128 15 -146 7 -10 10 -17 7 -17 -4 0 0 -10 8 -22 18 -25 22
-73 6 -63 -5 3 -10 2 -10 -4 0 -17 18 -21 24 -5 12 31 6 80 -15 114 -19 30
-21 45 -17 130 4 79 9 103 31 144 15 27 27 59 27 71 0 40 60 390 86 494 13 58
41 145 60 195 24 57 38 111 40 150 2 34 6 72 9 86 4 19 3 21 -5 9 -5 -9 -14
-49 -21 -90 -11 -76 -28 -124 -29 -83 0 12 5 78 10 147 10 118 9 130 -9 165
-27 54 -78 90 -131 94 -40 3 -45 6 -52 37 -9 32 -10 32 -28 16 -14 -13 -30
-15 -72 -11 -74 8 -120 -10 -128 -49 -4 -17 -11 -38 -16 -47 -14 -25 4 -279
21 -298 9 -10 15 -58 19 -155 7 -207 17 -279 42 -307 11 -13 33 -45 48 -71 27
-47 29 -49 63 -42 19 3 42 9 51 11 11 4 9 -1 -7 -15 -39 -35 -72 -38 -90 -10
-9 13 -33 42 -53 63 -52 53 -79 168 -83 351 -2 96 -6 139 -18 162 -9 17 -21
81 -27 142 -12 119 -13 111 34 224 9 20 13 37 9 37 -20 -1 -36 -21 -57 -74
-13 -32 -27 -53 -30 -47 -4 6 -6 93 -4 194 l2 184 -32 33 c-25 25 -32 40 -30
63 2 17 8 32 15 34 19 7 109 -83 121 -120 l10 -32 1 28 c1 15 -6 41 -14 56
-13 27 -13 29 10 39 20 9 23 9 18 -5 -5 -13 -3 -14 18 -2 13 7 40 13 59 13 22
1 34 5 33 14 -3 13 16 16 42 6 13 -6 14 -9 3 -16 -8 -5 2 -6 26 -2 32 5 37 4
31 -7 -5 -8 -5 -11 0 -7 5 5 14 -1 22 -12 8 -11 19 -20 25 -20 6 0 2 11 -11
23 -18 20 -19 26 -8 35 25 21 92 25 126 8 80 -42 155 -57 306 -63 116 -4 160
-10 192 -24 25 -11 66 -19 100 -19 74 -1 175 -22 181 -38 2 -6 -1 -12 -7 -12
-6 0 -11 5 -11 10 0 6 -8 10 -19 10 -14 0 -22 -12 -30 -44 -8 -32 -17 -47 -33
-52 -13 -4 -81 -7 -153 -7 -108 1 -119 -1 -65 -7 36 -4 91 -8 123 -9 44 -1 57
-4 57 -17 0 -8 -5 -12 -11 -8 -7 4 -9 0 -5 -12 8 -25 -8 -80 -23 -76 -6 1 -11
-9 -11 -22 0 -14 -5 -28 -11 -32 -7 -4 -9 0 -5 14 4 11 3 23 -2 26 -5 3 -8 -9
-7 -27 4 -51 -19 -61 -155 -61 -107 -1 -120 -3 -170 -29 -60 -31 -86 -25 -61
16 13 20 13 21 -2 8 -10 -7 -17 -22 -17 -32 0 -11 -5 -19 -11 -19 -7 0 -9 10
-5 25 4 14 2 25 -4 25 -14 0 -13 27 2 32 14 5 2 58 -13 58 -8 0 -8 -5 1 -15 6
-8 10 -20 7 -27 -9 -23 -38 63 -46 133 -6 62 -5 68 13 77 17 8 15 9 -14 7 -19
-1 -40 -4 -47 -6 -6 -2 -18 5 -27 16 l-15 20 2 -20 c1 -11 5 -23 10 -26 10 -7
36 -132 29 -143 -2 -4 -8 -2 -13 5 -4 8 -19 14 -31 14 -13 0 -23 5 -24 10 0 6
-4 18 -8 27 -4 9 -4 23 0 30 6 10 4 10 -9 -1 -11 -8 -17 -9 -17 -2 0 6 -16 25
-35 42 -19 18 -32 35 -30 39 3 5 -4 19 -15 31 -11 13 -19 19 -20 14 0 -6 5
-16 12 -23 7 -7 9 -12 5 -12 -4 0 0 -15 9 -32 19 -38 104 -133 119 -133 6 0
16 -12 24 -27 7 -15 18 -25 24 -21 6 4 8 0 4 -9 -3 -9 0 -21 6 -27 18 -18 29
-13 17 8 -13 25 -13 31 0 31 6 0 10 -6 10 -13 0 -8 6 -27 14 -43 7 -16 16 -42
20 -59 l6 -30 -16 25 -15 25 5 -25 c3 -14 6 -32 6 -40 0 -12 2 -12 9 -2 5 9 8
3 7 -17 -1 -17 -4 -31 -8 -31 -5 0 -8 -4 -8 -10 0 -12 63 23 93 51 55 53 75
59 205 59 122 0 123 0 116 -22 -6 -21 -6 -21 102 -15 60 3 123 11 141 17 24 9
37 8 60 -3 15 -8 45 -17 66 -20 23 -4 68 -27 115 -60 97 -68 121 -80 251 -129
112 -41 131 -51 281 -158 52 -37 116 -79 142 -94 75 -43 285 -113 365 -121 71
-7 71 -7 107 27 71 66 186 316 172 372 -9 36 -45 34 -81 -4 -16 -16 -32 -30
-35 -30 -8 0 -44 81 -60 131 -22 74 -80 92 -80 25 l0 -35 -29 17 c-24 14 -31
14 -45 3 -18 -15 -21 -44 -6 -71 11 -21 4 -23 -107 -34 -52 -5 -54 -4 -115 48
-157 132 -497 363 -655 444 -100 52 -292 122 -331 122 -11 0 -28 7 -36 16 -11
11 -63 22 -164 35 -81 11 -172 26 -202 34 -44 12 -66 12 -110 4 -54 -11 -58
-10 -170 36 -148 61 -206 66 -309 31 -95 -33 -106 -33 -133 5 -13 17 -45 42
-72 56 l-49 25 33 21 c20 13 46 20 67 19 28 -2 41 4 74 39 30 31 39 48 35 63
-3 12 -6 33 -6 48 0 15 -7 33 -15 42 -13 13 -14 27 -6 97 8 58 8 87 0 102 -10
18 -29 87 -46 170 -3 15 -18 37 -34 48 -26 18 -29 26 -29 74 0 85 -39 159 -79
148 -13 -3 -30 10 -56 42 -27 32 -44 45 -56 42 -10 -3 -24 2 -31 10 -9 11 -23
13 -54 8 -35 -5 -53 -1 -103 24 -69 36 -98 37 -161 11z m140 -35 c0 -7 6 -15
13 -18 10 -4 10 -7 0 -18 -7 -7 -13 -21 -13 -30 0 -26 -17 -32 -42 -15 -19 14
-20 16 -4 22 13 5 16 13 11 35 -4 16 -4 33 0 38 8 13 35 2 35 -14z m-127 -24
c8 -17 12 -32 9 -35 -11 -12 -40 -6 -46 9 -3 8 -18 15 -33 15 -28 1 -25 3 54
39 1 1 8 -12 16 -28z m217 -8 c0 -9 7 -25 17 -35 15 -17 15 -18 0 -18 -9 0
-23 13 -32 30 -19 36 -19 40 0 40 8 0 15 -8 15 -17z m100 -37 c0 -16 -18 -31
-27 -22 -8 8 5 36 17 36 5 0 10 -6 10 -14z m-125 -37 c0 -8 -10 -18 -22 -24
-23 -10 -31 -25 -13 -25 5 0 21 -12 35 -26 l27 -27 -29 8 c-15 4 -45 7 -65 6
-21 0 -38 4 -38 9 0 6 5 10 10 10 6 0 25 20 42 45 31 44 53 54 53 24z m-279 2
c5 -5 25 -11 44 -14 34 -4 34 -4 -6 -5 -26 -1 -46 4 -54 13 -13 16 0 21 16 6z
m445 -11 c10 -6 19 -15 19 -20 0 -14 -34 -12 -48 2 -26 26 -7 37 29 18z m-513
-22 c17 -17 15 -38 -3 -38 -8 0 -15 4 -15 9 0 5 -3 16 -6 25 -7 19 7 21 24 4z
m645 -15 c2 -5 -4 -16 -14 -25 -21 -20 -37 -5 -19 17 14 16 27 19 33 8z m-3
-64 c0 -7 -10 -22 -22 -34 -13 -13 -29 -31 -37 -40 -10 -13 -16 -14 -25 -5 -8
9 -8 14 2 17 6 3 12 10 12 16 0 16 41 57 57 57 7 0 13 -5 13 -11z m-511 -32
c8 -11 5 -13 -19 -9 -17 2 -33 8 -36 13 -9 14 42 10 55 -4z m299 -11 c-19 -18
-58 -30 -58 -17 0 13 30 30 53 31 16 0 16 -2 5 -14z m-683 -56 c3 -5 -3 -10
-14 -10 -11 0 -23 5 -26 10 -3 6 3 10 14 10 11 0 23 -4 26 -10z m224 -39 c8
-5 9 -11 3 -15 -14 -8 -43 4 -36 15 7 11 15 11 33 0z m-276 -348 c3 -44 2 -60
-7 -57 -13 5 -20 76 -10 106 8 28 11 21 17 -49z m888 17 c10 0 19 -7 19 -15 0
-18 -29 -19 -52 -1 -22 16 -23 30 -2 22 9 -3 24 -6 35 -6z m-586 -21 c11 -16
1 -19 -13 -3 -7 8 -8 14 -3 14 5 0 13 -5 16 -11z m-45 -59 c0 -5 -5 -10 -11
-10 -5 0 -7 5 -4 10 3 6 8 10 11 10 2 0 4 -4 4 -10z m-219 -17 c13 -16 12 -17
-3 -4 -17 13 -22 21 -14 21 2 0 10 -8 17 -17z m354 -4 c0 -8 -9 -14 -23 -13
-20 1 -23 -3 -20 -32 1 -19 -2 -38 -8 -44 -7 -7 -9 2 -6 26 3 24 0 39 -9 45
-11 7 -11 9 -1 9 7 0 20 7 29 15 18 18 38 15 38 -6z m-105 -9 c9 -16 8 -18 -5
-14 -8 4 -15 12 -15 20 0 20 7 17 20 -6z m605 -32 c-39 -8 -40 -6 -13 25 l22
25 11 -22 c10 -19 8 -22 -20 -28z m-673 35 c-6 -2 -10 -8 -8 -12 3 -4 -10 -8
-27 -9 l-32 -1 30 13 c17 8 35 14 40 14 6 0 4 -2 -3 -5z m-122 -75 c0 -35 -5
-70 -11 -78 -8 -12 -9 -9 -4 9 6 18 4 23 -7 19 -11 -5 -14 4 -15 36 0 33 0 35
4 9 7 -54 25 -39 21 17 -1 28 0 50 5 50 4 0 7 -28 7 -62z m227 25 c1 -24 1
-25 -7 -8 -11 26 -12 35 -2 35 4 0 8 -12 9 -27z m83 8 c0 -11 -4 -22 -9 -25
-5 -3 -8 5 -7 19 1 29 16 34 16 6z m-33 -43 c-3 -7 -5 -2 -5 12 0 14 2 19 5
13 2 -7 2 -19 0 -25z m-91 -23 c-14 -14 -16 -14 -16 -2 0 9 6 17 13 20 19 7
21 -1 3 -18z m122 3 c-2 -6 -10 -14 -16 -16 -7 -2 -10 2 -6 12 7 18 28 22 22
4z m-86 -30 c-6 -23 -21 -33 -33 -21 -14 14 -1 39 20 39 12 0 17 -6 13 -18z
m85 -30 c-3 -8 -6 -5 -6 6 -1 11 2 17 5 13 3 -3 4 -12 1 -19z m52 8 c21 -11
21 -14 6 -20 -15 -5 -15 -9 -4 -24 13 -15 12 -16 -4 -3 -13 10 -15 17 -6 27 9
11 8 14 -4 14 -9 0 -19 5 -22 10 -8 14 5 12 34 -4z m-334 -6 c3 -5 1 -10 -4
-10 -6 0 -11 5 -11 10 0 6 2 10 4 10 3 0 8 -4 11 -10z m-26 -25 c10 6 11 3 2
-14 -7 -11 -17 -21 -24 -21 -7 0 -6 4 3 10 13 8 12 10 -2 10 -12 0 -18 8 -18
22 0 21 1 21 13 3 9 -11 19 -15 26 -10z m436 -6 c3 -4 -4 -7 -15 -6 -10 1 -22
7 -24 13 -5 13 31 7 39 -7z m-398 -21 c-3 -7 -5 -2 -5 12 0 14 2 19 5 13 2 -7
2 -19 0 -25z m281 -5 c-10 -2 -18 -9 -18 -14 0 -6 5 -7 10 -4 6 3 10 1 10 -5
0 -7 -6 -10 -14 -7 -7 3 -19 0 -25 -6 -8 -8 -11 -8 -11 1 0 7 5 12 10 12 6 0
10 7 10 15 0 9 9 15 23 14 16 -1 18 -2 5 -6z m82 -3 c-20 -13 -33 -13 -25 0 3
6 14 10 23 10 15 0 15 -2 2 -10z m-359 -18 c-7 -2 -18 1 -23 6 -8 8 -4 9 13 5
13 -4 18 -8 10 -11z m-36 -2 c3 -5 2 -10 -4 -10 -5 0 -13 5 -16 10 -3 6 -2 10
4 10 5 0 13 -4 16 -10z m355 6 c0 -11 -19 -15 -25 -6 -3 5 1 10 9 10 9 0 16
-2 16 -4z m249 -19 c6 -8 8 -17 4 -21 -4 -4 0 -4 8 -1 9 3 22 -2 30 -11 12
-16 12 -17 -3 -11 -10 3 -18 2 -18 -3 0 -6 5 -10 10 -10 6 0 10 -7 10 -16 0
-9 7 -22 16 -28 9 -7 12 -18 8 -29 -5 -15 -8 -14 -26 8 -10 14 -17 29 -14 33
3 5 -4 16 -15 25 -23 21 -25 21 -32 3 -4 -10 -1 -13 9 -9 18 7 18 -4 -1 -23
-9 -10 -23 -12 -41 -8 -25 6 -26 5 -20 -19 9 -36 -8 -42 -23 -9 -7 15 -12 29
-11 31 1 2 -2 7 -7 10 -4 3 -19 19 -33 34 l-25 28 25 19 c30 24 131 28 149 7z
m301 -76 c0 -13 -29 -8 -34 5 -3 7 2 10 15 7 10 -3 19 -9 19 -12z m-250 -105
c0 -3 -5 -6 -11 -6 -16 0 -59 52 -53 62 5 8 64 -44 64 -56z m60 32 c0 -5 -4
-6 -10 -3 -5 3 -10 1 -10 -5 0 -7 8 -9 21 -5 14 5 19 3 15 -3 -3 -6 -1 -12 5
-14 7 -2 15 -29 19 -60 5 -31 11 -65 15 -77 11 -34 -20 -36 -84 -5 -47 23 -61
35 -65 57 -3 16 -24 45 -47 66 -28 25 -36 38 -25 38 9 0 16 -4 16 -9 0 -5 4
-7 9 -4 5 3 16 -6 25 -20 14 -20 24 -24 49 -21 28 3 32 7 33 33 1 16 2 34 2
41 2 14 32 6 32 -9z m1330 -73 c0 -8 -5 -15 -10 -15 -6 0 -10 -7 -8 -16 2 -10
-2 -19 -9 -21 -9 -3 -9 5 -1 31 11 36 28 49 28 21z m115 -5 c-3 -5 -12 -10
-18 -10 -7 0 -6 4 3 10 19 12 23 12 15 0z m47 -12 c7 -7 19 -13 26 -14 27 -2
30 -5 25 -25 -5 -19 -4 -20 17 -9 24 13 35 9 105 -33 l30 -18 -27 5 c-15 3
-40 -2 -56 -9 -15 -8 -38 -12 -50 -8 -19 5 -20 8 -10 21 11 13 10 14 -2 10 -8
-3 -23 -1 -32 4 -24 12 -23 3 2 -22 11 -11 20 -24 20 -30 0 -19 -20 -10 -51
25 -35 38 -63 45 -73 18 -4 -11 4 -28 26 -50 24 -25 29 -36 21 -44 -9 -9 -21
-2 -50 29 -31 34 -43 40 -63 35 -24 -6 -24 -5 5 18 17 13 36 31 43 41 14 19
72 25 72 8 0 -5 5 -10 10 -10 7 0 7 6 1 19 -6 10 -8 21 -5 24 3 3 0 8 -7 13
-7 4 -10 3 -5 -4 3 -6 2 -13 -3 -16 -7 -5 -8 11 -2 32 2 6 21 1 33 -10z m-62
-18 c-19 -13 -30 -13 -30 0 0 6 10 10 23 10 18 0 19 -2 7 -10z m-133 -45 c0
-8 -4 -12 -9 -9 -5 3 -6 10 -3 15 9 13 12 11 12 -6z m29 -75 c15 6 35 8 45 5
30 -10 58 -53 53 -81 -3 -17 0 -24 9 -22 7 2 12 -1 12 -6 0 -13 42 -26 63 -20
14 5 15 4 2 -5 -13 -9 -13 -11 0 -11 15 0 52 20 37 20 -4 0 -3 9 3 21 9 15 18
19 34 15 13 -3 31 1 42 10 18 14 17 15 -13 9 -19 -4 -34 -2 -38 5 -5 9 -1 10
15 5 17 -5 21 -4 15 5 -6 9 -4 11 4 6 17 -11 103 3 96 15 -4 5 -1 9 5 9 21 0
4 -24 -22 -31 -15 -4 -42 -19 -61 -33 -25 -19 -36 -23 -40 -14 -3 10 -9 8 -23
-6 -18 -18 -18 -18 -1 -13 29 11 10 -9 -22 -22 -25 -11 -36 -9 -84 13 -53 26
-98 61 -66 53 8 -2 11 -2 6 0 -4 3 -5 8 -3 12 7 11 -7 28 -31 35 -18 6 -22 4
-17 -8 3 -9 16 -16 28 -16 16 0 18 -2 7 -9 -10 -7 -28 1 -60 27 -55 43 -71 58
-52 47 10 -6 12 -2 7 16 -3 15 0 11 9 -8 14 -30 17 -32 41 -23z m154 16 c0
-11 -19 -15 -25 -6 -3 5 1 10 9 10 9 0 16 -2 16 -4z m370 -66 c8 -5 32 -18 53
-30 35 -20 44 -46 12 -34 -8 4 -12 11 -9 16 4 6 -3 5 -15 -1 -18 -10 -26 -6
-62 29 -23 22 -45 37 -50 34 -5 -3 -7 -10 -4 -15 3 -5 -1 -6 -10 -3 -14 6 -14
8 2 21 17 13 17 14 -3 8 -14 -3 -26 1 -35 12 -11 15 -11 16 1 6 19 -17 33 -16
27 1 -5 12 8 6 93 -44z m-340 19 c0 -6 -4 -7 -10 -4 -5 3 -10 11 -10 16 0 6 5
7 10 4 6 -3 10 -11 10 -16z m84 13 c3 -5 -1 -9 -9 -9 -8 0 -12 4 -9 9 3 4 7 8
9 8 2 0 6 -4 9 -8z m-2003 -37 c0 6 5 -3 10 -19 4 -17 6 -32 3 -35 -3 -3 -7 5
-11 17 -3 12 -9 22 -14 22 -5 0 -9 8 -9 18 0 14 2 15 10 2 5 -8 10 -10 11 -5z
m1019 -18 c0 -5 -4 -5 -10 -2 -5 3 -10 14 -10 23 0 15 2 15 10 2 5 -8 10 -19
10 -23z m1145 5 c-6 -7 -34 11 -29 19 3 5 11 3 19 -4 7 -6 12 -13 10 -15z
m-1115 -1 c0 -6 -4 -13 -10 -16 -5 -3 -10 1 -10 9 0 9 5 16 10 16 6 0 10 -4
10 -9z m1071 -41 c-8 -4 -21 -6 -29 -2 -10 3 -13 1 -8 -6 4 -7 1 -12 -7 -12
-8 0 -18 -7 -21 -16 -4 -9 -9 -14 -12 -11 -12 12 18 47 49 55 35 10 49 6 28
-8z m69 6 c0 -2 -11 -6 -25 -8 -13 -3 -22 -1 -19 3 5 9 44 13 44 5z m144 -27
c21 -17 26 -28 22 -48 -3 -14 -3 -20 0 -13 10 22 28 13 77 -40 38 -43 49 -50
57 -38 7 11 10 11 10 2 0 -7 5 -10 12 -6 7 4 8 3 4 -5 -4 -6 -12 -9 -17 -6 -5
4 -9 4 -9 1 0 -9 162 -166 172 -166 4 0 7 -6 6 -12 -2 -8 5 -12 17 -10 16 2
17 1 5 -7 -41 -28 -105 -2 -187 76 -32 30 -48 49 -36 44 12 -6 25 -16 28 -21
4 -6 11 -8 16 -5 5 3 6 -1 3 -9 -3 -9 2 -17 14 -20 11 -4 23 -13 26 -21 9 -25
22 -17 21 13 0 23 -4 27 -25 24 -17 -1 -21 1 -12 6 10 7 6 17 -19 41 -35 35
-53 34 -23 -1 l19 -23 -22 19 c-13 11 -23 30 -23 43 0 12 -4 23 -10 23 -5 0
-10 -5 -10 -12 0 -6 -3 -8 -7 -4 -4 4 -8 13 -8 19 0 7 -11 26 -24 42 l-23 30
-20 -26 c-19 -26 -21 -26 -63 -13 -24 7 -54 10 -67 8 -14 -3 -11 1 11 10 18 9
41 16 50 15 9 -1 5 -4 -9 -8 -23 -7 -21 -8 15 -14 35 -6 43 -3 62 20 28 32 29
37 3 23 -17 -9 -22 -7 -29 12 -5 13 -18 32 -30 42 -41 37 -21 49 23 15z m33
14 c-4 -4 7 -13 24 -20 18 -7 30 -16 27 -18 -8 -9 -69 26 -63 36 4 5 9 9 12 9
4 0 3 -3 0 -7z m-1398 -39 c59 -38 64 -60 53 -220 -6 -93 -5 -147 2 -166 11
-30 0 -51 -14 -28 -17 27 -22 117 -11 188 18 114 15 138 -20 182 -24 30 -40
40 -67 42 -45 4 -56 28 -13 28 17 0 49 -12 70 -26z m1141 -50 c31 -18 19 -15
-43 11 -48 20 -67 42 -22 25 21 -8 25 -6 26 8 1 11 3 9 8 -6 3 -13 17 -30 31
-38z m373 5 c8 -11 23 -22 32 -23 21 -3 148 -116 140 -124 -11 -11 -62 -8 -62
4 0 7 10 11 26 8 23 -3 20 1 -23 41 -27 24 -53 42 -57 39 -5 -3 -27 14 -50 37
-29 29 -39 35 -34 20 4 -12 2 -21 -4 -21 -6 0 -11 7 -11 16 0 9 -5 12 -12 8
-7 -4 -8 -3 -4 4 4 7 1 12 -6 12 -10 0 -9 3 1 9 18 12 44 -1 64 -30z m-173 5
c0 -22 -26 -16 -27 5 -1 14 3 18 13 14 8 -3 14 -11 14 -19z m-103 -10 c-3 -3
-12 -4 -19 -1 -8 3 -5 6 6 6 11 1 17 -2 13 -5z m-9 -21 c-10 -2 -28 -2 -40 0
-13 2 -5 4 17 4 22 1 32 -1 23 -4z m277 -13 c3 -5 1 -10 -4 -10 -6 0 -11 5
-11 10 0 6 2 10 4 10 3 0 8 -4 11 -10z m-1603 -27 c2 -18 15 -35 38 -51 43
-29 56 -50 40 -65 -8 -9 -14 -8 -21 6 -6 9 -23 24 -39 32 -18 9 -31 26 -35 45
-6 29 -8 30 -66 30 l-59 0 0 -40 c0 -35 12 -65 50 -127 9 -14 10 -25 2 -39
-10 -19 -11 -19 -18 1 -4 11 -21 39 -37 63 -27 40 -28 48 -22 102 8 66 8 66
107 69 55 1 57 0 60 -26z m1549 -39 c9 -11 2 -9 -18 6 -18 13 -33 25 -33 27 0
8 38 -17 51 -33z m149 -4 c0 -5 -4 -10 -10 -10 -5 0 -10 5 -10 10 0 6 5 10 10
10 6 0 10 -4 10 -10z m-1734 -42 c-6 -4 -8 -8 -3 -8 17 0 23 -2 35 -12 6 -6
12 -17 12 -25 0 -11 -8 -8 -29 9 -17 13 -28 28 -26 35 2 7 -2 10 -11 6 -9 -3
-14 2 -14 16 0 21 1 22 24 4 16 -12 20 -20 12 -25z m2204 -10 c0 -5 -11 2 -23
16 -13 14 -28 22 -32 18 -5 -4 -5 -1 -1 6 6 11 13 8 32 -9 13 -12 24 -26 24
-31z m-2176 -65 c3 -7 2 -23 -3 -35 -8 -22 -8 -22 -25 5 -10 14 -14 32 -10 38
4 7 3 9 -4 5 -12 -7 -42 30 -42 52 0 15 73 -43 84 -65z m1836 46 c0 -14 -17
-10 -23 5 -4 10 -1 13 9 9 7 -3 14 -9 14 -14z m-50 -9 c0 -5 -4 -10 -10 -10
-5 0 -10 5 -10 10 0 6 5 10 10 10 6 0 10 -4 10 -10z m471 -20 c11 0 17 -8 17
-25 l0 -25 -33 28 c-39 32 -57 61 -23 37 13 -8 30 -15 39 -15z m-371 -11 c0
-6 5 -7 11 -3 7 4 7 -2 -1 -17 -17 -33 -24 -38 -16 -13 4 14 0 27 -14 39 -11
10 -20 15 -20 10 0 -4 8 -14 17 -21 10 -7 15 -16 11 -20 -4 -4 -16 4 -27 17
-13 16 -16 26 -8 31 13 8 47 -8 47 -23z m-65 -6 c1 -10 8 -17 14 -15 17 3 13
-6 -6 -17 -16 -8 -18 -4 -19 25 -1 36 5 40 11 7z m252 -7 c-1 -6 4 -10 11 -8
14 2 16 -24 2 -33 -5 -3 -10 -2 -10 3 0 6 -18 6 -47 1 -25 -5 -48 -7 -51 -5
-2 3 15 8 38 13 22 4 40 13 38 18 -2 6 -7 9 -11 7 -5 -1 -6 1 -3 6 8 13 35 11
33 -2z m40 8 c-3 -3 -12 -4 -19 -1 -8 3 -5 6 6 6 11 1 17 -2 13 -5z m273 -16
c0 -17 -3 -19 -9 -9 -6 9 -11 10 -15 2 -4 -6 -5 -15 -2 -20 7 -11 -18 -33 -27
-24 -4 3 -7 1 -7 -5 0 -7 -5 -12 -11 -12 -8 0 -8 4 1 15 6 8 17 13 23 12 7 -1
11 4 9 12 -2 11 24 51 35 51 1 0 3 -10 3 -22z m-395 2 c-3 -5 -18 -10 -33 -9
l-27 1 25 8 c35 11 42 11 35 0z m-53 -27 c-10 -4 -10 -9 2 -27 12 -19 12 -23
1 -23 -8 0 -14 3 -13 6 2 23 -6 21 -32 -9 l-31 -35 33 48 c17 26 37 47 42 46
6 0 5 -3 -2 -6z m248 -3 c0 -5 -5 -10 -11 -10 -5 0 -7 5 -4 10 3 6 8 10 11 10
2 0 4 -4 4 -10z m102 -25 c3 -13 1 -22 -3 -19 -5 3 -9 -1 -9 -8 0 -8 -5 -19
-12 -26 -6 -6 -13 -26 -15 -44 -2 -23 -15 -45 -43 -70 -21 -21 -44 -38 -50
-38 -9 0 24 32 59 57 2 2 2 5 0 8 -3 2 -18 -2 -33 -10 -36 -19 -42 -19 -26 0
6 8 8 20 4 26 -5 9 -10 7 -15 -7 -6 -16 -8 -16 -8 -2 -1 12 -6 15 -18 11 -11
-4 -14 -3 -9 6 5 8 2 11 -9 9 -11 -2 -19 4 -20 15 -4 21 13 22 34 3 9 -8 22
-12 29 -7 8 5 -4 17 -34 36 -26 17 -41 31 -33 34 7 2 15 -1 17 -8 3 -9 7 -9
18 0 12 10 18 9 32 -4 11 -12 12 -17 3 -17 -8 0 -5 -9 8 -26 12 -15 21 -33 21
-41 0 -18 52 -12 58 7 3 8 0 10 -9 6 -8 -4 -6 -1 4 7 10 8 17 19 16 23 -4 25
2 45 13 38 8 -5 9 -2 5 10 -6 15 7 56 17 56 2 0 6 -11 8 -25z m-2304 -103 c-2
-50 0 -88 5 -85 4 2 8 -6 8 -19 1 -13 3 -35 5 -50 2 -24 -1 -28 -22 -28 -14 0
-22 4 -19 10 3 6 1 10 -5 10 -7 0 -9 8 -5 21 5 14 3 19 -3 15 -6 -4 -8 2 -5
14 l6 21 14 -21 c8 -11 11 -25 8 -30 -3 -6 -1 -10 4 -10 17 0 13 19 -10 51
-15 21 -19 38 -14 66 4 27 3 32 -4 18 -7 -17 -9 -14 -9 15 0 19 7 45 14 57 8
12 14 30 14 40 0 12 3 14 11 6 6 -6 9 -45 7 -101z m1868 76 c-9 -12 -16 -20
-16 -16 0 3 -3 14 -6 22 -5 12 -2 15 10 10 10 -4 16 -1 16 7 0 7 3 10 6 6 3
-3 -1 -16 -10 -29z m204 3 c0 -8 -79 -3 -89 5 -2 2 17 4 42 4 26 0 47 -4 47
-9z m-2145 -100 c5 -8 8 -52 6 -97 -1 -54 2 -85 10 -89 6 -4 29 -2 51 6 50 16
65 47 43 89 -16 30 -22 168 -6 140 9 -16 26 -103 36 -185 l6 -51 -53 -18 c-29
-9 -58 -20 -65 -22 -19 -8 -37 37 -39 96 -1 30 -7 81 -14 113 -7 32 -9 69 -4
85 7 26 8 25 14 -13 3 -22 10 -47 15 -54z m1878 69 c-3 -12 0 -20 6 -20 7 0
10 4 7 8 -3 5 1 9 9 9 8 0 12 -4 9 -9 -7 -11 10 -10 22 1 5 6 10 0 11 -16 0
-14 -2 -22 -5 -17 -4 5 -20 10 -36 11 -34 1 -49 14 -40 36 9 24 23 21 17 -3z
m107 -20 c23 12 38 -6 21 -23 -9 -9 -14 -9 -20 2 -6 9 -11 10 -15 2 -4 -6 -4
-16 0 -23 4 -6 3 -8 -3 -5 -6 4 -10 19 -10 34 0 16 2 22 4 16 3 -9 10 -10 23
-3z m91 -20 c10 0 19 3 19 8 0 4 14 8 31 9 23 2 29 -1 26 -11 -6 -14 46 -68
57 -60 3 2 4 1 1 -2 -2 -4 0 -15 5 -25 9 -16 8 -16 -19 -3 -15 8 -52 16 -82
19 -124 11 -166 17 -180 26 -18 11 -10 11 51 -2 28 -6 58 -8 67 -5 14 6 14 8
-2 26 -10 11 -14 24 -9 31 6 10 9 10 12 1 2 -7 12 -12 23 -12z m-54 -26 c-3
-3 -12 -4 -19 -1 -8 3 -5 6 6 6 11 1 17 -2 13 -5z m-3057 -342 c0 -15 -2 -15
-10 -2 -13 20 -13 33 0 25 6 -3 10 -14 10 -23z m937 -788 c-3 -3 -12 -4 -19
-1 -8 3 -5 6 6 6 11 1 17 -2 13 -5z m39 -1 c-3 -4 4 -13 16 -20 13 -7 17 -12
10 -13 -22 0 -53 20 -47 31 4 5 11 9 17 9 6 0 8 -3 4 -7z m36 -148 c84 -45
148 -96 103 -82 -11 3 -46 16 -79 27 -68 24 -111 23 -56 -2 l35 -16 -50 -1
c-34 -1 -60 5 -80 19 -16 11 -34 20 -40 20 -11 0 36 -39 48 -40 4 0 31 -16 60
-36 l52 -36 -50 6 c-27 3 -83 19 -123 36 -78 33 -104 32 -62 -2 39 -32 119
-65 190 -79 36 -7 66 -14 68 -15 9 -6 -23 -84 -36 -89 -29 -11 -212 -25 -260
-19 l-47 5 50 -30 c28 -16 94 -53 148 -80 53 -28 97 -54 97 -58 0 -3 -28 -3
-62 1 -51 5 -70 13 -115 47 -91 68 -155 83 -139 32 10 -32 36 -49 108 -72 88
-29 98 -45 14 -22 -35 10 -106 41 -157 70 l-92 53 -37 -17 c-47 -21 -67 -16
-147 41 -62 44 -94 76 -57 56 22 -11 209 -62 230 -62 32 0 12 30 -28 42 l-43
12 33 4 c17 2 32 8 32 13 0 16 -42 27 -128 34 -45 4 -79 11 -76 16 3 5 17 9
32 9 15 0 45 9 67 20 22 11 47 20 57 20 11 0 18 7 18 18 0 19 37 42 66 42 10
0 14 8 12 22 -3 24 21 34 88 37 18 0 66 22 114 51 107 64 130 65 242 5z m-770
-465 c7 0 24 -12 38 -26 32 -33 97 -74 115 -74 8 0 15 -5 15 -11 0 -15 -93 -5
-98 10 -2 6 -9 11 -16 11 -11 0 -87 80 -107 112 -3 5 -4 21 -1 36 5 26 6 25
23 -16 10 -23 24 -42 31 -42z m-352 0 c0 -5 -6 -10 -14 -10 -20 0 -69 -27 -59
-32 4 -3 2 -3 -6 -1 -8 2 -11 -2 -8 -11 4 -10 1 -13 -9 -9 -12 4 -12 8 -2 21
11 13 10 15 -5 9 -11 -4 -16 -3 -12 4 4 6 13 8 21 5 7 -3 16 -1 19 4 3 5 20
14 38 19 18 5 33 10 35 10 1 1 2 -3 2 -9z m11 -53 c4 -16 3 -30 -3 -33 -7 -4
-8 -2 -4 4 3 6 -2 15 -11 21 -10 6 -12 11 -5 11 6 0 12 5 12 11 0 6 -9 8 -22
4 -18 -5 -20 -4 -8 4 21 15 33 9 41 -22z m813 -57 c34 0 46 -4 46 -15 0 -11
-12 -15 -45 -15 -68 0 -145 44 -145 82 0 15 7 13 49 -17 39 -28 58 -35 95 -35z
m-957 54 c-3 -3 -12 -4 -19 -1 -8 3 -5 6 6 6 11 1 17 -2 13 -5z m108 -14 c3
-6 -1 -7 -9 -4 -18 7 -21 14 -7 14 6 0 13 -4 16 -10z m-172 -15 c-3 -9 -8 -14
-10 -11 -3 3 -2 9 2 15 9 16 15 13 8 -4z m230 -29 c4 -10 1 -13 -9 -9 -15 6
-19 23 -5 23 5 0 11 -7 14 -14z m-297 -31 c1 -8 -3 -18 -8 -22 -6 -3 -8 -1 -4
5 3 6 2 13 -4 17 -6 4 -8 11 -4 16 7 12 17 4 20 -16z m27 0 c-3 -9 -8 -14 -10
-11 -3 3 -2 9 2 15 9 16 15 13 8 -4z m23 -33 c-15 -15 -15 -15 -4 10 7 15 15
23 17 17 2 -6 -4 -18 -13 -27z m256 19 c-5 -3 -12 -13 -15 -21 -3 -8 -5 -3 -4
11 1 18 6 25 15 21 7 -2 9 -8 4 -11z m-216 -47 c-9 -8 -11 -9 -6 -2 6 7 11 21
11 33 1 18 2 18 6 1 3 -10 -2 -25 -11 -32z m-152 -23 c-5 -6 -34 20 -34 30 0
5 8 1 18 -8 10 -10 17 -20 16 -22z m396 -1 c-18 -11 -22 -7 -14 14 5 13 10 14
18 6 8 -8 7 -13 -4 -20z m-445 10 c-3 -5 -11 -10 -16 -10 -6 0 -7 5 -4 10 3 6
11 10 16 10 6 0 7 -4 4 -10z m30 -40 c3 -5 1 -10 -4 -10 -6 0 -11 5 -11 10 0
6 2 10 4 10 3 0 8 -4 11 -10z m-125 -22 c-8 -7 -20 -20 -28 -28 -12 -13 -13
-13 -6 0 12 25 26 40 37 40 6 0 5 -6 -3 -12z m84 -4 c3 -8 2 -12 -4 -9 -6 3
-10 10 -10 16 0 14 7 11 14 -7z m-40 -25 c-3 -5 -11 -9 -17 -9 -7 0 -6 4 3 10
10 6 11 10 3 10 -7 0 -13 5 -13 11 0 8 5 8 15 -1 8 -7 12 -16 9 -21z m466 21
c0 -5 -4 -10 -10 -10 -5 0 -10 5 -10 10 0 6 5 10 10 10 6 0 10 -4 10 -10z m71
-23 c9 -18 9 -20 -2 -10 -8 8 -17 9 -24 3 -6 -5 -16 -5 -25 2 -12 8 -12 9 2 4
10 -3 20 -1 23 4 4 6 1 10 -5 10 -6 0 -8 5 -5 10 8 13 22 4 36 -23z m-106 -7
c3 -6 -1 -7 -9 -4 -18 7 -21 14 -7 14 6 0 13 -4 16 -10z m-541 -40 c-3 -2 -9
2 -14 10 -9 14 -11 13 -14 -10 0 -5 -5 -10 -11 -9 -11 1 -8 18 7 37 8 10 13 9
23 -5 8 -10 11 -20 9 -23z m1331 32 c6 -4 26 -27 46 -52 28 -34 34 -48 25 -57
-55 -61 -62 -64 -68 -29 -4 19 -1 22 14 18 27 -7 42 38 20 59 -35 32 -65 69
-56 69 5 0 14 -4 19 -8z m-1225 -6 c0 -3 -4 -8 -10 -11 -5 -3 -10 -1 -10 4 0
6 5 11 10 11 6 0 10 -2 10 -4z m548 -12 c6 3 14 1 18 -5 4 -8 3 -9 -4 -5 -7 4
-12 3 -12 -1 0 -12 29 -50 30 -39 0 5 9 -1 20 -14 22 -25 26 -35 10 -25 -5 3
-10 0 -10 -7 0 -10 -3 -9 -9 2 -6 8 -7 18 -5 22 3 4 -2 8 -10 8 -9 0 -16 4
-16 8 0 15 -37 52 -44 45 -4 -4 -4 1 0 11 5 13 9 14 14 6 4 -7 12 -10 18 -6z
m660 -108 c-4 -98 -3 -104 13 -95 21 11 56 12 45 2 -4 -4 -26 -13 -48 -20
l-40 -12 5 105 c5 97 10 124 24 124 3 0 3 -47 1 -104z m-1396 78 c-12 -8 -19
-20 -16 -26 5 -7 2 -8 -6 -3 -10 6 -12 3 -8 -13 4 -14 2 -20 -4 -16 -6 4 -8 1
-6 -7 3 -8 11 -13 18 -11 11 3 11 0 0 -12 -14 -17 -25 -22 -15 -7 3 6 -5 15
-17 22 -22 12 -22 11 -8 -7 8 -10 10 -16 6 -12 -5 4 -15 3 -22 -3 -9 -7 -12
-6 -10 4 3 22 27 48 38 41 5 -3 8 1 6 9 -3 15 38 56 57 57 5 0 -1 -7 -13 -16z
m38 -19 c9 -10 9 -15 1 -15 -6 0 -11 5 -11 11 0 6 -7 8 -16 5 -8 -3 -12 -2 -9
4 9 14 21 12 35 -5z m667 -1 c-3 -3 -12 -4 -19 -1 -8 3 -5 6 6 6 11 1 17 -2
13 -5z m-687 -28 c0 -3 -4 -8 -10 -11 -5 -3 -10 -1 -10 4 0 6 5 11 10 11 6 0
10 -2 10 -4z m713 -23 c-6 -16 -5 -16 10 -4 9 7 17 9 17 3 0 -5 -14 -15 -30
-21 -17 -5 -29 -7 -27 -3 2 4 7 15 10 25 4 9 11 17 16 17 6 0 7 -8 4 -17z
m-679 -17 c-3 -8 -13 -17 -22 -21 -13 -5 -13 -2 3 15 21 24 26 25 19 6z m1452
-15 c-4 -6 -14 -11 -22 -11 -12 0 -13 4 -3 21 7 14 14 18 21 11 6 -6 7 -15 4
-21z m-1610 -32 c-1 -38 -28 -56 -47 -31 -11 14 -11 15 0 5 14 -12 41 -7 41 8
0 4 -7 5 -17 2 -17 -6 -14 4 10 35 13 17 13 16 13 -19z m684 6 c0 -2 -7 -1
-17 2 -11 4 -14 3 -9 -5 4 -7 3 -12 -3 -12 -5 0 -9 9 -8 19 1 16 5 18 19 10
10 -5 18 -12 18 -14z m64 4 c-28 -11 -69 -35 -91 -53 -24 -21 -40 -29 -40 -21
0 8 3 13 6 12 3 -1 26 13 50 31 24 17 38 32 30 32 -34 1 13 15 53 17 l43 1
-51 -19z m-659 -39 c-10 -11 -22 -20 -26 -20 -5 0 -1 9 8 20 10 11 22 20 27
20 5 0 1 -9 -9 -20z m510 -51 c1 -11 -5 -24 -14 -29 -13 -6 -16 -3 -18 18 -1
18 1 21 8 11 7 -12 9 -12 10 1 1 8 0 20 -1 25 -1 6 2 7 6 2 4 -4 8 -17 9 -28z
m-700 -9 c3 -5 0 -7 -7 -5 -8 3 -22 -2 -33 -11 -20 -15 -20 -15 2 -11 13 3 26
1 29 -4 3 -5 11 -9 17 -9 7 0 6 4 -3 11 -13 9 -13 10 0 6 9 -2 15 -15 14 -30
0 -14 5 -25 10 -24 6 1 12 -12 14 -30 4 -41 -32 -68 -80 -60 -28 5 -40 0 -73
-28 -33 -29 -37 -37 -25 -45 10 -6 16 -6 18 0 2 6 10 10 17 10 8 0 15 12 17
27 4 35 28 43 28 10 0 -24 3 -25 78 -32 43 -4 94 -11 113 -16 37 -9 37 -9
-117 7 -50 5 -70 2 -109 -15 -62 -28 -81 -27 -89 4 -7 28 12 115 25 115 5 0 9
8 9 18 0 10 16 33 35 52 19 19 35 28 35 21 0 -7 5 -9 11 -6 6 4 8 10 5 13 -8
8 24 42 40 42 7 0 16 -4 19 -10z m675 -46 c0 -8 -19 -13 -24 -6 -3 5 1 9 9 9
8 0 15 -2 15 -3z m-76 -78 c-51 -60 -67 -72 -40 -31 15 23 15 25 -2 25 -10 0
-18 -8 -19 -17 -1 -10 -3 -25 -5 -33 -5 -22 -38 -67 -38 -52 0 6 -5 12 -10 12
-6 0 -10 -6 -9 -12 4 -35 -22 -60 -37 -36 -4 7 -3 8 4 4 7 -4 12 -2 12 4 0 6
-7 13 -15 16 -8 4 -15 11 -15 17 0 5 9 2 20 -8 11 -10 23 -16 26 -13 3 3 -4
15 -16 26 l-21 20 29 -4 c23 -3 34 3 51 27 13 17 20 33 16 37 -3 4 -10 0 -15
-8 -7 -12 -9 -10 -8 6 2 17 9 20 42 20 35 1 41 4 38 20 -2 14 -1 16 6 5 11
-15 27 3 17 19 -3 6 1 7 10 4 11 -5 14 -2 9 12 -6 15 -4 17 6 7 10 -9 3 -23
-36 -67z m-512 -28 c-9 -9 -12 -7 -12 12 0 19 3 21 12 12 9 -9 9 -15 0 -24z
m53 -66 c17 -6 25 -11 18 -11 -22 -2 -63 19 -63 31 0 9 3 10 8 2 4 -6 21 -16
37 -22z m115 -12 c-8 -5 -28 -9 -45 -9 -30 2 -30 2 5 9 51 11 57 11 40 0z
m-16 -30 c-7 -7 -19 -7 -35 -1 -23 9 -22 10 11 10 23 1 31 -2 24 -9z m43 -16
c-3 -3 -12 -4 -19 -1 -8 3 -5 6 6 6 11 1 17 -2 13 -5z m111 -11 c-16 -2 -40
-2 -55 0 -16 2 -3 4 27 4 30 0 43 -2 28 -4z m-561 -25 c-3 -8 -6 -5 -6 6 -1
11 2 17 5 13 3 -3 4 -12 1 -19z m977 -196 c15 -47 34 -75 103 -152 97 -108
159 -194 169 -236 5 -17 73 -94 185 -208 98 -100 179 -183 179 -184 0 -2 -10
-12 -22 -21 -16 -13 -22 -32 -26 -74 l-4 -56 -83 87 c-161 169 -247 290 -300
421 -22 51 -52 113 -68 138 l-30 44 -31 -29 c-17 -16 -41 -38 -54 -49 -47 -42
-171 -59 -216 -30 -31 21 -44 43 -71 129 l-21 67 -17 -37 c-9 -21 -33 -53 -53
-72 l-36 -35 16 32 c21 42 20 50 -4 28 -11 -10 -17 -21 -15 -25 3 -4 -5 -19
-18 -32 -12 -14 -23 -32 -25 -39 -5 -21 -23 -39 -33 -34 -10 7 10 55 23 55 5
0 7 4 3 9 -3 5 0 13 6 17 8 4 9 3 5 -4 -4 -7 -2 -12 3 -12 6 0 11 8 11 18 0
19 52 75 66 72 5 -1 10 4 13 11 2 7 -1 9 -9 4 -9 -6 -9 -3 -1 14 14 25 22 28
15 4 -6 -20 7 -6 59 61 16 21 55 56 88 80 32 24 56 45 53 48 -3 4 0 9 7 14 8
5 10 3 4 -6 -5 -8 -3 -11 6 -8 8 3 13 11 11 17 -1 7 2 10 8 6 5 -3 22 1 37 9
43 23 49 20 67 -42z m-277 -13 c-9 -6 -15 -14 -12 -20 4 -5 -1 -9 -9 -9 -9 0
-16 -4 -16 -10 0 -5 -10 -15 -22 -21 -15 -8 -9 2 17 29 21 23 44 42 50 42 5 0
2 -5 -8 -11z m-47 -3 c0 -2 -41 -46 -92 -97 -66 -68 -95 -104 -103 -134 -7
-22 -19 -41 -28 -43 -14 -3 -14 2 -5 35 15 55 107 162 188 217 39 27 40 28 40
22z m40 -52 c0 -3 -14 -18 -32 -34 -17 -16 -29 -33 -24 -37 4 -4 12 -1 17 7 9
13 10 13 6 0 -2 -8 -13 -16 -25 -16 -30 -2 -129 -106 -137 -146 -7 -30 -20
-47 -37 -48 -3 0 -2 16 3 35 6 19 7 40 4 45 -4 6 -2 9 2 8 5 -2 41 30 79 71
38 40 85 84 104 97 40 26 40 26 40 18z m-129 -77 l-24 -22 19 27 c10 14 21 24
23 22 3 -3 -6 -15 -18 -27z m-73 -77 c-7 -10 -14 -17 -17 -15 -4 4 18 35 25
35 2 0 -1 -9 -8 -20z m-133 0 c-3 -5 -12 -10 -18 -10 -7 0 -6 4 3 10 19 12 23
12 15 0z m674 -184 c9 -10 8 -16 -3 -25 -12 -10 -13 -8 -9 10 5 19 3 21 -25
17 -17 -2 -29 -1 -26 4 8 13 51 9 63 -6z m-396 -69 c5 3 7 1 4 -4 -9 -14 29
-47 44 -37 7 4 10 3 5 -4 -3 -6 19 -30 53 -56 60 -47 84 -58 61 -31 -10 12 -9
15 5 15 10 0 15 -3 12 -7 -4 -3 -2 -12 4 -20 6 -7 8 -13 3 -13 -4 0 1 -7 12
-16 18 -14 18 -14 -6 -3 -77 37 -270 199 -270 227 0 7 14 -3 31 -23 17 -19 36
-32 42 -28z m314 11 c-3 -7 -5 -2 -5 12 0 14 2 19 5 13 2 -7 2 -19 0 -25z
m112 -20 c-5 -10 -11 -18 -12 -18 -1 0 -17 -4 -35 -9 -20 -6 -32 -6 -32 0 0 5
11 9 24 9 31 0 57 25 50 48 -5 14 -4 14 4 3 7 -10 7 -21 1 -33z m-89 -8 c0 -5
-2 -10 -4 -10 -3 0 -8 5 -11 10 -3 6 -1 10 4 10 6 0 11 -4 11 -10z m-35 -11
c12 -18 -3 -22 -20 -5 -14 14 -14 16 -1 16 8 0 18 -5 21 -11z m-75 -19 c0 -5
-5 -10 -11 -10 -5 0 -7 5 -4 10 3 6 8 10 11 10 2 0 4 -4 4 -10z m92 -72 c-8
-8 -9 -4 -5 13 4 13 8 18 11 10 2 -7 -1 -18 -6 -23z m-82 2 c0 -5 -4 -10 -10
-10 -5 0 -10 5 -10 10 0 6 5 10 10 10 6 0 10 -4 10 -10z m860 -346 c-12 -48
-26 -128 -30 -178 -5 -50 -13 -111 -18 -136 -6 -25 -14 -86 -18 -137 -6 -87
-5 -94 20 -136 14 -25 28 -69 32 -99 7 -63 -3 -77 -64 -85 -31 -4 -44 0 -68
20 -29 25 -29 26 -32 149 -4 115 -2 133 27 232 17 59 33 111 36 116 8 13 32
106 51 198 9 42 22 89 30 104 13 25 44 51 52 43 2 -2 -6 -43 -18 -91z m-430
-141 c0 -8 -9 0 -50 45 l-45 47 48 -45 c26 -24 47 -45 47 -47z m125 -63 c38
-5 39 -6 18 -18 -27 -15 -65 0 -98 39 l-20 23 30 -19 c17 -10 48 -22 70 -25z"/>
<path d="M2728 6513 c7 -3 16 -2 19 1 4 3 -2 6 -13 5 -11 0 -14 -3 -6 -6z"/>
<path d="M2650 6370 c0 -5 5 -10 10 -10 6 0 10 5 10 10 0 6 -4 10 -10 10 -5 0
-10 -4 -10 -10z"/>
<path d="M2943 6252 c-8 -5 -8 -12 2 -25 12 -17 13 -16 11 7 0 15 -1 26 -1 26
0 0 -5 -4 -12 -8z"/>
<path d="M2916 6225 c4 -8 11 -15 16 -15 6 0 5 6 -2 15 -7 8 -14 15 -16 15 -2
0 -1 -7 2 -15z"/>
<path d="M3101 6004 c0 -11 3 -14 6 -6 3 7 2 16 -1 19 -3 4 -6 -2 -5 -13z"/>
<path d="M3190 6000 c-13 -8 -12 -10 3 -10 9 0 17 5 17 10 0 12 -1 12 -20 0z"/>
<path d="M3130 5990 c-8 -5 -10 -10 -5 -10 6 0 17 5 25 10 8 5 11 10 5 10 -5
0 -17 -5 -25 -10z"/>
<path d="M3160 5976 c0 -2 9 -6 20 -9 11 -3 18 -1 14 4 -5 9 -34 13 -34 5z"/>
<path d="M4690 5985 c0 -8 5 -15 10 -15 6 0 10 7 10 15 0 8 -4 15 -10 15 -5 0
-10 -7 -10 -15z"/>
<path d="M4762 5945 c-13 -16 -5 -19 22 -9 9 3 13 10 10 15 -7 13 -17 11 -32
-6z"/>
<path d="M5050 5800 c0 -5 5 -10 11 -10 5 0 7 5 4 10 -3 6 -8 10 -11 10 -2 0
-4 -4 -4 -10z"/>
<path d="M5353 5439 c1 -21 40 -44 61 -35 6 2 3 5 -7 5 -10 1 -16 4 -14 9 3 4
-6 15 -18 24 -23 17 -24 17 -22 -3z"/>
<path d="M3570 5492 c6 -13 14 -21 18 -18 3 4 -2 14 -12 24 -18 16 -18 16 -6
-6z"/>
<path d="M3610 5440 c0 -5 5 -10 11 -10 5 0 7 5 4 10 -3 6 -8 10 -11 10 -2 0
-4 -4 -4 -10z"/>
<path d="M3580 5317 c0 -3 7 -20 15 -38 12 -29 14 -31 15 -11 0 13 -7 30 -15
38 -8 9 -15 13 -15 11z"/>
<path d="M5646 5264 c-5 -12 -1 -14 17 -10 12 3 16 3 10 0 -22 -10 -14 -21 13
-21 l25 0 -22 23 c-26 28 -35 30 -43 8z"/>
<path d="M1461 2837 c-26 -43 -26 -47 0 -47 17 0 20 4 16 22 -4 12 -1 28 5 35
6 8 8 16 6 19 -3 3 -15 -10 -27 -29z"/>
<path d="M1534 2854 c4 -12 2 -15 -9 -10 -8 3 -15 1 -15 -3 0 -5 -3 -18 -7
-28 -4 -13 3 -10 25 11 30 27 34 46 10 46 -5 0 -7 -7 -4 -16z"/>
<path d="M1566 2819 c-15 -9 -16 -13 -5 -20 10 -6 7 -9 -10 -9 -13 0 -22 -3
-18 -6 10 -10 58 5 52 16 -3 6 -1 10 4 10 6 0 11 5 11 10 0 13 -10 12 -34 -1z"/>
<path d="M1417 2747 c2 -4 -1 -14 -7 -22 -7 -8 -9 -15 -4 -15 12 0 26 11 43
32 12 16 11 18 -12 16 -14 -1 -23 -6 -20 -11z"/>
<path d="M2079 2713 c-13 -16 -12 -17 4 -4 16 13 21 21 13 21 -2 0 -10 -8 -17
-17z"/>
<path d="M1140 6540 c-12 -12 -20 -33 -20 -55 0 -30 -3 -35 -23 -35 -64 0 -88
-66 -41 -113 l26 -27 -32 -30 c-18 -16 -42 -30 -54 -30 -56 0 -62 -60 -11
-120 19 -23 35 -46 35 -52 0 -18 74 -104 119 -139 35 -26 53 -53 84 -119 21
-47 78 -166 126 -265 49 -99 91 -192 94 -206 4 -15 22 -45 39 -67 18 -22 53
-68 78 -102 80 -112 173 -158 282 -141 72 12 122 38 189 99 30 27 65 55 79 62
32 17 161 122 156 128 -7 6 -79 -36 -120 -70 l-38 -33 -30 35 c-16 19 -38 54
-49 77 -16 38 -164 219 -218 267 -11 11 -21 27 -21 36 0 11 -27 35 -66 60 -87
57 -125 104 -191 235 l-55 111 1 104 0 105 -63 60 c-35 33 -67 70 -70 82 -4
12 -21 37 -39 56 -18 18 -45 50 -60 70 -32 43 -74 50 -107 17z m76 -37 c10
-13 13 -14 14 -4 0 19 30 -6 30 -25 0 -8 5 -14 10 -14 6 0 10 -8 10 -17 0 -12
-7 -7 -23 15 -19 25 -26 29 -36 19 -9 -8 -11 -9 -9 0 2 6 -1 11 -7 11 -5 1 -9
-6 -7 -14 2 -12 -1 -11 -17 3 -12 10 -21 22 -21 28 0 5 4 3 10 -5 8 -12 10
-12 16 3 8 21 13 21 30 0z m-9 -85 c-3 -7 -5 -2 -5 12 0 14 2 19 5 13 2 -7 2
-19 0 -25z m131 -56 c2 -36 1 -38 -27 -38 -25 0 -28 2 -20 17 5 10 7 24 6 31
-2 7 -2 10 0 6 3 -5 9 -8 14 -8 12 0 2 54 -11 58 -5 2 -10 9 -10 15 1 29 45
-46 48 -81z m-44 54 c3 2 4 1 1 -3 -10 -13 -34 -11 -46 3 -10 12 -8 13 13 5
14 -5 29 -8 32 -5z m-194 -12 c0 -2 -7 -4 -15 -4 -8 0 -15 4 -15 10 0 5 7 7
15 4 8 -4 15 -8 15 -10z m60 -1 c0 -2 -8 -3 -17 -1 -10 2 -24 -3 -31 -12 -11
-13 -12 -12 -3 7 8 15 17 20 31 16 11 -3 20 -7 20 -10z m-65 -41 c-6 -7 -34
11 -29 19 3 5 11 3 19 -4 7 -6 12 -13 10 -15z m85 18 c13 -9 13 -10 0 -10 -8
0 -22 5 -30 10 -13 9 -13 10 0 10 8 0 22 -5 30 -10z m-53 -27 c-9 -2 -14 -9
-11 -15 4 -7 2 -8 -5 -4 -15 10 -4 26 17 25 15 -1 15 -2 -1 -6z m249 -28 c4
-8 10 -13 14 -10 11 7 33 -22 25 -35 -3 -5 -1 -10 5 -10 6 0 10 -8 8 -17 -4
-21 -29 -24 -35 -5 -3 6 0 12 7 12 6 0 8 -5 4 -12 -5 -7 -3 -8 5 -4 9 6 8 13
-5 27 -14 15 -20 17 -26 7 -6 -8 -7 -4 -3 11 5 17 4 22 -5 16 -9 -6 -11 -4 -5
5 4 7 2 16 -6 21 -11 7 -11 9 -1 9 7 0 15 -7 18 -15z m-256 -15 c0 -5 -5 -10
-11 -10 -5 0 -7 5 -4 10 3 6 8 10 11 10 2 0 4 -4 4 -10z m213 -7 c-7 -2 -21
-2 -30 0 -10 3 -4 5 12 5 17 0 24 -2 18 -5z m-230 -30 c-4 -11 -3 -14 5 -9 7
4 12 1 12 -8 0 -9 9 -16 20 -16 11 0 20 -7 20 -15 0 -22 -18 -18 -44 10 -23
25 -43 34 -31 15 3 -5 1 -10 -4 -10 -16 0 -14 11 6 32 20 22 24 23 16 1z m212
7 c13 -6 15 -9 5 -9 -8 0 -22 4 -30 9 -18 12 -2 12 25 0z m15 -30 c0 -5 -5
-10 -11 -10 -5 0 -7 5 -4 10 3 6 8 10 11 10 2 0 4 -4 4 -10z m-300 -40 c-8 -6
-22 -10 -30 -9 -9 0 -5 6 10 14 27 14 44 10 20 -5z m45 1 c-3 -6 -11 -11 -17
-11 -6 0 -6 6 2 15 14 17 26 13 15 -4z m346 -94 c-5 -5 -7 -16 -4 -23 9 -23
-23 -16 -56 12 -17 14 -31 20 -31 13 0 -6 8 -18 18 -25 16 -12 15 -13 -5 -14
-12 0 -30 -3 -40 -6 -15 -5 -15 -4 -3 5 12 8 8 11 -20 10 -29 0 -31 -2 -15 -9
14 -6 16 -9 4 -9 -8 -1 -28 -15 -44 -31 -20 -21 -31 -26 -36 -18 -5 7 -24 11
-47 9 -22 -1 -42 1 -45 6 -8 12 86 10 96 -2 5 -5 6 4 2 20 -6 27 -5 28 7 12
13 -18 15 -18 29 -1 12 16 12 17 -3 11 -31 -11 -19 2 17 19 36 17 46 34 21 34
-8 0 -17 7 -20 16 -5 13 0 15 33 9 34 -6 41 -3 51 15 7 14 17 19 27 16 13 -6
14 -4 3 11 -7 10 6 -2 29 -26 27 -28 38 -48 32 -54z m-395 70 c-17 -12 -15
-14 19 -15 20 -1 43 -6 50 -12 9 -8 15 -8 20 0 3 5 11 10 18 10 6 0 3 -6 -8
-13 -10 -8 -15 -19 -11 -25 5 -8 2 -10 -8 -6 -9 3 -16 1 -16 -5 0 -6 5 -11 10
-11 6 0 10 -5 10 -11 0 -5 -4 -7 -10 -4 -5 3 -10 -1 -10 -10 0 -11 5 -15 16
-11 8 3 12 2 9 -4 -3 -6 -2 -10 4 -10 5 0 12 6 14 13 3 7 6 5 6 -5 1 -20 -3
-21 -37 -11 -18 4 -23 11 -19 29 2 14 -3 31 -14 43 -13 14 -15 21 -6 25 7 4 2
4 -10 2 -12 -2 -30 2 -40 10 -16 12 -16 15 -3 24 23 15 37 12 16 -3z m419 -87
c3 -5 1 -10 -4 -10 -6 0 -11 5 -11 10 0 6 2 10 4 10 3 0 8 -4 11 -10z m-78
-56 c-3 -3 -20 -9 -39 -14 -18 -4 -42 -11 -52 -16 -14 -5 -17 -4 -12 5 5 7 18
16 30 21 24 10 82 13 73 4z m73 -4 c11 -7 5 -10 -23 -10 -23 0 -36 4 -32 10 8
13 35 13 55 0z m-157 -44 c-23 -13 -52 -34 -64 -45 -13 -11 -25 -19 -27 -16
-10 9 32 46 72 65 58 26 68 24 19 -4z m77 -21 c0 -43 -21 -75 -49 -75 -28 0
-73 -41 -53 -48 7 -2 12 -11 12 -20 0 -14 -2 -14 -9 -3 -5 7 -11 9 -13 5 -3
-5 -4 -4 -2 2 1 7 -6 28 -16 47 -18 34 -18 35 -1 51 10 10 35 25 56 36 30 15
36 16 31 4 -4 -10 -1 -14 6 -12 7 3 14 10 14 16 2 20 4 22 14 22 6 0 10 -11
10 -25z m120 -23 c0 -3 -9 3 -20 13 -11 10 -20 23 -20 28 0 6 9 0 20 -13 11
-13 20 -25 20 -28z m-10 -17 c0 -12 -19 -12 -23 0 -4 9 -1 12 9 8 7 -3 14 -7
14 -8z m69 -94 c8 -5 9 -11 4 -14 -6 -4 -19 2 -29 11 -10 10 -23 19 -29 20
-14 1 -18 29 -10 60 7 26 8 26 29 -21 12 -26 28 -52 35 -56z m35 -46 c21 -31
21 -31 -13 -30 -23 0 -27 3 -19 13 9 11 13 11 19 0 7 -10 9 -10 9 0 0 7 -7 15
-15 18 -8 4 -15 10 -15 15 0 17 18 9 34 -16z m-294 -52 c0 -7 10 -13 22 -13
16 0 19 -3 11 -11 -6 -6 -16 -8 -22 -4 -13 7 -41 71 -40 89 1 14 28 -44 29
-61z m346 -50 c-5 -11 0 -13 16 -7 20 6 21 5 9 -10 -10 -12 -17 -14 -27 -5 -8
6 -11 15 -8 21 3 5 0 17 -8 26 -12 15 -11 16 5 3 10 -8 15 -21 13 -28z m-286
-23 c11 -11 20 -26 19 -32 0 -10 -2 -10 -6 0 -2 6 -9 10 -13 7 -5 -3 -1 -18 8
-34 13 -23 20 -27 34 -20 20 11 31 -2 22 -25 -6 -15 -8 -15 -20 1 -20 27 -17
2 4 -30 10 -15 22 -24 27 -20 4 5 5 2 1 -4 -4 -7 -3 -13 3 -13 5 0 11 6 14 13
2 6 4 -2 4 -19 0 -29 -1 -30 -18 -13 -30 30 -101 163 -90 167 6 2 11 8 11 14
0 6 -7 7 -16 4 -8 -3 -13 -2 -9 3 3 5 -1 12 -7 14 -10 4 -10 6 0 6 6 1 21 -8
32 -19z m400 -26 c24 -5 31 -11 27 -25 -3 -11 -2 -19 2 -19 11 0 39 -54 34
-67 -3 -7 8 -20 24 -29 57 -33 109 -124 71 -124 -7 0 -7 4 0 13 7 8 7 17 -2
30 -18 24 -24 21 -18 -8 3 -16 0 -25 -8 -25 -7 0 -10 7 -6 16 3 8 0 25 -6 37
-7 12 -12 27 -13 32 0 6 -9 10 -19 10 -11 0 -21 7 -24 15 -2 8 -13 25 -24 37
-11 12 -17 26 -14 32 10 16 -50 75 -69 67 -9 -3 -13 -2 -10 4 7 12 12 12 55 4z
m-21 -33 c10 -7 7 -9 -12 -8 -14 1 -23 5 -20 10 6 9 15 9 32 -2z m-279 -76 c0
-5 -5 -3 -10 5 -8 12 -10 12 -10 1 0 -8 -2 -12 -5 -9 -3 3 -2 13 1 22 5 14 9
15 15 4 5 -7 9 -17 9 -23z m384 -73 c2 -4 -4 -8 -15 -8 -10 0 -19 4 -19 8 0 4
6 8 14 8 8 0 17 -4 20 -8z m-357 -28 c-10 -11 13 -45 25 -38 7 5 8 2 3 -6 -6
-10 -12 -8 -27 9 -16 21 -17 41 -1 41 4 0 3 -3 0 -6z m513 -95 c0 -4 -7 -10
-16 -13 -8 -3 -12 -2 -9 4 3 6 1 10 -5 10 -6 0 -15 -10 -20 -22 -5 -13 -9 -17
-9 -9 -1 8 7 23 16 33 14 16 15 23 5 41 -7 12 -2 9 12 -8 14 -16 26 -33 26
-36z m-473 34 c-4 -3 1 -16 10 -27 18 -21 18 -21 -4 -2 -20 16 -23 36 -6 36 4
0 3 -3 0 -7z m423 -13 c0 -5 -2 -10 -4 -10 -3 0 -8 5 -11 10 -3 6 -1 10 4 10
6 0 11 -4 11 -10z m-378 -36 l-2 -29 18 23 c10 13 21 20 24 17 10 -10 -31 -47
-43 -39 -6 3 -8 17 -5 29 3 13 1 26 -4 28 -6 3 -5 4 2 3 8 -2 12 -15 10 -32z
m38 -39 c-11 -13 -8 -15 21 -15 27 -1 31 -3 17 -10 -11 -7 -25 -7 -42 0 -25 9
-26 10 -9 28 21 22 32 19 13 -3z m270 -15 c-8 -5 -24 -9 -35 -9 -16 1 -16 2 5
9 35 11 48 11 30 0z m-185 -20 c-3 -5 -16 -10 -28 -9 -21 0 -21 1 -2 9 28 12
37 12 30 0z m124 6 c-11 -10 -109 -16 -109 -6 0 6 24 10 57 10 31 0 54 -2 52
-4z"/>
<path d="M1312 6358 c-14 -14 -16 -28 -3 -28 9 0 24 30 18 36 -2 2 -9 -2 -15
-8z"/>
<path d="M1390 6301 c0 -5 5 -13 10 -16 6 -3 10 -2 10 4 0 5 -4 13 -10 16 -5
3 -10 2 -10 -4z"/>
<path d="M1366 6162 c-3 -5 3 -19 13 -31 20 -23 31 -27 31 -11 0 17 -37 52
-44 42z"/>
<path d="M1075 6151 c-3 -5 -1 -12 5 -16 5 -3 10 1 10 9 0 18 -6 21 -15 7z"/>
<path d="M1308 5944 c-4 -3 -21 -7 -39 -8 -30 -2 -56 -26 -29 -26 7 0 10 -7 6
-15 -9 -26 14 -16 26 10 6 14 19 25 29 25 10 0 21 5 24 10 7 11 -8 14 -17 4z
m-38 -26 c0 -4 -4 -8 -9 -8 -6 0 -12 4 -15 8 -3 5 1 9 9 9 8 0 15 -4 15 -9z"/>
<path d="M1482 5900 c0 -14 2 -19 5 -12 2 6 2 18 0 25 -3 6 -5 1 -5 -13z"/>
<path d="M1770 5561 c0 -5 7 -12 16 -15 14 -5 15 -4 4 9 -14 17 -20 19 -20 6z"/>
<path d="M2365 6155 c-29 -37 -30 -42 -11 -42 8 0 12 6 9 15 -5 12 -2 12 15 3
12 -6 26 -19 31 -29 9 -15 12 -15 21 -2 7 11 10 11 10 2 0 -7 4 -10 10 -7 6 4
5 11 -3 19 -6 8 -15 12 -19 9 -4 -2 -5 4 -1 13 4 11 2 15 -4 11 -6 -4 -13 3
-16 14 -5 20 -5 20 13 4 12 -11 20 -13 25 -5 3 5 12 7 18 4 8 -4 7 -2 -1 7 -7
7 -26 14 -43 15 -23 1 -35 -6 -54 -31z"/>
<path d="M3505 6159 c-4 -6 -13 -8 -20 -5 -16 6 -53 -20 -42 -30 4 -4 7 -1 7
6 0 9 5 7 15 -6 14 -18 14 -18 8 3 -5 21 -3 22 25 12 17 -6 47 -29 67 -51 19
-22 35 -36 35 -31 0 5 -11 20 -25 33 -28 27 -34 50 -7 29 15 -13 16 -12 4 3
-8 9 -11 21 -9 25 3 5 -3 9 -13 9 -14 0 -16 -3 -8 -13 12 -15 0 -17 -21 -4 -7
5 -10 14 -7 20 4 6 5 11 2 11 -3 0 -8 -5 -11 -11z"/>
<path d="M2445 6140 c3 -5 8 -10 11 -10 2 0 4 5 4 10 0 6 -5 10 -11 10 -5 0
-7 -4 -4 -10z"/>
<path d="M3376 6126 c7 -18 26 -17 30 2 1 7 0 8 -3 2 -3 -8 -9 -7 -19 1 -12
10 -13 9 -8 -5z"/>
<path d="M3670 6125 c0 -5 15 -21 33 -36 31 -26 31 -28 15 -46 -10 -11 -18
-24 -18 -29 0 -4 7 2 16 14 8 12 20 20 25 16 6 -4 3 -14 -8 -26 -18 -21 -18
-21 5 -9 31 17 28 28 -23 79 -25 24 -45 41 -45 37z"/>
<path d="M2380 6100 c0 -5 5 -10 11 -10 5 0 7 5 4 10 -3 6 -8 10 -11 10 -2 0
-4 -4 -4 -10z"/>
<path d="M2660 6101 c0 -6 4 -13 10 -16 6 -3 7 1 4 9 -7 18 -14 21 -14 7z"/>
<path d="M3442 6094 c-14 -16 -5 -18 17 -5 7 5 9 11 5 14 -5 3 -15 -1 -22 -9z"/>
<path d="M2328 6083 c-2 -32 -4 -38 -16 -60 -9 -17 -9 -23 0 -29 7 -4 10 -4 6
1 -4 4 -2 17 4 29 12 22 21 76 13 76 -3 0 -6 -8 -7 -17z"/>
<path d="M3480 6093 c0 -5 9 -19 20 -31 20 -21 29 -69 11 -58 -5 4 -7 -3 -4
-14 3 -11 9 -18 13 -15 10 6 33 -49 34 -82 1 -15 -5 -28 -14 -30 -13 -4 -13
-3 0 6 8 5 12 13 8 16 -3 3 -13 -1 -21 -10 -10 -9 -33 -15 -61 -15 -38 0 -44
3 -39 17 4 11 3 14 -5 9 -8 -5 -12 1 -12 15 0 12 -3 19 -7 16 -3 -4 0 -25 7
-47 10 -31 17 -39 29 -33 9 4 46 7 83 7 36 1 69 3 72 6 11 11 -61 196 -87 224
-15 16 -27 25 -27 19z"/>
<path d="M3594 6093 c3 -4 18 -8 32 -9 14 -2 24 0 20 3 -3 3 -17 7 -32 9 -14
1 -23 0 -20 -3z"/>
<path d="M3395 6080 c3 -5 8 -10 11 -10 2 0 4 5 4 10 0 6 -5 10 -11 10 -5 0
-7 -4 -4 -10z"/>
<path d="M2490 6078 c0 -5 18 -45 40 -90 22 -46 40 -74 40 -63 0 11 -7 29 -15
39 -8 11 -13 29 -9 40 4 15 3 17 -4 8 -7 -11 -10 -11 -15 2 -4 9 -5 22 -3 29
1 6 1 8 -2 3 -3 -5 -11 2 -18 15 -7 13 -13 21 -14 17z"/>
<path d="M2372 6058 c-7 -7 -12 -16 -12 -21 0 -5 7 -1 16 8 9 9 14 18 12 20
-2 3 -10 -1 -16 -7z"/>
<path d="M2680 6053 c0 -13 5 -23 10 -23 13 0 13 11 0 30 -8 12 -10 11 -10 -7z"/>
<path d="M3682 6045 c-17 -37 -14 -45 4 -12 9 16 14 31 11 33 -2 2 -9 -7 -15
-21z"/>
<path d="M3456 6044 c-9 -8 -16 -12 -16 -7 0 4 -5 0 -11 -10 -17 -29 -7 -27
26 4 17 16 27 29 23 29 -4 0 -14 -7 -22 -16z"/>
<path d="M3637 6027 c3 -15 9 -27 14 -27 13 0 11 13 -5 35 -13 18 -14 18 -9
-8z"/>
<path d="M2336 6013 c-6 -14 -5 -15 5 -6 7 7 10 15 7 18 -3 3 -9 -2 -12 -12z"/>
<path d="M3370 6028 c0 -2 9 -25 20 -53 20 -48 20 -22 0 30 -8 20 -20 34 -20
23z"/>
<path d="M2660 6010 c0 -5 5 -10 11 -10 5 0 7 5 4 10 -3 6 -8 10 -11 10 -2 0
-4 -4 -4 -10z"/>
<path d="M2272 5984 c-26 -28 -35 -61 -22 -80 9 -15 10 -15 6 -2 -2 9 4 33 14
54 21 41 22 50 2 28z"/>
<path d="M4040 5980 c8 -5 26 -9 40 -9 l25 1 -25 8 c-14 4 -32 8 -40 9 -13 1
-13 0 0 -9z"/>
<path d="M2136 5965 c-9 -9 -16 -25 -16 -34 0 -10 -10 -26 -22 -36 -23 -17
-23 -17 2 -2 26 15 66 74 57 83 -2 3 -12 -2 -21 -11z"/>
<path d="M3890 5969 c0 -5 5 -7 10 -4 6 3 10 8 10 11 0 2 -4 4 -10 4 -5 0 -10
-5 -10 -11z"/>
<path d="M4118 5963 c6 -2 18 -2 25 0 6 3 1 5 -13 5 -14 0 -19 -2 -12 -5z"/>
<path d="M2311 5942 c-17 -31 -13 -40 5 -14 9 13 14 26 11 29 -3 2 -10 -4 -16
-15z"/>
<path d="M4043 5953 c9 -2 25 -2 35 0 9 3 1 5 -18 5 -19 0 -27 -2 -17 -5z"/>
<path d="M3766 5925 c4 -8 8 -15 10 -15 2 0 4 7 4 15 0 8 -4 15 -10 15 -5 0
-7 -7 -4 -15z"/>
<path d="M4158 5933 c6 -2 18 -2 25 0 6 3 1 5 -13 5 -14 0 -19 -2 -12 -5z"/>
<path d="M3864 5915 c-3 -8 -4 -20 -1 -27 3 -7 6 -3 6 9 1 12 7 24 14 26 9 4
9 6 -1 6 -7 1 -15 -6 -18 -14z"/>
<path d="M2731 5894 c0 -11 3 -14 6 -6 3 7 2 16 -1 19 -3 4 -6 -2 -5 -13z"/>
<path d="M3911 5894 c0 -11 3 -14 6 -6 3 7 2 16 -1 19 -3 4 -6 -2 -5 -13z"/>
<path d="M2275 5889 c-4 -6 -5 -12 -2 -15 2 -3 7 2 10 11 7 17 1 20 -8 4z"/>
<path d="M2571 5890 c0 -8 4 -22 9 -30 12 -18 12 -2 0 25 -6 13 -9 15 -9 5z"/>
<path d="M3015 5833 c11 -108 12 -110 56 -117 21 -3 39 -7 40 -9 0 -1 9 -202
19 -445 10 -244 21 -446 24 -449 3 -3 41 -2 85 2 l81 7 0 107 c0 58 -5 124
-11 146 -6 22 -15 96 -20 165 -5 69 -13 172 -19 230 -6 58 -12 139 -14 180 -4
92 -15 157 -32 191 -11 22 -25 28 -96 43 -128 25 -122 28 -113 -51z"/>
<path d="M3465 5880 c-16 -7 -17 -9 -3 -9 9 -1 20 4 23 9 7 11 7 11 -20 0z"/>
<path d="M3739 5876 c6 -7 8 -16 4 -20 -4 -4 1 -4 10 0 22 8 17 26 -7 30 -13
2 -14 -1 -7 -10z"/>
<path d="M2621 5864 c0 -11 3 -14 6 -6 3 7 2 16 -1 19 -3 4 -6 -2 -5 -13z"/>
<path d="M3901 5858 c-1 -9 -7 -18 -13 -21 -7 -2 -5 -3 5 -2 10 2 17 -4 18
-13 0 -10 3 -12 5 -6 3 6 0 22 -5 35 -7 16 -10 18 -10 7z"/>
<path d="M2585 5810 c3 -5 8 -10 11 -10 2 0 4 5 4 10 0 6 -5 10 -11 10 -5 0
-7 -4 -4 -10z"/>
<path d="M2557 5774 c-13 -18 -14 -22 -3 -18 8 3 17 13 20 21 10 25 3 23 -17
-3z"/>
<path d="M3948 5753 c7 -3 16 -2 19 1 4 3 -2 6 -13 5 -11 0 -14 -3 -6 -6z"/>
<path d="M3990 5750 c-9 -6 -10 -10 -3 -10 6 0 15 5 18 10 8 12 4 12 -15 0z"/>
<path d="M4040 5750 c0 -5 5 -10 11 -10 5 0 7 5 4 10 -3 6 -8 10 -11 10 -2 0
-4 -4 -4 -10z"/>
<path d="M2505 5729 c-11 -16 -1 -19 13 -3 7 8 8 14 3 14 -5 0 -13 -5 -16 -11z"/>
<path d="M4218 5733 c6 -2 18 -2 25 0 6 3 1 5 -13 5 -14 0 -19 -2 -12 -5z"/>
<path d="M3957 5703 c-4 -3 -7 -11 -7 -17 0 -6 5 -5 12 2 6 6 9 14 7 17 -3 3
-9 2 -12 -2z"/>
<path d="M2598 5621 c-40 -39 -60 -71 -45 -71 9 0 107 102 107 110 0 18 -15 9
-62 -39z"/>
<path d="M3965 5601 c-14 -6 -7 -9 30 -14 27 -4 82 -19 122 -33 84 -30 104
-29 114 7 5 22 2 29 -18 38 -27 12 -217 14 -248 2z"/>
<path d="M2518 5541 c-3 -19 0 -27 7 -24 7 2 10 15 7 29 -6 31 -9 30 -14 -5z"/>
<path d="M2541 5454 c0 -11 3 -14 6 -6 3 7 2 16 -1 19 -3 4 -6 -2 -5 -13z"/>
<path d="M2542 5320 c0 -14 2 -19 5 -12 2 6 2 18 0 25 -3 6 -5 1 -5 -13z"/>
<path d="M2392 5275 c0 -16 2 -22 5 -12 2 9 2 23 0 30 -3 6 -5 -1 -5 -18z"/>
<path d="M2403 5195 c0 -22 2 -30 4 -17 2 12 2 30 0 40 -3 9 -5 -1 -4 -23z"/>
<path d="M2416 5124 c-4 -14 -5 -28 -3 -31 3 -2 8 8 11 23 4 14 5 28 3 31 -3
2 -8 -8 -11 -23z"/>
<path d="M2422 5050 c0 -14 2 -19 5 -12 2 6 2 18 0 25 -3 6 -5 1 -5 -13z"/>
<path d="M2461 5054 c0 -11 3 -14 6 -6 3 7 2 16 -1 19 -3 4 -6 -2 -5 -13z"/>
<path d="M2441 5033 c-1 -6 -4 -20 -7 -30 -5 -17 -5 -17 6 0 6 10 9 23 6 30
-3 9 -5 9 -5 0z"/>
<path d="M2802 4985 c0 -16 2 -22 5 -12 2 9 2 23 0 30 -3 6 -5 -1 -5 -18z"/>
<path d="M2441 4964 c0 -11 3 -14 6 -6 3 7 2 16 -1 19 -3 4 -6 -2 -5 -13z"/>
<path d="M2451 4924 c0 -11 3 -14 6 -6 3 7 2 16 -1 19 -3 4 -6 -2 -5 -13z"/>
<path d="M2610 4928 c0 -23 17 -31 24 -12 4 9 4 19 1 22 -3 3 -5 -1 -5 -9 0
-11 -2 -11 -10 1 -8 13 -10 13 -10 -2z"/>
<path d="M2812 4880 c0 -14 2 -19 5 -12 2 6 2 18 0 25 -3 6 -5 1 -5 -13z"/>
<path d="M2462 4860 c0 -14 2 -19 5 -12 2 6 2 18 0 25 -3 6 -5 1 -5 -13z"/>
<path d="M2631 4853 c-1 -17 16 -25 25 -12 4 7 3 9 -4 5 -5 -3 -13 0 -15 6 -4
9 -6 10 -6 1z"/>
<path d="M2694 4847 c-8 -9 -7 -16 1 -24 10 -9 13 -6 13 13 0 13 -1 24 -2 24
0 -1 -6 -6 -12 -13z"/>
<path d="M3350 4829 c0 -16 4 -28 9 -25 8 5 3 56 -5 56 -2 0 -4 -14 -4 -31z"/>
<path d="M2500 4821 c0 -6 5 -11 11 -11 6 0 9 -7 5 -15 -3 -8 -1 -15 4 -15 15
0 12 26 -5 40 -10 9 -15 9 -15 1z"/>
<path d="M2660 4826 c0 -4 20 -33 45 -64 73 -94 81 -105 108 -156 25 -46 50
-65 62 -46 3 5 -3 7 -12 6 -13 -2 -25 11 -40 43 -12 25 -22 52 -22 59 -1 6 -6
11 -13 10 -7 -2 -19 11 -28 27 -8 17 -25 41 -37 55 -12 14 -31 36 -42 49 -12
13 -21 21 -21 17z"/>
<path d="M2472 4785 c0 -16 2 -22 5 -12 2 9 2 23 0 30 -3 6 -5 -1 -5 -18z"/>
<path d="M2765 4786 c11 -8 24 -12 28 -9 11 7 -12 23 -32 23 -11 0 -9 -4 4
-14z"/>
<path d="M3555 4770 c-3 -5 -1 -10 4 -10 6 0 11 5 11 10 0 6 -2 10 -4 10 -3 0
-8 -4 -11 -10z"/>
<path d="M3610 4761 c0 -11 -6 -22 -12 -24 -8 -3 -6 -6 5 -6 12 -1 17 7 17 24
0 14 -2 25 -5 25 -3 0 -5 -9 -5 -19z"/>
<path d="M2790 4751 c0 -6 5 -11 10 -11 6 0 10 -14 10 -31 0 -16 4 -28 9 -25
12 8 2 53 -15 67 -10 8 -14 8 -14 0z"/>
<path d="M2468 4732 c-12 -45 44 -288 84 -365 12 -23 23 -48 24 -55 4 -25 13
-25 12 -1 -1 13 -7 31 -14 39 -20 23 -28 89 -13 106 9 11 8 14 -3 14 -13 0
-45 106 -42 138 1 6 -2 12 -6 12 -5 0 -9 8 -9 18 0 9 -6 39 -14 66 -11 38 -15
45 -19 28z"/>
<path d="M2560 4741 c0 -6 4 -13 10 -16 6 -3 7 1 4 9 -7 18 -14 21 -14 7z"/>
<path d="M3208 4733 c6 -2 18 -2 25 0 6 3 1 5 -13 5 -14 0 -19 -2 -12 -5z"/>
<path d="M2835 4690 c-1 -34 1 -38 13 -27 8 9 11 23 6 40 -9 39 -19 33 -19
-13z"/>
<path d="M3611 4704 c0 -11 3 -14 6 -6 3 7 2 16 -1 19 -3 4 -6 -2 -5 -13z"/>
<path d="M2596 4675 c2 -11 4 -24 4 -30 0 -5 5 -3 10 5 12 19 13 33 1 25 -5
-3 -11 0 -14 7 -2 7 -3 4 -1 -7z"/>
<path d="M2401 4664 c0 -11 3 -14 6 -6 3 7 2 16 -1 19 -3 4 -6 -2 -5 -13z"/>
<path d="M2524 4639 c-4 -8 -3 -9 5 -5 7 4 15 -2 20 -16 7 -15 10 -17 10 -7 1
23 -25 44 -35 28z"/>
<path d="M2410 4627 c0 -29 77 -252 104 -303 31 -58 29 -47 -18 109 -35 112
-86 228 -86 194z"/>
<path d="M2837 4619 c4 -13 8 -18 11 -10 2 7 -1 18 -6 23 -8 8 -9 4 -5 -13z"/>
<path d="M2910 4600 c0 -5 5 -10 10 -10 6 0 10 5 10 10 0 6 -4 10 -10 10 -5 0
-10 -4 -10 -10z"/>
<path d="M3190 4579 c0 -13 5 -31 10 -39 7 -11 8 -5 4 20 -8 43 -14 51 -14 19z"/>
<path d="M3245 4579 c-4 -11 -4 -23 -1 -26 3 -4 6 1 6 10 0 10 5 17 10 17 6 0
10 5 10 10 0 18 -19 10 -25 -11z"/>
<path d="M3302 4549 c-7 -11 -11 -23 -9 -25 7 -7 29 24 25 36 -2 6 -9 1 -16
-11z"/>
<path d="M2649 4543 c-7 -38 -3 -60 8 -56 10 4 11 9 3 18 -6 7 -8 20 -4 29 3
9 3 16 0 16 -3 0 -7 -3 -7 -7z"/>
<path d="M2960 4531 c0 -6 4 -13 10 -16 6 -3 7 1 4 9 -7 18 -14 21 -14 7z"/>
<path d="M3330 4505 c-8 -9 -8 -15 -2 -15 12 0 26 19 19 26 -2 2 -10 -2 -17
-11z"/>
<path d="M3010 4499 c0 -5 -6 -7 -12 -3 -7 4 -10 3 -6 -1 5 -5 19 -10 33 -11
22 -2 23 -1 11 12 -17 17 -26 18 -26 3z"/>
<path d="M3247 4489 c7 -7 15 -10 18 -7 3 3 -2 9 -12 12 -14 6 -15 5 -6 -5z"/>
<path d="M3215 4479 c-4 -6 -5 -12 -2 -15 2 -3 7 2 10 11 7 17 1 20 -8 4z"/>
<path d="M3288 4483 c7 -3 16 -2 19 1 4 3 -2 6 -13 5 -11 0 -14 -3 -6 -6z"/>
<path d="M2905 4440 c3 -5 8 -10 11 -10 2 0 4 5 4 10 0 6 -5 10 -11 10 -5 0
-7 -4 -4 -10z"/>
<path d="M3370 4421 c0 -6 4 -13 10 -16 6 -3 7 1 4 9 -7 18 -14 21 -14 7z"/>
<path d="M2590 4385 c-8 -9 -8 -15 -2 -15 12 0 26 19 19 26 -2 2 -10 -2 -17
-11z"/>
<path d="M3065 4390 c-4 -7 -2 -16 6 -21 18 -11 23 -4 11 17 -7 12 -11 13 -17
4z"/>
<path d="M2980 4379 c0 -5 5 -7 10 -4 6 3 10 8 10 11 0 2 -4 4 -10 4 -5 0 -10
-5 -10 -11z"/>
<path d="M3540 4380 c0 -5 5 -10 11 -10 5 0 7 5 4 10 -3 6 -8 10 -11 10 -2 0
-4 -4 -4 -10z"/>
<path d="M2671 4354 c0 -11 3 -14 6 -6 3 7 2 16 -1 19 -3 4 -6 -2 -5 -13z"/>
<path d="M3401 4304 c0 -11 3 -14 6 -6 3 7 2 16 -1 19 -3 4 -6 -2 -5 -13z"/>
<path d="M2632 4290 c0 -14 2 -19 5 -12 2 6 2 18 0 25 -3 6 -5 1 -5 -13z"/>
<path d="M2966 4295 c4 -8 8 -15 10 -15 2 0 4 7 4 15 0 8 -4 15 -10 15 -5 0
-7 -7 -4 -15z"/>
<path d="M2592 4268 c5 -15 28 -23 28 -10 0 5 -7 13 -16 16 -10 4 -14 1 -12
-6z"/>
<path d="M3372 4260 c0 -14 2 -19 5 -12 2 6 2 18 0 25 -3 6 -5 1 -5 -13z"/>
<path d="M3336 4243 c-6 -14 -5 -15 5 -6 7 7 10 15 7 18 -3 3 -9 -2 -12 -12z"/>
<path d="M2660 4239 c0 -9 6 -22 14 -29 8 -6 16 -21 18 -32 3 -21 33 -34 43
-18 3 5 -3 7 -14 5 -14 -2 -20 4 -24 23 -7 35 -36 75 -37 51z"/>
<path d="M3046 4229 c-23 -27 -15 -35 9 -9 10 11 16 22 14 25 -3 2 -13 -5 -23
-16z"/>
<path d="M2610 4236 c0 -2 8 -10 18 -17 15 -13 16 -12 3 4 -13 16 -21 21 -21
13z"/>
<path d="M3469 4198 c7 -9 9 -23 5 -30 -6 -10 -4 -11 7 0 11 10 10 15 -6 30
-17 15 -18 15 -6 0z"/>
<path d="M2650 4194 c0 -13 44 -84 52 -84 14 0 9 15 -12 33 -11 9 -20 26 -20
37 0 11 -4 20 -10 20 -5 0 -10 -3 -10 -6z"/>
<path d="M3016 4155 c-3 -9 -2 -24 2 -32 8 -13 10 -13 16 2 3 9 2 24 -2 32 -8
13 -10 13 -16 -2z"/>
<path d="M2716 4103 c-6 -14 -5 -15 5 -6 7 7 10 15 7 18 -3 3 -9 -2 -12 -12z"/>
<path d="M2770 4105 c-19 -22 -8 -25 13 -3 9 10 13 18 8 18 -5 0 -14 -7 -21
-15z"/>
<path d="M3128 4103 c-3 -12 -16 -23 -29 -26 -22 -4 -22 -4 -3 -6 24 -1 48 22
42 41 -3 7 -7 3 -10 -9z"/>
<path d="M3156 4083 c-6 -14 -5 -15 5 -6 7 7 10 15 7 18 -3 3 -9 -2 -12 -12z"/>
<path d="M2735 4025 c4 -11 19 -49 31 -85 13 -36 23 -59 23 -53 1 7 11 12 22
10 17 -1 23 4 26 26 2 15 -1 27 -7 27 -6 0 -8 -11 -6 -26 4 -20 2 -24 -10 -20
-9 3 -20 6 -25 6 -6 0 -7 9 -4 20 4 12 2 20 -5 20 -7 0 -10 7 -6 15 3 8 1 15
-4 15 -6 0 -10 7 -10 16 0 8 -8 23 -17 32 -16 16 -16 16 -8 -3z"/>
<path d="M2790 3975 c0 -8 4 -15 10 -15 5 0 7 7 4 15 -4 8 -8 15 -10 15 -2 0
-4 -7 -4 -15z"/>
<path d="M3436 3181 c-4 -6 -5 -15 -1 -20 14 -24 25 -122 19 -177 l-6 -61 -52
-7 c-94 -11 -126 -25 -181 -80 l-53 -52 87 -110 c177 -222 382 -421 611 -593
47 -36 130 -108 185 -161 55 -52 117 -106 138 -119 20 -12 112 -53 203 -91
185 -77 207 -89 325 -197 101 -91 298 -239 469 -353 391 -261 627 -444 646
-502 3 -11 -3 -29 -15 -44 -47 -60 -18 -132 85 -212 58 -45 74 -74 113 -207
35 -114 56 -153 99 -178 l33 -20 53 37 c62 43 102 90 150 177 42 78 66 157 66
218 0 25 -9 100 -20 166 -24 148 -25 192 -4 325 15 93 15 111 3 155 l-15 50
-65 1 c-56 0 -71 5 -102 28 -29 22 -44 27 -67 22 -16 -3 -43 -9 -60 -12 l-29
-6 24 -32 c58 -76 80 -172 53 -231 -16 -36 -68 -65 -128 -72 -50 -6 -61 -14
-97 -69 -10 -16 -12 -13 -10 20 2 38 0 40 -42 57 -50 18 -59 34 -60 101 -1 57
-17 69 -90 67 -46 -2 -54 1 -95 39 -24 22 -79 57 -122 77 -62 28 -97 54 -165
120 -83 82 -150 124 -196 125 -35 0 -36 16 -2 54 34 39 35 69 3 74 -12 2 -56
-13 -98 -33 -127 -59 -166 -57 -166 10 0 26 11 46 50 88 30 33 48 61 45 69 -3
8 1 21 9 28 9 7 13 16 10 21 -3 5 0 9 5 9 16 0 14 -11 -6 -32 -9 -10 -14 -21
-10 -24 8 -8 66 84 73 116 11 49 37 99 65 126 15 15 26 31 23 35 -2 4 1 11 7
15 8 4 9 3 5 -4 -4 -7 -3 -12 3 -12 5 0 13 4 16 10 3 5 63 -40 133 -102 167
-147 172 -151 132 -98 -65 85 -234 244 -299 282 l-64 37 -49 -40 c-61 -52 -88
-90 -100 -142 -11 -49 -85 -163 -133 -206 -20 -17 -53 -40 -74 -50 -35 -18
-40 -19 -60 -5 -26 18 -17 35 32 61 37 19 127 102 127 117 0 6 25 54 55 106
30 52 55 103 55 112 0 23 50 48 97 49 l38 1 -35 15 c-19 8 -36 15 -37 15 -2 0
-37 10 -78 23 -97 30 -187 89 -272 178 -83 87 -117 138 -223 332 -45 83 -94
166 -108 185 -38 51 -134 150 -243 251 l-96 88 -65 -14 c-37 -7 -80 -21 -96
-29 -29 -15 -33 -14 -159 44 -137 64 -186 79 -197 61z m510 -133 c-6 -4 -13
-5 -17 -2 -4 2 -9 -6 -13 -19 -3 -12 -1 -23 4 -25 6 -2 10 -8 10 -13 0 -6 -5
-7 -12 -3 -7 5 -9 2 -6 -7 4 -10 -1 -15 -13 -15 -17 0 -17 2 -2 18 9 10 11 18
5 18 -6 0 -13 -4 -17 -10 -3 -5 -12 -7 -20 -3 -15 5 -21 -12 -7 -20 4 -2 1 -2
-7 0 -8 2 -21 -3 -30 -10 -9 -8 -32 -17 -51 -21 -32 -5 -38 -2 -70 36 l-34 42
31 -24 c18 -13 34 -29 37 -36 15 -39 119 25 167 103 19 30 21 31 38 15 10 -10
13 -20 7 -24z m-385 20 c22 -6 39 -15 39 -19 0 -5 6 -6 13 -3 7 2 22 -4 32
-16 10 -11 13 -20 7 -20 -7 0 -12 5 -12 10 0 6 -6 5 -14 -2 -8 -7 -11 -17 -8
-22 3 -5 0 -6 -7 -2 -9 6 -8 13 6 28 14 16 15 19 3 17 -8 -1 -32 5 -54 14 -58
26 -84 23 -89 -10 -4 -26 -4 -26 -6 5 -1 28 2 32 25 32 15 0 44 -5 65 -12z
m414 -39 c11 -16 1 -19 -13 -3 -7 8 -8 14 -3 14 5 0 13 -5 16 -11z m10 -39
c-10 -11 -23 -20 -29 -20 -6 0 0 9 14 20 32 25 38 25 15 0z m40 -10 c4 -6 -1
-7 -12 -3 -16 6 -17 5 -3 -13 14 -18 14 -18 -2 -5 -10 7 -15 17 -12 22 7 12
21 11 29 -1z m-410 -10 c3 -5 1 -10 -4 -10 -6 0 -11 5 -11 10 0 6 2 10 4 10 3
0 8 -4 11 -10z m30 0 c3 -5 1 -10 -4 -10 -6 0 -11 5 -11 10 0 6 2 10 4 10 3 0
8 -4 11 -10z m-132 -13 c7 4 5 -2 -3 -13 -8 -10 -16 -21 -17 -23 -2 -2 -3 9
-2 25 0 16 3 23 6 16 2 -6 10 -9 16 -5z m553 -29 c10 -12 14 -18 7 -15 -6 4
-13 1 -16 -5 -3 -10 -10 -8 -23 5 -17 15 -17 19 -4 27 8 5 15 10 16 10 0 0 9
-10 20 -22z m-326 -31 c13 -5 13 -6 -1 -6 -17 -1 -59 31 -59 44 0 5 10 -1 23
-12 12 -11 29 -23 37 -26z m73 16 c-7 -2 -19 -2 -25 0 -7 3 -2 5 12 5 14 0 19
-2 13 -5z m-313 -13 c0 -5 -5 -10 -11 -10 -5 0 -7 5 -4 10 3 6 8 10 11 10 2 0
4 -4 4 -10z m548 -16 c2 -1 -8 -1 -21 0 -15 0 -23 6 -20 14 4 10 9 10 22 0 9
-7 17 -13 19 -14z m47 16 c-3 -5 -12 -10 -18 -10 -7 0 -6 4 3 10 19 12 23 12
15 0z m-308 -6 c-3 -3 -12 -4 -19 -1 -8 3 -5 6 6 6 11 1 17 -2 13 -5z m46 -11
c-7 -2 -19 -2 -25 0 -7 3 -2 5 12 5 14 0 19 -2 13 -5z m297 -15 c25 -38 31
-58 15 -52 -8 3 -11 12 -8 20 3 8 1 14 -4 14 -4 0 -14 9 -21 20 -17 28 0 25
18 -2z m-621 -48 c0 -23 -1 -23 -9 -5 -5 11 -9 31 -9 45 0 23 1 23 9 5 5 -11
9 -31 9 -45z m604 26 c3 -8 -1 -22 -8 -33 -8 -10 -15 -13 -15 -6 0 6 5 15 10
18 6 4 7 11 4 17 -4 6 -10 5 -15 -3 -5 -8 -9 -9 -9 -3 0 24 25 32 33 10z m66
-20 c9 -11 9 -16 -1 -22 -7 -4 -10 -4 -6 1 4 4 3 14 -3 22 -6 7 -9 13 -6 13 2
0 10 -6 16 -14z m-654 -45 c-4 -13 3 -26 23 -43 20 -17 28 -31 26 -49 -3 -22
-3 -23 10 -6 13 17 14 16 12 -7 -1 -19 -4 -22 -18 -15 -20 11 -28 22 -33 49
-2 11 -11 27 -19 36 -17 16 -21 36 -9 47 11 12 15 8 8 -12z m688 -5 c0 -11 4
-15 12 -12 7 2 21 -5 32 -17 l18 -22 -24 20 c-22 19 -23 19 -20 1 2 -10 -2
-20 -9 -22 -7 -1 -8 0 -2 3 6 3 2 12 -10 23 -15 13 -17 20 -9 25 8 6 8 10 -2
17 -11 8 -11 9 1 5 8 -2 14 -12 13 -21z m-653 4 c0 -5 -5 -10 -11 -10 -5 0 -7
5 -4 10 3 6 8 10 11 10 2 0 4 -4 4 -10z m617 -2 c-2 -7 2 -21 11 -30 8 -10 10
-18 5 -18 -17 0 -34 26 -27 44 7 19 18 22 11 4z m-587 -22 c0 -3 -4 -8 -10
-11 -5 -3 -10 -1 -10 4 0 6 5 11 10 11 6 0 10 -2 10 -4z m790 -157 c15 -28 16
-36 5 -36 -8 0 -12 4 -9 8 2 4 -7 20 -20 34 -14 15 -25 30 -24 34 2 19 -3 31
-12 26 -5 -3 -10 0 -10 8 0 8 -7 17 -15 21 -8 3 -15 11 -15 18 1 18 78 -69
100 -113z m-732 23 c15 0 20 3 16 11 -4 7 -3 9 1 5 12 -11 15 -58 4 -58 -5 0
-23 14 -41 31 -18 18 -26 27 -18 22 8 -5 25 -10 38 -11z m703 -33 c6 -13 7
-19 1 -15 -6 3 -13 0 -15 -6 -3 -7 -6 -1 -6 15 -1 32 4 34 20 6z m-951 -54
c13 -14 21 -25 18 -25 -2 0 -15 11 -28 25 -13 14 -21 25 -18 25 2 0 15 -11 28
-25z m336 9 c18 -14 18 -14 -6 -3 -31 14 -36 19 -24 19 6 0 19 -7 30 -16z m92
2 c-10 -7 -16 -15 -14 -17 2 -2 -10 -4 -27 -5 l-32 -1 40 18 c48 21 55 22 33
5z m6 -47 c-3 -5 -14 -5 -25 1 -26 14 -24 18 6 12 14 -2 22 -8 19 -13z m596
-12 c0 -5 -4 -6 -8 -3 -5 3 -8 -15 -7 -39 1 -25 -1 -43 -4 -40 -6 3 -7 42 -2
105 1 13 2 13 11 0 5 -8 10 -19 10 -23z m-533 -13 c-3 -3 -12 -4 -19 -1 -8 3
-5 6 6 6 11 1 17 -2 13 -5z m48 -4 c-3 -5 2 -10 11 -10 10 0 15 -2 12 -5 -3
-4 -18 -3 -34 1 -25 6 -26 8 -9 15 27 10 27 10 20 -1z m128 -7 c-6 -16 -11
-16 -28 1 -12 12 -11 14 9 12 14 0 22 -6 19 -13z m-36 -19 c-1 -1 -15 0 -30 3
-19 4 -25 8 -16 13 10 7 53 -9 46 -16z m419 -48 c-2 -6 -5 -3 -5 7 -1 10 -4
16 -8 14 -5 -3 -8 9 -9 26 l-1 32 14 -34 c8 -18 12 -38 9 -45z m-414 11 c15
-24 8 -30 -11 -9 -10 12 -23 22 -29 22 -6 0 -14 4 -17 10 -4 6 4 6 22 -1 15
-5 31 -16 35 -22z m32 -3 c3 -9 1 -23 -5 -32 -9 -15 -10 -15 -5 2 4 10 1 25
-5 32 -7 9 -8 14 -1 14 5 0 13 -7 16 -16z m-25 -54 c3 -3 11 -14 17 -25 6 -11
29 -29 52 -40 23 -11 41 -24 42 -28 0 -5 -19 2 -42 15 -40 22 -98 89 -98 112
0 6 6 2 12 -9 6 -11 14 -22 17 -25z m441 10 c6 -11 8 -20 5 -20 -3 0 3 -10 15
-22 11 -12 20 -25 20 -29 0 -4 12 -21 26 -38 14 -17 23 -34 20 -39 -2 -4 0
-14 5 -22 8 -11 12 -12 15 -3 4 8 15 6 40 -9 35 -20 48 -36 17 -20 -10 5 -32
9 -49 7 -17 -1 -31 3 -31 9 0 19 -64 106 -74 101 -5 -4 -9 -12 -9 -18 0 -8 3
-8 9 1 7 11 9 10 15 -3 4 -12 1 -16 -12 -13 -9 2 -17 12 -17 23 0 11 -10 31
-22 45 -25 26 -30 51 -10 48 6 -2 11 3 10 10 -4 19 15 14 27 -8z m-337 -46 c3
-3 3 -12 0 -20 -4 -10 -9 -11 -23 -1 -14 8 -16 13 -7 19 15 9 22 10 30 2z m54
-121 c-4 -24 8 -33 15 -11 3 8 6 7 10 -3 5 -12 -1 -15 -22 -15 -24 0 -27 2
-17 18 9 14 9 23 -2 41 -13 20 -13 21 3 8 11 -9 16 -24 13 -38z m26 30 c-3 -7
-6 -13 -8 -13 -2 0 -5 6 -8 13 -3 8 1 14 8 14 7 0 11 -6 8 -14z m140 -18 c-3
-9 -8 -14 -10 -11 -3 3 -2 9 2 15 9 16 15 13 8 -4z m-209 -60 c-4 -8 -10 -15
-15 -15 -6 0 -5 -9 1 -20 9 -16 8 -18 -5 -14 -8 3 -12 10 -9 15 7 12 -3 11
-28 -2 -17 -9 -18 -13 -7 -21 11 -8 10 -9 -4 -4 -14 4 -17 2 -15 -12 2 -9 9
-16 14 -15 5 1 10 -8 10 -19 0 -19 -1 -19 -18 2 -21 26 -23 45 -5 60 11 9 79
57 84 59 1 1 0 -6 -3 -14z m146 -9 c0 -3 -4 -8 -10 -11 -5 -3 -10 -1 -10 4 0
6 5 11 10 11 6 0 10 -2 10 -4z m400 -6 c8 -5 12 -11 9 -14 -3 -3 -14 1 -25 9
-21 16 -8 20 16 5z m-359 -33 c-16 -16 -26 0 -10 19 9 11 15 12 17 4 2 -6 -1
-17 -7 -23z m324 19 c12 -12 11 -14 -9 -12 -14 0 -22 6 -19 14 6 15 11 15 28
-2z m89 -19 c16 -12 16 -13 -3 -13 -11 0 -18 3 -15 7 2 4 -2 10 -8 12 -7 3 -8
6 -2 6 5 1 18 -5 28 -12z m-608 -43 c2 -23 1 -24 -11 -7 -10 13 -10 20 -2 25
7 4 12 8 12 8 0 0 1 -11 1 -26z m672 -28 c-10 -7 -18 -16 -18 -19 0 -3 -11
-22 -24 -41 l-24 -35 1 33 c1 27 5 33 19 31 16 -4 24 11 19 38 -1 5 3 6 9 2 5
-3 10 2 10 11 0 15 2 16 13 5 10 -10 9 -15 -5 -25z m98 9 c-11 -8 -24 -15 -29
-15 -4 0 -6 -4 -3 -9 3 -5 -1 -14 -9 -21 -10 -9 -15 -9 -15 -1 0 6 5 11 12 11
9 0 9 3 0 12 -21 21 -82 -53 -82 -100 0 -39 -149 -220 -182 -222 -10 0 2 32
20 53 8 9 11 17 7 17 -5 0 -4 5 3 12 14 14 16 32 3 23 -15 -9 -25 15 -12 28 9
9 11 7 5 -8 -6 -16 -4 -18 6 -8 15 14 22 73 9 73 -5 0 -9 5 -9 11 0 8 4 9 13
0 8 -6 17 -7 22 -3 4 4 4 -4 0 -17 -4 -13 -9 -31 -10 -40 -2 -9 -4 -18 -5 -21
-1 -3 -2 -9 -1 -14 1 -4 -4 -14 -10 -22 -8 -9 -8 -14 -1 -14 15 0 62 63 62 82
0 8 9 27 20 41 22 28 25 37 10 37 -5 0 -10 -5 -10 -11 0 -5 -11 -27 -25 -47
-14 -20 -25 -30 -25 -21 0 9 9 24 20 34 12 11 18 25 15 36 -5 14 -1 17 19 15
19 -2 32 5 51 30 14 18 25 37 25 43 0 14 58 43 70 36 6 -3 18 -1 27 4 26 15
31 13 9 -4z m-766 -49 c-7 -7 -14 -6 -21 1 -9 9 -7 12 9 10 14 -1 18 -5 12
-11z m35 -34 c-8 -8 -25 10 -19 20 4 6 9 5 15 -3 4 -7 6 -15 4 -17z m835 24
c0 -1 -13 -17 -30 -34 -16 -18 -30 -26 -30 -19 0 23 23 45 58 56 1 1 2 -1 2
-3z m-282 -31 c-3 -3 -9 2 -12 12 -6 14 -5 15 5 6 7 -7 10 -15 7 -18z m383 -6
c-14 -11 -25 -29 -26 -40 -1 -11 -10 -28 -20 -37 -15 -13 -16 -14 -7 -1 6 9 9
19 5 22 -3 4 -1 7 5 7 7 0 12 5 12 10 0 22 -19 7 -58 -46 -26 -34 -42 -67 -42
-84 0 -53 -115 -201 -183 -236 -17 -9 -35 -21 -39 -27 -7 -12 -58 17 -58 33 0
5 15 17 33 26 52 27 129 96 143 129 7 16 35 71 63 120 28 50 51 98 51 107 0
21 42 36 100 37 l45 0 -24 -20z m-896 2 c-3 -6 3 -14 12 -20 10 -6 14 -10 8
-10 -16 0 -45 25 -38 32 10 11 25 8 18 -2z m71 -38 c4 4 12 2 19 -3 6 -5 29
-14 51 -19 30 -7 33 -9 13 -10 -37 -1 -120 29 -113 41 4 6 10 5 15 -3 4 -7 11
-10 15 -6z m104 -5 c-12 -5 -25 -6 -28 -3 -3 3 0 5 7 5 7 0 10 4 7 9 -4 5 4 7
16 3 l22 -5 -24 -9z m63 -5 c-7 -2 -19 -2 -25 0 -7 3 -2 5 12 5 14 0 19 -2 13
-5z m357 -14 c0 -13 -4 -18 -12 -13 -8 5 -9 2 -5 -10 5 -11 3 -15 -5 -10 -8 5
-9 2 -5 -9 4 -10 0 -20 -11 -26 -9 -6 -13 -11 -9 -11 10 0 -47 -81 -78 -110
-13 -12 -26 -17 -29 -12 -6 10 9 27 29 34 6 1 9 7 7 11 -1 5 1 6 6 3 8 -5 57
60 57 78 0 11 46 96 52 96 2 0 3 -9 3 -21z m-383 -15 c-3 -3 -12 -4 -19 -1 -8
3 -5 6 6 6 11 1 17 -2 13 -5z m43 -14 c8 -5 11 -10 5 -10 -5 0 -17 5 -25 10
-8 5 -10 10 -5 10 6 0 17 -5 25 -10z m55 -20 c4 -6 11 -8 16 -5 5 3 6 -1 3 -9
-4 -9 0 -18 9 -22 9 -3 18 -13 21 -22 4 -9 -7 -3 -23 14 -16 18 -37 37 -47 43
-17 9 -17 10 -2 11 9 0 20 -5 23 -10z m82 4 c-3 -3 -12 -4 -19 -1 -8 3 -5 6 6
6 11 1 17 -2 13 -5z m298 -34 c-4 -12 -9 -19 -12 -17 -3 3 -2 15 2 27 4 12 9
19 12 17 3 -3 2 -15 -2 -27z m-27 -53 c-14 -28 -38 -51 -38 -38 0 5 8 17 18
27 9 10 16 19 15 21 -8 9 -2 23 7 18 7 -4 6 -14 -2 -28z m-268 13 c0 -5 -4
-10 -10 -10 -5 0 -10 5 -10 10 0 6 5 10 10 10 6 0 10 -4 10 -10z m386 -41 c-7
-17 -16 -30 -19 -30 -10 1 -10 4 4 34 17 37 31 34 15 -4z m-356 -64 c-16 -20
-73 -38 -67 -22 2 6 12 11 22 9 10 -2 14 1 10 7 -4 7 0 8 10 5 9 -4 15 -3 14
2 -3 18 1 25 11 19 8 -5 8 -11 0 -20z m159 -16 c-12 -17 -29 -33 -38 -36 -9
-3 -30 -16 -47 -29 -18 -13 -36 -19 -43 -14 -10 6 -10 9 -1 15 6 4 14 5 17 2
3 -3 14 3 26 14 11 10 33 25 49 31 16 7 31 21 34 30 3 10 10 18 15 18 6 0 0
-14 -12 -31z m102 -49 c-13 -11 -20 -20 -17 -20 4 0 4 -5 1 -10 -4 -6 -11 -7
-17 -4 -7 5 0 16 18 31 35 28 49 30 15 3z m-56 -60 c-18 -20 -35 -26 -35 -12
0 4 10 12 23 18 32 16 32 16 12 -6z m-49 -37 c-4 -4 -12 -1 -19 7 -9 10 -9 11
1 6 7 -4 12 -2 13 6 0 11 2 11 6 0 3 -7 2 -16 -1 -19z m1399 -371 c6 -4 27
-52 46 -107 34 -93 47 -139 71 -240 5 -22 17 -62 26 -90 34 -106 15 -310 -26
-284 -9 6 -32 34 -49 62 l-33 52 0 143 c0 108 -4 152 -16 180 -9 20 -20 65
-24 100 -6 44 -16 73 -35 97 -27 37 -27 75 1 75 8 0 14 5 14 10 0 12 11 13 25
2z"/>
<path d="M3896 3036 c-14 -19 -26 -38 -26 -42 0 -13 32 21 41 44 5 14 14 20
21 16 7 -4 8 -3 4 4 -10 16 -10 16 -40 -22z"/>
<path d="M4040 2930 c0 -5 5 -10 11 -10 5 0 7 5 4 10 -3 6 -8 10 -11 10 -2 0
-4 -4 -4 -10z"/>
<path d="M3640 2616 c0 -2 8 -10 18 -17 15 -13 16 -12 3 4 -13 16 -21 21 -21
13z"/>
<path d="M5754 1341 c7 -11 46 -35 46 -28 0 3 -12 12 -26 22 -15 9 -23 12 -20
6z"/>
</g>
</svg>
