<?xml version="1.0" standalone="no"?>
<!DOCTYPE svg PUBLIC "-//W3C//DTD SVG 20010904//EN"
 "http://www.w3.org/TR/2001/REC-SVG-20010904/DTD/svg10.dtd">
<svg version="1.0" xmlns="http://www.w3.org/2000/svg"
 width="1024.000000pt" height="1536.000000pt" viewBox="0 0 1024.000000 1536.000000"
 preserveAspectRatio="xMidYMid meet">

<g transform="translate(0.000000,1536.000000) scale(0.100000,-0.100000)"
fill="#000000" stroke="none">
<path d="M1639 14957 c15 -19 51 -23 51 -6 0 6 -6 9 -12 6 -7 -2 -22 0 -33 6
-18 9 -19 9 -6 -6z"/>
<path d="M1709 14939 c-26 -28 -26 -29 -5 -29 13 0 26 10 33 25 16 36 2 38
-28 4z"/>
<path d="M1780 14960 c0 -6 -4 -9 -8 -6 -4 3 -13 -8 -19 -24 -10 -25 -9 -28 8
-27 12 1 17 7 14 15 -3 8 2 20 11 27 12 8 14 14 6 19 -7 4 -12 2 -12 -4z"/>
<path d="M1825 14960 c3 -5 10 -10 16 -10 5 0 9 5 9 10 0 6 -7 10 -16 10 -8 0
-12 -4 -9 -10z"/>
<path d="M355 14950 c3 -5 8 -10 11 -10 2 0 4 5 4 10 0 6 -5 10 -11 10 -5 0
-7 -4 -4 -10z"/>
<path d="M543 14941 c0 -11 5 -17 9 -15 11 7 10 34 -1 34 -6 0 -9 -9 -8 -19z"/>
<path d="M1130 14954 c0 -14 27 -50 33 -44 3 3 -3 16 -13 30 -11 14 -20 20
-20 14z"/>
<path d="M1336 14945 c-3 -8 -1 -15 4 -15 6 0 10 7 10 15 0 8 -2 15 -4 15 -2
0 -6 -7 -10 -15z"/>
<path d="M1851 14940 c-13 -11 -18 -20 -11 -20 7 0 10 -7 6 -16 -5 -14 -4 -15
9 -4 9 7 13 15 11 18 -3 2 -1 13 5 23 12 23 10 23 -20 -1z"/>
<path d="M1900 14950 c0 -5 5 -10 10 -10 6 0 10 5 10 10 0 6 -4 10 -10 10 -5
0 -10 -4 -10 -10z"/>
<path d="M327 14930 c3 -11 9 -20 15 -20 5 0 4 9 -2 20 -6 11 -12 20 -14 20
-2 0 -2 -9 1 -20z"/>
<path d="M616 14938 c3 -4 9 -8 15 -8 5 0 9 4 9 8 0 5 -7 9 -15 9 -8 0 -12 -4
-9 -9z"/>
<path d="M1585 14940 c3 -5 8 -10 11 -10 2 0 4 5 4 10 0 6 -5 10 -11 10 -5 0
-7 -4 -4 -10z"/>
<path d="M1801 14932 c-13 -25 -14 -32 -2 -32 9 0 23 41 16 48 -2 2 -8 -5 -14
-16z"/>
<path d="M1965 14940 c-3 -5 -1 -10 4 -10 6 0 11 5 11 10 0 6 -2 10 -4 10 -3
0 -8 -4 -11 -10z"/>
<path d="M2012 14943 c-6 -2 -10 -9 -7 -13 7 -11 35 -2 35 11 0 10 -8 10 -28
2z"/>
<path d="M285 14930 c3 -5 8 -10 11 -10 2 0 4 5 4 10 0 6 -5 10 -11 10 -5 0
-7 -4 -4 -10z"/>
<path d="M965 14930 c3 -5 8 -10 11 -10 2 0 4 5 4 10 0 6 -5 10 -11 10 -5 0
-7 -4 -4 -10z"/>
<path d="M1270 14926 c14 -8 27 -12 29 -10 6 6 -1 11 -29 18 l-25 7 25 -15z"/>
<path d="M2066 14925 c4 -8 8 -15 10 -15 2 0 4 7 4 15 0 8 -4 15 -10 15 -5 0
-7 -7 -4 -15z"/>
<path d="M2210 14929 c0 -5 5 -7 10 -4 6 3 10 8 10 11 0 2 -4 4 -10 4 -5 0
-10 -5 -10 -11z"/>
<path d="M487 14916 c-3 -8 0 -17 7 -19 10 -4 12 1 9 14 -6 23 -9 24 -16 5z"/>
<path d="M820 14922 c0 -5 7 -13 16 -16 10 -4 14 -1 12 6 -5 15 -28 23 -28 10z"/>
<path d="M1215 14920 c-3 -5 1 -10 9 -10 9 0 16 5 16 10 0 6 -4 10 -9 10 -6 0
-13 -4 -16 -10z"/>
<path d="M1640 14918 c0 -9 5 -20 10 -23 13 -8 13 5 0 25 -8 13 -10 13 -10 -2z"/>
<path d="M650 14910 c0 -5 5 -10 11 -10 5 0 7 5 4 10 -3 6 -8 10 -11 10 -2 0
-4 -4 -4 -10z"/>
<path d="M865 14910 c3 -5 8 -10 11 -10 2 0 4 5 4 10 0 6 -5 10 -11 10 -5 0
-7 -4 -4 -10z"/>
<path d="M1045 14910 c-3 -5 -1 -10 4 -10 6 0 11 5 11 10 0 6 -2 10 -4 10 -3
0 -8 -4 -11 -10z"/>
<path d="M1500 14916 c0 -2 7 -9 15 -16 9 -7 15 -8 15 -2 0 5 -7 12 -15 16 -8
3 -15 4 -15 2z"/>
<path d="M685 14900 c-3 -5 -1 -10 4 -10 6 0 11 5 11 10 0 6 -2 10 -4 10 -3 0
-8 -4 -11 -10z"/>
<path d="M732 14894 c-7 -8 -8 -14 -3 -14 10 0 25 19 20 25 -2 1 -10 -3 -17
-11z"/>
<path d="M280 14889 c0 -5 5 -7 10 -4 6 3 10 8 10 11 0 2 -4 4 -10 4 -5 0 -10
-5 -10 -11z"/>
<path d="M315 14890 c3 -5 8 -10 11 -10 2 0 4 5 4 10 0 6 -5 10 -11 10 -5 0
-7 -4 -4 -10z"/>
<path d="M70 14879 c0 -5 5 -7 10 -4 6 3 10 8 10 11 0 2 -4 4 -10 4 -5 0 -10
-5 -10 -11z"/>
<path d="M4924 12711 c-46 -21 -83 -62 -91 -103 -5 -24 -8 -26 -26 -16 -13 7
-51 9 -104 5 -66 -5 -100 -14 -166 -43 -113 -50 -147 -72 -147 -95 0 -14 -7
-19 -25 -19 -32 0 -79 45 -71 66 3 9 6 26 6 39 0 14 14 40 30 58 35 40 37 46
13 42 -10 -2 -31 -4 -46 -4 -31 -1 -96 -60 -123 -113 -18 -34 -22 -97 -11
-150 l8 -37 -63 6 c-56 5 -70 2 -115 -21 -86 -43 -123 -111 -122 -224 1 -40
-4 -59 -19 -75 -37 -41 -64 -109 -75 -192 l-11 -83 -44 -4 c-60 -5 -122 20
-147 59 -24 38 -35 41 -35 11 0 -12 -5 -47 -12 -78 -15 -77 2 -141 47 -176 18
-13 37 -24 43 -24 20 0 14 -9 -46 -68 -78 -76 -113 -137 -119 -211 -6 -65 8
-87 27 -42 12 29 47 68 53 60 17 -21 38 -86 34 -103 -3 -11 -13 -48 -22 -81
-31 -109 7 -258 75 -297 17 -9 30 -25 30 -35 0 -10 6 -29 13 -43 8 -14 33 -60
56 -103 l42 -79 -25 -19 c-62 -49 -99 -162 -98 -304 0 -174 38 -288 144 -438
91 -130 170 -197 232 -197 26 0 28 -4 52 -105 4 -16 27 -79 51 -140 l43 -110
0 -165 c0 -91 -3 -175 -6 -187 -4 -14 -19 -26 -41 -34 -44 -14 -140 -92 -191
-153 -22 -26 -54 -76 -71 -111 -35 -69 -98 -138 -118 -130 -7 2 -13 -1 -13 -8
-1 -40 -336 -192 -665 -302 -93 -31 -175 -61 -180 -65 -6 -5 -71 -34 -145 -63
-329 -133 -427 -178 -485 -222 -16 -12 -40 -25 -52 -29 -13 -4 -23 -12 -23
-17 0 -5 -6 -9 -14 -9 -17 0 -241 -219 -307 -300 -109 -132 -209 -322 -255
-478 -13 -48 -42 -143 -64 -212 -21 -69 -47 -163 -58 -210 -11 -47 -30 -128
-43 -180 -12 -52 -44 -153 -72 -225 -27 -71 -64 -177 -83 -235 -37 -114 -119
-333 -250 -665 -45 -115 -85 -230 -89 -254 l-7 -44 86 -83 c48 -46 100 -91
117 -101 34 -20 33 -13 6 -143 -18 -87 -49 -277 -72 -435 -14 -103 -45 -206
-107 -360 -13 -33 -30 -80 -37 -105 -7 -25 -26 -81 -43 -125 -36 -98 -88 -271
-88 -295 0 -10 -9 -46 -20 -80 -59 -184 -129 -626 -136 -855 -15 -519 -16
-680 -5 -800 19 -214 33 -587 38 -975 2 -201 5 -394 7 -430 2 -36 4 -82 5
-102 1 -35 3 -38 31 -38 27 0 29 2 20 25 -15 39 -21 178 -25 600 -2 215 -8
469 -14 565 -14 247 -24 533 -22 680 5 546 7 604 17 607 6 2 9 16 7 31 -2 15
7 92 21 172 31 176 26 153 75 352 22 89 49 213 61 273 29 149 105 387 166 520
54 121 80 233 160 700 14 83 27 156 29 163 3 9 27 1 82 -27 219 -109 427 -183
688 -242 97 -22 329 -34 421 -20 l50 7 -8 -56 c-5 -30 -20 -97 -34 -148 -30
-113 -148 -461 -209 -617 -29 -74 -41 -115 -55 -180 -24 -120 -39 -220 -45
-300 -4 -49 -8 -105 -10 -123 -2 -18 -9 -113 -15 -210 -6 -97 -22 -240 -36
-317 -14 -77 -30 -167 -35 -200 -6 -33 -30 -141 -54 -240 -24 -99 -60 -252
-80 -340 -20 -88 -61 -252 -90 -365 -117 -452 -171 -708 -185 -875 -12 -139
-7 -294 10 -305 9 -6 22 -58 24 -100 1 -21 6 -25 39 -28 l37 -3 -32 63 -33 63
2 156 c3 187 28 398 72 599 5 25 16 79 25 120 15 75 66 272 131 515 19 72 46
177 60 235 15 58 37 146 50 195 13 50 33 140 44 200 11 61 29 162 40 225 28
155 39 235 51 381 5 68 12 138 14 154 3 17 7 66 10 110 3 44 8 118 12 165 9
128 32 246 66 335 17 44 39 103 50 130 80 208 165 468 204 624 18 74 38 139
44 145 8 8 9 6 5 -6 -11 -27 6 -22 31 10 12 15 24 25 27 22 2 -3 7 -95 10
-205 4 -131 11 -217 20 -250 48 -163 49 -169 43 -260 -3 -49 -12 -129 -21
-178 -35 -199 -50 -482 -31 -586 6 -33 5 -46 -5 -52 -11 -7 -10 -9 4 -9 10 0
17 -8 17 -21 0 -13 -4 -18 -12 -13 -9 5 -8 2 1 -9 33 -41 -16 -228 -56 -213
-8 4 -11 1 -7 -5 3 -6 -7 -27 -23 -47 -40 -51 -78 -127 -93 -189 -10 -39 -17
-50 -29 -46 -11 3 -12 2 -4 -4 9 -6 11 -35 8 -100 -4 -81 -2 -99 25 -179 17
-48 30 -102 30 -119 0 -17 -24 -91 -54 -165 -29 -74 -63 -166 -76 -205 -12
-38 -30 -79 -39 -89 -9 -11 -10 -16 -4 -12 16 9 16 10 -3 -53 -14 -48 -19 -75
-23 -121 -1 -13 -2 -13 -11 0 -8 13 -10 13 -10 -2 0 -9 5 -18 12 -20 6 -2 0
-15 -15 -30 -21 -21 -23 -27 -11 -32 9 -3 12 -1 9 4 -3 6 -1 10 6 10 8 0 10
-12 6 -37 -3 -21 -13 -90 -22 -153 -9 -63 -21 -118 -26 -121 -6 -3 -9 -12 -7
-20 2 -8 -2 -13 -9 -12 -14 3 -38 -25 -29 -34 4 -4 11 -1 16 7 5 8 12 11 16 7
4 -4 3 -12 -3 -18 -6 -6 -9 -18 -6 -25 3 -8 -1 -14 -10 -14 -13 0 -15 -8 -12
-35 4 -31 -6 -48 -18 -28 -2 5 -2 3 -1 -4 2 -7 -1 -15 -6 -18 -6 -4 -10 -11
-10 -17 0 -7 6 -6 15 2 12 10 15 10 15 -4 0 -9 -5 -16 -11 -16 -7 0 -8 -11 -4
-31 5 -24 4 -30 -5 -24 -8 5 -11 3 -8 -6 3 -8 13 -13 22 -12 11 0 15 -4 12
-14 -3 -8 -2 -12 2 -9 10 6 42 -29 42 -45 0 -5 -4 -8 -8 -5 -4 2 -8 -3 -9 -12
-1 -9 -10 -42 -21 -72 -17 -48 -20 -52 -30 -35 -9 16 -13 18 -23 8 -11 -11
-10 -13 3 -13 35 0 40 -25 19 -107 -11 -43 -21 -118 -23 -168 -2 -65 -6 -89
-15 -87 -15 2 -17 -24 -3 -33 20 -13 9 -25 -17 -20 -23 4 -25 4 -8 -4 12 -6
1053 -10 2736 -10 l2715 -1 -2 58 c-3 74 -14 201 -20 243 -3 19 -6 46 -7 61
-1 15 -5 30 -9 33 -4 4 7 32 24 62 30 52 30 57 19 105 -15 65 -14 78 4 78 15
0 21 16 7 22 -19 8 -63 186 -77 312 -4 32 -8 68 -10 80 -26 142 -36 208 -40
246 -3 25 -8 68 -11 95 -3 28 -21 130 -40 228 l-35 178 30 59 c38 77 45 140
32 265 -11 93 -18 129 -69 325 -10 41 -18 95 -16 120 5 74 25 220 40 293 12
59 25 155 74 537 23 178 31 258 31 310 0 30 6 98 14 150 22 141 33 227 40 304
3 38 7 71 9 73 2 2 14 -11 27 -29 13 -18 27 -36 31 -39 4 -3 15 -54 23 -115
18 -129 70 -338 90 -368 8 -11 15 -30 15 -42 0 -30 45 -162 63 -182 19 -23 53
-113 73 -196 13 -54 15 -92 9 -184 -3 -64 -8 -119 -10 -122 -1 -3 -6 -50 -10
-105 -3 -55 -12 -149 -19 -210 -18 -143 -18 -389 -1 -490 8 -44 19 -141 25
-215 11 -140 13 -153 54 -360 13 -69 30 -159 36 -200 13 -94 17 -115 37 -220
17 -88 22 -291 13 -473 -3 -54 -2 -109 2 -124 5 -17 2 -30 -8 -40 -17 -18 -18
-27 -1 -20 9 3 12 -6 11 -32 -10 -217 -20 -264 -87 -400 l-35 -71 27 0 c20 0
30 7 38 28 l12 27 -5 -30 c-7 -48 43 59 57 122 7 29 15 53 18 53 22 0 19 704
-3 920 -16 153 -53 404 -81 551 -25 127 -65 447 -71 569 -4 79 1 188 15 347
22 247 27 524 11 635 -11 76 -46 201 -85 303 -62 162 -104 314 -139 512 -20
109 -21 123 -7 118 59 -23 366 -38 466 -22 206 31 427 118 672 263 78 46 145
88 148 94 3 5 14 14 23 19 15 8 17 0 19 -83 3 -108 20 -411 34 -585 5 -68 19
-160 30 -205 12 -44 23 -92 25 -106 2 -14 13 -56 24 -93 13 -42 23 -106 26
-170 2 -56 16 -187 30 -292 14 -104 28 -221 32 -260 10 -104 5 -566 -7 -675
-6 -52 -15 -156 -21 -230 -24 -324 -47 -504 -96 -763 -19 -100 -39 -207 -44
-237 -24 -142 -39 -251 -45 -320 -15 -178 -46 -460 -51 -475 -5 -11 1 -15 19
-15 27 0 26 -4 42 102 6 37 11 115 20 263 3 55 15 156 25 225 42 265 82 509
100 600 39 209 90 792 97 1112 5 226 -6 472 -28 633 -5 39 -14 108 -19 155
-20 190 -40 319 -59 385 -26 95 -48 228 -61 371 -6 65 -13 130 -15 144 -2 14
-7 99 -10 190 -3 91 -8 211 -11 268 -4 65 -2 102 4 102 18 0 97 71 115 103 21
39 22 114 2 187 -8 30 -21 91 -29 135 -17 94 -74 343 -81 355 -3 5 -36 133
-75 285 -38 151 -72 280 -75 284 -10 18 -55 242 -55 279 0 51 -50 304 -94 472
-59 227 -135 432 -211 570 -113 204 -268 403 -323 416 -15 4 -70 37 -122 74
-107 75 -217 133 -370 195 -58 24 -159 66 -225 94 -214 92 -260 111 -270 111
-20 0 -295 118 -485 207 -30 15 -79 43 -108 64 -30 21 -85 48 -123 59 l-70 22
-36 71 c-97 194 -207 304 -357 357 l-29 10 5 188 5 187 42 119 c22 66 41 127
41 137 0 22 7 26 51 34 50 9 89 37 165 118 75 80 153 203 185 294 30 84 36
235 14 354 -19 105 -35 143 -68 160 -33 17 -33 18 -6 42 15 12 35 40 47 62 11
22 41 66 65 98 49 63 65 115 47 161 -9 24 -8 32 9 50 42 46 80 123 90 182 17
106 -17 293 -58 318 -16 10 -14 36 3 36 8 0 23 12 33 28 26 37 57 111 51 118
-3 2 -22 -5 -42 -17 -28 -16 -45 -20 -74 -14 -50 9 -78 38 -114 115 -25 56
-28 72 -23 117 14 117 -44 217 -158 272 l-62 30 48 0 c29 1 65 -7 89 -19 54
-26 56 -25 27 6 -32 34 -128 83 -187 94 -37 7 -59 4 -104 -11 -58 -19 -88 -24
-88 -13 0 3 5 15 12 27 16 31 11 160 -9 210 l-17 42 -8 -44 c-8 -50 -29 -85
-58 -101 -18 -10 -20 -8 -20 29 0 49 -16 62 -25 21 -11 -50 -35 -38 -35 18 0
75 -25 145 -68 187 -37 38 -121 96 -156 109 -16 5 -15 2 6 -26 39 -52 49 -76
58 -140 9 -59 0 -108 -18 -108 -5 0 -17 21 -27 48 -27 70 -114 152 -198 185
-80 32 -185 37 -245 11 -20 -9 -71 -18 -112 -21 -67 -5 -79 -3 -110 19 -45 31
-48 53 -14 89 32 34 25 36 -32 10z m356 -877 c30 -7 72 -13 93 -14 24 0 40 -5
43 -15 9 -24 38 -18 72 15 l31 29 38 -17 c21 -9 54 -26 73 -38 22 -13 69 -25
130 -33 106 -13 163 -35 202 -77 34 -37 136 -206 144 -240 4 -14 15 -31 26
-37 55 -33 71 -127 43 -262 -18 -87 -34 -205 -27 -205 3 0 11 8 18 18 11 15
14 13 30 -23 14 -33 17 -70 15 -215 -1 -175 -6 -240 -42 -510 -30 -225 -139
-696 -194 -840 -59 -155 -144 -252 -405 -460 -218 -174 -272 -195 -495 -194
-159 0 -225 12 -328 58 -64 28 -328 239 -418 332 -78 81 -160 202 -188 279
-27 72 -100 350 -117 445 -7 41 -15 85 -18 98 -27 122 -46 297 -53 477 -11
302 -9 325 22 390 l27 55 -6 173 c-4 94 -8 190 -9 212 -6 89 37 219 100 303
29 39 36 40 51 7 6 -14 15 -25 20 -25 11 0 52 86 52 109 0 26 10 51 21 51 5 0
8 -3 7 -7 -2 -5 7 -25 19 -46 28 -47 64 -62 168 -71 l80 -7 -31 20 c-33 20
-77 71 -70 79 3 2 12 -3 21 -12 41 -41 133 -69 185 -57 28 6 31 10 18 16 -30
12 -20 28 13 21 35 -7 38 -14 -28 74 -41 54 -43 73 -5 64 15 -4 39 -13 54 -20
15 -8 37 -14 48 -14 21 0 21 1 -4 31 -14 17 -26 40 -26 52 l0 20 23 -21 c13
-12 47 -26 76 -32 67 -13 64 -13 58 5 -12 30 33 38 108 19 32 -9 64 -13 72 -9
9 3 21 -2 27 -10 10 -14 17 -11 53 20 53 45 94 67 113 59 8 -3 40 -12 70 -20z
m-1472 -1349 c48 -40 77 -115 106 -270 21 -109 24 -124 36 -170 25 -91 56
-245 49 -245 -11 0 -31 28 -26 37 11 17 -34 185 -67 257 -20 42 -36 82 -36 88
0 7 -15 56 -32 109 -24 71 -39 100 -55 108 -25 12 -35 3 -58 -52 -16 -38 -21
-152 -6 -143 4 3 11 29 15 57 9 65 34 118 47 98 14 -23 71 -200 66 -205 -3 -3
-14 -6 -25 -7 -12 0 -18 -6 -15 -14 3 -7 1 -13 -4 -13 -5 0 -10 -29 -10 -65
-1 -36 2 -63 6 -61 3 2 15 -13 25 -34 18 -38 38 -50 87 -50 30 0 44 -32 33
-74 -4 -18 2 -29 26 -50 17 -14 35 -26 40 -26 5 0 12 -21 15 -47 3 -27 8 -58
11 -71 6 -29 -17 -38 -55 -22 -61 25 -139 118 -221 265 -19 33 -42 71 -51 85
-22 30 -49 160 -49 230 0 62 26 194 47 235 17 33 52 75 64 75 4 0 21 -11 37
-25z m2595 -27 c24 -32 33 -85 42 -238 9 -155 -7 -232 -76 -357 -59 -105 -96
-152 -169 -213 -43 -36 -116 -67 -128 -55 -2 2 4 40 14 85 15 69 21 83 41 91
14 5 29 7 34 3 5 -3 15 -2 22 3 6 4 16 8 21 8 15 0 16 19 1 38 -13 18 -14 18
-34 -2 -21 -21 -33 -25 -43 -16 -17 18 63 242 82 230 5 -3 8 -21 8 -41 0 -19
3 -38 6 -41 3 -4 6 6 6 21 0 24 2 26 22 15 17 -9 23 -9 26 0 2 6 8 9 12 6 13
-8 0 -35 -16 -35 -8 0 -14 -4 -14 -10 0 -5 -13 -10 -29 -10 -35 0 -37 -3 -46
-53 -9 -45 10 -52 20 -7 6 25 11 30 37 30 41 0 87 48 90 92 2 49 -1 77 -13
139 -10 51 -9 60 15 115 20 46 27 55 31 39 3 -11 15 -38 26 -60 l19 -40 -4 51
c-8 87 -45 153 -59 107 -19 -64 -97 -233 -115 -251 -27 -27 -27 -28 2 72 14
44 32 119 41 166 10 47 23 100 31 118 12 29 18 33 45 30 21 -2 39 -13 52 -30z
m-2541 -343 c3 -13 1 -22 -3 -19 -9 5 -13 44 -5 44 2 0 6 -11 8 -25z m2073
-1207 c-6 -306 -6 -327 14 -408 30 -124 26 -170 -26 -290 -54 -124 -196 -339
-246 -373 -12 -8 -31 -23 -42 -34 -11 -10 -45 -36 -75 -57 -75 -54 -116 -93
-153 -146 -68 -99 -159 -200 -205 -226 -61 -36 -142 -113 -201 -190 l-47 -62
-22 49 c-12 27 -25 49 -30 49 -11 0 -98 117 -136 182 -15 25 -37 84 -50 130
-28 102 -37 119 -94 180 -30 32 -58 52 -85 59 -52 14 -216 145 -267 213 -73
99 -113 203 -130 343 -10 81 -10 88 9 107 11 11 23 18 26 15 4 -4 11 -44 14
-81 1 -5 4 -8 9 -8 4 0 7 191 6 424 l0 423 37 -47 c37 -47 183 -184 238 -224
16 -11 75 -58 131 -104 161 -133 228 -157 430 -157 175 0 269 23 371 89 44 28
100 64 126 81 139 87 346 278 381 351 8 19 18 34 20 34 2 0 1 -145 -3 -322z"/>
<path d="M4400 10868 c-118 -9 -225 -32 -267 -58 -18 -10 -41 -37 -52 -58 -17
-34 -18 -42 -6 -58 12 -17 17 -18 62 -5 168 48 274 61 485 62 l178 0 6 27 c3
15 7 33 10 40 7 24 -9 42 -47 52 -40 11 -207 10 -369 -2z"/>
<path d="M5377 10865 c-72 -25 -113 -86 -70 -102 10 -4 48 -7 84 -7 l66 -1
-38 -45 c-22 -26 -39 -52 -39 -58 0 -21 60 -6 105 26 23 16 52 33 64 37 23 7
29 25 9 25 -7 0 -31 -11 -53 -25 -99 -60 -103 -60 -51 -6 l50 50 175 -3 c97
-2 190 -7 206 -10 54 -11 136 -39 141 -47 3 -5 12 -9 20 -9 24 0 17 55 -13 91
-37 43 -93 66 -183 74 -41 3 -118 10 -170 15 -136 13 -259 11 -303 -5z"/>
<path d="M5600 10740 c-30 -10 -30 -10 47 -14 47 -3 81 -13 133 -39 39 -20 70
-30 68 -24 -6 19 -129 75 -178 80 -25 3 -56 2 -70 -3z"/>
<path d="M4630 10732 c0 -5 13 -21 30 -37 16 -16 28 -31 25 -33 -4 -4 40 -32
51 -32 2 0 4 6 4 14 0 7 -20 32 -45 55 -43 39 -65 51 -65 33z"/>
<path d="M4415 10720 c-44 -11 -123 -49 -131 -62 -5 -8 -1 -9 12 -3 66 27 142
44 206 46 78 3 113 -5 140 -28 9 -8 22 -13 28 -11 6 2 -8 18 -31 36 -40 30
-48 32 -118 31 -42 -1 -89 -5 -106 -9z"/>
<path d="M4861 10703 c14 -16 31 -41 39 -58 19 -44 22 -269 5 -385 -17 -110
-18 -130 -7 -130 20 0 37 150 37 320 0 151 -3 180 -19 210 -25 47 -46 70 -64
70 -12 0 -9 -7 9 -27z"/>
<path d="M5539 10661 c-47 -16 -69 -32 -93 -70 -27 -42 -33 -68 -21 -93 10
-24 24 -23 18 1 -7 26 30 94 59 109 12 6 36 16 53 22 l30 11 -21 -23 c-67 -73
-56 -173 21 -198 56 -18 101 -5 130 38 37 55 34 110 -7 152 -21 21 -26 31 -15
26 10 -3 23 -6 27 -6 22 0 85 -69 106 -115 22 -49 23 -49 23 -17 1 17 6 32 11
32 6 0 10 5 10 11 0 5 -4 8 -9 5 -5 -3 -14 1 -21 10 -10 11 -10 18 -2 26 20
20 13 31 -13 24 -14 -4 -25 -2 -25 4 0 5 -19 19 -42 31 -47 24 -172 35 -219
20z m121 -76 c0 -8 -7 -15 -15 -15 -16 0 -20 12 -8 23 11 12 23 8 23 -8z"/>
<path d="M4395 10644 c-27 -8 -62 -18 -77 -21 -15 -3 -29 -11 -32 -19 -3 -8 0
-11 10 -7 10 4 12 0 8 -10 -3 -9 -12 -13 -19 -11 -19 8 -29 -15 -13 -33 11
-14 10 -15 -10 -9 -16 6 -22 3 -22 -8 0 -9 4 -16 10 -16 5 0 7 -7 4 -15 -5
-11 1 -15 18 -15 19 0 27 8 37 38 8 20 18 43 24 50 16 20 83 52 109 52 22 -1
22 -1 -4 -17 -57 -36 -66 -118 -17 -164 26 -25 39 -29 86 -29 73 0 103 28 103
98 0 27 -6 57 -15 68 -19 26 -19 34 3 34 24 0 59 -38 68 -73 5 -21 1 -36 -15
-57 -27 -38 -12 -46 23 -13 24 22 28 31 23 65 -3 22 -16 51 -29 65 l-23 25 23
-6 c32 -11 28 12 -5 25 -49 19 -212 21 -268 3z m153 -85 c-2 -6 -8 -10 -13
-10 -5 0 -11 4 -13 10 -2 6 4 11 13 11 9 0 15 -5 13 -11z"/>
<path d="M5850 10570 c0 -5 5 -10 10 -10 6 0 10 5 10 10 0 6 -4 10 -10 10 -5
0 -10 -4 -10 -10z"/>
<path d="M5527 10379 c5 -5 34 -12 64 -14 37 -3 46 -2 29 3 -44 15 -104 22
-93 11z"/>
<path d="M4540 10360 c-23 -7 -23 -8 -3 -9 12 -1 25 4 28 9 3 6 5 10 3 9 -2
-1 -14 -5 -28 -9z"/>
<path d="M4896 9927 c-15 -11 -17 -17 -7 -35 13 -25 44 -31 35 -7 -4 8 -2 15
4 15 5 0 15 -7 22 -15 14 -17 30 -20 30 -5 0 13 -46 60 -58 60 -4 0 -16 -6
-26 -13z"/>
<path d="M5150 9910 c-11 -11 -20 -27 -20 -37 0 -15 1 -15 18 0 24 22 31 21
25 -3 -7 -28 11 -25 27 4 26 49 -11 75 -50 36z"/>
<path d="M5111 9488 c-59 -13 -39 -29 23 -17 36 6 67 5 120 -7 169 -37 176
-38 176 -11 0 8 -13 11 -38 9 -22 -2 -60 3 -87 12 -60 21 -137 26 -194 14z"/>
<path d="M4779 9471 c-37 -9 -75 -14 -85 -10 -28 11 -34 10 -34 -5 0 -26 39
-28 141 -6 55 12 120 20 144 18 25 -2 45 0 45 3 0 24 -118 24 -211 0z"/>
<path d="M4936 9299 c15 -25 141 -37 188 -19 48 18 26 25 -84 26 -60 0 -107
-3 -104 -7z"/>
<path d="M4510 8853 c0 -4 5 -15 10 -23 8 -13 10 -13 10 2 0 9 -4 20 -10 23
-5 3 -10 3 -10 -2z"/>
<path d="M1366 4583 c-6 -14 -5 -15 5 -6 7 7 10 15 7 18 -3 3 -9 -2 -12 -12z"/>
<path d="M1225 4570 c4 -6 11 -8 16 -5 14 9 11 15 -7 15 -8 0 -12 -5 -9 -10z"/>
<path d="M1440 4550 c20 -13 33 -13 25 0 -3 6 -14 10 -23 10 -15 0 -15 -2 -2
-10z"/>
<path d="M1215 4530 c-3 -5 -2 -10 4 -10 5 0 13 5 16 10 3 6 2 10 -4 10 -5 0
-13 -4 -16 -10z"/>
<path d="M1190 4436 c0 -2 7 -7 16 -10 8 -3 12 -2 9 4 -6 10 -25 14 -25 6z"/>
<path d="M2015 4379 c-4 -6 -5 -12 -2 -15 2 -3 7 2 10 11 7 17 1 20 -8 4z"/>
<path d="M2386 4381 c-4 -5 3 -7 14 -4 23 6 26 13 6 13 -8 0 -17 -4 -20 -9z"/>
<path d="M2085 4369 c-4 -6 -5 -12 -2 -15 2 -3 7 2 10 11 7 17 1 20 -8 4z"/>
<path d="M2400 4360 c-8 -5 -11 -12 -7 -16 4 -4 13 -2 19 4 15 15 7 24 -12 12z"/>
<path d="M2357 4346 c-10 -8 -14 -16 -10 -19 5 -3 14 3 21 14 14 22 13 23 -11
5z"/>
<path d="M2305 4340 c3 -5 8 -10 11 -10 2 0 4 5 4 10 0 6 -5 10 -11 10 -5 0
-7 -4 -4 -10z"/>
<path d="M2228 4333 c7 -3 16 -2 19 1 4 3 -2 6 -13 5 -11 0 -14 -3 -6 -6z"/>
<path d="M2378 4303 c6 -2 18 -2 25 0 6 3 1 5 -13 5 -14 0 -19 -2 -12 -5z"/>
<path d="M2360 4270 c0 -5 7 -10 16 -10 8 0 12 5 9 10 -3 6 -10 10 -16 10 -5
0 -9 -4 -9 -10z"/>
<path d="M2334 4192 c-14 -9 -27 -45 -14 -37 9 6 34 45 28 45 -2 0 -8 -4 -14
-8z"/>
<path d="M2325 4110 c-8 -13 5 -13 25 0 13 8 13 10 -2 10 -9 0 -20 -4 -23 -10z"/>
<path d="M7660 4110 c-9 -6 -10 -10 -3 -10 6 0 15 5 18 10 8 12 4 12 -15 0z"/>
<path d="M2317 4031 c3 -12 1 -21 -6 -21 -6 0 -11 -6 -11 -14 0 -8 -6 -17 -12
-19 -9 -4 -8 -6 2 -6 20 -1 46 57 32 71 -8 8 -9 5 -5 -11z"/>
<path d="M2285 3910 c-3 -5 -1 -10 4 -10 6 0 11 5 11 10 0 6 -2 10 -4 10 -3 0
-8 -4 -11 -10z"/>
<path d="M1085 3870 c3 -5 8 -10 11 -10 2 0 4 5 4 10 0 6 -5 10 -11 10 -5 0
-7 -4 -4 -10z"/>
<path d="M2600 3869 c0 -5 5 -7 10 -4 6 3 10 8 10 11 0 2 -4 4 -10 4 -5 0 -10
-5 -10 -11z"/>
<path d="M2206 3763 c-6 -14 -5 -15 5 -6 7 7 10 15 7 18 -3 3 -9 -2 -12 -12z"/>
<path d="M2590 3671 c0 -6 4 -13 10 -16 6 -3 7 1 4 9 -7 18 -14 21 -14 7z"/>
<path d="M2167 3620 c3 -11 7 -20 9 -20 2 0 4 9 4 20 0 11 -4 20 -9 20 -5 0
-7 -9 -4 -20z"/>
<path d="M1948 3542 c-20 -31 -44 -75 -54 -97 -10 -22 -25 -48 -33 -57 -8 -11
-10 -18 -3 -18 14 0 40 38 91 134 51 95 50 117 -1 38z"/>
<path d="M936 3548 c-8 -31 -7 -38 2 -38 4 0 9 14 10 30 3 35 -3 39 -12 8z"/>
<path d="M2585 3561 c-3 -5 -1 -12 5 -16 5 -3 10 1 10 9 0 18 -6 21 -15 7z"/>
<path d="M1547 3477 c-4 -10 -7 -36 -7 -58 0 -65 81 -176 149 -205 39 -16 41
-17 41 -5 0 5 -13 14 -29 20 -58 24 -130 124 -132 182 -1 19 -4 45 -8 59 -6
22 -8 23 -14 7z"/>
<path d="M2489 3413 c-13 -17 -13 -17 6 -3 11 8 22 16 24 17 2 2 0 3 -6 3 -6
0 -17 -8 -24 -17z"/>
<path d="M2490 3380 c0 -5 5 -10 10 -10 6 0 10 5 10 10 0 6 -4 10 -10 10 -5 0
-10 -4 -10 -10z"/>
<path d="M2377 3353 c-4 -3 -7 -11 -7 -17 0 -6 5 -5 12 2 6 6 9 14 7 17 -3 3
-9 2 -12 -2z"/>
<path d="M2315 3280 c3 -5 8 -10 11 -10 2 0 4 5 4 10 0 6 -5 10 -11 10 -5 0
-7 -4 -4 -10z"/>
<path d="M2410 3280 c8 -5 20 -10 25 -10 6 0 3 5 -5 10 -8 5 -19 10 -25 10 -5
0 -3 -5 5 -10z"/>
<path d="M7921 3242 c-1 -20 18 -53 50 -87 16 -16 37 -40 47 -52 20 -23 72
-42 72 -25 0 5 -11 13 -24 16 -23 6 -124 112 -138 145 -4 10 -7 11 -7 3z"/>
<path d="M8325 3213 c-9 -56 -28 -92 -74 -145 -22 -25 -41 -51 -41 -56 0 -6
-9 -17 -21 -25 -11 -8 -16 -18 -11 -21 11 -6 98 85 138 144 25 38 44 140 26
140 -6 0 -14 -17 -17 -37z"/>
<path d="M891 3214 c0 -11 3 -14 6 -6 3 7 2 16 -1 19 -3 4 -6 -2 -5 -13z"/>
<path d="M2300 3161 c0 -5 5 -13 10 -16 6 -3 10 -2 10 4 0 5 -4 13 -10 16 -5
3 -10 2 -10 -4z"/>
<path d="M8072 3130 c13 -21 38 -27 38 -10 0 9 -31 30 -44 30 -4 0 -1 -9 6
-20z"/>
<path d="M2370 3086 c0 -2 7 -7 16 -10 8 -3 12 -2 9 4 -6 10 -25 14 -25 6z"/>
<path d="M2447 3040 c3 -11 7 -20 9 -20 2 0 4 9 4 20 0 11 -4 20 -9 20 -5 0
-7 -9 -4 -20z"/>
<path d="M2396 2996 c3 -8 13 -17 22 -21 13 -5 13 -2 -3 15 -21 24 -26 25 -19
6z"/>
<path d="M2380 2959 c0 -5 5 -7 10 -4 6 3 10 8 10 11 0 2 -4 4 -10 4 -5 0 -10
-5 -10 -11z"/>
<path d="M2485 2951 c-3 -5 -1 -12 5 -16 5 -3 10 1 10 9 0 18 -6 21 -15 7z"/>
<path d="M2521 2944 c0 -11 3 -14 6 -6 3 7 2 16 -1 19 -3 4 -6 -2 -5 -13z"/>
<path d="M8110 2950 c0 -5 5 -10 10 -10 6 0 10 5 10 10 0 6 -4 10 -10 10 -5 0
-10 -4 -10 -10z"/>
<path d="M2391 2925 c-2 -24 16 -37 35 -26 18 10 18 10 -3 11 -12 0 -24 6 -26
13 -3 6 -6 8 -6 2z"/>
<path d="M2499 2863 c-13 -16 -12 -17 4 -4 9 7 17 15 17 17 0 8 -8 3 -21 -13z"/>
<path d="M760 2859 c0 -5 5 -7 10 -4 6 3 10 8 10 11 0 2 -4 4 -10 4 -5 0 -10
-5 -10 -11z"/>
<path d="M2535 2859 c-4 -6 -5 -12 -2 -15 2 -3 7 2 10 11 7 17 1 20 -8 4z"/>
<path d="M2318 2793 c7 -3 16 -2 19 1 4 3 -2 6 -13 5 -11 0 -14 -3 -6 -6z"/>
<path d="M2390 2761 c0 -6 4 -13 10 -16 6 -3 7 1 4 9 -7 18 -14 21 -14 7z"/>
<path d="M2427 2723 c-10 -9 -9 -33 1 -33 4 0 8 9 8 20 0 23 0 22 -9 13z"/>
<path d="M2385 2660 c-3 -5 -1 -10 4 -10 6 0 11 5 11 10 0 6 -2 10 -4 10 -3 0
-8 -4 -11 -10z"/>
<path d="M2431 2660 c-9 -5 -4 -7 13 -7 29 0 32 2 13 10 -8 3 -20 2 -26 -3z"/>
<path d="M2330 2631 c0 -5 5 -13 10 -16 6 -3 10 -2 10 4 0 5 -4 13 -10 16 -5
3 -10 2 -10 -4z"/>
<path d="M2400 2625 c0 -10 29 -24 34 -17 3 6 -3 12 -14 15 -11 3 -20 4 -20 2z"/>
<path d="M2240 2589 c0 -5 5 -7 10 -4 6 3 10 8 10 11 0 2 -4 4 -10 4 -5 0 -10
-5 -10 -11z"/>
<path d="M786 2567 c3 -10 9 -15 12 -12 3 3 0 11 -7 18 -10 9 -11 8 -5 -6z"/>
<path d="M760 2540 c0 -5 5 -10 10 -10 6 0 10 5 10 10 0 6 -4 10 -10 10 -5 0
-10 -4 -10 -10z"/>
<path d="M2420 2532 c0 -12 19 -26 26 -19 2 2 -2 10 -11 17 -9 8 -15 8 -15 2z"/>
<path d="M740 2509 c0 -5 5 -7 10 -4 6 3 10 8 10 11 0 2 -4 4 -10 4 -5 0 -10
-5 -10 -11z"/>
<path d="M766 2477 c3 -10 9 -15 12 -12 3 3 0 11 -7 18 -10 9 -11 8 -5 -6z"/>
<path d="M1991 2414 c0 -11 3 -14 6 -6 3 7 2 16 -1 19 -3 4 -6 -2 -5 -13z"/>
<path d="M2220 2421 c0 -6 4 -13 10 -16 6 -3 7 1 4 9 -7 18 -14 21 -14 7z"/>
<path d="M690 2400 c0 -5 5 -10 11 -10 5 0 7 5 4 10 -3 6 -8 10 -11 10 -2 0
-4 -4 -4 -10z"/>
<path d="M2308 2363 c7 -3 16 -2 19 1 4 3 -2 6 -13 5 -11 0 -14 -3 -6 -6z"/>
<path d="M686 2305 c4 -8 8 -15 10 -15 2 0 4 7 4 15 0 8 -4 15 -10 15 -5 0 -7
-7 -4 -15z"/>
<path d="M800 2312 c0 -5 -3 -17 -6 -25 -3 -8 2 -17 10 -20 11 -4 14 1 12 19
-3 24 -16 47 -16 26z"/>
<path d="M715 2300 c-3 -5 -1 -10 4 -10 6 0 11 5 11 10 0 6 -2 10 -4 10 -3 0
-8 -4 -11 -10z"/>
<path d="M2325 2301 c-3 -5 -2 -12 3 -15 5 -3 9 1 9 9 0 17 -3 19 -12 6z"/>
<path d="M745 2290 c-3 -5 -1 -10 4 -10 6 0 11 5 11 10 0 6 -2 10 -4 10 -3 0
-8 -4 -11 -10z"/>
<path d="M1975 2280 c-3 -5 -1 -10 4 -10 6 0 11 5 11 10 0 6 -2 10 -4 10 -3 0
-8 -4 -11 -10z"/>
<path d="M2245 2240 c-3 -5 -1 -10 4 -10 6 0 11 5 11 10 0 6 -2 10 -4 10 -3 0
-8 -4 -11 -10z"/>
<path d="M2290 2225 c-11 -13 -10 -14 4 -9 9 3 16 10 16 15 0 13 -6 11 -20 -6z"/>
<path d="M690 2150 c0 -5 4 -10 9 -10 6 0 13 5 16 10 3 6 -1 10 -9 10 -9 0
-16 -4 -16 -10z"/>
<path d="M2140 2120 c0 -5 5 -10 11 -10 5 0 7 5 4 10 -3 6 -8 10 -11 10 -2 0
-4 -4 -4 -10z"/>
<path d="M2290 2109 c0 -5 5 -7 10 -4 6 3 10 8 10 11 0 2 -4 4 -10 4 -5 0 -10
-5 -10 -11z"/>
<path d="M2200 2099 c0 -5 5 -7 10 -4 6 3 10 8 10 11 0 2 -4 4 -10 4 -5 0 -10
-5 -10 -11z"/>
<path d="M2385 2050 c3 -5 8 -10 11 -10 2 0 4 5 4 10 0 6 -5 10 -11 10 -5 0
-7 -4 -4 -10z"/>
<path d="M705 2003 l-17 -28 23 22 c12 12 20 25 17 28 -3 3 -13 -7 -23 -22z"/>
<path d="M2409 1983 c-13 -16 -12 -17 4 -4 9 7 17 15 17 17 0 8 -8 3 -21 -13z"/>
<path d="M720 1940 c-8 -5 -12 -12 -9 -15 4 -3 12 1 19 10 14 17 11 19 -10 5z"/>
<path d="M2240 1899 c0 -5 5 -7 10 -4 6 3 10 8 10 11 0 2 -4 4 -10 4 -5 0 -10
-5 -10 -11z"/>
<path d="M2271 1863 c7 -12 15 -20 18 -17 3 2 -3 12 -13 22 -17 16 -18 16 -5
-5z"/>
<path d="M2350 1860 c-9 -6 -10 -10 -3 -10 6 0 15 5 18 10 8 12 4 12 -15 0z"/>
<path d="M2310 1840 c0 -5 5 -10 11 -10 5 0 7 5 4 10 -3 6 -8 10 -11 10 -2 0
-4 -4 -4 -10z"/>
<path d="M2340 1820 c-9 -6 -10 -10 -3 -10 6 0 15 5 18 10 8 12 4 12 -15 0z"/>
<path d="M2305 1791 c-3 -5 -1 -12 5 -16 5 -3 10 1 10 9 0 18 -6 21 -15 7z"/>
<path d="M2260 1690 c0 -5 5 -10 10 -10 6 0 10 5 10 10 0 6 -4 10 -10 10 -5 0
-10 -4 -10 -10z"/>
<path d="M2210 1656 c4 -4 16 -4 26 2 16 9 14 10 -8 9 -15 -1 -23 -6 -18 -11z"/>
<path d="M2076 1621 c-12 -5 -15 -10 -9 -14 6 -4 16 0 23 8 14 17 13 17 -14 6z"/>
<path d="M2100 1599 c0 -5 5 -7 10 -4 6 3 10 8 10 11 0 2 -4 4 -10 4 -5 0 -10
-5 -10 -11z"/>
<path d="M2205 1530 c-3 -5 1 -10 10 -10 9 0 13 5 10 10 -3 6 -8 10 -10 10 -2
0 -7 -4 -10 -10z"/>
<path d="M2060 1520 c-8 -5 -10 -10 -5 -10 6 0 17 5 25 10 8 5 11 10 5 10 -5
0 -17 -5 -25 -10z"/>
<path d="M2160 1514 c0 -8 5 -12 10 -9 6 4 8 11 5 16 -9 14 -15 11 -15 -7z"/>
<path d="M2120 1475 c7 -8 17 -15 22 -15 6 0 5 7 -2 15 -7 8 -17 15 -22 15 -6
0 -5 -7 2 -15z"/>
<path d="M2095 1460 c3 -5 8 -10 11 -10 2 0 4 5 4 10 0 6 -5 10 -11 10 -5 0
-7 -4 -4 -10z"/>
<path d="M2250 1435 c-7 -9 -8 -15 -2 -15 5 0 12 7 16 15 3 8 4 15 2 15 -2 0
-9 -7 -16 -15z"/>
<path d="M2203 1425 c10 -7 25 -22 34 -32 8 -10 11 -11 7 -3 -12 25 -36 50
-48 50 -6 0 -3 -7 7 -15z"/>
<path d="M2050 1390 c-9 -6 -10 -10 -3 -10 6 0 15 5 18 10 8 12 4 12 -15 0z"/>
<path d="M2195 1390 c-3 -5 -1 -10 4 -10 6 0 11 5 11 10 0 6 -2 10 -4 10 -3 0
-8 -4 -11 -10z"/>
<path d="M2145 1369 c-4 -6 -5 -12 -2 -15 2 -3 7 2 10 11 7 17 1 20 -8 4z"/>
<path d="M2196 1366 c-16 -7 -25 -16 -20 -19 5 -3 21 3 34 14 29 21 26 22 -14
5z"/>
<path d="M2000 1345 c-9 -10 -9 -15 -1 -15 6 0 11 5 11 11 0 5 5 7 12 3 7 -4
8 -3 4 4 -9 15 -11 15 -26 -3z"/>
<path d="M702 1315 c0 -16 2 -22 5 -12 2 9 2 23 0 30 -3 6 -5 -1 -5 -18z"/>
<path d="M1751 1324 c0 -11 3 -14 6 -6 3 7 2 16 -1 19 -3 4 -6 -2 -5 -13z"/>
<path d="M2136 1296 c3 -9 11 -16 16 -16 13 0 5 23 -10 28 -7 2 -10 -2 -6 -12z"/>
<path d="M2051 1284 c0 -11 3 -14 6 -6 3 7 2 16 -1 19 -3 4 -6 -2 -5 -13z"/>
<path d="M2202 1280 c0 -14 2 -19 5 -12 2 6 2 18 0 25 -3 6 -5 1 -5 -13z"/>
<path d="M1905 1280 c3 -5 8 -10 11 -10 2 0 4 5 4 10 0 6 -5 10 -11 10 -5 0
-7 -4 -4 -10z"/>
<path d="M2066 1237 c3 -10 9 -15 12 -12 3 3 0 11 -7 18 -10 9 -11 8 -5 -6z"/>
<path d="M2170 1229 c0 -5 5 -7 10 -4 6 3 10 8 10 11 0 2 -4 4 -10 4 -5 0 -10
-5 -10 -11z"/>
<path d="M2136 1213 c-6 -14 -5 -15 5 -6 7 7 10 15 7 18 -3 3 -9 -2 -12 -12z"/>
<path d="M2203 1162 l-1 -47 13 40 c12 39 11 55 -3 55 -4 0 -8 -21 -9 -48z"/>
<path d="M2165 1190 c-3 -6 1 -7 9 -4 18 7 21 14 7 14 -6 0 -13 -4 -16 -10z"/>
<path d="M2045 1179 c7 -11 35 -12 35 -1 0 4 -9 8 -20 9 -11 1 -18 -2 -15 -8z"/>
<path d="M1670 1151 c0 -5 5 -13 10 -16 6 -3 10 -2 10 4 0 5 -4 13 -10 16 -5
3 -10 2 -10 -4z"/>
<path d="M2150 1139 c0 -5 5 -7 10 -4 6 3 10 8 10 11 0 2 -4 4 -10 4 -5 0 -10
-5 -10 -11z"/>
<path d="M2109 1116 c7 -8 8 -16 4 -18 -4 -3 -2 -3 5 -1 8 1 21 3 30 3 11 0 6
6 -12 15 -35 19 -42 19 -27 1z"/>
<path d="M2186 1087 c3 -10 9 -15 12 -12 3 3 0 11 -7 18 -10 9 -11 8 -5 -6z"/>
<path d="M2070 1076 c0 -2 7 -7 16 -10 8 -3 12 -2 9 4 -6 10 -25 14 -25 6z"/>
<path d="M2124 1072 c3 -5 1 -12 -5 -14 -7 -2 -10 -11 -7 -18 3 -11 8 -10 16
7 9 16 9 24 0 29 -6 4 -8 3 -4 -4z"/>
<path d="M2150 1070 c0 -5 5 -10 10 -10 6 0 10 5 10 10 0 6 -4 10 -10 10 -5 0
-10 -4 -10 -10z"/>
<path d="M1968 1063 c6 -2 12 -12 12 -21 0 -13 3 -13 12 -4 10 10 10 15 -2 22
-8 5 -19 9 -25 9 -5 0 -4 -3 3 -6z"/>
<path d="M750 1051 c0 -5 5 -13 10 -16 6 -3 10 -2 10 4 0 5 -4 13 -10 16 -5 3
-10 2 -10 -4z"/>
<path d="M2130 1030 c0 -5 4 -10 9 -10 5 0 14 -13 20 -30 5 -16 12 -30 15 -30
3 0 2 7 -1 17 -5 12 -3 14 8 8 8 -5 3 5 -11 22 -26 33 -40 41 -40 23z"/>
<path d="M2114 985 c8 -8 18 -15 22 -15 3 0 1 7 -6 15 -7 8 -17 15 -22 15 -5
0 -3 -7 6 -15z"/>
<path d="M7575 969 c-11 -17 1 -21 15 -4 8 9 8 15 2 15 -6 0 -14 -5 -17 -11z"/>
<path d="M2105 950 c3 -5 8 -10 11 -10 2 0 4 5 4 10 0 6 -5 10 -11 10 -5 0 -7
-4 -4 -10z"/>
<path d="M826 933 c-6 -14 -5 -15 5 -6 7 7 10 15 7 18 -3 3 -9 -2 -12 -12z"/>
<path d="M770 930 c0 -5 5 -10 11 -10 5 0 7 5 4 10 -3 6 -8 10 -11 10 -2 0 -4
-4 -4 -10z"/>
<path d="M1860 931 c0 -5 5 -13 10 -16 6 -3 10 -2 10 4 0 5 -4 13 -10 16 -5 3
-10 2 -10 -4z"/>
<path d="M2110 920 c0 -6 7 -10 15 -10 8 0 15 2 15 4 0 2 -7 6 -15 10 -8 3
-15 1 -15 -4z"/>
<path d="M2070 899 c0 -5 5 -7 10 -4 6 3 10 8 10 11 0 2 -4 4 -10 4 -5 0 -10
-5 -10 -11z"/>
<path d="M728 895 c-8 -8 1 -35 12 -35 4 0 11 7 14 16 3 8 2 13 -3 9 -5 -3
-11 0 -13 6 -2 5 -6 7 -10 4z"/>
<path d="M1975 889 c-4 -6 -5 -12 -2 -15 2 -3 7 2 10 11 7 17 1 20 -8 4z"/>
<path d="M1745 860 c-3 -5 -1 -10 4 -10 6 0 11 5 11 10 0 6 -2 10 -4 10 -3 0
-8 -4 -11 -10z"/>
<path d="M1947 859 c7 -7 15 -10 18 -7 3 3 -2 9 -12 12 -14 6 -15 5 -6 -5z"/>
<path d="M2047 859 c7 -7 15 -10 18 -7 3 3 -2 9 -12 12 -14 6 -15 5 -6 -5z"/>
<path d="M1767 819 c4 -13 8 -18 11 -10 2 7 -1 18 -6 23 -8 8 -9 4 -5 -13z"/>
<path d="M1848 803 c7 -3 16 -2 19 1 4 3 -2 6 -13 5 -11 0 -14 -3 -6 -6z"/>
<path d="M7505 790 c3 -5 8 -10 11 -10 2 0 4 5 4 10 0 6 -5 10 -11 10 -5 0 -7
-4 -4 -10z"/>
<path d="M2027 759 c-4 -16 -3 -18 9 -8 16 13 19 29 5 29 -5 0 -11 -9 -14 -21z"/>
<path d="M2090 765 c-11 -13 -10 -14 4 -9 9 3 16 10 16 15 0 13 -6 11 -20 -6z"/>
<path d="M1955 730 c3 -5 8 -10 11 -10 2 0 4 5 4 10 0 6 -5 10 -11 10 -5 0 -7
-4 -4 -10z"/>
<path d="M2060 730 c0 -5 5 -10 11 -10 5 0 7 5 4 10 -3 6 -8 10 -11 10 -2 0
-4 -4 -4 -10z"/>
<path d="M1840 706 c7 -7 13 -7 20 0 6 6 3 10 -10 10 -13 0 -16 -4 -10 -10z"/>
<path d="M1995 700 c-3 -6 1 -7 9 -4 18 7 21 14 7 14 -6 0 -13 -4 -16 -10z"/>
<path d="M7640 695 c-11 -13 -10 -14 4 -9 9 3 16 10 16 15 0 13 -6 11 -20 -6z"/>
<path d="M1937 679 c7 -7 15 -10 18 -7 3 3 -2 9 -12 12 -14 6 -15 5 -6 -5z"/>
<path d="M2025 650 c3 -5 8 -10 11 -10 2 0 4 5 4 10 0 6 -5 10 -11 10 -5 0 -7
-4 -4 -10z"/>
<path d="M1743 622 c0 -12 5 -22 9 -22 11 0 10 12 -2 30 -7 12 -9 10 -7 -8z"/>
<path d="M2030 626 c0 -2 8 -10 18 -17 15 -13 16 -12 3 4 -13 16 -21 21 -21
13z"/>
<path d="M2087 605 c-4 -8 -2 -17 3 -20 6 -4 10 3 10 14 0 25 -6 27 -13 6z"/>
<path d="M1991 591 c-8 -5 -9 -11 -3 -15 5 -3 12 1 16 9 6 17 6 18 -13 6z"/>
<path d="M2030 550 c0 -5 5 -10 11 -10 5 0 7 5 4 10 -3 6 -8 10 -11 10 -2 0
-4 -4 -4 -10z"/>
<path d="M2108 526 c-3 -16 -1 -23 7 -19 7 2 11 13 8 24 -7 25 -10 24 -15 -5z"/>
<path d="M1795 530 c-3 -5 -2 -10 4 -10 5 0 13 5 16 10 3 6 2 10 -4 10 -5 0
-13 -4 -16 -10z"/>
<path d="M1765 500 c-3 -5 -2 -10 4 -10 5 0 13 5 16 10 3 6 2 10 -4 10 -5 0
-13 -4 -16 -10z"/>
<path d="M1805 490 c3 -5 8 -10 11 -10 2 0 4 5 4 10 0 6 -5 10 -11 10 -5 0 -7
-4 -4 -10z"/>
<path d="M7645 480 c3 -5 8 -10 11 -10 2 0 4 5 4 10 0 6 -5 10 -11 10 -5 0 -7
-4 -4 -10z"/>
<path d="M730 465 c0 -8 4 -15 10 -15 5 0 7 7 4 15 -4 8 -8 15 -10 15 -2 0 -4
-7 -4 -15z"/>
<path d="M2085 470 c-3 -5 -1 -10 4 -10 6 0 11 5 11 10 0 6 -2 10 -4 10 -3 0
-8 -4 -11 -10z"/>
<path d="M7590 470 c0 -5 5 -10 11 -10 5 0 7 5 4 10 -3 6 -8 10 -11 10 -2 0
-4 -4 -4 -10z"/>
<path d="M1855 450 c3 -5 8 -10 11 -10 2 0 4 5 4 10 0 6 -5 10 -11 10 -5 0 -7
-4 -4 -10z"/>
<path d="M2021 424 c0 -11 3 -14 6 -6 3 7 2 16 -1 19 -3 4 -6 -2 -5 -13z"/>
<path d="M2050 420 c0 -5 5 -10 11 -10 5 0 7 5 4 10 -3 6 -8 10 -11 10 -2 0
-4 -4 -4 -10z"/>
<path d="M1690 401 c0 -6 4 -13 10 -16 6 -3 7 1 4 9 -7 18 -14 21 -14 7z"/>
<path d="M1750 406 c0 -8 26 -36 33 -36 3 0 8 7 11 16 3 9 2 12 -5 9 -5 -4
-16 -1 -24 5 -8 7 -15 9 -15 6z"/>
<path d="M1915 400 c3 -5 8 -10 11 -10 2 0 4 5 4 10 0 6 -5 10 -11 10 -5 0 -7
-4 -4 -10z"/>
<path d="M2077 389 c7 -7 15 -10 18 -7 3 3 -2 9 -12 12 -14 6 -15 5 -6 -5z"/>
<path d="M1725 380 c-3 -5 -1 -10 4 -10 6 0 11 5 11 10 0 6 -2 10 -4 10 -3 0
-8 -4 -11 -10z"/>
<path d="M2040 370 c-13 -8 -12 -10 3 -10 9 0 17 5 17 10 0 12 -1 12 -20 0z"/>
<path d="M1745 350 c-3 -5 1 -10 10 -10 9 0 13 5 10 10 -3 6 -8 10 -10 10 -2
0 -7 -4 -10 -10z"/>
<path d="M1675 340 c-3 -5 -1 -10 4 -10 6 0 11 5 11 10 0 6 -2 10 -4 10 -3 0
-8 -4 -11 -10z"/>
<path d="M1720 319 c0 -6 -7 -9 -15 -6 -17 7 -30 -9 -16 -18 6 -3 19 0 31 7
21 14 27 28 10 28 -5 0 -10 -5 -10 -11z"/>
<path d="M2045 320 c-3 -5 -1 -10 4 -10 6 0 11 5 11 10 0 6 -2 10 -4 10 -3 0
-8 -4 -11 -10z"/>
<path d="M1710 258 c-12 -22 -12 -22 6 -6 10 10 15 20 12 24 -4 3 -12 -5 -18
-18z"/>
<path d="M1970 276 c0 -4 7 -14 15 -22 8 -9 15 -11 15 -6 0 5 -7 15 -15 22 -8
7 -15 9 -15 6z"/>
<path d="M2016 255 c-3 -8 -1 -15 4 -15 6 0 10 7 10 15 0 8 -2 15 -4 15 -2 0
-6 -7 -10 -15z"/>
<path d="M7511 234 c0 -11 3 -14 6 -6 3 7 2 16 -1 19 -3 4 -6 -2 -5 -13z"/>
<path d="M1725 220 c3 -5 8 -10 11 -10 2 0 4 5 4 10 0 6 -5 10 -11 10 -5 0 -7
-4 -4 -10z"/>
<path d="M1930 220 c-9 -6 -10 -10 -3 -10 6 0 15 5 18 10 8 12 4 12 -15 0z"/>
<path d="M1765 210 c-3 -5 -2 -10 4 -10 5 0 13 5 16 10 3 6 2 10 -4 10 -5 0
-13 -4 -16 -10z"/>
<path d="M755 190 c-3 -5 -2 -10 4 -10 5 0 13 5 16 10 3 6 2 10 -4 10 -5 0
-13 -4 -16 -10z"/>
<path d="M1650 190 c0 -5 5 -10 10 -10 6 0 10 5 10 10 0 6 -4 10 -10 10 -5 0
-10 -4 -10 -10z"/>
<path d="M1990 190 c0 -5 5 -10 10 -10 6 0 10 5 10 10 0 6 -4 10 -10 10 -5 0
-10 -4 -10 -10z"/>
<path d="M1531 164 c0 -11 3 -14 6 -6 3 7 2 16 -1 19 -3 4 -6 -2 -5 -13z"/>
<path d="M1730 161 c0 -8 -7 -11 -17 -6 -15 5 -16 4 -5 -6 9 -10 15 -10 24 -1
6 6 9 15 5 19 -4 3 -7 1 -7 -6z"/>
<path d="M7520 159 c0 -5 5 -7 10 -4 6 3 10 8 10 11 0 2 -4 4 -10 4 -5 0 -10
-5 -10 -11z"/>
<path d="M1780 149 c0 -5 5 -7 10 -4 6 3 10 8 10 11 0 2 -4 4 -10 4 -5 0 -10
-5 -10 -11z"/>
<path d="M1716 104 c-8 -21 -8 -24 3 -24 5 0 11 9 14 20 6 24 -8 27 -17 4z"/>
<path d="M1670 95 c0 -8 5 -15 11 -15 5 0 7 -5 3 -12 -4 -7 -3 -8 4 -4 9 5 9
13 2 27 -13 23 -20 24 -20 4z"/>
<path d="M2065 100 c3 -5 8 -10 11 -10 2 0 4 5 4 10 0 6 -5 10 -11 10 -5 0 -7
-4 -4 -10z"/>
<path d="M7945 40 c-3 -5 -1 -10 4 -10 6 0 11 5 11 10 0 6 -2 10 -4 10 -3 0
-8 -4 -11 -10z"/>
<path d="M857 19 c7 -7 15 -10 18 -7 3 3 -2 9 -12 12 -14 6 -15 5 -6 -5z"/>
</g>
</svg>
