<?xml version="1.0" standalone="no"?>
<!DOCTYPE svg PUBLIC "-//W3C//DTD SVG 20010904//EN"
 "http://www.w3.org/TR/2001/REC-SVG-20010904/DTD/svg10.dtd">
<svg version="1.0" xmlns="http://www.w3.org/2000/svg"
 width="500.000000pt" height="667.000000pt" viewBox="0 0 500.000000 667.000000"
 preserveAspectRatio="xMidYMid meet">

<g transform="translate(0.000000,667.000000) scale(0.100000,-0.100000)"
fill="#000000" stroke="none">
<path d="M2331 6461 c-11 -7 -11 -9 0 -14 8 -3 -3 -6 -24 -6 -41 -1 -125 -39
-148 -67 -12 -15 -12 -16 0 -9 9 5 12 4 8 -2 -4 -6 -28 -14 -54 -18 -55 -8
-145 -44 -138 -55 2 -4 -7 -12 -21 -19 -16 -7 -24 -17 -20 -26 3 -8 -1 -18 -8
-22 -12 -8 -36 -45 -36 -58 0 -3 11 2 25 11 14 9 28 14 31 11 3 -2 -10 -14
-28 -26 -67 -42 -65 -40 -48 -51 13 -8 13 -10 -2 -10 -9 0 -20 -5 -24 -12 -5
-8 -2 -9 11 -4 18 7 18 6 0 -14 -18 -20 -18 -20 28 -14 54 8 59 -1 25 -47 -20
-27 -23 -41 -21 -120 1 -49 7 -115 13 -147 19 -89 18 -87 41 -66 15 14 20 15
17 4 -2 -8 -10 -20 -18 -27 -11 -8 -16 -39 -18 -126 l-4 -116 33 -17 c18 -9
39 -23 47 -31 8 -8 21 -12 29 -9 16 7 35 -9 46 -38 10 -25 20 -12 35 41 8 26
10 71 6 126 -6 76 -5 89 15 120 11 19 21 44 21 56 0 11 5 21 12 21 9 0 9 3 1
11 -7 7 -8 21 -3 39 5 19 3 37 -6 55 -8 15 -11 38 -8 52 11 42 156 143 212
147 9 1 27 7 40 14 12 7 28 12 35 10 6 -1 26 5 42 14 17 9 46 18 65 21 19 3
58 10 86 16 73 14 178 -2 282 -44 86 -35 140 -148 197 -410 47 -213 56 -235
80 -188 16 32 0 238 -24 307 -14 39 -21 84 -21 133 0 83 -11 112 -71 183 -30
36 -41 63 -59 138 -28 115 -50 149 -121 187 -30 17 -74 42 -96 57 -22 14 -58
31 -79 37 -48 12 -364 14 -383 2z m-261 -166 c-14 -8 -34 -14 -45 -14 -15 0
-13 3 10 14 40 18 67 18 35 0z"/>
<path d="M2691 5703 c-1 -25 -17 -38 -26 -22 -5 7 -37 9 -99 5 -188 -13 -203
-17 -273 -82 l-26 -24 24 -1 24 -1 -25 -7 c-26 -7 -41 -41 -18 -41 11 0 10 -2
-1 -9 -10 -6 -10 -13 -2 -28 14 -28 44 -34 77 -17 15 8 35 12 43 9 14 -6 13
-8 -3 -21 -11 -7 -18 -15 -15 -16 45 -28 51 -29 132 -17 74 12 86 16 119 50
23 23 41 55 48 81 13 52 25 74 38 71 7 -2 8 7 2 25 -5 15 -11 36 -13 47 -4 18
-5 18 -6 -2z m-201 -227 c0 -3 -4 -8 -10 -11 -5 -3 -10 -1 -10 4 0 6 5 11 10
11 6 0 10 -2 10 -4z"/>
<path d="M2754 5666 c-4 -25 2 -58 21 -115 24 -73 33 -86 58 -82 4 0 6 -4 5
-11 -2 -7 6 -13 17 -14 11 -1 39 -6 61 -12 44 -10 68 -3 83 26 8 15 4 17 -37
15 -40 -2 -43 -1 -20 6 25 8 53 9 83 1 28 -7 51 3 62 27 11 22 10 33 -7 70
-10 23 -24 43 -29 43 -6 0 -10 6 -8 13 1 7 -8 12 -23 12 -14 0 -37 7 -50 15
-16 10 -37 14 -60 10 -23 -4 -49 1 -75 12 -60 26 -73 23 -81 -16z"/>
<path d="M2995 5660 c-3 -6 1 -7 9 -4 18 7 21 14 7 14 -6 0 -13 -4 -16 -10z"/>
<path d="M1874 5314 c3 -43 11 -83 16 -88 7 -7 10 -5 11 5 7 125 5 140 -14
150 -18 10 -19 8 -13 -67z"/>
<path d="M3205 5357 c-4 -15 0 -36 9 -54 15 -28 15 -28 9 22 -7 60 -10 65 -18
32z"/>
<path d="M1950 5302 c0 -11 7 -22 15 -26 9 -3 15 0 15 8 0 7 -7 19 -15 26 -12
10 -15 9 -15 -8z"/>
<path d="M2650 5297 c-41 -20 -84 -51 -98 -69 -7 -10 -20 -18 -28 -18 -9 0
-22 -7 -30 -15 -20 -19 -44 -19 -44 0 0 12 -4 13 -19 5 -11 -5 -40 -10 -65
-10 -45 0 -69 -16 -46 -30 8 -5 4 -9 -11 -13 -13 -4 -26 -1 -31 6 -4 6 -10 8
-15 4 -4 -4 -2 -16 5 -27 10 -16 9 -18 -8 -17 -11 1 -19 6 -17 12 5 13 -23 34
-46 35 -10 0 -20 7 -23 15 -4 8 -10 12 -15 9 -5 -3 -9 2 -9 11 0 14 -2 14 -25
-1 -27 -18 -33 -39 -12 -47 10 -4 10 -6 0 -6 -21 -2 -14 -31 7 -31 17 0 18 -3
9 -27 -8 -22 -6 -32 11 -56 19 -25 20 -32 9 -59 l-12 -30 -20 63 c-10 35 -22
68 -27 72 -4 5 -22 -5 -41 -22 -36 -33 -33 -51 6 -33 29 13 32 6 9 -26 -8 -12
-11 -22 -5 -22 5 0 14 -15 20 -33 6 -17 20 -38 30 -44 17 -11 21 -9 30 17 12
35 22 40 17 8 -1 -12 1 -38 5 -57 4 -18 3 -45 -2 -60 -9 -24 -8 -25 6 -7 9 12
15 15 15 7 0 -7 9 -25 20 -41 16 -23 18 -38 14 -91 -8 -85 -8 -83 -19 -91 -6
-4 -2 -8 8 -8 10 0 15 -5 12 -10 -9 -15 14 -40 31 -33 8 3 14 1 14 -5 0 -6 -5
-12 -11 -14 -8 -3 -6 -10 5 -21 10 -9 13 -17 9 -17 -5 0 -23 16 -40 35 -26 29
-32 32 -35 18 -2 -10 3 -23 12 -30 13 -10 13 -13 -5 -27 -16 -12 -18 -17 -7
-27 6 -7 12 -21 12 -31 0 -12 6 -18 18 -16 12 2 17 -3 16 -19 -1 -25 11 -31
19 -10 2 6 8 9 12 4 5 -4 0 -13 -10 -21 -15 -11 -17 -21 -12 -62 6 -42 5 -47
-7 -31 -19 25 -26 21 -21 -15 2 -17 1 -36 -3 -42 -12 -20 -13 -48 0 -40 7 5 9
2 5 -9 -3 -9 0 -18 9 -21 9 -3 12 -11 9 -17 -10 -16 -61 48 -81 101 -10 25
-23 50 -29 55 -30 26 -48 86 -42 145 5 57 -3 84 -19 59 -4 -8 -3 -9 4 -5 7 4
12 2 12 -4 0 -6 -7 -13 -15 -16 -33 -13 -8 -168 41 -246 63 -103 153 -176 359
-293 66 -38 148 -88 182 -112 l62 -43 39 53 c22 29 93 103 158 164 131 123
194 209 175 240 -8 13 -11 14 -10 3 1 -8 1 -23 0 -32 -1 -17 -2 -17 -19 0 -13
12 -16 22 -10 34 12 24 10 36 -3 18 -9 -12 -10 -12 -5 4 4 11 1 23 -5 27 -7 4
-8 12 -3 20 4 7 9 24 10 37 4 36 14 40 15 6 1 -16 5 -2 10 31 5 39 4 70 -3 88
-7 19 -7 39 0 70 6 23 14 71 17 107 3 36 8 81 12 100 11 61 83 253 100 265 11
9 13 14 5 19 -21 13 -14 38 8 31 24 -8 26 2 3 27 -9 10 -18 30 -19 46 -2 15
-6 43 -10 62 -6 33 -5 34 9 15 21 -27 39 -9 31 32 -8 39 -25 34 -50 -15 -26
-50 -54 -70 -54 -37 0 21 -14 19 -35 -5 -18 -20 -18 -21 1 -14 15 6 17 4 7 -6
-9 -10 -9 -18 2 -34 8 -12 14 -30 13 -41 -1 -11 2 -31 6 -45 l8 -25 -17 23
c-9 13 -14 29 -11 37 3 8 0 17 -6 21 -7 5 -8 2 -3 -6 6 -9 4 -12 -6 -8 -9 4
-14 -2 -15 -18 -1 -13 1 -22 6 -19 4 2 12 -7 18 -20 7 -15 8 -25 2 -25 -6 0
-10 6 -10 13 0 8 -7 14 -16 14 -12 0 -15 -7 -10 -31 5 -29 5 -30 -9 -12 -8 11
-18 17 -21 13 -10 -10 -33 25 -34 51 0 12 -4 22 -10 22 -5 0 -7 7 -4 15 4 10
0 15 -13 15 -18 0 -49 25 -90 74 -27 31 -28 36 -8 36 17 0 35 30 35 58 0 22
-28 49 -50 50 -8 0 -49 3 -90 6 -50 4 -83 2 -100 -7z m37 -93 c-3 -3 -12 -4
-19 -1 -8 3 -5 6 6 6 11 1 17 -2 13 -5z m-44 -14 c21 -1 21 -1 -3 -15 -14 -8
-21 -14 -15 -15 14 0 -42 -50 -56 -50 -22 0 -79 -44 -79 -61 0 -9 -8 -27 -18
-40 -10 -13 -22 -32 -25 -42 -10 -26 -47 -4 -47 28 0 16 -6 25 -15 25 -19 0
-19 5 1 35 9 13 12 30 8 37 -4 7 -4 10 0 6 5 -4 21 7 37 23 16 17 39 29 54 29
16 0 25 6 25 16 0 10 6 14 15 11 8 -4 17 -1 21 4 3 6 17 8 31 4 18 -4 23 -2
17 6 -5 9 -2 10 10 6 10 -4 27 -7 39 -7z m493 -77 c-10 -10 -19 5 -10 18 6 11
8 11 12 0 2 -7 1 -15 -2 -18z m-959 -85 c-3 -8 -6 -5 -6 6 -1 11 2 17 5 13 3
-3 4 -12 1 -19z m673 -95 c0 -13 -14 -15 -140 -17 -65 -2 -112 10 -92 23 6 3
60 6 121 7 86 0 111 -3 111 -13z m-3 -170 c-9 -2 -15 -9 -12 -14 3 -5 -1 -6
-9 -3 -22 8 -10 24 17 23 17 -1 18 -2 4 -6z m108 -303 c-3 -5 -11 -10 -16 -10
-6 0 -7 5 -4 10 3 6 11 10 16 10 6 0 7 -4 4 -10z m-21 -45 c-28 -22 -40 -18
-13 4 13 11 26 17 28 15 3 -2 -4 -11 -15 -19z m41 5 c-3 -6 -7 -29 -7 -52 0
-24 -4 -52 -9 -63 -8 -17 -9 -16 -6 8 3 15 0 30 -4 33 -5 3 -4 14 2 25 15 29
3 36 -23 13 -13 -10 -10 -4 6 14 28 30 55 45 41 22z m-740 -240 c3 -6 -1 -7
-9 -4 -18 7 -21 14 -7 14 6 0 13 -4 16 -10z m817 -42 c-7 -7 -12 -8 -12 -2 0
6 3 14 7 17 3 4 9 5 12 2 2 -3 -1 -11 -7 -17z"/>
<path d="M2028 5272 c-21 -4 -22 -11 -4 -35 12 -15 15 -15 25 -3 16 19 2 43
-21 38z"/>
<path d="M1983 5223 c-13 -8 -23 -21 -23 -27 0 -6 -9 -17 -20 -24 -26 -16 -26
-38 1 -52 15 -8 24 -8 34 0 7 6 22 10 32 8 14 -2 19 4 21 31 4 38 -5 81 -16
80 -4 0 -17 -7 -29 -16z"/>
<path d="M1915 5040 c3 -5 8 -10 11 -10 2 0 4 5 4 10 0 6 -5 10 -11 10 -5 0
-7 -4 -4 -10z"/>
<path d="M3174 4524 c3 -9 6 -20 6 -25 0 -5 10 -9 22 -9 26 0 122 -27 163 -46
17 -8 46 -17 65 -20 19 -4 42 -10 51 -15 13 -7 15 -4 11 17 -3 16 -13 26 -31
30 -14 3 -41 10 -58 14 -22 6 -33 5 -33 -2 0 -6 -3 -8 -7 -4 -5 4 -8 13 -8 19
0 11 -135 56 -169 57 -12 0 -16 -5 -12 -16z"/>
<path d="M3375 4509 c22 -4 51 -8 65 -7 23 0 22 1 -5 8 -16 4 -46 8 -65 8
l-35 0 40 -9z"/>
<path d="M3521 4475 c19 -20 99 -33 99 -17 0 6 -17 14 -37 17 -21 4 -47 9 -58
12 -18 5 -19 4 -4 -12z"/>
<path d="M3112 4450 c0 -14 2 -19 5 -12 2 6 2 18 0 25 -3 6 -5 1 -5 -13z"/>
<path d="M3200 4395 c0 -28 4 -35 20 -35 11 0 37 -9 57 -20 43 -22 126 -40
185 -40 21 0 53 -7 71 -17 25 -12 69 -17 202 -20 134 -3 184 -8 237 -24 37
-12 71 -18 76 -15 6 3 13 -4 17 -17 6 -19 8 -20 12 -4 6 23 -31 53 -82 66 -22
5 -60 17 -84 26 -31 11 -88 17 -202 19 -139 3 -159 1 -162 -13 -3 -11 -5 -8
-6 6 -1 29 -57 58 -127 67 -28 3 -84 18 -125 31 -40 14 -76 25 -81 25 -4 0 -8
-16 -8 -35z"/>
<path d="M3508 4409 c11 -30 74 -52 129 -45 38 5 162 -6 238 -20 26 -5 28 -4
15 8 -29 28 -164 59 -270 63 -36 1 -77 5 -93 10 -25 7 -27 6 -19 -16z"/>
<path d="M1790 4356 c-47 -18 -94 -38 -105 -45 l-20 -12 20 5 c11 3 34 8 50
11 63 13 145 48 145 61 0 8 -1 14 -2 13 -2 0 -41 -15 -88 -33z"/>
<path d="M3919 4351 c11 -7 11 -9 0 -13 -7 -2 13 -15 44 -27 32 -13 69 -32 82
-43 14 -11 25 -15 25 -10 0 6 -12 20 -27 31 -28 20 -28 20 -5 21 34 0 22 23
-19 37 -40 14 -121 17 -100 4z"/>
<path d="M1740 4280 c-52 -22 -101 -40 -107 -40 -39 -1 -213 -113 -198 -128 2
-2 26 8 54 22 27 14 83 37 123 50 40 14 100 36 133 49 33 14 77 28 98 32 30 6
37 11 37 31 0 34 -26 31 -140 -16z"/>
<path d="M1857 4214 c-8 -8 -215 -80 -286 -100 -88 -25 -214 -89 -247 -126
-16 -18 -38 -34 -49 -36 -54 -7 -115 -22 -160 -39 -41 -16 -50 -24 -48 -41 2
-12 -2 -22 -7 -22 -6 0 -10 4 -10 10 0 5 -7 7 -15 4 -17 -7 -18 -13 -5 -34 8
-12 11 -12 27 2 24 21 88 52 138 68 22 6 93 36 157 66 65 30 150 63 191 73
224 58 374 119 363 147 -3 9 -6 20 -6 25 0 10 -33 12 -43 3z"/>
<path d="M1265 4050 c-22 -11 -29 -17 -15 -14 38 10 70 23 70 29 0 9 -14 5
-55 -15z"/>
<path d="M1234 4011 c-69 -14 -114 -35 -114 -55 0 -3 17 1 38 8 20 7 62 19 92
26 30 7 64 19 75 26 24 17 15 17 -91 -5z"/>
<path d="M1015 3971 c-27 -13 -34 -20 -20 -20 11 -1 34 8 50 19 38 25 22 25
-30 1z"/>
<path d="M1073 3940 c-34 -14 -28 -21 7 -9 17 6 30 13 30 15 0 6 -12 4 -37 -6z"/>
<path d="M1005 3910 c-3 -6 1 -7 9 -4 18 7 21 14 7 14 -6 0 -13 -4 -16 -10z"/>
<path d="M3931 3854 c0 -11 3 -14 6 -6 3 7 2 16 -1 19 -3 4 -6 -2 -5 -13z"/>
<path d="M3805 3785 c-3 -8 -7 -21 -9 -28 -2 -8 9 -25 25 -38 19 -15 29 -33
29 -50 0 -15 7 -32 15 -39 22 -18 19 -50 -4 -50 -25 0 -51 -10 -51 -20 0 -4
14 -13 30 -19 25 -8 30 -16 30 -41 0 -27 6 -33 40 -48 39 -16 40 -18 25 -39
-12 -17 -26 -23 -56 -23 -21 0 -39 5 -39 10 0 6 -18 10 -41 10 -22 0 -38 4
-35 9 3 5 -4 11 -17 15 -33 9 -47 7 -47 -5 0 -6 8 -8 19 -4 12 3 21 0 25 -10
3 -8 12 -15 21 -15 8 0 15 -4 15 -10 0 -5 15 -24 34 -43 31 -32 32 -35 19 -60
-11 -22 -18 -26 -46 -22 -25 4 -28 3 -12 -4 16 -8 17 -10 3 -10 -9 -1 -18 -11
-20 -23 -4 -21 -6 -19 -19 12 -14 32 -16 33 -21 12 -3 -12 -2 -20 3 -17 5 4 7
-7 5 -22 -2 -15 -1 -22 1 -15 4 10 8 10 18 2 11 -9 16 -6 21 14 3 14 11 26 17
26 6 0 7 -3 4 -6 -3 -4 -2 -15 4 -26 12 -22 -4 -50 -25 -42 -6 2 -17 -8 -23
-23 l-11 -28 -1 30 -1 29 -16 -22 c-10 -14 -22 -21 -31 -18 -8 4 -31 -7 -53
-24 -20 -16 -41 -26 -46 -22 -4 4 -2 -1 5 -11 13 -17 15 -16 28 3 8 11 22 20
31 20 9 0 31 7 47 16 l30 15 -34 -35 c-35 -36 -54 -49 -31 -20 12 13 10 14
-14 3 -17 -8 -22 -15 -15 -20 33 -20 -132 -21 -169 0 -22 12 -22 11 -10 -8 10
-16 23 -21 55 -21 30 0 41 -4 37 -13 -3 -8 3 -13 16 -13 13 0 19 5 16 13 -9
21 18 15 32 -8 8 -12 9 -18 4 -15 -5 3 -12 -4 -16 -17 -10 -38 -7 -67 9 -73
13 -5 13 -8 -1 -21 -11 -12 -12 -18 -3 -29 7 -8 7 -14 1 -14 -5 0 -12 -9 -15
-21 -5 -20 -3 -21 37 -15 31 5 43 3 44 -6 1 -7 5 -28 8 -45 6 -34 -3 -42 -24
-21 -6 6 -18 13 -26 14 -22 3 8 -67 44 -106 17 -18 31 -47 35 -73 4 -23 10
-46 14 -52 3 -5 6 -12 7 -15 5 -24 20 -40 39 -40 22 0 23 1 9 48 -27 96 -76
402 -63 402 3 0 10 -28 15 -62 8 -59 8 -61 12 -23 l4 40 15 -60 c8 -33 21
-105 29 -160 8 -55 18 -111 23 -125 8 -24 9 -23 16 15 4 22 18 90 33 150 29
123 34 242 13 292 -7 18 -11 38 -8 45 2 7 11 -3 19 -22 8 -19 36 -65 62 -103
25 -37 46 -70 46 -74 0 -17 90 -145 140 -201 41 -45 59 -73 63 -100 l7 -38
142 71 c153 76 308 125 393 125 58 0 51 13 -15 31 -42 11 -49 10 -97 -15 -29
-14 -61 -26 -71 -26 -10 0 -22 -3 -25 -7 -8 -8 -87 -43 -87 -39 0 2 37 24 83
50 128 72 179 115 199 166 9 25 17 57 17 72 1 34 -44 138 -59 138 -6 0 -8 5
-5 10 3 6 1 10 -4 10 -6 0 -11 6 -11 13 0 8 -8 22 -19 31 -17 16 -19 15 -24
-11 -5 -26 -58 -116 -64 -110 -1 2 8 25 21 52 13 28 26 66 29 86 4 32 0 41
-34 74 -22 21 -39 43 -39 49 0 6 -4 5 -9 -3 -15 -24 -42 29 -33 65 6 19 3 47
-8 84 l-16 55 -13 -37 c-7 -21 -17 -38 -22 -38 -6 0 -7 -4 -4 -10 3 -6 -1 -7
-10 -4 -14 6 -14 9 4 28 24 25 29 68 8 60 -8 -3 -14 2 -14 10 0 8 4 13 8 10
13 -8 19 13 11 36 -8 21 -9 20 -34 -17 -28 -42 -40 -99 -31 -145 4 -21 8 -26
14 -16 5 7 6 -4 2 -27 -9 -64 -98 -144 -142 -127 -8 3 -12 1 -8 -5 7 -11 -38
-10 -67 2 -13 6 -17 5 -13 -2 4 -6 0 -14 -9 -17 -23 -9 -31 -7 -16 3 10 6 9
10 -7 14 -12 3 -21 1 -21 -4 0 -5 -4 -9 -8 -9 -4 0 -8 9 -8 20 0 14 5 19 15
15 11 -4 11 -2 3 8 -9 10 -6 22 14 48 26 36 147 239 150 252 1 4 2 19 3 33 0
14 5 23 9 20 4 -2 8 3 8 12 0 9 4 28 8 42 4 14 -14 -13 -41 -60 -95 -166 -196
-306 -219 -304 -8 1 -12 -2 -9 -6 2 -4 -9 -17 -25 -29 -17 -12 -30 -17 -30
-11 0 5 5 10 10 10 6 0 9 6 8 13 -2 6 4 11 12 9 12 -3 13 -1 3 9 -17 17 -17
33 0 26 8 -3 13 5 14 22 0 14 5 37 11 51 5 14 9 27 8 30 0 3 9 18 22 34 12 16
22 34 22 41 0 7 7 18 15 25 23 19 14 42 -17 46 -15 1 -27 0 -26 -4 3 -11 -33
-116 -44 -127 -6 -6 -7 -5 -4 5 3 8 7 32 10 54 3 31 0 43 -19 62 -19 19 -25
39 -33 124 -9 97 -10 101 -45 135 -28 27 -44 35 -72 35 -23 0 -37 -5 -40 -15z
m141 -183 c-2 -4 -1 -14 4 -22 9 -15 -34 -60 -57 -60 -15 0 -17 36 -3 45 6 3
10 15 10 26 0 14 7 19 26 19 14 0 23 -4 20 -8z m10 -139 c-7 -7 -26 7 -26 19
0 6 6 6 15 -2 9 -7 13 -15 11 -17z m38 -48 c3 -8 1 -15 -4 -15 -6 0 -10 7 -10
15 0 8 2 15 4 15 2 0 6 -7 10 -15z m485 -216 c13 -38 13 -39 2 -39 -5 0 -11 8
-14 18 -2 9 -8 25 -12 35 -4 9 -3 17 3 17 6 0 15 -14 21 -31z m80 -10 c20 -33
18 -59 -5 -59 -17 0 -34 32 -34 64 0 35 16 33 39 -5z m-33 -63 c21 -21 18 -66
-4 -66 -23 0 -45 36 -37 61 7 23 21 24 41 5z m-121 -17 c5 -16 10 -18 21 -8 8
6 14 8 14 5 0 -13 -21 -46 -29 -46 -8 0 -31 44 -31 60 0 18 19 10 25 -11z m50
-59 c-5 -16 -3 -19 12 -13 16 6 16 5 5 -10 -8 -9 -11 -21 -7 -27 3 -5 3 -15
-1 -21 -3 -6 -14 2 -26 21 -18 30 -18 33 -2 51 22 24 27 24 19 -1z m-751 -25
c-4 -8 -14 -15 -23 -16 -9 -1 -5 -4 9 -8 30 -8 42 -51 14 -51 -10 0 -14 3 -11
7 11 10 -24 43 -47 44 -18 1 -18 2 -3 6 11 3 16 11 13 19 -4 10 3 14 24 14 22
0 28 -4 24 -15z m-66 -179 c-7 -8 -15 -12 -17 -11 -5 6 10 25 20 25 5 0 4 -6
-3 -14z"/>
<path d="M4536 3177 c3 -10 9 -15 12 -12 3 3 0 11 -7 18 -10 9 -11 8 -5 -6z"/>
<path d="M1647 3732 c-64 -8 -115 -17 -112 -20 2 -3 -3 -10 -12 -17 -12 -9 -5
-10 38 -5 30 4 56 6 58 4 2 -2 -2 -5 -10 -5 -8 -1 2 -5 21 -9 32 -7 32 -7 -10
-5 -25 1 -39 0 -32 -2 6 -3 10 -8 8 -11 -2 -4 16 -5 41 -3 26 2 43 -1 40 -6
-4 -6 14 -7 43 -3 27 3 47 3 44 -2 -3 -4 12 -8 33 -8 28 0 34 -3 23 -10 -13
-8 -12 -10 4 -10 16 0 17 6 12 49 -11 90 -1 86 -189 63z m60 -68 c-3 -3 -12
-4 -19 -1 -8 3 -5 6 6 6 11 1 17 -2 13 -5z"/>
<path d="M2443 3703 c-7 -3 -13 -14 -13 -25 0 -16 5 -19 23 -14 12 3 30 6 39
6 9 0 23 6 30 13 7 8 20 16 28 20 17 6 -88 6 -107 0z"/>
<path d="M4430 3653 c0 -6 -17 -30 -38 -54 -21 -24 -56 -75 -79 -114 -22 -38
-67 -114 -101 -167 -33 -53 -54 -94 -46 -91 8 3 14 9 14 14 0 5 7 17 16 27 29
33 124 187 124 203 0 8 5 20 12 27 9 9 15 6 24 -16 9 -18 13 -21 13 -9 1 9 5
17 10 17 5 0 10 12 10 28 0 35 4 53 16 72 22 34 35 63 30 68 -3 3 -5 1 -5 -5z"/>
<path d="M1728 3633 c6 -2 10 -8 8 -12 -3 -4 -1 -13 5 -21 5 -8 9 -10 9 -4 0
6 10 10 23 9 13 -1 15 0 4 2 -10 3 -21 11 -24 19 -3 8 -13 14 -22 13 -10 0
-11 -2 -3 -6z"/>
<path d="M1290 3590 c0 -8 10 -51 21 -95 32 -120 37 -152 28 -167 -5 -7 -9 -8
-9 -3 0 6 -5 3 -10 -5 -5 -8 -10 -10 -10 -4 0 6 -11 12 -25 12 -14 0 -25 -5
-25 -10 0 -5 -5 -6 -10 -3 -6 4 -8 11 -5 16 4 5 -1 9 -10 9 -9 0 -13 5 -10 10
3 6 1 10 -4 10 -16 0 -14 -7 22 -85 25 -53 35 -65 40 -52 4 11 3 16 -3 12 -6
-3 -10 -1 -10 4 0 12 6 13 37 5 13 -4 21 -10 18 -14 -2 -4 6 -5 18 -3 31 5 46
-8 62 -53 8 -21 14 -31 15 -22 0 13 13 18 55 23 30 4 70 5 87 2 18 -2 47 0 63
7 17 6 78 11 138 11 59 -1 107 3 107 7 0 4 7 8 16 8 8 0 13 4 9 9 -3 6 4 8 15
6 11 -2 20 0 20 4 0 5 -18 11 -40 15 -22 3 -40 10 -40 14 0 5 -6 9 -12 9 -7 0
-49 7 -93 16 -44 8 -92 13 -107 10 -16 -3 -28 -1 -28 3 0 5 -18 10 -40 10 -47
2 -147 41 -154 61 -3 7 -1 13 4 13 5 0 16 7 24 16 9 8 16 12 16 7 0 -5 19 -7
41 -5 28 3 37 7 28 13 -10 6 -8 9 9 9 12 0 22 4 22 10 0 5 7 6 17 3 11 -4 14
-3 9 5 -5 9 6 11 45 6 42 -5 50 -4 45 7 -4 8 0 5 8 -5 9 -11 16 -15 16 -9 0
15 73 23 82 9 5 -7 8 -6 8 3 0 8 6 11 16 7 11 -4 14 -1 12 12 -2 10 -14 18
-31 20 -15 2 -25 6 -23 10 2 4 -15 7 -37 8 -23 0 -69 4 -102 8 -47 7 -56 10
-40 17 17 7 15 8 -10 7 -17 -1 -35 1 -41 5 -11 6 -131 26 -162 27 -7 0 -10 4
-7 10 3 5 0 7 -8 4 -8 -3 -18 0 -22 6 -6 9 -10 9 -16 -1 -8 -12 -11 -11 -19 1
-9 13 -10 13 -10 0z"/>
<path d="M1191 3523 c-1 -7 -8 -13 -17 -13 -11 0 -14 -5 -10 -16 3 -9 6 -20 6
-25 0 -5 8 -9 18 -9 14 0 15 2 2 10 -11 7 -5 9 20 5 29 -4 31 -3 15 5 -16 8
-14 9 15 5 25 -4 31 -2 20 5 -13 8 -12 10 5 10 17 1 16 3 -5 11 -14 6 -32 8
-42 6 -9 -3 -19 0 -22 7 -3 7 -5 7 -5 -1z"/>
<path d="M4450 3475 c0 -8 4 -15 10 -15 5 0 7 7 4 15 -4 8 -8 15 -10 15 -2 0
-4 -7 -4 -15z"/>
<path d="M1190 3450 c-10 -6 -11 -13 -5 -19 7 -7 16 -7 25 -1 13 9 13 10 0 10
-13 0 -13 1 0 10 8 5 11 10 5 10 -5 0 -17 -5 -25 -10z"/>
<path d="M3518 3423 c7 -3 16 -2 19 1 4 3 -2 6 -13 5 -11 0 -14 -3 -6 -6z"/>
<path d="M3580 3399 c-14 -6 -40 -8 -58 -5 -37 6 -34 -7 7 -29 26 -13 29 -20
34 -86 4 -47 2 -78 -5 -86 -8 -10 -6 -13 9 -13 10 0 24 -5 30 -11 13 -13 43
-5 43 11 0 5 -6 10 -12 10 -24 0 -36 15 -43 54 -7 34 -6 38 9 33 12 -5 16 0
16 18 0 26 -15 34 -23 13 -2 -7 -7 2 -11 20 -5 18 -6 36 -3 38 8 8 40 7 60 -1
20 -8 24 14 5 33 -14 14 -24 14 -58 1z"/>
<path d="M990 3387 c0 -7 -12 -30 -26 -51 -19 -28 -29 -35 -34 -25 -6 9 -12 6
-21 -14 -11 -25 -21 -31 -34 -24 -3 1 -16 -15 -30 -35 -14 -21 -31 -38 -37
-38 -6 0 -8 -3 -5 -7 4 -3 1 -13 -7 -22 -8 -9 -49 -82 -91 -163 -42 -82 -79
-148 -81 -148 -2 0 25 58 61 130 36 71 65 136 65 143 0 7 -14 26 -32 43 l-32
29 27 -33 c15 -19 27 -37 27 -41 0 -7 -197 -388 -206 -399 -8 -10 -52 15 -92
52 -29 26 -40 33 -31 18 8 -13 38 -41 67 -62 l52 -38 -27 -7 c-16 -5 -32 -9
-38 -11 -5 -1 -23 -7 -39 -13 -23 -9 -26 -14 -16 -26 22 -26 86 -38 117 -21
29 14 89 66 78 66 -4 0 7 12 24 26 17 14 31 32 31 40 0 16 56 48 70 39 5 -3
11 -1 14 4 4 5 1 13 -5 17 -8 5 -9 3 -4 -6 6 -9 4 -11 -4 -6 -19 12 -3 21 40
22 21 0 42 4 47 9 4 4 2 5 -4 2 -17 -10 -39 19 -23 29 8 4 9 3 5 -4 -4 -7 -4
-12 -1 -12 3 0 11 14 16 30 6 17 15 30 20 30 11 0 12 -14 2 -24 -11 -10 -12
-37 -2 -30 5 3 7 9 5 13 -7 11 42 64 53 57 5 -4 12 -2 15 3 4 5 1 13 -5 17 -8
5 -9 3 -4 -6 6 -9 4 -11 -4 -6 -15 10 -7 19 19 21 11 1 16 -3 13 -9 -4 -6 3
-3 14 7 21 19 38 23 28 7 -9 -14 8 -13 23 2 9 9 12 9 12 -2 0 -10 4 -10 18 2
22 20 52 30 52 18 0 -5 8 -7 18 -3 14 5 14 3 -3 -11 -11 -10 -15 -15 -8 -12 7
4 10 -1 9 -11 -2 -9 -9 -19 -17 -21 -11 -3 -11 -1 1 7 8 6 10 11 4 11 -19 0
-24 -13 -11 -28 10 -13 9 -15 -5 -10 -11 5 -15 2 -14 -10 2 -9 9 -18 17 -20
12 -3 12 -2 0 6 -11 8 -9 11 8 17 11 3 21 10 21 15 0 5 9 8 19 7 12 -1 18 -7
16 -18 -3 -12 1 -16 11 -12 7 3 11 9 8 14 -3 5 0 9 5 9 6 0 11 -7 11 -15 0 -8
6 -15 13 -15 7 0 8 -3 2 -8 -15 -11 -17 -32 -3 -32 7 -1 2 -7 -12 -15 -15 -9
-19 -14 -10 -15 13 0 13 -1 0 -10 -22 -14 -4 -12 34 4 32 13 33 13 31 -12 0
-14 -6 -27 -13 -30 -7 -2 -10 -8 -7 -12 3 -5 -20 0 -51 10 -63 22 -76 24 -54
10 13 -9 13 -10 -1 -10 -8 0 -23 -6 -33 -13 -17 -13 -16 -14 12 -14 17 0 30 5
29 10 -1 5 4 12 11 14 14 5 12 -18 -2 -29 -5 -3 -27 -5 -48 -3 -20 2 -37 1
-36 -3 3 -8 -46 -62 -56 -62 -4 0 -4 6 0 13 5 8 3 8 -9 -2 -17 -13 -14 -36 4
-26 23 15 6 -6 -23 -26 -25 -18 -30 -19 -25 -6 4 11 2 14 -9 10 -9 -3 -14 -13
-11 -24 3 -11 1 -17 -3 -14 -4 3 -17 -11 -29 -30 -11 -19 -27 -35 -36 -35 -8
0 -15 -6 -15 -14 0 -7 -8 -20 -17 -27 -9 -8 -14 -9 -10 -3 4 7 0 15 -9 18 -8
3 -13 2 -10 -3 3 -4 -6 -6 -19 -3 -15 2 -22 9 -18 16 4 6 0 5 -9 -2 -9 -7 -21
-27 -27 -43 -10 -29 -9 -31 32 -48 23 -10 62 -25 87 -34 25 -9 57 -28 72 -42
33 -31 53 -34 38 -6 -20 39 -9 45 20 11 16 -19 29 -38 30 -41 0 -4 -16 -10
-35 -13 -26 -5 -57 1 -118 22 -45 16 -91 32 -102 36 -11 4 10 -9 48 -29 37
-19 67 -37 67 -40 0 -2 -36 11 -81 30 -45 19 -75 27 -68 19 10 -12 8 -13 -12
-6 -24 9 -69 -3 -69 -18 0 -4 24 -10 54 -13 50 -5 145 -45 191 -81 23 -18 16
-20 -34 -6 -20 5 -74 17 -120 25 -81 16 -155 46 -214 87 -16 11 -30 19 -32 17
-7 -9 -24 -83 -19 -88 2 -3 7 5 11 17 7 27 34 29 57 3 19 -20 13 -72 -8 -68
-6 1 -10 -4 -9 -10 4 -18 -23 -16 -41 3 -13 12 -16 13 -16 1 0 -7 12 -20 27
-27 23 -11 25 -14 11 -17 -10 -3 -19 -12 -19 -21 -3 -32 -6 -57 -7 -69 -1 -7
-11 -13 -22 -13 -17 0 -19 -5 -15 -47 4 -41 3 -43 -4 -15 -13 51 -23 52 -19 2
3 -28 9 -44 16 -43 7 2 11 0 11 -5 -1 -4 -1 -14 0 -22 1 -12 4 -11 12 3 6 9
14 15 20 12 5 -4 3 -13 -6 -21 -13 -13 -10 -21 22 -67 20 -29 56 -78 81 -109
43 -56 60 -72 47 -45 -4 6 1 3 9 -7 9 -11 16 -24 16 -29 0 -16 81 -107 90
-102 5 3 16 -7 25 -22 10 -16 69 -73 133 -128 63 -55 135 -120 160 -145 24
-25 49 -44 54 -42 5 1 7 -2 4 -6 -3 -5 3 -17 14 -27 19 -17 20 -17 20 0 0 10
-12 29 -27 43 -16 13 -22 21 -16 18 9 -5 11 -2 7 8 -3 9 -10 16 -15 16 -5 0
-9 7 -9 16 0 8 -4 13 -9 9 -6 -3 -8 3 -6 15 2 11 0 22 -6 25 -5 4 -9 1 -9 -4
0 -6 -4 -11 -10 -11 -5 0 7 27 26 60 34 56 35 60 20 82 -9 13 -19 22 -21 21
-17 -9 -12 2 16 42 18 25 33 45 34 45 6 0 1 -41 -6 -45 -13 -9 -11 -25 4 -23
20 5 25 19 20 57 -6 45 14 68 46 52 11 -6 37 -11 59 -11 23 0 45 -6 52 -15 32
-39 36 4 5 50 -12 17 -26 41 -33 55 -6 14 -16 32 -21 40 -13 20 -54 112 -55
125 -4 34 -108 215 -123 215 -2 0 -1 -5 3 -12 5 -7 3 -8 -5 -4 -7 5 -10 10 -7
13 3 3 -2 20 -11 37 -20 38 -43 132 -34 141 3 4 6 11 6 16 0 5 3 8 7 7 9 -4
78 63 78 76 0 5 -6 2 -13 -8 -12 -16 -14 -16 -14 -2 0 8 9 18 19 22 10 3 16
10 13 15 -4 5 -2 9 2 9 5 0 16 13 26 29 21 35 127 115 222 166 39 21 75 42 82
47 9 7 14 2 18 -19 4 -15 15 -46 26 -69 10 -23 23 -65 29 -95 14 -74 50 -170
71 -191 26 -26 32 -22 15 10 -8 15 -16 36 -18 47 -1 11 -7 23 -13 27 -6 5 -4
8 5 8 12 0 12 2 2 9 -11 6 -6 14 18 31 31 22 32 25 26 77 -5 39 -3 52 5 47 8
-4 9 2 5 22 -5 25 -1 32 27 51 l34 21 19 -25 c10 -14 21 -28 24 -32 11 -14
130 -71 147 -71 10 0 25 6 34 13 17 13 79 102 79 113 0 3 10 15 22 25 11 11
17 19 13 19 -5 0 1 9 13 20 12 12 22 31 22 43 0 39 -33 216 -40 212 -3 -2 -4
10 -2 27 3 21 1 29 -7 24 -6 -4 -11 -2 -11 3 0 6 15 11 33 11 43 0 46 3 37 48
-4 24 -21 51 -46 77 -22 22 -48 51 -57 64 -9 14 -18 23 -19 20 -2 -2 -14 -16
-27 -32 l-25 -27 29 -30 c16 -16 25 -33 22 -37 -8 -8 -47 31 -47 47 0 16 -36
12 -51 -7 -13 -15 -12 -15 8 -5 34 19 37 14 7 -11 -37 -32 -25 -51 27 -42 27
5 39 3 39 -5 0 -6 -6 -10 -12 -7 -7 2 -18 -5 -25 -17 -7 -12 -12 -15 -13 -8 0
6 -6 12 -14 12 -8 0 -16 4 -18 10 -2 6 -14 6 -33 1 -26 -8 -27 -9 -7 -10 13
-1 21 -5 18 -10 -3 -5 -16 -7 -29 -4 -16 3 -18 2 -9 -5 8 -5 19 -20 26 -33 14
-29 48 -36 69 -14 11 10 18 12 22 4 4 -6 22 -8 45 -4 30 5 39 3 44 -11 5 -12
3 -14 -6 -8 -18 13 -84 10 -101 -4 -8 -7 -17 -9 -20 -6 -3 4 -25 6 -49 7 -24
0 -35 2 -25 4 12 3 16 10 13 20 -3 8 -6 19 -6 24 0 14 -37 10 -54 -6 -8 -8
-20 -15 -26 -15 -6 0 -9 -4 -6 -9 3 -4 -28 -41 -69 -81 -41 -39 -75 -78 -75
-86 0 -17 -34 -36 -54 -28 -8 3 -12 12 -9 21 5 13 2 15 -15 11 -16 -5 -23 0
-31 23 -6 17 -7 27 -2 25 4 -3 17 1 27 9 10 8 27 15 37 15 9 0 17 6 17 13 0 7
7 4 15 -7 14 -19 18 -16 81 48 69 71 78 99 27 91 -78 -13 -133 -13 -133 0 0 7
14 16 30 20 17 4 30 11 30 16 0 6 9 7 21 4 13 -5 19 -3 15 3 -3 5 10 13 29 16
31 6 33 9 23 26 -9 14 -14 16 -20 7 -6 -9 -8 -9 -8 1 0 9 -12 13 -39 11 -22
-2 -46 3 -55 10 -9 8 -31 11 -51 9 -19 -2 -37 1 -39 7 -2 5 -5 -5 -5 -23 -1
-18 -5 -31 -10 -27 -5 3 -12 1 -16 -5 -3 -5 -17 -10 -31 -10 -13 0 -24 -6 -24
-12 -1 -7 -7 -2 -15 12 -17 29 -19 24 -6 -16 18 -55 21 -84 11 -84 -5 0 -10 7
-10 16 0 8 -5 12 -11 8 -8 -4 -9 1 -4 17 7 22 7 23 -10 9 -17 -14 -18 -13 -11
5 10 26 19 65 10 45 -4 -8 -16 -23 -26 -35 -18 -19 -18 -17 2 30 21 49 21 49
1 30 -12 -10 -21 -25 -22 -34 0 -9 -3 -11 -5 -4 -3 6 4 30 16 53 29 56 18 62
-14 8 -31 -51 -34 -44 -6 12 25 50 25 73 0 40 -24 -30 -25 -22 -5 27 22 52 18
54 -11 6 -14 -24 -27 -43 -29 -43 -2 0 5 23 16 50 10 28 17 50 15 50 -3 0 -17
-19 -31 -42 -29 -47 -26 -21 5 45 24 49 5 37 -21 -15 -25 -49 -35 -45 -14 5
24 57 17 57 -16 0 -33 -57 -44 -68 -29 -28 12 31 4 32 -20 3 l-19 -23 5 25 c5
25 5 25 -11 5 -9 -11 -27 -41 -41 -67 -13 -26 -27 -49 -32 -52 -5 -3 11 34 34
82 24 48 44 92 44 97 0 10 -50 -70 -69 -111 -14 -31 -71 -119 -71 -110 0 4 13
31 28 59 57 104 52 119 -8 25 -22 -35 -40 -58 -40 -52 0 6 3 14 7 17 3 4 14
25 24 47 23 51 6 43 -21 -10 -11 -21 -25 -42 -31 -46 -9 -5 -9 -3 -3 7 5 8 14
30 21 49 l12 35 -19 -25 c-32 -41 -23 -3 10 46 17 24 33 44 36 44 3 0 2 -5 -2
-12 -4 -7 -3 -8 5 -4 13 8 55 89 65 126 4 14 -6 4 -24 -25 -30 -49 -33 -30 -3
28 8 16 9 27 3 27 -5 0 -10 -6 -10 -13z m1010 -337 c0 -5 -7 -10 -15 -10 -9 0
-18 -7 -22 -16 -5 -15 -7 -14 -16 1 -7 12 -5 20 4 26 19 12 49 11 49 -1z
m-554 -31 c4 -6 10 -27 14 -45 8 -33 7 -34 -25 -34 -18 0 -38 7 -45 15 -17 21
-34 19 -25 -2 5 -14 3 -15 -6 -6 -14 14 -4 33 18 33 9 0 13 3 10 6 -7 7 30 44
44 44 4 0 11 -5 15 -11z m564 -12 c0 -8 -3 -17 -7 -20 -9 -9 -34 13 -27 24 8
14 34 11 34 -4z m-110 -22 c0 -8 -7 -15 -15 -15 -16 0 -20 12 -8 23 11 12 23
8 23 -8z m-78 -12 c-6 -2 -10 -9 -7 -14 4 -5 -1 -6 -9 -3 -24 9 -19 24 7 23
12 0 16 -3 9 -6z m-1221 -165 c-11 -18 -21 -29 -21 -25 0 13 33 67 38 62 3 -2
-5 -19 -17 -37z m1355 -63 c1 -8 -5 -15 -14 -15 -15 0 -15 -2 -2 -10 11 -7 11
-10 2 -10 -7 0 -11 -4 -7 -9 7 -12 -44 -61 -63 -61 -7 0 -20 6 -27 14 -12 11
-9 16 21 32 19 11 44 34 55 53 19 33 31 35 35 6z m-352 -52 c2 -10 7 -32 11
-50 6 -31 6 -31 -29 -28 -47 5 -58 13 -51 38 7 22 40 57 55 57 5 0 11 -8 14
-17z m64 -14 c10 0 12 -3 5 -5 -7 -3 -9 -13 -6 -22 6 -15 4 -15 -10 -4 -9 8
-21 11 -26 8 -5 -4 -9 3 -8 14 1 13 6 19 15 15 7 -3 21 -5 30 -6z m-108 -139
c0 -5 -5 -10 -11 -10 -5 0 -7 5 -4 10 3 6 8 10 11 10 2 0 4 -4 4 -10z m-711
-59 c10 -7 7 -9 -12 -8 -14 1 -23 5 -20 10 6 9 15 9 32 -2z m87 -38 c-4 -23
-15 -26 -47 -13 -24 10 -28 15 -16 19 28 10 65 6 63 -6z m570 -50 c-10 -10
-19 5 -10 18 6 11 8 11 12 0 2 -7 1 -15 -2 -18z m-961 -163 c-3 -5 2 -10 12
-10 17 -1 17 -1 0 -11 -10 -6 -21 -8 -24 -5 -6 6 4 36 12 36 4 0 3 -4 0 -10z
m164 -37 c6 -10 11 -13 11 -7 0 9 20 11 50 5 3 -1 -2 -6 -10 -11 -10 -6 -11
-10 -2 -10 6 0 12 -4 12 -10 0 -15 -72 -11 -100 6 -14 8 -17 13 -7 10 9 -3 25
-9 35 -12 14 -5 14 -3 -2 10 -11 9 -16 16 -10 16 5 0 2 5 -6 10 -13 8 -13 10
2 10 9 0 22 -8 27 -17z m96 -23 c-3 -5 3 -11 12 -14 15 -4 15 -5 -1 -3 -11 1
-20 10 -22 20 -1 9 2 15 7 11 5 -3 7 -9 4 -14z m-301 -5 c3 -8 1 -15 -4 -15
-6 0 -10 7 -10 15 0 8 2 15 4 15 2 0 6 -7 10 -15z m141 -12 c19 -9 35 -21 35
-25 0 -5 -4 -7 -8 -4 -4 2 -28 -4 -52 -15 -24 -11 -50 -17 -57 -15 -23 9 -14
31 20 45 29 11 30 13 12 21 -17 7 -17 9 -3 9 10 1 33 -7 53 -16z m-155 -35 c0
-9 4 -8 10 2 17 26 31 -9 27 -64 -3 -33 -1 -43 5 -32 11 20 24 21 32 0 3 -9
-3 -27 -13 -40 -19 -24 -20 -24 -26 -4 -3 11 -11 20 -16 20 -13 0 -11 -12 4
-35 16 -24 11 -98 -7 -92 -18 6 -20 39 -2 49 23 13 20 28 -6 25 -15 -1 -23 4
-26 17 -2 11 0 16 7 12 6 -4 11 -2 11 3 0 6 -4 11 -9 11 -20 0 -33 57 -21 99
10 38 30 57 30 29z m260 -13 l35 -13 -65 -1 c-59 0 -63 1 -46 14 23 18 30 18
76 0z m23 -65 c39 0 68 -3 65 -6 -4 -3 -53 -18 -110 -33 -56 -15 -113 -31
-125 -35 -32 -10 -29 7 9 50 27 30 36 35 61 30 16 -3 61 -6 100 -6z m288 -67
c13 -15 12 -15 -8 -4 -24 12 -29 21 -14 21 5 0 15 -7 22 -17z m-491 -7 c0 -8
-7 -16 -15 -20 -12 -4 -13 -2 -2 14 14 24 17 25 17 6z m247 0 c-15 -12 -12
-14 28 -19 48 -7 119 -39 131 -59 6 -10 5 -11 -7 -1 -52 42 -188 57 -269 29
-24 -8 -48 -12 -54 -9 -6 3 -8 3 -4 -2 4 -4 -8 -25 -27 -46 -40 -44 -50 -75
-42 -127 5 -25 3 -32 -3 -22 -5 8 -10 27 -10 41 0 14 -3 29 -7 33 -4 4 -6 22
-5 41 2 18 -1 36 -7 40 -13 8 -14 35 -2 54 7 11 13 12 24 3 10 -9 18 -8 33 3
12 9 14 14 6 15 -7 0 -10 5 -6 11 5 8 8 8 13 0 7 -11 30 -10 61 2 27 10 117
17 95 8 l-20 -10 20 0 c11 0 29 6 39 14 11 8 22 15 25 15 3 0 -2 -7 -12 -14z
m16 -80 c51 -5 41 -16 -16 -16 -44 0 -57 3 -57 15 0 11 7 14 23 10 12 -3 34
-7 50 -9z m-92 -10 c-8 -10 -9 -16 -1 -21 5 -3 -10 -22 -36 -41 -25 -20 -48
-33 -51 -31 -4 4 21 25 63 55 11 7 5 6 -13 -3 -17 -8 -35 -20 -38 -26 -8 -12
-45 17 -45 35 0 6 4 5 9 -2 6 -10 14 -8 37 11 37 32 97 50 75 23z m270 -13
c13 -16 12 -17 -3 -4 -10 7 -18 15 -18 17 0 8 8 3 21 -13z m-356 -3 c3 -5 1
-10 -4 -10 -6 0 -11 5 -11 10 0 6 2 10 4 10 3 0 8 -4 11 -10z m311 -37 c-3 -3
-17 2 -31 11 -15 10 -35 15 -48 11 -20 -5 -19 -4 3 9 22 13 27 12 53 -6 15
-11 26 -23 23 -25z m-151 -13 c-3 -5 -13 -10 -21 -10 -8 0 -14 -5 -14 -12 0
-6 -3 -8 -6 -5 -10 9 16 37 33 37 8 0 11 -4 8 -10z m-179 -50 c-11 -45 -36
-54 -36 -14 0 34 17 64 34 58 10 -4 11 -13 2 -44z m114 40 c0 -5 -2 -10 -4
-10 -3 0 -8 5 -11 10 -3 6 -1 10 4 10 6 0 11 -4 11 -10z m120 -11 c0 -5 5 -7
12 -3 6 4 8 3 5 -3 -6 -10 -47 -25 -47 -18 0 2 3 10 6 19 7 18 24 22 24 5z
m151 -8 c22 -18 22 -18 3 -29 -17 -9 -22 -7 -31 19 -13 34 -5 37 28 10z m-237
-52 c-3 -5 -10 -7 -15 -3 -5 3 -7 10 -3 15 3 5 10 7 15 3 5 -3 7 -10 3 -15z
m280 -71 l-17 -33 27 24 c32 30 34 20 2 -22 -37 -51 -42 -64 -16 -42 l24 20
-18 -30 c-11 -16 -29 -45 -42 -64 -18 -27 -20 -37 -11 -52 7 -11 17 -19 24
-19 15 0 16 -9 4 -29 -8 -12 -13 -11 -30 10 -11 13 -20 28 -21 32 0 5 -4 5
-10 2 -5 -3 -10 0 -10 7 0 10 -3 9 -10 -2 -5 -8 -12 -11 -15 -8 -4 4 8 28 26
55 l32 48 -35 -33 c-19 -18 -39 -32 -44 -31 -5 1 -17 -1 -27 -6 -25 -11 -44 9
-28 29 7 8 10 19 8 23 -8 13 65 87 88 91 11 2 26 9 33 16 11 11 10 14 -7 19
-22 6 -29 -8 -8 -16 6 -3 -8 -4 -33 -2 -25 1 -40 1 -33 -2 9 -3 4 -17 -14 -44
-28 -42 -45 -45 -23 -4 10 20 11 28 2 37 -9 9 -15 9 -24 0 -9 -9 -9 -12 0 -12
7 0 12 -5 12 -11 0 -5 -4 -7 -10 -4 -6 4 -10 -5 -10 -19 0 -14 4 -26 8 -26 4
0 8 -8 9 -18 1 -15 -5 -17 -33 -14 -33 4 -34 5 -19 22 12 13 14 28 10 54 -8
38 -14 43 -33 24 -8 -8 -12 -8 -12 -1 0 14 26 24 43 17 9 -3 18 9 27 35 7 22
19 42 26 45 17 7 36 -18 28 -38 -4 -11 -1 -16 13 -16 10 0 24 -5 31 -12 16
-16 16 4 0 22 -11 12 -10 12 5 1 14 -11 17 -11 17 0 0 12 2 12 9 0 7 -10 11
-5 16 18 7 31 18 37 49 25 13 -5 13 -10 4 -27 -6 -12 -16 -25 -22 -29 -8 -6
-7 -8 1 -8 17 0 43 40 45 70 1 20 2 19 5 -7 2 -18 -3 -46 -13 -65z m-330 47
c-18 -14 -18 -14 4 -15 13 0 32 5 42 10 13 7 21 7 25 0 3 -5 2 -10 -3 -10 -5
0 -14 -12 -20 -26 -7 -14 -17 -22 -22 -19 -6 4 -8 10 -5 15 3 4 -15 16 -39 26
-51 21 -51 34 2 34 34 0 35 -1 16 -15z m101 5 c3 -5 2 -10 -4 -10 -5 0 -13 5
-16 10 -3 6 -2 10 4 10 5 0 13 -4 16 -10z m-186 -90 c0 -9 -6 -4 -14 10 -8 14
-14 32 -14 40 0 9 6 4 14 -10 8 -14 14 -32 14 -40z m178 44 c-3 -3 -12 -4 -19
-1 -8 3 -5 6 6 6 11 1 17 -2 13 -5z m293 -18 c0 -2 -8 -10 -17 -17 -16 -13
-17 -12 -4 4 13 16 21 21 21 13z m130 -40 c0 -9 -41 8 -52 22 -11 13 -8 12 20
-2 17 -9 32 -18 32 -20z m-519 -13 c-12 -20 -14 -14 -5 12 4 9 9 14 11 11 3
-2 0 -13 -6 -23z m-41 -35 c0 -6 -6 -5 -15 2 -8 7 -15 14 -15 16 0 2 7 1 15
-2 8 -4 15 -11 15 -16z"/>
<path d="M485 2090 c3 -5 8 -10 11 -10 2 0 4 5 4 10 0 6 -5 10 -11 10 -5 0 -7
-4 -4 -10z"/>
<path d="M561 1813 c-10 -26 -10 -27 4 -9 8 11 15 23 15 28 0 15 -7 8 -19 -19z"/>
<path d="M1030 1605 c-7 -9 -11 -17 -9 -20 3 -2 10 5 17 15 14 24 10 26 -8 5z"/>
<path d="M990 1505 c-7 -9 -11 -17 -9 -20 3 -2 10 5 17 15 14 24 10 26 -8 5z"/>
<path d="M1208 3393 c7 -3 16 -2 19 1 4 3 -2 6 -13 5 -11 0 -14 -3 -6 -6z"/>
<path d="M1042 3358 c-18 -23 -43 -78 -35 -78 5 0 18 21 29 45 22 46 24 54 6
33z"/>
<path d="M3717 3357 c-3 -9 -3 -17 2 -17 5 0 12 -11 15 -24 4 -18 11 -23 25
-19 12 3 17 11 14 20 -5 12 -7 12 -14 2 -10 -16 -14 -12 -26 25 -7 24 -11 27
-16 13z"/>
<path d="M3625 3295 c-3 -30 -11 -57 -16 -61 -13 -8 -1 -24 18 -24 10 0 14 6
10 20 -3 13 0 20 9 20 8 0 14 -7 14 -15 0 -8 7 -15 16 -15 11 0 14 5 9 18 -4
9 -13 38 -21 65 -8 26 -19 47 -23 47 -5 0 -12 -25 -16 -55z m22 -17 c-3 -7 -5
-2 -5 12 0 14 2 19 5 13 2 -7 2 -19 0 -25z"/>
<path d="M3495 3316 c-3 -14 -7 -38 -10 -53 -3 -16 -8 -36 -11 -45 -4 -13 0
-18 16 -18 17 0 20 4 15 20 -5 15 -2 20 10 20 11 0 15 -5 12 -15 -7 -17 4 -27
21 -16 8 5 5 22 -12 64 -29 71 -34 76 -41 43z m25 -42 c0 -8 -4 -14 -10 -14
-5 0 -10 9 -10 21 0 11 5 17 10 14 6 -3 10 -13 10 -21z"/>
<path d="M1046 3305 c-9 -26 -7 -32 5 -12 6 10 9 21 6 23 -2 3 -7 -2 -11 -11z"/>
<path d="M1146 3305 c-9 -26 -7 -32 5 -12 6 10 9 21 6 23 -2 3 -7 -2 -11 -11z"/>
<path d="M4510 3291 c0 -6 4 -13 10 -16 6 -3 7 1 4 9 -7 18 -14 21 -14 7z"/>
<path d="M1938 3226 l-26 -24 26 -29 c15 -16 41 -45 58 -65 30 -34 35 -36 69
-28 20 5 38 10 40 12 1 1 -29 38 -69 80 l-71 77 -27 -23z"/>
<path d="M1281 3184 c0 -11 3 -14 6 -6 3 7 2 16 -1 19 -3 4 -6 -2 -5 -13z"/>
<path d="M574 3153 c0 -10 -5 -17 -11 -15 -7 1 -13 -5 -13 -13 0 -18 12 -19
28 -3 14 14 16 48 3 48 -5 0 -8 -8 -7 -17z"/>
<path d="M3496 3098 c3 -4 20 -7 39 -5 18 1 31 5 28 10 -2 4 -20 7 -38 5 -19
-1 -31 -6 -29 -10z"/>
<path d="M2127 3063 c-14 -13 -6 -33 13 -33 11 0 20 -5 20 -11 0 -6 -7 -9 -15
-5 -8 3 -15 1 -15 -5 0 -6 12 -9 28 -7 33 4 37 32 5 36 -13 2 -23 7 -23 12 0
5 7 7 15 4 8 -4 15 -1 15 5 0 12 -32 15 -43 4z"/>
<path d="M2052 3048 c-31 -31 -1 -73 43 -62 21 5 25 11 21 28 -3 11 -6 27 -6
34 0 15 -42 16 -58 0z m38 -28 c0 -23 -25 -27 -33 -6 -7 16 1 26 20 26 7 0 13
-9 13 -20z"/>
<path d="M3048 3053 c7 -3 16 -2 19 1 4 3 -2 6 -13 5 -11 0 -14 -3 -6 -6z"/>
<path d="M2820 2940 c14 -4 39 -8 55 -9 23 0 26 2 15 9 -8 5 -33 9 -55 9 -35
-1 -37 -2 -15 -9z"/>
<path d="M2920 2923 c-85 -8 -156 -16 -157 -17 -2 -1 4 -63 11 -137 8 -74 17
-188 19 -254 2 -66 2 -99 0 -72 -3 41 -7 47 -26 47 -18 0 -19 -2 -7 -10 13 -9
13 -10 0 -10 -13 0 -13 -1 0 -10 9 -6 10 -10 3 -10 -6 0 -14 -10 -16 -22 -2
-13 -5 -5 -6 18 -2 61 -49 436 -56 442 -5 5 -149 -11 -218 -24 -27 -6 -28 -8
-23 -42 17 -97 10 -90 73 -80 30 5 58 7 60 4 5 -5 27 -193 48 -421 25 -264 24
-258 51 -252 29 5 31 -13 4 -33 -21 -15 -25 -54 -10 -100 7 -21 8 -19 9 17 1
23 8 48 16 56 11 12 12 17 2 20 -7 3 -4 6 6 6 10 1 16 5 12 11 -3 5 5 16 18
25 l25 16 -6 154 c-3 98 -1 155 5 155 6 0 8 -40 6 -104 -3 -79 -1 -106 10
-117 19 -20 21 -30 5 -41 -9 -7 -8 -8 7 -6 16 3 21 12 23 48 2 31 -1 48 -12
55 -8 6 -18 23 -21 38 -6 22 -4 27 11 27 16 0 17 2 4 10 -10 6 -11 10 -2 10 6
0 12 7 12 15 0 8 -6 15 -12 15 -10 0 -9 3 1 9 9 6 10 10 2 14 -7 3 -7 5 1 3
13 -3 15 -17 33 -208 l7 -68 46 0 c26 0 65 4 87 9 58 13 166 22 135 12 -22 -8
-20 -9 13 -8 22 0 33 4 25 8 -13 9 14 17 72 21 l35 3 -3 80 c-4 106 -40 619
-47 673 l-6 42 -57 -1 c-31 -1 -127 -8 -212 -16z m154 -140 c2 -10 7 -58 9
-108 l5 -90 -11 85 c-11 80 -13 85 -35 82 -12 -2 -29 4 -38 12 -8 9 -23 16
-32 17 -27 2 29 17 65 18 22 1 33 -4 37 -16z m-167 -25 c-3 -8 -6 -5 -6 6 -1
11 2 17 5 13 3 -3 4 -12 1 -19z m153 -53 c0 -8 -2 -15 -4 -15 -2 0 -6 7 -10
15 -3 8 -1 15 4 15 6 0 10 -7 10 -15z m-143 -57 c-3 -7 -5 -2 -5 12 0 14 2 19
5 13 2 -7 2 -19 0 -25z m10 -120 c-2 -13 -4 -3 -4 22 0 25 2 35 4 23 2 -13 2
-33 0 -45z m170 -40 c-2 -13 -4 -5 -4 17 -1 22 1 32 4 23 2 -10 2 -28 0 -40z
m-145 -181 c3 -32 2 -54 -2 -50 -4 4 -10 53 -13 108 -5 104 7 58 15 -58z m157
-41 c-2 -2 -35 -6 -74 -9 -42 -3 -62 -2 -50 3 11 5 41 9 68 9 30 1 47 5 48 14
0 9 2 9 6 -1 3 -7 3 -15 2 -16z"/>
<path d="M3479 2923 c-1 -2 -2 -7 -3 -12 -2 -19 -16 -23 -17 -5 0 10 -3 13 -6
7 -2 -7 -9 -13 -14 -13 -6 0 -7 5 -4 10 4 6 -5 10 -24 8 -24 -2 -31 -7 -30
-23 0 -11 3 -15 5 -8 3 7 12 9 21 6 8 -3 24 -6 36 -7 13 -1 24 -10 28 -26 4
-14 8 -18 8 -10 1 13 2 13 11 0 8 -12 10 -11 10 8 0 13 -6 22 -15 22 -13 0
-14 2 -3 14 7 8 16 12 21 9 4 -2 7 1 7 6 0 15 47 14 53 -1 3 -8 6 -6 6 5 1 15
-6 18 -44 16 -25 -2 -46 -4 -46 -6z"/>
<path d="M3524 2861 c0 -13 7 -19 18 -18 21 1 23 8 6 25 -17 17 -24 15 -24 -7z"/>
<path d="M430 2860 c-9 -6 -10 -10 -3 -10 6 0 15 5 18 10 8 12 4 12 -15 0z"/>
<path d="M450 2845 c-7 -9 -11 -17 -9 -20 3 -2 10 5 17 15 14 24 10 26 -8 5z"/>
<path d="M466 2823 c-6 -14 -5 -15 5 -6 7 7 10 15 7 18 -3 3 -9 -2 -12 -12z"/>
<path d="M1138 2833 c7 -3 16 -2 19 1 4 3 -2 6 -13 5 -11 0 -14 -3 -6 -6z"/>
<path d="M486 2813 c-9 -22 3 -36 19 -23 11 9 12 7 8 -11 -4 -15 -3 -20 5 -15
18 11 15 29 -7 48 -17 14 -20 15 -25 1z"/>
<path d="M1100 2820 c-9 -6 -10 -10 -3 -10 6 0 15 5 18 10 8 12 4 12 -15 0z"/>
<path d="M3507 2824 c-3 -3 -24 -6 -47 -6 -31 1 -40 -3 -39 -16 0 -11 3 -12 6
-4 6 14 33 16 33 2 0 -5 -5 -10 -12 -10 -6 0 -8 -3 -4 -7 4 -5 14 1 22 11 8
11 14 14 14 8 0 -7 11 -12 25 -12 14 0 25 6 25 13 0 8 4 7 11 -3 8 -12 10 -12
7 5 -3 20 -28 32 -41 19z"/>
<path d="M1035 2780 c5 -9 1 -10 -16 -5 -24 7 -24 7 -4 -9 15 -12 16 -15 3
-10 -10 3 -20 -2 -28 -15 -14 -27 -4 -26 42 2 37 22 37 23 17 35 -14 9 -19 10
-14 2z"/>
<path d="M1150 2770 c8 -5 20 -10 25 -10 6 0 3 5 -5 10 -8 5 -19 10 -25 10 -5
0 -3 -5 5 -10z"/>
<path d="M955 2733 c-11 -25 -15 -46 -7 -38 4 4 7 10 7 13 0 4 4 13 9 20 4 7
6 15 3 18 -2 3 -8 -3 -12 -13z"/>
<path d="M984 2704 c-18 -14 -18 -14 6 -3 31 14 36 19 24 19 -6 0 -19 -7 -30
-16z"/>
<path d="M3608 2634 c-4 -5 -10 -33 -13 -60 -8 -56 0 -68 54 -84 26 -7 29 -6
22 8 -26 53 -46 100 -51 122 -3 14 -8 20 -12 14z"/>
<path d="M2031 2590 c-1 -9 -10 -22 -21 -30 -11 -8 -20 -18 -20 -23 0 -19 -89
-112 -137 -143 -29 -19 -53 -38 -53 -43 0 -50 259 46 270 100 3 13 10 24 15
24 17 1 65 28 65 37 0 4 8 8 18 8 14 0 15 2 2 10 -8 5 -38 10 -67 10 -50 0
-53 1 -62 33 -5 17 -10 25 -10 17z"/>
<path d="M3350 2573 c0 -16 -2 -16 -11 -3 -8 11 -9 8 -4 -15 10 -45 72 -122
121 -151 46 -27 72 -27 107 -2 17 13 17 15 -2 37 -12 13 -21 27 -21 31 0 5
-26 33 -57 64 -49 47 -64 56 -95 56 -30 0 -38 -4 -38 -17z"/>
<path d="M385 2510 c6 -10 70 -40 83 -40 11 0 -35 30 -63 40 -17 7 -24 7 -20
0z"/>
<path d="M1422 2490 c-6 -11 -12 -34 -12 -52 0 -38 -24 -174 -44 -256 -8 -31
-17 -94 -20 -139 -8 -97 4 -108 49 -43 15 22 32 40 36 40 5 0 9 18 9 40 0 22
5 40 10 40 6 0 10 -4 10 -10 0 -5 7 -10 15 -10 10 0 15 11 15 35 0 39 -2 41
-23 20 -13 -12 -15 6 -13 148 0 91 -4 172 -9 184 -10 22 -11 22 -23 3z"/>
<path d="M640 2474 c0 -6 6 -17 14 -23 12 -10 17 -8 26 8 11 22 -3 31 -16 10
-4 -8 -9 -7 -15 2 -5 8 -9 9 -9 3z"/>
<path d="M4772 2453 c-7 -6 -12 -20 -12 -29 0 -10 -5 -14 -15 -10 -9 3 -15 0
-15 -10 0 -8 -4 -13 -9 -9 -5 3 -17 -4 -25 -17 -14 -19 -14 -23 1 -33 15 -11
11 -18 -30 -62 -26 -27 -68 -60 -94 -73 -27 -12 -62 -30 -80 -38 -17 -9 -30
-19 -27 -23 2 -4 -24 -6 -59 -4 -34 1 -67 -2 -73 -7 -6 -4 -22 -7 -34 -6 -13
2 -25 -3 -28 -11 -3 -10 0 -12 13 -8 11 5 18 1 22 -11 3 -12 12 -18 26 -17 12
1 28 -2 35 -8 18 -14 -10 -43 -57 -58 -20 -6 -45 -19 -55 -28 -14 -11 -17 -12
-11 -2 6 11 4 13 -8 8 -11 -4 -17 -1 -17 8 0 8 -4 15 -10 15 -11 0 -12 -2 -16
-48 -2 -31 -1 -32 12 -15 7 10 14 13 14 8 0 -24 -21 -33 -48 -19 -14 7 -30 11
-34 7 -5 -3 -16 3 -23 13 -12 16 -17 17 -34 6 -23 -14 -28 -4 -8 17 10 11 9
12 -2 6 -11 -6 -13 -4 -8 8 4 11 1 17 -6 17 -7 0 -23 13 -35 29 l-21 29 29 4
c17 3 30 1 30 -4 0 -28 75 35 86 72 l7 25 -19 -21 c-28 -31 -140 -61 -165 -46
-11 7 -24 10 -29 7 -5 -3 -12 4 -15 16 -4 12 -19 33 -34 46 -22 19 -34 23 -71
18 -67 -7 -70 -8 -70 -17 0 -4 -7 -8 -15 -8 -8 0 -15 -4 -15 -8 0 -5 -6 -9
-12 -10 -7 -1 -35 -6 -63 -13 -82 -19 -115 -19 -116 0 -1 9 -4 6 -9 -9 -6 -17
-8 -20 -9 -7 -1 16 -3 16 -23 -2 -19 -18 -53 -29 -108 -36 -8 -1 -23 -6 -33
-10 -9 -4 -32 -5 -50 -2 -37 5 -77 -10 -77 -30 0 -12 -12 -17 -32 -14 -4 0 -2
-11 4 -25 11 -23 17 -25 48 -21 19 3 44 9 55 13 18 7 18 6 7 -9 -8 -9 -12 -23
-10 -32 2 -12 11 -8 39 18 20 19 51 38 68 42 17 4 31 11 31 16 0 5 8 9 18 9
11 0 45 9 78 20 44 15 93 22 191 25 73 2 143 7 156 10 18 5 29 0 47 -24 20
-24 28 -28 43 -19 32 17 31 0 -1 -27 -19 -15 -29 -32 -25 -40 3 -8 0 -15 -6
-15 -6 0 -14 13 -17 29 -5 21 -10 28 -22 24 -10 -4 -13 -2 -8 5 11 18 -47 15
-92 -4 -20 -8 -54 -15 -74 -16 -28 0 -39 -5 -43 -19 -4 -11 -10 -19 -15 -19
-5 0 -17 -3 -27 -6 -17 -5 -17 -5 0 9 15 13 12 14 -30 11 -26 -2 -50 -8 -53
-14 -4 -6 -14 -8 -23 -4 -11 4 -19 0 -23 -10 -6 -16 -28 -17 -51 -3 -6 4 -15
2 -19 -4 -3 -6 -18 -9 -33 -6 -15 3 -33 2 -41 -3 -9 -6 -17 -5 -21 2 -11 18
-41 -12 -36 -34 3 -11 0 -18 -10 -18 -8 0 -11 5 -7 13 4 6 4 9 -1 5 -4 -4 -14
0 -21 10 -12 15 -13 15 -14 1 0 -9 6 -22 14 -28 16 -13 117 -18 156 -7 l25 7
-24 -14 c-23 -14 -23 -15 -5 -20 11 -3 2 -6 -21 -7 l-40 -3 40 -7 c22 -4 31
-8 20 -9 -19 -1 -19 -2 2 -16 26 -18 20 -45 -9 -45 -10 0 -16 5 -13 10 10 16
-4 12 -25 -8 -10 -9 -33 -46 -51 -82 -28 -57 -32 -74 -32 -146 0 -74 -1 -81
-18 -77 -10 3 -22 10 -27 17 -7 9 -33 189 -35 243 0 7 -3 10 -7 8 -4 -2 -5
-18 -2 -35 4 -28 2 -30 -29 -31 l-34 -2 35 -7 c19 -4 29 -8 22 -9 -7 0 -10 -5
-7 -11 4 -6 -6 -10 -22 -10 -22 0 -25 2 -13 10 11 7 4 9 -25 9 -35 -1 -37 -2
-15 -9 14 -4 21 -9 15 -10 -5 -1 -1 -5 9 -9 19 -7 19 -8 -2 -13 -12 -4 -20 -2
-16 3 3 5 0 9 -5 9 -6 0 -11 -5 -11 -11 0 -8 -23 -10 -75 -7 -41 3 -75 1 -75
-4 0 -4 -10 -8 -22 -8 -12 0 -18 -3 -15 -6 3 -4 2 -15 -4 -25 -7 -14 -6 -19 3
-21 7 0 -7 -4 -32 -8 l-45 -7 45 -2 c35 -1 42 -4 30 -12 -11 -8 -6 -9 22 -7
21 2 35 1 30 -3 -4 -4 -27 -9 -52 -12 -36 -3 -33 -4 21 -5 36 -1 69 2 75 6 5
5 23 5 39 1 17 -3 23 -7 15 -9 -11 -1 -9 -4 5 -10 l20 -9 -20 -1 -20 -1 20
-10 c17 -8 17 -9 -6 -6 -25 4 -34 -12 -17 -29 9 -9 -14 -44 -29 -44 -6 0 -13
-5 -15 -10 -2 -6 -38 -13 -81 -16 -67 -6 -77 -4 -77 10 0 9 6 16 13 16 9 0 9
2 -1 9 -18 11 12 24 53 23 17 0 3 5 -30 13 -33 7 -55 14 -50 15 6 1 1 5 -10
10 -18 8 -18 9 -2 9 10 1 15 6 12 11 -3 5 1 10 9 10 8 0 17 4 20 8 3 5 -9 7
-27 5 -26 -3 -28 -1 -12 6 15 7 4 9 -40 9 -56 -1 -57 -1 -20 -8 l40 -7 -39 -2
-38 -1 7 -134 7 -133 -29 -7 c-27 -7 -313 -144 -323 -155 -3 -3 -21 -15 -40
-25 -19 -11 -42 -29 -50 -40 -18 -24 -32 -56 -24 -56 10 0 68 33 82 47 19 19
142 80 222 110 77 29 114 35 146 23 20 -8 24 -17 24 -48 0 -43 -14 -62 -47
-62 -13 0 -23 -4 -23 -10 0 -5 -9 -10 -20 -10 -11 0 -20 -5 -20 -11 0 -7 10
-9 28 -4 15 4 32 8 37 9 6 1 15 5 21 9 18 11 24 -3 24 -57 0 -63 7 -73 50 -81
22 -4 47 -20 69 -45 20 -21 50 -45 66 -54 83 -45 120 -67 125 -75 3 -5 20 -18
38 -29 19 -11 61 -46 94 -78 72 -70 80 -65 73 53 -5 94 -1 114 23 106 12 -3
11 1 -5 14 -19 16 -22 32 -28 146 -5 91 -4 127 4 127 6 0 11 -6 11 -13 0 -27
22 -37 50 -22 31 16 46 9 28 -12 -6 -7 -7 -17 -3 -21 4 -4 10 -2 12 4 2 7 12
10 21 8 18 -5 39 22 52 67 9 32 3 44 -16 28 -8 -7 -14 -7 -19 1 -5 8 -11 7
-23 -2 -13 -11 -14 -11 -8 0 7 11 4 11 -12 1 -26 -17 -56 -4 -49 21 3 10 0 21
-7 24 -6 3 -1 3 12 0 23 -6 92 20 92 34 1 26 18 32 46 17 16 -8 36 -15 44 -15
20 0 27 -182 7 -202 -7 -7 -12 -18 -12 -24 0 -19 33 -44 49 -38 9 3 16 2 16
-4 0 -6 13 -13 29 -17 15 -3 34 -17 41 -30 7 -13 17 -22 21 -19 4 2 12 -4 18
-13 9 -15 10 -14 11 11 l0 29 23 -20 c18 -18 24 -19 34 -8 14 15 7 71 -9 81
-4 3 3 19 17 36 28 33 32 48 11 48 -8 0 -24 13 -36 30 l-21 30 35 0 c31 0 36
-3 36 -24 0 -14 4 -27 9 -30 4 -3 9 30 10 74 1 63 -3 88 -19 120 -12 23 -19
47 -17 53 2 6 10 -3 18 -21 l14 -32 12 53 c18 78 16 114 -13 178 -21 46 -25
67 -20 101 4 24 9 98 12 166 l6 122 32 0 c55 0 139 27 229 74 79 42 94 46 155
46 85 0 240 26 308 51 101 38 259 148 294 205 20 32 31 89 22 112 -2 7 -12 10
-23 7 -18 -6 -18 -4 -7 22 7 15 15 30 19 33 12 10 41 111 35 125 -6 17 -38 16
-54 -2z m-757 -463 c51 0 44 -59 -9 -84 -19 -9 -44 -28 -55 -42 l-20 -26 -18
29 c-20 32 -43 35 -93 12 -91 -42 -121 -51 -173 -51 -32 -1 -59 1 -62 4 -3 3
10 19 29 36 35 30 104 51 185 56 71 4 143 29 151 52 9 23 33 37 38 23 2 -5 14
-9 27 -9z m-388 -86 c-3 -4 -28 -8 -54 -10 l-48 -3 50 13 c49 12 65 12 52 0z
m198 -54 c3 -5 -1 -10 -10 -10 -9 0 -13 5 -10 10 3 6 8 10 10 10 2 0 7 -4 10
-10z m-329 -47 c-11 -11 -19 6 -11 24 8 17 8 17 12 0 3 -10 2 -21 -1 -24z
m-463 -220 c-7 -2 -19 -2 -25 0 -7 3 -2 5 12 5 14 0 19 -2 13 -5z m-276 -119
c-3 -3 -12 -4 -19 -1 -8 3 -5 6 6 6 11 1 17 -2 13 -5z m126 -141 c-7 -2 -21
-2 -30 0 -10 3 -4 5 12 5 17 0 24 -2 18 -5z m855 -34 c-3 -8 -7 -3 -11 10 -4
17 -3 21 5 13 5 -5 8 -16 6 -23z m-268 -19 c0 -11 -2 -20 -4 -20 -2 0 -6 9 -9
20 -3 11 -1 20 4 20 5 0 9 -9 9 -20z m30 -80 c0 -22 -2 -40 -4 -40 -2 0 -6 18
-8 40 -2 22 0 40 4 40 5 0 8 -18 8 -40z m247 -87 c-10 -10 -16 0 -22 38 l-6
34 17 -32 c10 -18 14 -36 11 -40z m-797 46 c0 -5 5 -7 10 -4 9 6 14 -8 11 -28
-1 -4 13 -10 30 -14 25 -5 28 -8 15 -15 -9 -5 -14 -13 -12 -17 3 -4 -1 -8 -9
-8 -7 0 -25 22 -40 49 -14 26 -21 48 -16 48 6 0 11 -5 11 -11z m310 -21 c0
-18 -2 -20 -9 -8 -6 8 -7 18 -5 22 9 14 14 9 14 -14z m27 -3 c0 -8 -4 -15 -9
-15 -4 0 -8 7 -8 15 0 8 4 15 8 15 5 0 9 -7 9 -15z m-195 -329 c13 -19 9 -21
-40 -20 -96 3 -102 4 -102 20 0 13 12 15 68 13 37 -1 70 -7 74 -13z"/>
<path d="M2230 2440 c0 -5 -6 -10 -14 -10 -7 0 -19 -7 -26 -15 -10 -12 -10
-15 3 -15 8 0 21 7 28 16 7 9 22 20 34 24 19 8 19 9 -2 9 -13 1 -23 -3 -23 -9z"/>
<path d="M2155 2381 c-3 -5 0 -13 6 -17 7 -4 9 -3 5 4 -3 6 2 13 11 15 16 4
16 5 1 6 -9 0 -19 -3 -23 -8z"/>
<path d="M380 2340 c0 -16 3 -30 8 -30 4 0 7 14 7 30 0 17 -3 30 -7 30 -5 0
-8 -13 -8 -30z"/>
<path d="M3742 2335 c-7 -8 -22 -15 -33 -15 -26 0 -57 -16 -89 -45 -14 -13
-34 -26 -45 -29 -11 -3 5 -4 36 -2 45 2 64 8 89 29 24 21 42 27 78 27 83 0 91
31 12 44 -25 4 -39 2 -48 -9z"/>
<path d="M2054 2310 c-6 -27 -19 -36 -46 -31 -5 0 -8 -3 -8 -9 0 -5 -8 -10
-18 -10 -10 0 -24 -9 -32 -21 -40 -57 -69 -83 -112 -105 -73 -37 -62 -47 45
-41 141 7 148 10 167 67 7 22 19 45 27 51 19 16 16 56 -4 68 -10 6 -12 11 -5
11 14 0 17 50 2 50 -6 0 -13 -13 -16 -30z"/>
<path d="M356 2275 c-8 -40 -4 -51 13 -40 13 7 14 45 2 63 -6 10 -10 3 -15
-23z"/>
<path d="M1743 2275 c-12 -12 -28 -25 -35 -28 -30 -10 6 -19 85 -19 94 -1 115
5 96 28 -6 8 -19 14 -28 14 -10 0 -26 7 -37 15 -27 21 -56 17 -81 -10z"/>
<path d="M1481 2271 c0 -3 4 -15 8 -26 7 -18 8 -17 13 6 3 17 0 26 -9 26 -7 0
-13 -3 -12 -6z"/>
<path d="M2114 2196 c-44 -24 -58 -56 -25 -56 12 0 21 4 21 9 0 5 25 15 55 22
37 10 52 18 47 26 -14 22 -58 22 -98 -1z"/>
<path d="M352 2180 c0 -14 2 -19 5 -12 2 6 2 18 0 25 -3 6 -5 1 -5 -13z"/>
<path d="M2220 2155 c7 -8 23 -15 36 -15 15 0 24 6 24 15 0 11 -11 15 -36 15
-31 0 -35 -2 -24 -15z"/>
<path d="M2308 2123 c12 -2 30 -2 40 0 9 3 -1 5 -23 4 -22 0 -30 -2 -17 -4z"/>
<path d="M2060 2083 c0 -5 14 -16 30 -25 33 -19 40 -10 12 15 -19 18 -42 23
-42 10z"/>
<path d="M1728 1981 c36 -77 37 -79 45 -50 7 26 27 42 27 21 0 -5 6 -9 13 -9
6 0 39 -6 72 -13 33 -6 80 -16 105 -21 25 -4 54 -10 65 -13 79 -19 85 -19 85
0 -1 36 -22 49 -85 51 -33 0 -87 5 -120 9 -33 4 -68 7 -77 8 -9 0 -15 2 -12 5
2 2 -17 17 -42 32 -26 15 -49 31 -53 36 -3 6 -18 13 -33 16 l-26 7 36 -79z"/>
<path d="M4090 2029 c0 -5 5 -7 10 -4 6 3 10 8 10 11 0 2 -4 4 -10 4 -5 0 -10
-5 -10 -11z"/>
<path d="M1431 2014 c0 -11 3 -14 6 -6 3 7 2 16 -1 19 -3 4 -6 -2 -5 -13z"/>
<path d="M1621 1989 c-11 -19 -11 -21 4 -15 9 3 19 6 21 6 2 0 4 7 4 15 0 21
-13 19 -29 -6z"/>
<path d="M2150 1910 c0 -5 20 -10 44 -10 26 0 46 -5 49 -12 4 -8 6 -7 6 3 1
11 -10 19 -30 23 -45 9 -69 7 -69 -4z"/>
<path d="M1790 1876 c0 -27 2 -28 80 -58 14 -5 41 -18 62 -29 20 -10 61 -22
92 -25 30 -4 53 -10 51 -15 -3 -4 12 -8 33 -7 35 0 38 2 34 24 -4 21 -10 24
-50 24 -53 0 -112 20 -196 67 -32 18 -69 36 -82 39 -21 5 -24 3 -24 -20z"/>
<path d="M2260 1890 c0 -5 12 -10 28 -9 24 0 25 1 7 9 -27 12 -35 12 -35 0z"/>
<path d="M3293 1863 c9 -2 23 -2 30 0 6 3 -1 5 -18 5 -16 0 -22 -2 -12 -5z"/>
<path d="M3313 1843 c9 -2 23 -2 30 0 6 3 -1 5 -18 5 -16 0 -22 -2 -12 -5z"/>
<path d="M2958 1813 c6 -2 18 -2 25 0 6 3 1 5 -13 5 -14 0 -19 -2 -12 -5z"/>
<path d="M2865 1791 l-20 -8 20 -5 c11 -3 1 -6 -22 -7 -24 0 -43 -5 -43 -11 0
-5 -7 -10 -15 -10 -8 0 -15 -5 -15 -10 0 -6 7 -13 15 -16 8 -4 15 -11 15 -16
0 -6 -7 -7 -15 -4 -9 3 -23 2 -33 -3 -9 -5 -25 -12 -34 -15 -13 -4 -18 -16
-18 -45 0 -22 4 -42 8 -45 5 -3 7 7 4 22 -4 27 -3 27 57 25 39 -1 59 2 55 9
-4 6 19 9 65 6 39 -1 71 0 71 5 0 4 9 7 20 7 11 0 20 -5 20 -12 0 -17 10 -4
15 21 3 14 -1 21 -13 22 -9 1 -1 5 18 9 29 6 31 8 10 9 -23 2 -24 3 -5 11 18
8 18 9 -5 10 l-25 2 25 8 25 8 -25 2 -25 2 25 8 c22 7 20 8 -15 10 -32 1 -36
3 -20 10 15 6 9 9 -25 8 -38 0 -41 -1 -20 -9 l25 -9 -25 4 c-14 2 -32 6 -40 9
-8 3 -24 2 -35 -2z m42 -97 c-3 -3 -12 -4 -19 -1 -8 3 -5 6 6 6 11 1 17 -2 13
-5z m86 -11 c-7 -2 -19 -2 -25 0 -7 3 -2 5 12 5 14 0 19 -2 13 -5z m-85 -10
c-10 -2 -26 -2 -35 0 -10 3 -2 5 17 5 19 0 27 -2 18 -5z"/>
<path d="M3068 1783 c6 -2 18 -2 25 0 6 3 1 5 -13 5 -14 0 -19 -2 -12 -5z"/>
<path d="M2732 1746 c1 -10 8 -17 13 -17 15 1 12 24 -3 29 -9 3 -13 -2 -10
-12z"/>
<path d="M3086 1695 c-3 -8 -18 -15 -33 -16 -15 0 -23 -2 -18 -5 6 -2 39 0 75
5 52 7 57 9 25 10 -30 1 -36 4 -25 11 13 8 13 10 -1 10 -9 0 -19 -7 -23 -15z"/>
<path d="M1740 1690 c0 -8 9 -28 20 -45 11 -16 20 -40 20 -53 0 -13 4 -20 10
-17 5 3 27 -3 49 -15 34 -17 99 -35 154 -44 7 -1 17 -4 22 -7 6 -3 17 -5 25
-4 8 0 18 -3 21 -8 3 -4 29 -9 58 -11 l52 -2 -3 30 c-3 30 -4 31 -88 42 -47 6
-107 18 -135 26 -64 20 -163 73 -186 101 -13 16 -18 18 -19 7z"/>
<path d="M1940 1685 c27 -16 148 -55 193 -62 23 -4 27 -1 27 19 0 47 -9 50
-145 55 -92 3 -98 2 -75 -12z"/>
<path d="M3038 1693 c6 -2 18 -2 25 0 6 3 1 5 -13 5 -14 0 -19 -2 -12 -5z"/>
<path d="M1112 1518 c-37 -113 -35 -105 -22 -85 6 9 21 17 33 17 26 0 47 17
47 37 0 7 -7 13 -15 13 -8 0 -15 5 -15 11 0 7 10 9 25 5 17 -4 25 -2 25 6 0 7
5 5 11 -5 6 -10 8 -25 5 -33 -3 -8 -1 -14 4 -14 5 0 13 12 16 28 4 15 11 33
17 40 7 9 6 18 -6 29 -13 14 -21 14 -41 5 -16 -7 -28 -8 -31 -2 -15 24 -34 5
-53 -52z m31 27 c-3 -9 -8 -14 -10 -11 -3 3 -2 9 2 15 9 16 15 13 8 -4z"/>
<path d="M1282 1574 c3 -3 -3 -28 -13 -55 -12 -31 -15 -48 -8 -43 8 5 10 2 6
-8 -8 -23 3 -30 20 -13 8 8 11 20 7 27 -5 8 -2 9 9 5 10 -4 17 -1 17 6 0 8 4
7 10 -3 8 -13 11 -13 19 -1 5 8 15 10 22 6 8 -4 -4 9 -26 28 -22 19 -43 33
-47 30 -4 -2 -5 3 -2 11 4 10 1 16 -7 16 -7 0 -10 -2 -7 -6z"/>
<path d="M2848 1503 c6 -2 18 -2 25 0 6 3 1 5 -13 5 -14 0 -19 -2 -12 -5z"/>
<path d="M3271 1494 c0 -11 3 -14 6 -6 3 7 2 16 -1 19 -3 4 -6 -2 -5 -13z"/>
<path d="M1771 1464 c0 -11 3 -14 6 -6 3 7 2 16 -1 19 -3 4 -6 -2 -5 -13z"/>
<path d="M2161 1453 c0 -13 -7 -23 -13 -23 -10 0 -10 -2 0 -8 8 -5 -17 -12
-63 -18 -41 -5 -75 -6 -75 -2 0 4 -10 8 -22 7 -22 0 -22 -1 -3 -10 14 -6 7 -7
-25 -3 -33 4 -41 2 -30 -5 13 -10 13 -11 0 -12 -8 -1 17 -10 55 -20 39 -10 55
-17 38 -16 -39 4 -42 0 -10 -13 17 -7 18 -9 5 -9 -10 -1 -18 -8 -18 -16 0 -8
-8 -15 -17 -15 -25 -1 53 -48 102 -62 22 -6 51 -22 66 -35 14 -13 28 -23 31
-23 4 0 4 42 1 93 -6 103 -20 224 -22 190z m-164 -79 c-3 -3 -12 -4 -19 -1 -8
3 -5 6 6 6 11 1 17 -2 13 -5z"/>
<path d="M2933 1463 c15 -2 37 -2 50 0 12 2 0 4 -28 4 -27 0 -38 -2 -22 -4z"/>
<path d="M2893 1443 c9 -2 25 -2 35 0 9 3 1 5 -18 5 -19 0 -27 -2 -17 -5z"/>
<path d="M1263 1409 c3 -14 0 -32 -9 -43 -22 -30 -16 -45 6 -16 22 28 26 65 9
76 -8 5 -10 0 -6 -17z"/>
<path d="M2903 1423 c9 -2 23 -2 30 0 6 3 -1 5 -18 5 -16 0 -22 -2 -12 -5z"/>
<path d="M1050 1378 c-13 -18 -17 -27 -8 -20 8 7 22 10 30 7 12 -5 14 0 11 19
-3 14 -6 26 -7 26 -1 0 -13 -15 -26 -32z"/>
<path d="M2420 1391 c0 -4 -12 -8 -27 -9 -15 -1 -30 -8 -35 -15 -6 -9 -8 -9
-8 1 0 22 -20 2 -21 -21 0 -21 -1 -21 -9 -2 -8 19 -9 19 -9 -2 -1 -19 4 -23
29 -23 20 0 30 -5 30 -15 0 -8 -7 -15 -16 -15 -8 0 -12 -4 -9 -10 3 -5 -1 -10
-10 -10 -9 0 -26 -10 -39 -22 -12 -13 -39 -37 -59 -54 -37 -31 -37 -32 -13
-38 13 -3 40 1 59 9 19 8 37 11 41 8 3 -4 6 -1 6 5 0 7 7 12 15 12 8 0 15 4
15 8 0 11 61 32 93 32 15 0 27 6 27 13 0 8 4 7 10 -3 8 -12 11 -13 19 -1 7 11
10 11 15 0 5 -11 7 -11 12 -1 3 6 23 12 45 12 37 0 39 2 39 30 0 27 -3 30 -30
30 -16 0 -30 5 -30 10 0 6 -10 10 -22 11 -22 1 -22 1 2 9 23 7 23 8 -10 10
-33 2 -33 3 -10 10 21 7 22 8 5 9 -17 1 -17 3 -5 11 11 7 6 10 -20 11 -19 0
-45 2 -57 3 -13 2 -23 0 -23 -3z"/>
<path d="M1200 1352 c-13 -14 -12 -15 3 -9 15 6 17 3 12 -13 -5 -14 -2 -20 9
-20 19 0 19 8 3 36 -11 20 -13 20 -27 6z"/>
<path d="M1820 1341 c0 -13 6 -21 18 -21 9 0 35 -3 57 -6 35 -5 37 -4 20 7
-11 7 -30 14 -43 15 -13 2 -30 8 -38 15 -11 9 -14 7 -14 -10z"/>
<path d="M1036 1311 c8 -16 22 -32 31 -35 14 -6 13 -3 -3 15 -10 11 -18 23
-16 25 7 11 0 24 -12 24 -12 0 -12 -4 0 -29z"/>
<path d="M1065 1310 c-3 -5 -1 -10 4 -10 6 0 11 5 11 10 0 6 -2 10 -4 10 -3 0
-8 -4 -11 -10z"/>
<path d="M1127 1195 c-22 -47 -21 -71 4 -106 21 -30 76 -65 87 -55 3 3 1 6 -5
6 -5 0 -15 12 -21 26 -7 14 -17 22 -22 19 -6 -3 -10 -1 -10 5 0 6 -5 8 -11 4
-9 -5 -11 12 -7 65 3 39 5 71 4 71 -1 0 -10 -16 -19 -35z"/>
<path d="M1960 1177 c0 -12 55 -59 125 -107 39 -26 80 -58 93 -69 l22 -22 0
26 c0 21 5 25 29 25 55 0 111 34 111 67 0 13 -12 14 -82 9 -80 -6 -147 6 -200
35 -10 5 -28 9 -40 9 -12 0 -30 7 -40 17 -10 9 -18 13 -18 10z"/>
<path d="M1753 1149 c-42 -12 -42 -30 2 -74 26 -26 34 -41 30 -57 -8 -35 9
-54 37 -41 25 11 51 7 42 -8 -3 -5 1 -9 10 -9 8 0 16 -3 18 -8 2 -4 23 -22 47
-40 25 -17 39 -32 31 -32 -8 0 -4 -7 10 -17 14 -9 27 -18 30 -21 6 -5 -30 -32
-44 -32 -5 0 -1 6 10 14 10 8 15 18 11 22 -4 5 -12 2 -16 -5 -10 -16 -32 -6
-26 12 4 11 -41 37 -93 52 -12 3 -20 11 -17 16 3 5 -1 6 -9 3 -9 -3 -16 -1
-16 5 0 6 -16 17 -35 26 -20 8 -43 21 -51 30 -9 8 -22 15 -30 16 -49 3 -72 0
-97 -11 -25 -12 -27 -17 -22 -55 6 -39 5 -41 -32 -60 -21 -11 -44 -19 -50 -18
-8 0 -13 -12 -13 -33 0 -21 -9 -42 -24 -59 l-24 -26 -46 53 c-25 29 -46 48
-46 42 0 -6 14 -23 31 -40 17 -16 47 -51 66 -77 20 -26 68 -72 107 -102 39
-30 85 -65 101 -78 38 -31 154 -77 193 -77 19 0 32 -6 35 -18 7 -19 37 -71 52
-87 6 -6 28 -21 50 -35 38 -22 75 -54 75 -64 0 -2 -8 -2 -19 1 -12 3 -20 -2
-24 -16 -3 -13 -13 -21 -26 -21 -32 0 -36 3 -32 28 2 21 -21 51 -40 52 -4 0
-10 -17 -13 -37 -13 -74 -35 -109 -51 -83 -10 17 -25 11 -18 -8 6 -17 93 -116
93 -106 0 3 30 -11 66 -30 l66 -36 241 1 c133 1 228 4 212 8 -17 4 -49 20 -73
36 -32 21 -42 34 -42 55 0 24 -13 35 -102 90 -57 35 -124 68 -149 74 -44 11
-96 48 -196 144 -19 17 -40 32 -46 33 -7 0 1 5 18 10 27 8 34 4 70 -30 45 -44
91 -72 150 -91 49 -16 199 -91 203 -102 8 -18 22 -6 22 18 0 27 -38 71 -94
109 -17 11 -43 32 -59 48 -16 15 -31 27 -33 27 -3 0 -12 7 -20 15 -21 20 -13
19 41 -7 38 -18 48 -20 55 -9 5 9 15 11 26 6 18 -7 18 -8 -1 -15 -17 -7 -16
-8 8 -7 15 1 27 5 27 10 0 5 11 6 25 3 34 -9 32 9 -5 36 -16 12 -32 29 -35 37
-3 9 -23 25 -45 35 -41 20 -159 115 -128 103 9 -3 34 -9 55 -12 21 -3 48 -8
61 -11 20 -4 22 -1 22 41 0 25 3 45 6 45 3 0 24 -13 47 -28 23 -16 60 -36 82
-46 22 -10 76 -35 120 -56 44 -20 130 -57 190 -80 61 -24 113 -48 117 -54 4
-6 8 -32 8 -57 0 -32 5 -49 15 -53 8 -3 15 -15 15 -26 0 -11 5 -20 11 -20 6 0
24 -11 41 -25 16 -14 42 -28 56 -31 15 -3 37 -7 49 -10 37 -7 52 -30 46 -69
-4 -23 -2 -35 6 -35 16 0 91 -79 91 -96 0 -21 109 -20 112 1 0 8 1 21 2 28 1
6 4 15 8 18 5 3 -4 28 -18 57 -19 39 -52 74 -130 142 -58 49 -99 90 -92 90 8
0 9 3 3 8 -6 4 -18 19 -28 35 -10 15 -22 27 -28 27 -5 0 -42 21 -81 47 -39 25
-78 47 -87 48 -9 1 -50 19 -91 40 -41 22 -95 49 -120 60 -25 11 -96 45 -158
75 -102 50 -112 57 -107 78 3 12 1 22 -5 22 -6 0 -9 4 -6 9 7 11 -79 83 -88
74 -3 -4 -6 -1 -6 5 0 7 -7 12 -15 12 -8 0 -15 5 -15 12 0 6 -3 9 -6 5 -3 -3
-25 14 -48 39 -31 35 -48 45 -73 46 -18 1 -30 5 -27 10 9 14 -13 9 -26 -7 -19
-22 -32 -18 -19 6 13 26 10 28 -143 120 -56 34 -76 39 -115 28z m62 -389 c11
-17 -5 -11 -28 11 l-22 21 22 -11 c12 -6 25 -16 28 -21z m-52 -111 c43 -34 76
-63 73 -66 -10 -10 -118 62 -144 95 -13 17 -21 32 -16 32 5 0 44 -28 87 -61z
m-140 44 c-21 -8 -15 -20 10 -18 12 1 28 -7 35 -17 8 -10 19 -15 25 -11 7 4 5
-2 -3 -12 -9 -11 -10 -16 -2 -11 7 4 12 2 12 -6 0 -9 3 -9 10 2 7 11 10 11 10
2 0 -7 5 -10 12 -6 7 4 8 3 4 -4 -4 -7 -15 -12 -25 -12 -9 0 -22 -5 -28 -11
-7 -7 -12 0 -17 25 -5 26 -12 36 -25 36 -10 0 -24 7 -31 15 -13 16 -6 35 13
34 9 0 9 -2 0 -6z"/>
<path d="M3385 1099 c-10 -15 3 -25 16 -12 7 7 7 13 1 17 -6 3 -14 1 -17 -5z"/>
<path d="M2405 892 c-38 -8 -36 -19 4 -26 49 -8 146 -43 164 -59 6 -7 32 -23
57 -37 25 -13 60 -34 79 -47 19 -13 40 -23 47 -23 8 0 14 -6 14 -12 0 -29 22
-88 30 -83 5 3 14 -4 20 -15 6 -11 17 -20 25 -20 8 0 15 -4 15 -9 0 -5 26 -21
58 -36 31 -16 65 -32 75 -37 10 -5 48 -18 83 -29 74 -23 75 -39 4 -39 -40 0
-48 -3 -44 -15 9 -22 69 -56 107 -60 17 -2 58 -8 90 -13 31 -5 57 -5 57 -1 0
4 25 8 55 8 92 0 101 19 20 45 -30 9 -58 22 -62 29 -5 7 -21 21 -38 31 -16 11
-53 38 -82 62 -28 23 -83 61 -122 83 -38 23 -76 47 -83 54 -15 14 -140 104
-179 129 -25 15 -28 15 -33 1 -6 -14 -9 -14 -24 -1 -9 8 -39 26 -67 39 -59 30
-78 40 -123 64 -33 17 -106 26 -147 17z"/>
<path d="M3370 875 c0 -9 5 -15 11 -13 6 2 11 8 11 13 0 5 -5 11 -11 13 -6 2
-11 -4 -11 -13z"/>
<path d="M3351 864 c0 -11 3 -14 6 -6 3 7 2 16 -1 19 -3 4 -6 -2 -5 -13z"/>
<path d="M3750 795 c0 -19 2 -35 4 -35 2 0 6 16 8 35 2 19 0 35 -4 35 -4 0 -8
-16 -8 -35z"/>
<path d="M3702 764 c-18 -14 -32 -22 -32 -17 0 5 -9 9 -20 9 -13 0 -20 -7 -20
-18 0 -24 -61 -25 -96 -2 -21 14 -29 15 -49 4 -25 -14 -33 -34 -16 -45 5 -3
15 -21 21 -41 15 -43 77 -103 108 -104 12 0 22 -4 22 -9 0 -11 76 3 94 18 21
17 56 93 55 117 -1 15 -3 14 -9 -6 -6 -18 -8 -20 -9 -7 -1 13 -6 17 -20 12
-10 -3 -23 1 -30 8 -8 11 -6 19 9 37 20 23 35 58 28 65 -2 2 -18 -7 -36 -21z
m-82 -114 c0 -5 -7 -10 -16 -10 -8 0 -12 5 -9 10 3 6 10 10 16 10 5 0 9 -4 9
-10z m0 -30 c0 -5 -4 -10 -10 -10 -5 0 -10 5 -10 10 0 6 5 10 10 10 6 0 10 -4
10 -10z"/>
<path d="M3802 495 c-17 -37 -14 -45 4 -12 9 16 14 31 11 33 -2 2 -9 -7 -15
-21z"/>
<path d="M1722 430 c0 -14 2 -19 5 -12 2 6 2 18 0 25 -3 6 -5 1 -5 -13z"/>
<path d="M3737 405 c-4 -8 -15 -12 -27 -10 -15 3 -20 -1 -20 -18 0 -12 -7 -44
-15 -71 -14 -46 -20 -106 -11 -106 2 0 27 12 56 27 52 27 73 50 103 112 22 45
21 54 -4 40 -17 -9 -23 -8 -30 2 -6 11 -11 10 -23 -6 -13 -19 -14 -18 -9 7 5
28 -11 47 -20 23z"/>
<path d="M3510 339 c-24 -10 -59 -46 -60 -62 0 -5 12 1 26 12 15 12 35 21 45
21 11 0 19 5 19 10 0 6 7 10 16 10 8 0 12 5 9 10 -8 12 -22 12 -55 -1z"/>
<path d="M2841 304 c0 -11 3 -14 6 -6 3 7 2 16 -1 19 -3 4 -6 -2 -5 -13z"/>
<path d="M3847 246 c-4 -10 -7 -25 -6 -34 0 -11 4 -9 10 7 5 13 8 29 6 35 -2
5 -6 2 -10 -8z"/>
<path d="M3260 242 c0 -10 22 -32 32 -32 4 0 8 9 8 20 0 13 -7 20 -20 20 -11
0 -20 -4 -20 -8z"/>
<path d="M3573 235 c-8 -22 6 -33 17 -15 13 20 12 30 0 30 -6 0 -13 -7 -17
-15z"/>
<path d="M3365 200 c-18 -20 -17 -20 8 -20 42 0 59 10 46 26 -16 19 -33 17
-54 -6z"/>
<path d="M2855 179 c-13 -40 6 -78 63 -129 52 -45 61 -50 107 -50 28 0 45 4
40 8 -6 4 -24 33 -40 64 -17 32 -36 58 -43 58 -7 0 -10 5 -7 10 3 6 0 10 -8
10 -8 0 -35 11 -60 24 -45 24 -46 24 -52 5z"/>
<path d="M3722 122 c-11 -26 -24 -64 -27 -84 l-6 -38 69 0 c80 0 86 8 75 87
-5 39 -8 43 -34 43 -18 0 -29 5 -29 14 0 8 -6 16 -14 19 -9 4 -20 -11 -34 -41z"/>
<path d="M2400 92 c0 -6 9 -12 20 -15 11 -3 20 -3 20 -1 0 2 -9 8 -20 14 -11
6 -20 7 -20 2z"/>
<path d="M3876 32 c-8 -24 -3 -37 12 -31 4 2 5 15 2 29 l-6 25 -8 -23z"/>
<path d="M1920 16 c0 -9 5 -16 10 -16 6 0 10 4 10 9 0 6 -4 13 -10 16 -5 3
-10 -1 -10 -9z"/>
</g>
</svg>
