<?xml version="1.0" standalone="no"?>
<!DOCTYPE svg PUBLIC "-//W3C//DTD SVG 20010904//EN"
 "http://www.w3.org/TR/2001/REC-SVG-20010904/DTD/svg10.dtd">
<svg version="1.0" xmlns="http://www.w3.org/2000/svg"
 width="231.000000pt" height="218.000000pt" viewBox="0 0 231.000000 218.000000"
 preserveAspectRatio="xMidYMid meet">

<g transform="translate(0.000000,218.000000) scale(0.100000,-0.100000)"
fill="#000000" stroke="none">
<path d="M987 2159 c-50 -12 -123 -63 -148 -102 -33 -55 -62 -159 -65 -232 -1
-38 -7 -87 -12 -107 -11 -41 -6 -160 7 -168 5 -3 14 -23 20 -45 6 -22 19 -56
30 -76 11 -20 23 -53 26 -72 7 -34 5 -38 -24 -54 -32 -19 -37 -26 -46 -83 -3
-19 -11 -40 -17 -47 -5 -7 -7 -20 -4 -29 4 -12 2 -15 -9 -10 -12 4 -13 2 -6
-13 6 -10 7 -22 3 -26 -4 -5 -2 -5 5 -1 7 3 43 -25 88 -69 81 -80 101 -88 155
-60 15 8 39 28 52 45 19 25 34 32 75 37 73 8 151 50 190 101 34 45 52 107 36
123 -6 6 -10 -1 -10 -20 0 -65 -86 -146 -187 -176 -27 -8 -51 -13 -53 -11 -10
10 13 37 36 43 38 9 102 42 129 67 51 45 69 129 36 157 -14 11 -16 26 -10 89
8 103 14 120 41 120 12 0 29 8 36 18 11 14 11 15 -1 5 -16 -15 -60 -17 -60 -4
0 5 6 12 13 14 9 4 8 8 -3 16 -10 7 -11 11 -2 11 6 0 12 7 12 15 0 8 7 15 15
15 16 0 15 -35 -1 -62 -4 -7 2 -5 13 5 11 9 22 15 24 12 3 -2 6 12 7 32 2 20
5 40 7 43 3 4 0 22 -6 39 -11 31 -12 31 -30 15 -20 -18 -27 -6 -8 13 6 6 13
54 16 106 7 117 -8 167 -71 231 -60 61 -94 82 -154 95 -61 13 -91 13 -145 0z
m121 -187 c42 -13 56 -37 27 -48 -21 -9 -19 -51 5 -76 25 -27 25 -38 3 -35
-10 1 -48 -2 -84 -6 -40 -4 -77 -3 -93 3 -29 11 -45 38 -29 49 18 11 25 49 13
71 -10 19 -8 22 11 27 22 6 22 7 3 14 -15 6 -11 8 16 9 19 1 44 5 55 9 11 5
22 5 25 2 3 -4 24 -13 48 -19z m57 -202 c3 -5 -3 -10 -14 -10 -11 0 -23 5 -26
10 -3 6 3 10 14 10 11 0 23 -4 26 -10z m-143 -42 c0 -13 0 -31 0 -41 -1 -10 2
-16 7 -12 5 3 13 0 17 -6 4 -7 9 -7 13 -2 3 5 37 8 74 5 59 -4 67 -7 62 -22
-3 -10 -1 -21 5 -25 15 -9 12 -19 -11 -33 -17 -11 -25 -10 -51 3 -25 12 -34
13 -41 3 -6 -10 -7 -9 -4 3 4 11 -3 21 -20 28 -14 7 -28 9 -31 7 -3 -3 3 -8
12 -12 29 -11 18 -34 -16 -35 -53 -2 -73 2 -81 17 -5 8 -14 12 -20 8 -7 -3 0
4 15 16 17 13 30 35 33 58 4 20 8 43 10 50 7 20 25 13 27 -10z m-66 -10 c4 4
4 2 1 -4 -7 -12 -54 -7 -62 7 -3 4 8 4 24 -1 16 -4 33 -5 37 -2z m-50 -76
c-27 -44 -38 -48 -61 -25 -10 9 -13 19 -7 21 5 1 8 11 5 21 -4 15 2 18 41 18
l45 1 -23 -36z m464 -27 c0 -8 -4 -15 -10 -15 -5 0 -7 7 -4 15 4 8 8 15 10 15
2 0 4 -7 4 -15z m-325 -95 c4 -6 11 -7 17 -4 7 4 8 2 4 -4 -4 -7 -26 -12 -49
-12 -41 0 -42 1 -17 14 32 18 37 18 45 6z m-82 -7 c-7 -2 -19 -2 -25 0 -7 3
-2 5 12 5 14 0 19 -2 13 -5z m149 -86 c-7 -8 -10 -17 -7 -21 3 -3 0 -2 -6 3
-7 6 -25 4 -48 -3 -42 -15 -76 -12 -98 9 -14 14 -7 16 62 14 45 -1 81 3 87 9
16 16 24 6 10 -11z m-28 -102 c-7 -16 -9 -17 -39 -18 -45 0 -65 4 -65 13 0 13
53 13 66 0 8 -8 15 -6 24 5 16 19 21 19 14 0z m-306 -213 c-8 -9 -7 -11 4 -7
9 4 15 0 15 -9 0 -11 -5 -13 -18 -5 -24 12 -32 26 -20 34 6 3 7 13 4 23 -4 13
-2 13 10 -3 11 -14 12 -24 5 -33z"/>
<path d="M325 890 l4 -75 -14 70 -13 70 -2 -55 c-2 -51 -3 -53 -10 -20 l-7 35
-2 -43 c0 -23 8 -75 19 -114 27 -99 25 -125 -5 -64 -13 28 -27 74 -31 103 -4
35 -11 53 -20 53 -8 0 -14 -5 -14 -12 0 -6 -7 -3 -15 8 -8 10 -15 14 -15 7 0
-6 6 -18 13 -25 28 -28 38 -60 32 -99 -4 -21 -11 -41 -16 -45 -14 -8 -10 -54
10 -111 10 -29 14 -50 9 -47 -15 9 -47 80 -59 130 -16 65 -25 73 -33 29 -5
-24 -2 -46 8 -65 12 -26 12 -30 0 -30 -8 0 -14 5 -14 10 0 6 -7 10 -15 10 -20
0 -19 -16 1 -24 9 -4 14 -13 10 -22 -3 -9 -2 -12 5 -9 6 4 9 1 8 -6 -2 -8 5
-29 15 -47 9 -19 15 -36 12 -39 -10 -10 -77 70 -93 110 -14 34 -17 36 -28 20
-18 -27 -44 -174 -55 -313 -8 -115 -7 -159 6 -247 l5 -32 129 0 c117 -1 130 1
130 17 1 9 5 48 10 86 5 42 5 92 -1 128 -8 47 -6 64 6 88 11 20 14 42 9 65 -4
23 -2 35 5 35 6 0 32 19 56 41 25 23 47 40 49 38 9 -10 36 -69 35 -76 -5 -31
4 -33 31 -5 33 35 40 81 15 102 -8 7 -15 18 -15 25 0 14 -40 52 -41 39 -2 -31
-18 41 -18 86 -1 65 -10 102 -22 95 -12 -8 -49 68 -50 102 0 15 -7 44 -14 63
-13 34 -14 32 -10 -40z m-23 -315 c9 -20 9 -20 -6 -1 -9 11 -16 27 -15 35 0
14 1 14 6 1 3 -8 10 -24 15 -35z m-83 -99 c-3 -3 -18 12 -33 32 l-29 37 34
-32 c18 -18 31 -35 28 -37z"/>
<path d="M221 784 c0 -11 3 -14 6 -6 3 7 2 16 -1 19 -3 4 -6 -2 -5 -13z"/>
<path d="M1350 689 c0 -5 5 -7 10 -4 6 3 10 8 10 11 0 2 -4 4 -10 4 -5 0 -10
-5 -10 -11z"/>
<path d="M1450 693 c0 -4 5 -15 10 -23 8 -13 10 -13 10 2 0 9 -4 20 -10 23 -5
3 -10 3 -10 -2z"/>
<path d="M1325 680 c3 -5 8 -10 11 -10 2 0 4 5 4 10 0 6 -5 10 -11 10 -5 0 -7
-4 -4 -10z"/>
<path d="M1298 603 c4 -20 7 -23 10 -10 2 9 8 15 13 12 5 -4 9 -1 9 5 0 6 5 8
10 5 6 -3 10 -1 10 4 0 6 -13 11 -29 11 -26 0 -28 -3 -23 -27z"/>
<path d="M1376 613 c-6 -14 -5 -15 5 -6 7 7 10 15 7 18 -3 3 -9 -2 -12 -12z"/>
<path d="M1400 611 c0 -6 7 -14 16 -18 15 -6 15 -8 -2 -21 -16 -13 -17 -14 -1
-9 10 4 17 1 17 -6 0 -7 5 -4 11 6 6 10 9 19 7 20 -1 1 -13 11 -25 21 -14 11
-23 14 -23 7z"/>
<path d="M1705 511 c5 -23 1 -40 -15 -67 -12 -19 -25 -33 -27 -30 -3 3 -15 -6
-26 -20 -17 -23 -21 -24 -29 -10 -11 20 -28 21 -28 1 0 -11 -7 -13 -29 -9 -16
4 -32 1 -35 -5 -4 -6 -2 -11 3 -11 6 0 11 -4 11 -10 0 -5 -9 -10 -19 -10 -14
0 -18 -5 -14 -20 5 -18 2 -19 -26 -14 -20 4 -31 3 -31 -5 0 -6 -9 -11 -20 -11
-11 0 -20 -5 -20 -11 0 -7 -7 -17 -16 -24 -14 -10 -10 -15 30 -33 25 -12 55
-22 67 -22 32 0 59 -19 59 -40 0 -12 7 -21 18 -22 9 0 24 -2 32 -3 19 -2 51
25 44 36 -3 5 -1 9 4 9 5 0 12 15 15 32 3 18 11 59 16 91 6 31 17 65 26 74 15
15 16 15 13 -3 -2 -13 7 -24 32 -36 20 -10 40 -31 47 -47 12 -28 14 -29 48
-18 23 7 31 13 23 18 -9 6 -9 12 4 26 19 22 15 56 -12 83 l-20 20 -1 -52 c-1
-42 -3 -48 -9 -28 -4 14 -9 45 -9 70 -2 42 -3 44 -16 26 -14 -19 -15 -18 -17
10 -1 20 -3 16 -7 -16 l-6 -45 -22 46 c-13 25 -23 57 -23 72 0 14 -5 29 -11
33 -8 4 -9 -3 -4 -25z"/>
<path d="M1295 506 c-17 -12 -18 -17 -6 -42 12 -27 13 -27 23 -10 8 15 7 22
-5 31 -14 10 -14 12 1 22 9 7 14 12 11 12 -3 1 -14 -5 -24 -13z"/>
<path d="M1410 484 c0 -16 -2 -17 -11 -4 -9 13 -10 12 -5 -3 4 -13 1 -17 -10
-15 -9 2 -20 -7 -25 -20 -8 -22 -8 -22 21 -7 27 14 48 50 36 62 -3 4 -6 -2 -6
-13z"/>
<path d="M1327 443 c-10 -9 -9 -23 1 -23 5 0 9 7 9 15 0 17 -1 18 -10 8z"/>
<path d="M2140 382 c-25 -14 -46 -30 -48 -34 -2 -4 -10 -8 -18 -8 -8 0 -14 -5
-14 -11 0 -5 -4 -7 -10 -4 -5 3 -7 0 -4 -8 7 -20 -51 -45 -118 -51 -66 -5
-124 -30 -95 -41 9 -4 24 -4 32 -1 21 8 125 -99 125 -128 0 -12 -9 -34 -20
-51 -11 -17 -20 -33 -20 -37 0 -5 74 -8 164 -8 l164 0 13 33 c23 55 16 133
-20 217 -51 117 -72 160 -79 160 -4 -1 -27 -13 -52 -28z m44 -14 c-39 -66
-164 -176 -164 -144 0 8 23 34 51 58 28 24 63 55 78 70 27 28 48 37 35 16z"/>
<path d="M397 143 c-11 -11 -8 -143 3 -143 7 0 9 19 5 53 l-6 52 28 -53 c15
-28 33 -52 40 -52 19 0 16 11 -13 53 -14 21 -31 51 -38 68 -7 16 -15 26 -19
22z"/>
</g>
</svg>
